<svg version="1.1" xmlns="http://www.w3.org/2000/svg" width="256" height="256">
<path d="M0 0 C2.58699537 0.00850106 5.17176627 -0.02035115 7.75854492 -0.05200195 C22.06601881 -0.11296779 35.39931369 2.17507674 48.7253418 7.57104492 C49.44987549 7.8574585 50.17440918 8.14387207 50.92089844 8.43896484 C60.65063858 12.43180526 70.0389752 17.61346719 78.7878418 23.44604492 C79.4478418 23.77604492 80.1078418 24.10604492 80.7878418 24.44604492 C81.7778418 25.43604492 81.7778418 25.43604492 82.7878418 26.44604492 C83.4478418 26.77604492 84.1078418 27.10604492 84.7878418 27.44604492 C85.7778418 28.43604492 85.7778418 28.43604492 86.7878418 29.44604492 C87.4478418 29.44604492 88.1078418 29.44604492 88.7878418 29.44604492 C88.7878418 30.10604492 88.7878418 30.76604492 88.7878418 31.44604492 C89.4478418 31.77604492 90.1078418 32.10604492 90.7878418 32.44604492 C91.80813045 33.76391777 92.80755563 35.09815145 93.7878418 36.44604492 C94.4478418 37.10604492 95.1078418 37.76604492 95.7878418 38.44604492 C96.4478418 39.10604492 97.1078418 39.76604492 97.7878418 40.44604492 C98.7778418 40.77604492 99.7678418 41.10604492 100.7878418 41.44604492 C101.45450846 43.77937826 102.12117513 46.11271159 102.7878418 48.44604492 C103.7778418 48.77604492 104.7678418 49.10604492 105.7878418 49.44604492 C107.79529189 51.45349501 108.56320207 52.92472784 109.7878418 55.44604492 C110.5303418 56.68354492 110.5303418 56.68354492 111.2878418 57.94604492 C112.7878418 60.44604492 112.7878418 60.44604492 113.6940918 62.40307617 C114.83680839 64.53750752 116.09329733 65.91781865 117.7878418 67.63354492 C120.76575112 71.00802812 121.62623755 73.7817214 122.35424805 78.16479492 C122.8067599 80.54557801 123.52724614 82.63078545 124.4128418 84.88354492 C125.7878418 88.44604492 125.7878418 88.44604492 125.7878418 90.44604492 C126.4478418 90.77604492 127.1078418 91.10604492 127.7878418 91.44604492 C128.38549805 93.73901367 128.38549805 93.73901367 128.8503418 96.63354492 C129.00631836 97.57584961 129.16229492 98.5181543 129.32299805 99.48901367 C129.47639648 100.46483398 129.62979492 101.4406543 129.7878418 102.44604492 C130.04235107 103.7521875 130.04235107 103.7521875 130.30200195 105.0847168 C130.88800609 109.1390409 130.98790031 113.09319074 131.02612305 117.18432617 C131.03419479 118.02335983 131.04226654 118.86239349 131.05058289 119.72685242 C131.0643727 121.5027768 131.07511752 123.27872711 131.08300781 125.0546875 C131.09443807 126.83764641 131.11474475 128.62057359 131.14453125 130.40332031 C131.34947117 142.70315031 130.22128275 153.62438436 126.7878418 165.44604492 C126.53526611 166.34105713 126.28269043 167.23606934 126.02246094 168.15820312 C125.44793546 170.10147014 124.80990969 172.02571439 124.1628418 173.94604492 C123.75807617 175.17323242 123.35331055 176.40041992 122.9362793 177.66479492 C121.7878418 180.44604492 121.7878418 180.44604492 119.7878418 181.44604492 C120.0353418 181.98229492 120.2828418 182.51854492 120.5378418 183.07104492 C120.92748903 186.77269368 118.99637189 188.60650623 116.7878418 191.44604492 C116.1278418 191.77604492 115.4678418 192.10604492 114.7878418 192.44604492 C114.08109551 193.75857374 113.42599524 195.09883209 112.7878418 196.44604492 C112.10832586 197.65888612 111.42021324 198.86693556 110.7253418 200.07104492 C109.70880936 201.84177884 108.70095042 203.61982767 107.7878418 205.44604492 C105.7878418 207.44604492 105.7878418 207.44604492 102.7878418 208.44604492 C102.07077198 210.42853208 101.40493767 212.43019842 100.7878418 214.44604492 C98.7878418 216.44604492 98.7878418 216.44604492 96.4128418 217.75854492 C93.70939694 219.28278547 93.70939694 219.28278547 92.10424805 221.67651367 C89.15134779 225.20704703 85.79301586 227.72876183 82.1003418 230.44604492 C81.38934326 230.97641357 80.67834473 231.50678223 79.94580078 232.05322266 C75.57761636 235.26750947 71.209409 238.15767636 66.29174805 240.48120117 C64.43841262 241.44812341 64.43841262 241.44812341 63.7878418 244.44604492 C61.3503418 245.44604492 61.3503418 245.44604492 57.7878418 246.44604492 C56.30752709 246.87964457 54.82847572 247.3175683 53.3503418 247.75854492 C52.49569336 248.01120117 51.64104492 248.26385742 50.76049805 248.52416992 C46.03381068 249.99000201 41.36622671 251.63228236 36.6940918 253.26245117 C26.4259742 256.48197075 16.56567157 256.81862512 5.87744141 256.81665039 C3.25510282 256.82099561 0.6344903 256.8573238 -1.98754883 256.89526367 C-16.34712802 256.99195918 -29.57386103 254.82904646 -42.8996582 249.25854492 C-47.32430376 247.45192673 -51.47215963 246.17527547 -56.2121582 245.44604492 C-57.7746582 244.13354492 -57.7746582 244.13354492 -59.2121582 242.44604492 C-62.41727138 239.74758194 -65.67065995 237.50897979 -69.2746582 235.38354492 C-74.4959699 232.1317375 -78.84279164 228.35236316 -83.23974609 224.09033203 C-85.57741753 221.84136776 -87.08628075 220.48800407 -90.2121582 219.44604492 C-90.90072197 218.12388677 -91.56354301 216.78825227 -92.2121582 215.44604492 C-93.5528342 213.93569831 -94.93256081 212.45963596 -96.3371582 211.00854492 C-100.89256938 206.07044977 -104.21523604 200.90339844 -107.58325195 195.13354492 C-109.08196831 192.66084263 -110.41088433 191.04700033 -112.7121582 189.32104492 C-114.58507512 186.97989878 -114.92043605 184.68110964 -115.60083008 181.80883789 C-116.95451338 176.57683029 -118.86416641 171.49793357 -120.64575195 166.39916992 C-124.6690355 154.62286357 -125.58505 143.91038682 -125.58276367 131.53564453 C-125.58710889 128.91330595 -125.62343708 126.29269342 -125.66137695 123.6706543 C-125.75807246 109.31107511 -123.59515974 96.0843421 -118.0246582 82.75854492 C-116.21804001 78.33389936 -114.94138875 74.18604349 -114.2121582 69.44604492 C-112.8996582 67.88354492 -112.8996582 67.88354492 -111.2121582 66.44604492 C-107.80318206 62.56686517 -105.33274479 58.31588571 -102.7355957 53.87963867 C-101.4094974 51.76128164 -100.04630463 49.94136875 -98.3996582 48.07104492 C-96.10537147 45.73319488 -96.10537147 45.73319488 -95.7746582 43.38354492 C-94.78939316 39.98985422 -91.95213979 38.48759983 -89.2121582 36.44604492 C-88.58825195 36.16245117 -87.9643457 35.87885742 -87.3215332 35.58666992 C-84.51736023 34.07033935 -82.55970368 32.04080338 -80.2746582 29.82104492 C-75.16332517 25.06791852 -69.8893915 21.53580693 -63.86450195 18.03979492 C-61.37043873 16.5411531 -59.76761819 15.1403699 -57.9621582 12.88354492 C-56.2121582 11.44604492 -56.2121582 11.44604492 -53.6652832 11.06713867 C-48.4848668 10.13536694 -43.7785645 8.09587045 -38.90356445 6.14916992 C-25.97968655 1.18334492 -13.70202572 -0.06837467 0 0 Z M119.7878418 73.44604492 C120.7878418 75.44604492 120.7878418 75.44604492 120.7878418 75.44604492 Z " fill="#F7931A" transform="translate(125.212158203125,-0.446044921875)"/>
<path d="M0 0 C7.00752865 0.56060229 11.22486781 2.96411792 16.0625 7.9375 C26.45708632 20.81478278 26.44268314 39.26015487 26 55 C26.67482422 54.36384766 26.67482422 54.36384766 27.36328125 53.71484375 C38.84465396 43.24585661 50.19632866 36.60801482 65.8984375 36.46875 C69.60502556 37.10363158 70.78235976 38.00777729 73 41 C73.75 44.75 73.75 44.75 74 48 C73.40832031 47.89300781 72.81664062 47.78601563 72.20703125 47.67578125 C71.41683594 47.55589844 70.62664062 47.43601563 69.8125 47.3125 C69.03519531 47.18488281 68.25789063 47.05726563 67.45703125 46.92578125 C64.15083708 47.02565039 62.58582675 47.964257 60 50 C58.65293255 52.3434979 58.65293255 52.3434979 57.875 55.0625 C57.55015625 56.03960937 57.2253125 57.01671875 56.890625 58.0234375 C56.33055148 59.89526217 55.79547226 61.77493288 55.296875 63.6640625 C53.64291393 69.87603256 51.38654899 74.27059431 47 79 C46.47019531 79.61488281 45.94039062 80.22976562 45.39453125 80.86328125 C42.09783331 84.02898457 39.47353191 85.15796235 34.9296875 85.14453125 C30.92440222 84.96642974 26.97275295 84.53034323 23 84 C25.86440855 86.3979567 28.08794276 87.48740082 31.75 88.1875 C32.94882813 88.42533203 32.94882813 88.42533203 34.171875 88.66796875 C34.77515625 88.77753906 35.3784375 88.88710937 36 89 C35.71998862 93.01349645 35.24236211 94.72035142 32.5625 97.8125 C28.54592101 101.24128694 25.95845156 101.33390887 20.80859375 101.2890625 C15.56515739 100.74940424 10.43034872 98.90177512 6.2578125 95.63671875 C4.6758479 93.5781996 4.51011092 92.19833331 4.3125 89.625 C4.24675781 88.87476563 4.18101563 88.12453125 4.11328125 87.3515625 C4 85 4 85 4.1796875 82.5 C3.94652149 79.2559511 2.80661975 77.91760898 0.8125 75.375 C-5.8697826 66.33426471 -10.5317846 56.39533218 -9 45 C-7.10308937 40.08162585 -4.63154476 35.45226122 -1.7109375 31.0625 C3.65759306 22.41105508 1.33866268 9.66449156 0 0 Z " fill="#FEFCFA" transform="translate(88,105)"/>
<path d="M0 0 C0.73863281 0.22494141 1.47726563 0.44988281 2.23828125 0.68164062 C2.99238281 0.89498047 3.74648437 1.10832031 4.5234375 1.328125 C5.24917969 1.54404297 5.97492188 1.75996094 6.72265625 1.98242188 C7.37459961 2.17618408 8.02654297 2.36994629 8.69824219 2.56958008 C10.83185717 3.52260641 12.00598822 4.56964569 13.48828125 6.36914062 C14.36940833 9.5547539 14.78052178 11.53737911 13.67578125 14.68164062 C12.48828125 16.36914062 12.48828125 16.36914062 10.48828125 17.36914062 C4.49369148 17.83855009 -0.24450578 16.48020915 -5.82421875 14.55664062 C-6.63439453 14.29560547 -7.44457031 14.03457031 -8.27929688 13.765625 C-9.05337891 13.50458984 -9.82746094 13.24355469 -10.625 12.97460938 C-11.32407471 12.73895264 -12.02314941 12.5032959 -12.7434082 12.26049805 C-14.51171875 11.36914062 -14.51171875 11.36914062 -16.51171875 8.36914062 C-17.04920746 2.34926709 -17.04920746 2.34926709 -15.44921875 -0.56835938 C-10.67053931 -3.18892552 -4.94993161 -1.43609127 0 0 Z " fill="#FEFBF8" transform="translate(134.51171875,102.630859375)"/>
<path d="M0 0 C5.62024548 0.82626607 11.92558808 2.29797448 16.5078125 5.78125 C18.36245702 8.3259948 18.16213867 10.46417983 18.02734375 13.51953125 C17.68359375 15.39453125 17.68359375 15.39453125 16.12109375 17.39453125 C10.79340084 19.58025142 5.91021244 18.42363374 0.78515625 16.359375 C0.13289062 16.08222656 -0.519375 15.80507812 -1.19140625 15.51953125 C-1.866875 15.25011719 -2.54234375 14.98070313 -3.23828125 14.703125 C-8.1790307 12.66928236 -8.1790307 12.66928236 -9.31640625 10.39453125 C-9.59107016 7.23589624 -9.54790503 4.98099482 -8.37890625 2.01953125 C-5.66491074 -0.11876824 -3.38664028 -0.15014661 0 0 Z " fill="#FEF9F4" transform="translate(135.31640625,81.60546875)"/>
<path d="M0 0 C5.27518932 0.62832752 10.17485295 1.75492222 15.25 3.3125 C16.30960938 3.61317383 16.30960938 3.61317383 17.390625 3.91992188 C20.45972336 4.85867071 22.67846729 5.67974069 24.97265625 7.96484375 C26.36165839 10.71644115 26.2068937 12.96555903 26 16 C20.61912246 18.80254038 16.98873072 19.36625035 11 18 C10.28070313 17.9278125 9.56140625 17.855625 8.8203125 17.78125 C6.1729282 17.27698632 4.96476271 16.88346218 3 15 C1.36655609 10.05596407 0.60927561 5.15980283 0 0 Z " fill="#FEFCFA" transform="translate(116,120)"/>
<path d="M0 0 C3.07735843 0.87611628 5.57087955 1.88772135 8 4 C9.25111184 6.7501918 9.46344563 9.02419121 9 12 C7.5 14.5 7.5 14.5 5 16 C-0.5411701 16.73185265 -4.16213154 15.46636431 -9 13 C-11 11 -11 11 -11.375 7.625 C-11 4 -11 4 -9.4375 1.5625 C-5.99660184 -0.64320395 -4.04018165 -0.53869089 0 0 Z " fill="#FEF8F4" transform="translate(153,45)"/>
<path d="M0 0 C9.30555556 0.93055556 9.30555556 0.93055556 12.75 4.375 C13.21376812 11.67934783 13.21376812 11.67934783 10.75 15.375 C6.55960502 16.90807133 3.95437063 16.26905609 0 14.5625 C-2.60194255 13.33675495 -4.20062425 12.42437575 -6.25 10.375 C-6.60314229 7.12609093 -6.52783078 4.99603352 -5.1875 2 C-3.25 0.375 -3.25 0.375 0 0 Z " fill="#FEFBF8" transform="translate(142.25,63.625)"/>
<path d="M0 0 C3.3666837 0.30606215 5.56154387 0.7000037 8.375 2.625 C10.62822766 5.91817888 10.49704206 8.09466951 10 12 C8.40098385 14.66502692 7.18062838 14.94781847 4.1875 15.8125 C0.62840444 16.02185856 -1.7187457 15.32812674 -5 14 C-4.0409375 12.7625 -4.0409375 12.7625 -3.0625 11.5 C-0.53586919 7.76808594 -0.30639772 4.44276697 0 0 Z " fill="#FEF7F2" transform="translate(159,90)"/>
<path d="M0 0 C1.48199902 0.44909061 2.96055236 0.90956564 4.4375 1.375 C5.26121094 1.63023438 6.08492187 1.88546875 6.93359375 2.1484375 C9 3 9 3 10 5 C10.45405405 11.24324324 10.45405405 11.24324324 8.875 13.875 C6.19902893 15.48058264 4.11470625 15.81678199 1 16 C-2.375 15.0625 -2.375 15.0625 -5 14 C-4.0409375 12.7625 -4.0409375 12.7625 -3.0625 11.5 C-0.53586919 7.76808594 -0.30639772 4.44276697 0 0 Z " fill="#FEF6F0" transform="translate(161,69)"/>
<path d="M0 0 C1.48199902 0.44909061 2.96055236 0.90956564 4.4375 1.375 C5.26121094 1.63023438 6.08492187 1.88546875 6.93359375 2.1484375 C9 3 9 3 10 5 C10.375 8.375 10.375 8.375 10 12 C7.9375 14.5 7.9375 14.5 5 16 C0.7412375 15.85314612 -1.4423257 15.37178287 -5 13 C-4.360625 12.34 -3.72125 11.68 -3.0625 11 C-0.41087498 7.14309088 -0.31332879 4.62159967 0 0 Z " fill="#FEF8F4" transform="translate(154,110)"/>
<path d="M0 0 C1.9375 1.5 1.9375 1.5 3 3 C2.525625 4.051875 2.05125 5.10375 1.5625 6.1875 C0.30676259 9.10175851 -0.52234381 11.84746914 -1 15 C-3.1875 15.3125 -3.1875 15.3125 -6 15 C-9.30729372 12.50115585 -10.80598648 11.05629585 -11.5625 6.9375 C-11 4 -11 4 -9.4375 1.625 C-6.1005787 -0.5996142 -3.93094707 -0.50030235 0 0 Z " fill="#FEF5ED" transform="translate(132,59)"/>
<path d="M0 0 C0 2.99995128 -0.50614898 4.76959459 -1.5 7.5625 C-2.65539656 10.71103317 -2.65539656 10.71103317 -3 14 C-9.30162703 13.40550688 -9.30162703 13.40550688 -11.9375 11.875 C-13.6712306 8.81547541 -13.42145216 6.43182475 -13 3 C-9.86534916 -2.45156668 -5.39315392 -1.06019265 0 0 Z " fill="#FEF9F5" transform="translate(124,78)"/>
<path d="M0 0 C-0.72123047 0.58587891 -0.72123047 0.58587891 -1.45703125 1.18359375 C-3.43991096 3.51786986 -3.48688733 5.03547764 -3.6875 8.0625 C-3.75324219 8.94035156 -3.81898437 9.81820312 -3.88671875 10.72265625 C-3.95757823 12.14717615 -4 13.57371881 -4 15 C-8.22412504 13.00501412 -12.09000589 10.72580171 -15 7 C-14.9375 3.125 -14.9375 3.125 -14 0 C-9.08131894 -2.85600836 -5.15210681 -1.45920237 0 0 Z " fill="#FEF4EC" transform="translate(117,97)"/>
<path d="M0 0 C0.99 0.33 1.98 0.66 3 1 C4.81975482 6.12839994 2.8599099 10.17684382 1 15 C-2 15 -2 15 -5 14 C-4.34 14 -3.68 14 -3 14 C-3.20496094 13.43667969 -3.40992187 12.87335938 -3.62109375 12.29296875 C-4.10902523 9.34022875 -3.36923612 7.97436987 -2.0625 5.3125 C-0.62898253 2.76692566 -0.62898253 2.76692566 0 0 Z " fill="#F79827" transform="translate(124,78)"/>
<path d="M0 0 C3.3 0.66 6.6 1.32 10 2 C8.6875 4.0625 8.6875 4.0625 6 6 C2.27297245 6.05898893 -1.32357303 5.58315738 -5 5 C-5 4.67 -5 4.34 -5 4 C-1.535 3.505 -1.535 3.505 2 3 C1.34 2.67 0.68 2.34 0 2 C0 1.34 0 0.68 0 0 Z " fill="#F7A03A" transform="translate(146,59)"/>
<path d="M0 0 C2.64 0.99 5.28 1.98 8 3 C6.68 3.33 5.36 3.66 4 4 C4 4.66 4 5.32 4 6 C2.68 6.33 1.36 6.66 0 7 C-0.99 5.68 -1.98 4.36 -3 3 C-2.01 2.01 -1.02 1.02 0 0 Z " fill="#F79728" transform="translate(156,104)"/>
<path d="M0 0 C4.29 0.33 8.58 0.66 13 1 C9.76680553 3.15546298 7.83103042 3.68074747 4 4 C1 2 1 2 0 0 Z " fill="#F7982E" transform="translate(114,190)"/>
<path d="M0 0 C5.53846154 0.49230769 5.53846154 0.49230769 7.875 3.0625 C8.431875 4.0215625 8.431875 4.0215625 9 5 C6.03 4.67 3.06 4.34 0 4 C0 2.68 0 1.36 0 0 Z " fill="#FEF6F1" transform="translate(149,131)"/>
<path d="M0 0 C2.97 0.495 2.97 0.495 6 1 C6 1.66 6 2.32 6 3 C4.02 3.99 2.04 4.98 0 6 C0 4.02 0 2.04 0 0 Z " fill="#FCDFC3" transform="translate(119,142)"/>
<path d="M0 0 C1.32 0.33 2.64 0.66 4 1 C3.67 2.98 3.34 4.96 3 7 C2.01 6.34 1.02 5.68 0 5 C-0.99 5 -1.98 5 -3 5 C-2.34 4.67 -1.68 4.34 -1 4 C-0.34786708 1.97536745 -0.34786708 1.97536745 0 0 Z " fill="#F79A2E" transform="translate(151,111)"/>
<path d="M0 0 C0.66 0.66 1.32 1.32 2 2 C-1.42094242 4.28062828 -2.68187222 4.21925007 -6.6875 4.125 C-8.17830078 4.09792969 -8.17830078 4.09792969 -9.69921875 4.0703125 C-10.45847656 4.04710937 -11.21773438 4.02390625 -12 4 C-12 3.67 -12 3.34 -12 3 C-8.7 3 -5.4 3 -2 3 C-2 2.34 -2 1.68 -2 1 C-1.34 0.67 -0.68 0.34 0 0 Z " fill="#F7952B" transform="translate(118,204)"/>
<path d="M0 0 C-6.625 3.125 -6.625 3.125 -10 2 C-3.375 -1.125 -3.375 -1.125 0 0 Z " fill="#F89F00" transform="translate(181,248)"/>
<path d="M0 0 C1.98 1.65 3.96 3.3 6 5 C3 5 3 5 1.3125 3.625 C0 2 0 2 0 0 Z " fill="#FFB100" transform="translate(29,212)"/>
<path d="M0 0 C1.32 1.32 2.64 2.64 4 4 C2.68 3.34 1.36 2.68 0 2 C0 1.34 0 0.68 0 0 Z " fill="#FF5500" transform="translate(39,222)"/>
<path d="M0 0 C0.66 0.33 1.32 0.66 2 1 C0.68 1.99 -0.64 2.98 -2 4 C-1.34 2.68 -0.68 1.36 0 0 Z " fill="#FF5500" transform="translate(41,30)"/>
<path d="M0 0 C2.475 0.495 2.475 0.495 5 1 C4.01 1.33 3.02 1.66 2 2 C1.34 1.34 0.68 0.68 0 0 Z " fill="#FF8D00" transform="translate(80,249)"/>
<path d="M0 0 C0.33 1.32 0.66 2.64 1 4 C0.01 4.495 0.01 4.495 -1 5 C-0.67 3.35 -0.34 1.7 0 0 Z " fill="#FFA300" transform="translate(250,171)"/>
<path d="M0 0 C1.32 0.33 2.64 0.66 4 1 C3.01 1.495 3.01 1.495 2 2 C1.34 1.34 0.68 0.68 0 0 Z " fill="#FF6608" transform="translate(183,10)"/>
<path d="M0 0 C0.66 0.33 1.32 0.66 2 1 C1.01 1 0.02 1 -1 1 C-0.67 0.67 -0.34 0.34 0 0 Z " fill="#FF9F00" transform="translate(213,225)"/>
<path d="M0 0 C0.99 0.33 1.98 0.66 3 1 C2.01 1 1.02 1 0 1 C0 0.67 0 0.34 0 0 Z " fill="#FF8A00" transform="translate(189,13)"/>
<path d="M0 0 C3 1 3 1 3 1 Z " fill="#FFD400" transform="translate(162,253)"/>
<path d="M0 0 C3 1 3 1 3 1 Z " fill="#D4D400" transform="translate(91,253)"/>
<path d="M0 0 C3 1 3 1 3 1 Z " fill="#FFE200" transform="translate(168,251)"/>
<path d="M0 0 C3 1 3 1 3 1 Z " fill="#FFE200" transform="translate(85,251)"/>
<path d="M0 0 C3 1 3 1 3 1 Z " fill="#FFBF00" transform="translate(77,248)"/>
<path d="" fill="#FFAA00" transform="translate(0,0)"/>
<path d="" fill="#FFB800" transform="translate(0,0)"/>
<path d="" fill="#FFC600" transform="translate(0,0)"/>
<path d="" fill="#FFE200" transform="translate(0,0)"/>
<path d="" fill="#FFE200" transform="translate(0,0)"/>
<path d="" fill="#FF8D00" transform="translate(0,0)"/>
<path d="" fill="#FF7F00" transform="translate(0,0)"/>
<path d="" fill="#FF5500" transform="translate(0,0)"/>
<path d="" fill="#FF7F00" transform="translate(0,0)"/>
<path d="" fill="#FFE200" transform="translate(0,0)"/>
<path d="" fill="#E2AA00" transform="translate(0,0)"/>
<path d="" fill="#FFBF00" transform="translate(0,0)"/>
<path d="" fill="#FFBF00" transform="translate(0,0)"/>
<path d="M0 0 C3 1 3 1 3 1 Z " fill="#D48000" transform="translate(176,7)"/>
<path d="M0 0 C3 1 3 1 3 1 Z " fill="#FF8000" transform="translate(77,7)"/>
<path d="M0 0 C3 1 3 1 3 1 Z " fill="#FF7100" transform="translate(171,5)"/>
<path d="M0 0 C3 1 3 1 3 1 Z " fill="#FF7100" transform="translate(82,5)"/>
<path d="M0 0 C3 1 3 1 3 1 Z " fill="#FFE200" transform="translate(168,4)"/>
<path d="M0 0 C3 1 3 1 3 1 Z " fill="#FFE200" transform="translate(85,4)"/>
<path d="M0 0 C3 1 3 1 3 1 Z " fill="#FF5500" transform="translate(159,1)"/>
<path d="M0 0 C3 1 3 1 3 1 Z " fill="#FF5500" transform="translate(94,1)"/>
<path d="M0 0 C2 1 2 1 2 1 Z " fill="#7F0000" transform="translate(99,255)"/>
<path d="M0 0 C2 1 2 1 2 1 Z " fill="#FF7F00" transform="translate(159,254)"/>
<path d="M0 0 C2 1 2 1 2 1 Z " fill="#FF7F00" transform="translate(95,254)"/>
<path d="M0 0 C2 1 2 1 2 1 Z " fill="#FFBF00" transform="translate(166,252)"/>
<path d="M0 0 C2 1 2 1 2 1 Z " fill="#FFBF00" transform="translate(88,252)"/>
<path d="M0 0 C2 1 2 1 2 1 Z " fill="#FFCC19" transform="translate(75,247)"/>
<path d="M0 0 C2 1 2 1 2 1 Z " fill="#BF8015" transform="translate(181,246)"/>
<path d="M0 0 C2 1 2 1 2 1 Z " fill="#FFBF15" transform="translate(73,246)"/>
<path d="M0 0 C2 1 2 1 2 1 Z " fill="#FF8000" transform="translate(190,241)"/>
<path d="M0 0 C2 1 2 1 2 1 Z " fill="#FF8C19" transform="translate(64,241)"/>
<path d="M0 0 C2 1 2 1 2 1 Z " fill="#7F4000" transform="translate(192,240)"/>
<path d="M0 0 C2 1 2 1 2 1 Z " fill="#FFBF00" transform="translate(207,230)"/>
<path d="M0 0 C2 1 2 1 2 1 Z " fill="#FFBF00" transform="translate(47,230)"/>
<path d="" fill="#956A00" transform="translate(0,0)"/>
<path d="" fill="#7F4000" transform="translate(0,0)"/>
<path d="" fill="#FF4000" transform="translate(0,0)"/>
<path d="" fill="#FF9F00" transform="translate(0,0)"/>
<path d="" fill="#FFCC19" transform="translate(0,0)"/>
<path d="" fill="#FFCC19" transform="translate(0,0)"/>
<path d="" fill="#FF9500" transform="translate(0,0)"/>
<path d="" fill="#FFBF00" transform="translate(0,0)"/>
<path d="" fill="#FFFF00" transform="translate(0,0)"/>
<path d="" fill="#FF0000" transform="translate(0,0)"/>
<path d="" fill="#FF0000" transform="translate(0,0)"/>
<path d="" fill="#FFFF00" transform="translate(0,0)"/>
<path d="" fill="#FFBF00" transform="translate(0,0)"/>
<path d="" fill="#FF9500" transform="translate(0,0)"/>
<path d="" fill="#BFBF00" transform="translate(0,0)"/>
<path d="" fill="#FF8000" transform="translate(0,0)"/>
<path d="" fill="#FF8000" transform="translate(0,0)"/>
<path d="" fill="#FFCC19" transform="translate(0,0)"/>
<path d="" fill="#EABF15" transform="translate(0,0)"/>
<path d="" fill="#FFC60E" transform="translate(0,0)"/>
<path d="" fill="#FF9500" transform="translate(0,0)"/>
<path d="" fill="#FF4000" transform="translate(0,0)"/>
<path d="" fill="#FF4000" transform="translate(0,0)"/>
<path d="" fill="#FFD400" transform="translate(0,0)"/>
<path d="M0 0 C2 1 2 1 2 1 Z " fill="#FFD400" transform="translate(47,25)"/>
<path d="M0 0 C2 1 2 1 2 1 Z " fill="#FF4000" transform="translate(206,24)"/>
<path d="M0 0 C2 1 2 1 2 1 Z " fill="#7F4000" transform="translate(192,15)"/>
<path d="M0 0 C2 1 2 1 2 1 Z " fill="#FF4000" transform="translate(62,15)"/>
<path d="M0 0 C2 1 2 1 2 1 Z " fill="#FF9F00" transform="translate(64,14)"/>
<path d="M0 0 C2 1 2 1 2 1 Z " fill="#FF9500" transform="translate(187,12)"/>
<path d="M0 0 C2 1 2 1 2 1 Z " fill="#FF9515" transform="translate(71,10)"/>
<path d="M0 0 C2 1 2 1 2 1 Z " fill="#FFBF15" transform="translate(181,9)"/>
<path d="M0 0 C2 1 2 1 2 1 Z " fill="#BF8015" transform="translate(73,9)"/>
<path d="M0 0 C2 1 2 1 2 1 Z " fill="#FFCC19" transform="translate(179,8)"/>
<path d="M0 0 C2 1 2 1 2 1 Z " fill="#FFCC19" transform="translate(75,8)"/>
<path d="M0 0 C2 1 2 1 2 1 Z " fill="#FF8000" transform="translate(174,6)"/>
<path d="M0 0 C2 1 2 1 2 1 Z " fill="#FF8000" transform="translate(80,6)"/>
<path d="M0 0 C2 1 2 1 2 1 Z " fill="#FFBF00" transform="translate(166,3)"/>
<path d="M0 0 C2 1 2 1 2 1 Z " fill="#FFBF00" transform="translate(88,3)"/>
<path d="M0 0 C2 1 2 1 2 1 Z " fill="#FF4000" transform="translate(163,2)"/>
<path d="M0 0 C2 1 2 1 2 1 Z " fill="#BFBF00" transform="translate(91,2)"/>
<path d="M0 0 C2 1 2 1 2 1 Z " fill="#7F0000" transform="translate(155,0)"/>
<path d="M0 0 C2 1 2 1 2 1 Z " fill="#FF0000" transform="translate(99,0)"/>
<path d="" fill="#FF0000" transform="translate(0,0)"/>
<path d="" fill="#FF8000" transform="translate(0,0)"/>
<path d="" fill="#FF8000" transform="translate(0,0)"/>
<path d="" fill="#FF8000" transform="translate(0,0)"/>
<path d="" fill="#FF0000" transform="translate(0,0)"/>
<path d="" fill="#FF0000" transform="translate(0,0)"/>
<path d="" fill="#FFFF00" transform="translate(0,0)"/>
<path d="" fill="#FF0000" transform="translate(0,0)"/>
<path d="" fill="#FFFF00" transform="translate(0,0)"/>
<path d="" fill="#FF8000" transform="translate(0,0)"/>
<path d="" fill="#FFAA00" transform="translate(0,0)"/>
<path d="" fill="#FF8000" transform="translate(0,0)"/>
<path d="" fill="#FFAA00" transform="translate(0,0)"/>
<path d="" fill="#FF0000" transform="translate(0,0)"/>
<path d="" fill="#FFAA00" transform="translate(0,0)"/>
<path d="" fill="#FFAA00" transform="translate(0,0)"/>
<path d="" fill="#FF8000" transform="translate(0,0)"/>
<path d="" fill="#FF9900" transform="translate(0,0)"/>
<path d="" fill="#FF8000" transform="translate(0,0)"/>
<path d="" fill="#BF8000" transform="translate(0,0)"/>
<path d="" fill="#FF0000" transform="translate(0,0)"/>
<path d="" fill="#FFFF00" transform="translate(0,0)"/>
<path d="" fill="#FFFF00" transform="translate(0,0)"/>
<path d="" fill="#FF8000" transform="translate(0,0)"/>
<path d="" fill="#FF8000" transform="translate(0,0)"/>
<path d="" fill="#FF8000" transform="translate(0,0)"/>
<path d="" fill="#FF8000" transform="translate(0,0)"/>
<path d="" fill="#FFFF00" transform="translate(0,0)"/>
<path d="" fill="#FF8000" transform="translate(0,0)"/>
<path d="" fill="#FF8000" transform="translate(0,0)"/>
<path d="" fill="#FFBF00" transform="translate(0,0)"/>
<path d="" fill="#FFBF00" transform="translate(0,0)"/>
<path d="" fill="#FF8000" transform="translate(0,0)"/>
<path d="" fill="#FFAA00" transform="translate(0,0)"/>
<path d="" fill="#FFFF00" transform="translate(0,0)"/>
<path d="" fill="#FFAA00" transform="translate(0,0)"/>
<path d="" fill="#BF8000" transform="translate(0,0)"/>
<path d="" fill="#FFAA00" transform="translate(0,0)"/>
<path d="" fill="#808000" transform="translate(0,0)"/>
<path d="" fill="#FF0000" transform="translate(0,0)"/>
<path d="" fill="#FFFF00" transform="translate(0,0)"/>
<path d="" fill="#FF0000" transform="translate(0,0)"/>
<path d="" fill="#FF0000" transform="translate(0,0)"/>
<path d="" fill="#FF8000" transform="translate(0,0)"/>
<path d="" fill="#FF8000" transform="translate(0,0)"/>
<path d="" fill="#FFFF00" transform="translate(0,0)"/>
<path d="" fill="#FF0000" transform="translate(0,0)"/>
<path d="" fill="#FF8000" transform="translate(0,0)"/>
<path d="" fill="#FFFF00" transform="translate(0,0)"/>
<path d="" fill="#FFFF00" transform="translate(0,0)"/>
<path d="" fill="#FFFF00" transform="translate(0,0)"/>
<path d="" fill="#FF8000" transform="translate(0,0)"/>
<path d="" fill="#CC9900" transform="translate(0,0)"/>
<path d="" fill="#FF0000" transform="translate(0,0)"/>
<path d="" fill="#FF0000" transform="translate(0,0)"/>
<path d="" fill="#FF8000" transform="translate(0,0)"/>
<path d="" fill="#FFFF00" transform="translate(0,0)"/>
<path d="" fill="#FF0000" transform="translate(0,0)"/>
<path d="" fill="#FF0000" transform="translate(0,0)"/>
<path d="" fill="#FFFF00" transform="translate(0,0)"/>
<path d="" fill="#FFFF00" transform="translate(0,0)"/>
<path d="" fill="#BF8000" transform="translate(0,0)"/>
<path d="" fill="#FFAA00" transform="translate(0,0)"/>
<path d="" fill="#FFFF00" transform="translate(0,0)"/>
<path d="" fill="#FFAA00" transform="translate(0,0)"/>
<path d="" fill="#FF8000" transform="translate(0,0)"/>
<path d="" fill="#FFAA00" transform="translate(0,0)"/>
<path d="" fill="#FF8000" transform="translate(0,0)"/>
<path d="" fill="#FFBF00" transform="translate(0,0)"/>
<path d="" fill="#FFAA00" transform="translate(0,0)"/>
<path d="" fill="#FF8000" transform="translate(0,0)"/>
<path d="" fill="#FFFF00" transform="translate(0,0)"/>
<path d="" fill="#FF8000" transform="translate(0,0)"/>
<path d="" fill="#FF8000" transform="translate(0,0)"/>
<path d="" fill="#FF8000" transform="translate(0,0)"/>
<path d="" fill="#FF8000" transform="translate(0,0)"/>
<path d="" fill="#FFFF00" transform="translate(0,0)"/>
<path d="" fill="#BF8000" transform="translate(0,0)"/>
<path d="" fill="#FF8000" transform="translate(0,0)"/>
<path d="" fill="#FF8000" transform="translate(0,0)"/>
<path d="" fill="#FFBF00" transform="translate(0,0)"/>
<path d="" fill="#FF8000" transform="translate(0,0)"/>
<path d="" fill="#FFAA00" transform="translate(0,0)"/>
<path d="" fill="#FFAA00" transform="translate(0,0)"/>
<path d="" fill="#AA5500" transform="translate(0,0)"/>
<path d="" fill="#FFFF00" transform="translate(0,0)"/>
<path d="" fill="#FF0000" transform="translate(0,0)"/>
<path d="" fill="#FFFF00" transform="translate(0,0)"/>
<path d="" fill="#FF0000" transform="translate(0,0)"/>
<path d="" fill="#FF8000" transform="translate(0,0)"/>
<path d="" fill="#FF8000" transform="translate(0,0)"/>
</svg>
