<svg width="24" height="24" viewBox="0 0 24 24" fill="none" xmlns="http://www.w3.org/2000/svg">
<path fill-rule="evenodd" clip-rule="evenodd" d="M24 12C24 18.6273 18.6275 24 12 24C5.3726 24 0 18.6273 0 12C0 5.37258 5.3726 0 12 0C18.6275 0 24 5.37258 24 12ZM12.4822 20.3259V8.90955C12.4822 8.63271 12.7066 8.40828 12.9835 8.40828H19.2413C19.8804 8.40828 20.2754 9.10486 19.9476 9.65335L13.4138 20.5833C13.1527 21.02 12.4822 20.8349 12.4822 20.3259ZM11.5178 15.0776V3.66117C11.5178 3.15231 10.8473 2.96719 10.5862 3.40395L4.05241 14.3338C3.72453 14.8823 4.11969 15.5789 4.75869 15.5789H11.0165C11.2934 15.5789 11.5178 15.3544 11.5178 15.0776Z" fill="#90019A"/>
</svg>
