<svg width="24" height="24" viewBox="0 0 24 24" fill="none" xmlns="http://www.w3.org/2000/svg">
<g clip-path="url(#clip0_318_1611)">
<path d="M12 23.5C18.3513 23.5 23.5 18.3513 23.5 12C23.5 5.64873 18.3513 0.5 12 0.5C5.64873 0.5 0.5 5.64873 0.5 12C0.5 18.3513 5.64873 23.5 12 23.5Z" fill="#FF004D" stroke="#FF004D"/>
<path d="M7.24483 14.2527L9.00559 12.4919V12.4841L10.758 14.2448C11.2644 14.7513 11.8837 14.9765 12.4947 14.9765C13.7731 14.9765 15.0028 13.9799 15.0028 12.4841L16.7552 14.2448C17.2616 14.7513 17.8809 14.9765 18.4919 14.9765C19.7703 14.9765 21 13.9799 21 12.4841H19.4964L17.744 10.7317C17.2376 10.2253 16.6104 10 15.9994 10C14.7211 10 13.4992 10.9888 13.4992 12.4841L11.7468 10.7317C11.2404 10.2253 10.6132 10 10.0022 10C8.72387 10 7.50196 10.9888 7.50196 12.4841L3 12.4919C3 13.9955 4.24595 14.9681 5.52432 14.9681C6.13527 14.9681 6.75461 14.7429 7.24483 14.2527Z" fill="white"/>
</g>
<defs>
<clipPath id="clip0_318_1611">
<rect width="24" height="24" fill="white"/>
</clipPath>
</defs>
</svg>
