<svg width="136" height="123" viewBox="0 0 136 123" fill="none" xmlns="http://www.w3.org/2000/svg">
<path d="M30.411 16.7306C30.7373 4.39479 35.0623 -7.90099 43.8801 -17.1505C52.8121 -26.5198 66.3928 -32.8042 85.2138 -32.8042C104.027 -32.8042 119.308 -26.0827 129.89 -14.3507C140.477 -2.61305 146.4 14.1846 146.4 34.4C146.4 54.6155 140.477 71.4139 129.956 83.1519C119.439 94.8842 104.291 101.604 85.7448 101.604C68.0967 101.604 54.5654 96.4791 45.4452 87.2278C36.3237 77.9753 31.5504 64.5304 31.5504 47.7639V38.4401H92.4135V52.928H47.8659H47.3561L47.366 53.4377C47.5447 62.6863 50.272 71.1647 56.3603 77.332C62.4523 83.503 71.8436 87.2934 85.2138 87.2934C99.0654 87.2934 110.47 82.1055 118.405 72.8704C126.334 63.6431 130.761 50.4193 130.761 34.4C130.761 18.3808 126.334 5.15699 118.405 -4.07029C110.47 -13.3054 99.0654 -18.4933 85.2138 -18.4933C71.6904 -18.4933 62.1255 -14.1151 55.8105 -7.42871C49.6141 -0.867813 46.5927 7.86657 45.9809 16.7306H30.411Z" fill="url(#paint0_linear_319_1692)" stroke="#354A51"/>
<defs>
<linearGradient id="paint0_linear_319_1692" x1="88.3999" y1="-155" x2="88.3999" y2="102.104" gradientUnits="userSpaceOnUse">
<stop stop-color="#6EEAB3"/>
<stop offset="1" stop-color="#6EEAB3" stop-opacity="0"/>
</linearGradient>
</defs>
</svg>
