<svg width="158" height="54" viewBox="0 0 158 54" fill="none" xmlns="http://www.w3.org/2000/svg">
<path d="M44.9057 44.9885L63.5326 26.3615V26.2788L82.0709 44.9057C87.4283 50.2632 93.9803 52.6462 100.444 52.6462C113.967 52.6462 126.977 42.1028 126.977 26.2788L145.515 44.9057C150.872 50.2632 157.424 52.6462 163.887 52.6462C177.411 52.6462 190.42 42.1028 190.42 26.2788H174.514L155.975 7.74052C150.618 2.38306 143.983 0 137.52 0C123.996 0 111.07 10.4607 111.07 26.2788L92.5315 7.74052C87.174 2.38306 80.5393 0 74.0761 0C60.5523 0 47.6258 10.4607 47.6258 26.2788L0 26.3615C0 42.2684 13.1808 52.5575 26.7045 52.5575C33.1678 52.5575 39.7197 50.1745 44.9057 44.9885Z" fill="url(#paint0_linear_318_1604)"/>
<defs>
<linearGradient id="paint0_linear_318_1604" x1="86.5" y1="-3" x2="87" y2="77" gradientUnits="userSpaceOnUse">
<stop offset="0.196763" stop-color="#FF004D"/>
<stop offset="1" stop-color="white" stop-opacity="0"/>
</linearGradient>
</defs>
</svg>
