<svg width="34" height="34" viewBox="0 0 34 34" fill="none" xmlns="http://www.w3.org/2000/svg" class="w-5 h-5"><g id="_隔离模式" clip-path="url(#:r6c:)"><path id="Vector" d="M17.0044 27.6529C22.8893 27.6529 27.6601 22.8833 27.6601 16.9998C27.6601 11.1162 22.8893 6.34668 17.0044 6.34668C11.1194 6.34668 6.34863 11.1162 6.34863 16.9998C6.34863 22.8833 11.1194 27.6529 17.0044 27.6529Z" fill="white"></path><path id="Vector_2" d="M23.0277 15.4259C23.2776 13.7434 21.9946 12.8355 20.2367 12.2274L20.8032 9.94522L19.4119 9.5954L18.8537 11.8193C18.4871 11.7277 18.1122 11.6444 17.7373 11.5611L18.2955 9.32053L16.9042 8.9707L16.3377 11.2529C16.0377 11.1863 15.7378 11.1196 15.4462 11.0447L13.53 10.5616L13.1635 12.0442C13.1635 12.0442 14.1965 12.2774 14.1715 12.2941C14.7381 12.4357 14.838 12.8105 14.8214 13.102L13.2634 19.3573C13.1968 19.5322 13.0218 19.7821 12.6302 19.6904C12.6469 19.7071 11.6222 19.4406 11.6222 19.4406L10.9307 21.0315L12.7386 21.4812C13.0718 21.5645 13.4051 21.6562 13.73 21.7394L13.1551 24.0466L14.5464 24.3965L15.113 22.1143C15.4962 22.2142 15.8628 22.3142 16.221 22.4058L15.6545 24.6797L17.0458 25.0295L17.6207 22.7223C19.9951 23.1721 21.778 22.9888 22.5278 20.8482C23.136 19.1241 22.4945 18.1245 21.2531 17.4749C22.1612 17.2666 22.8444 16.6669 23.0277 15.4342V15.4259ZM19.8535 19.882C19.4202 21.6062 16.5126 20.6733 15.5712 20.4401L16.3377 17.3832C17.2791 17.6165 20.3034 18.0829 19.8535 19.882ZM20.2867 15.4009C19.8951 16.9751 17.4791 16.1755 16.6876 15.9756L17.3791 13.202C18.1622 13.3935 20.6949 13.76 20.2867 15.4009Z" fill="black"></path><path id="Vector_3" d="M28.2516 28.2197C30.5594 24.9963 31.3925 20.8899 30.4761 16.9918C30.1595 15.6258 29.6263 14.2932 28.8598 13.0354C27.8601 11.3696 26.552 9.98694 25.0691 8.92912C23.0029 7.44652 20.5785 6.58028 18.0791 6.37205C17.9791 6.37205 17.8875 6.35539 17.7875 6.35539C17.6709 6.35539 17.5542 6.35539 17.4376 6.33873C17.296 6.32207 17.146 6.32207 17.0044 6.32207C16.8628 6.32207 16.6961 6.32207 16.5378 6.33873C16.4629 6.33873 16.3962 6.33873 16.3129 6.33873C16.1879 6.33873 16.0629 6.35539 15.938 6.36372C13.4886 6.60526 11.2141 7.67974 9.45624 9.44554C7.5567 11.3446 6.47363 13.8101 6.34033 16.4588C6.44031 13.7684 7.33176 11.1364 8.92303 8.92912C9.98944 7.43819 11.3641 6.1305 13.0387 5.13099C14.2967 4.37302 15.6297 3.83995 16.9877 3.51511C20.8951 2.59889 25.0191 3.43182 28.2433 5.75568C29.7263 6.82182 31.0259 8.19615 32.0257 9.862C35.7665 16.0756 34.0502 24.055 28.2516 28.2113V28.2197Z" fill="url(#:r68:)"></path><path id="Vector_4" d="M28.2513 28.2197C27.1849 29.7107 25.8019 31.0183 24.1356 32.0179C17.9122 35.7577 9.92245 34.0335 5.76514 28.2364C8.98935 30.5602 13.105 31.3932 17.0124 30.4686C18.3704 30.1521 19.7034 29.619 20.9614 28.8527C22.6277 27.8532 24.0107 26.5455 25.0771 25.0546C26.6683 22.8474 27.5515 20.2153 27.6598 17.525C27.6598 17.3501 27.6764 17.1835 27.6764 17.0169V16.9836C27.6764 16.8003 27.6764 16.6337 27.6598 16.4505C27.5181 13.8101 26.4351 11.3447 24.5439 9.44559C22.786 7.68812 20.5199 6.61365 18.0705 6.36377C20.5698 6.56367 22.9942 7.43824 25.0604 8.92085C26.5517 9.97866 27.8514 11.3613 28.8511 13.0272C29.6093 14.2849 30.1425 15.6176 30.4674 16.9836C31.3839 20.8817 30.5591 24.988 28.243 28.2114L28.2513 28.2197Z" fill="url(#:r69:)"></path><path id="Vector_5" d="M27.6597 17.5329C27.5597 20.2232 26.6683 22.8553 25.077 25.0625C24.0106 26.5535 22.6276 27.8611 20.9613 28.8607C19.7033 29.6186 18.3703 30.1517 17.0123 30.4765C13.1132 31.3927 8.98926 30.5682 5.76505 28.2443C4.27375 27.1865 2.9824 25.8038 1.98264 24.138C-1.76644 17.9077 -0.0335322 9.91994 5.75671 5.77197C3.44062 8.99539 2.60749 13.11 3.53226 17.0081C3.84885 18.3741 4.38205 19.7068 5.14853 20.9645C6.14829 22.6304 7.4563 24.013 8.93927 25.0708C11.1471 26.6617 13.7797 27.5446 16.4708 27.6529C16.6457 27.6529 16.8123 27.6696 16.979 27.6696H17.0123C17.1956 27.6696 17.3622 27.6696 17.5455 27.6529C17.7121 27.6529 17.8787 27.6363 18.037 27.6196C20.4948 27.3864 22.7775 26.3202 24.5521 24.5461C26.4433 22.647 27.5347 20.1816 27.668 17.5329H27.6597Z" fill="url(#:r6a:)"></path><path id="Vector_6" d="M28.2431 5.77193C25.0189 3.44807 20.9032 2.60681 16.9875 3.53136C15.6295 3.84787 14.2965 4.38094 13.0385 5.14723C11.3639 6.14674 9.98924 7.45444 8.92283 8.94537C7.33156 11.1526 6.44844 13.7847 6.34013 16.475C6.34013 16.6499 6.32347 16.8165 6.32347 16.9831V17.0164C6.32347 17.1997 6.32347 17.3662 6.34013 17.5495C6.34013 17.7161 6.3568 17.8827 6.37346 18.0409C6.60674 20.498 7.67314 22.7719 9.45604 24.5544C11.3472 26.4451 13.8133 27.5279 16.4627 27.6612C13.78 27.5612 11.139 26.67 8.93117 25.0791C7.43986 24.0213 6.14018 22.6387 5.14043 20.9728C4.38228 19.7151 3.84908 18.3824 3.52416 17.0164C2.60772 13.1183 3.43251 9.00368 5.74861 5.78026C6.80669 4.28932 8.18968 2.98996 9.85594 1.99045C16.0877 -1.76604 24.0941 -0.03356 28.2431 5.77193Z" fill="url(#:r6b:)"></path></g><defs><linearGradient id=":r68:" x1="6.34033" y1="15.6925" x2="34.0002" y2="15.6925" gradientUnits="userSpaceOnUse"><stop offset="0.33" stop-color="#3FB0FF"></stop><stop offset="0.72" stop-color="#9236EA"></stop><stop offset="1" stop-color="#F29A6B"></stop></linearGradient><linearGradient id=":r69:" x1="5.76514" y1="20.1903" x2="30.8423" y2="20.1903" gradientUnits="userSpaceOnUse"><stop stop-color="#F29A6B"></stop><stop offset="0.6" stop-color="#9236EA"></stop><stop offset="1" stop-color="#3FB0FF"></stop></linearGradient><linearGradient id=":r6a:" x1="-0.000206917" y1="18.3075" x2="27.6597" y2="18.3075" gradientUnits="userSpaceOnUse"><stop stop-color="#F29A6B"></stop><stop offset="0.28" stop-color="#9236EA"></stop><stop offset="0.67" stop-color="#3FB0FF"></stop></linearGradient><linearGradient id=":r6b:" x1="3.16591" y1="13.8263" x2="28.2431" y2="13.8263" gradientUnits="userSpaceOnUse"><stop offset="0.01" stop-color="#3FB0FF"></stop><stop offset="0.4" stop-color="#9236EA"></stop><stop offset="1" stop-color="#F29A6B"></stop></linearGradient><clipPath id=":r6c:"><rect width="34" height="34" fill="white"></rect></clipPath></defs></svg>
