<svg version="1.1" xmlns="http://www.w3.org/2000/svg" width="200" height="200">
<path d="M0 0 C20.44748241 16.32604633 34.83472759 39.82436953 38 66 C40.16586334 94.58939615 33.9780961 120.95627657 15.3671875 143.22265625 C-1.50230834 162.60939953 -25.15100709 176.26901569 -51.06152344 178.23193359 C-80.16330506 179.62086235 -106.43045828 172.43286481 -128.3125 152.625 C-146.97805557 135.06190935 -159.15615723 111.47887597 -160.38671875 85.6953125 C-161.14937369 57.02622856 -153.09791251 31.31998849 -133.22094727 10.1953125 C-97.67948048 -26.27385722 -40.62927646 -30.70410741 0 0 Z " fill="#DFE1F6" transform="translate(161,21)"/>
<path d="M0 0 C20.44748241 16.32604633 34.83472759 39.82436953 38 66 C40.16586334 94.58939615 33.9780961 120.95627657 15.3671875 143.22265625 C-1.50230834 162.60939953 -25.15100709 176.26901569 -51.06152344 178.23193359 C-80.16330506 179.62086235 -106.43045828 172.43286481 -128.3125 152.625 C-146.97805557 135.06190935 -159.15615723 111.47887597 -160.38671875 85.6953125 C-161.14937369 57.02622856 -153.09791251 31.31998849 -133.22094727 10.1953125 C-97.67948048 -26.27385722 -40.62927646 -30.70410741 0 0 Z M-120.45654297 27.65917969 C-135.03039689 45.65400532 -140.8272589 66.25695693 -138.81689453 89.07861328 C-136.73389885 108.26165816 -126.52022162 126.41222932 -112 139 C-101.67006644 147.19638446 -90.55005909 153.01166453 -77.80078125 156.2734375 C-75 157 -75 157 -73 158 C-49.37262598 158.89768217 -25.71600046 152.86617177 -7.8125 136.875 C7.6613178 122.45928516 16.27330816 102.97114602 17.23828125 81.90625 C17.79630446 59.87928006 9.70197279 39.52145491 -5.421875 23.421875 C-16.00234598 13.21704205 -27.76464621 6.57737406 -42 3 C-43.03640625 2.64421875 -44.0728125 2.2884375 -45.140625 1.921875 C-50.3801728 0.6703231 -55.38218289 0.67080903 -60.75 0.6875 C-62.28140625 0.66333008 -62.28140625 0.66333008 -63.84375 0.63867188 C-84.97804681 0.62526179 -106.58791985 11.86113029 -120.45654297 27.65917969 Z " fill="#D0CFEB" transform="translate(161,21)"/>
<path d="M0 0 C3.3043743 1.37773819 4.77738627 2.70837142 6.62890625 5.75390625 C7.10070312 6.51703125 7.5725 7.28015625 8.05859375 8.06640625 C8.55488281 8.89011719 9.05117187 9.71382812 9.5625 10.5625 C10.63578666 12.30396022 11.71002426 14.04483468 12.78515625 15.78515625 C13.32414551 16.66316895 13.86313477 17.54118164 14.41845703 18.44580078 C16.722883 22.16745939 19.10747592 25.83460597 21.5 29.5 C25.54407032 35.72238557 29.53700845 41.97566465 33.5 48.25 C34.00466797 49.04857422 34.50933594 49.84714844 35.02929688 50.66992188 C36.35769164 52.77696866 37.67966597 54.88789703 39 57 C39.6084375 57.96421875 40.216875 58.9284375 40.84375 59.921875 C42 62 42 62 42 64 C41.34 64 40.68 64 40 64 C39.505 65.485 39.505 65.485 39 67 C40.485 67.495 40.485 67.495 42 68 C40.68923027 70.75779253 39.2355054 73.2179199 37.453125 75.6953125 C36.94491211 76.40220215 36.43669922 77.1090918 35.91308594 77.83740234 C35.36426758 78.59230957 34.81544922 79.3472168 34.25 80.125 C33.67797852 80.91471191 33.10595703 81.70442383 32.51660156 82.51806641 C27.2474758 89.74629949 21.76890186 96.80168487 16.25 103.83984375 C8.87856076 113.2403744 8.87856076 113.2403744 2 123 C1.34 123 0.68 123 0 123 C-1.40053089 121.32479602 -2.71897712 119.58076908 -4 117.8125 C-4.82080128 116.69211205 -5.64244293 115.57233936 -6.46484375 114.453125 C-6.88749512 113.87498047 -7.31014648 113.29683594 -7.74560547 112.70117188 C-9.64550187 110.12458992 -11.60380217 107.59455608 -13.5625 105.0625 C-18.16449271 99.09757709 -22.74197096 93.11405855 -27.3125 87.125 C-28.33549194 85.78707397 -28.33549194 85.78707397 -29.37915039 84.42211914 C-31.26112519 81.95427056 -33.13270571 79.47896721 -35 77 C-35.78769775 75.96891113 -35.78769775 75.96891113 -36.59130859 74.91699219 C-40 70.34730888 -40 70.34730888 -40 67 C-39.34 67 -38.68 67 -38 67 C-38 66.01 -38 65.02 -38 64 C-38.66 64 -39.32 64 -40 64 C-38.55140394 58.77210586 -36.16834412 54.8252817 -33.1875 50.375 C-32.18868998 48.85814673 -31.18999687 47.34121647 -30.19140625 45.82421875 C-29.66820801 45.03450684 -29.14500977 44.24479492 -28.60595703 43.43115234 C-25.9207128 39.36613836 -23.27580783 35.27501439 -20.625 31.1875 C-19.5392832 29.51808561 -18.4533432 27.84881636 -17.3671875 26.1796875 C-15.01435394 22.56239654 -12.66606742 18.94219766 -10.3203125 15.3203125 C-9.7226709 14.39839111 -9.1250293 13.47646973 -8.50927734 12.52661133 C-7.35498153 10.74583051 -6.20162898 8.96443783 -5.04931641 7.18237305 C-4.53288574 6.38613525 -4.01645508 5.58989746 -3.484375 4.76953125 C-3.02772461 4.06417236 -2.57107422 3.35881348 -2.10058594 2.63208008 C-1 1 -1 1 0 0 Z " fill="#C07E03" transform="translate(99,39)"/>
<path d="M0 0 C3.3043743 1.37773819 4.77738627 2.70837142 6.62890625 5.75390625 C7.10070312 6.51703125 7.5725 7.28015625 8.05859375 8.06640625 C8.55488281 8.89011719 9.05117187 9.71382812 9.5625 10.5625 C10.63578666 12.30396022 11.71002426 14.04483468 12.78515625 15.78515625 C13.32414551 16.66316895 13.86313477 17.54118164 14.41845703 18.44580078 C16.722883 22.16745939 19.10747592 25.83460597 21.5 29.5 C25.54407032 35.72238557 29.53700845 41.97566465 33.5 48.25 C34.00466797 49.04857422 34.50933594 49.84714844 35.02929688 50.66992188 C36.35769164 52.77696866 37.67966597 54.88789703 39 57 C39.6084375 57.96421875 40.216875 58.9284375 40.84375 59.921875 C42 62 42 62 42 64 C41.34 64 40.68 64 40 64 C39.505 65.485 39.505 65.485 39 67 C40.485 67.495 40.485 67.495 42 68 C40.68923027 70.75779253 39.2355054 73.2179199 37.453125 75.6953125 C36.94491211 76.40220215 36.43669922 77.1090918 35.91308594 77.83740234 C35.36426758 78.59230957 34.81544922 79.3472168 34.25 80.125 C33.67797852 80.91471191 33.10595703 81.70442383 32.51660156 82.51806641 C27.2474758 89.74629949 21.76890186 96.80168487 16.25 103.83984375 C8.87856076 113.2403744 8.87856076 113.2403744 2 123 C1.34 123 0.68 123 0 123 C-1.40053089 121.32479602 -2.71897712 119.58076908 -4 117.8125 C-4.82080128 116.69211205 -5.64244293 115.57233936 -6.46484375 114.453125 C-6.88749512 113.87498047 -7.31014648 113.29683594 -7.74560547 112.70117188 C-9.64550187 110.12458992 -11.60380217 107.59455608 -13.5625 105.0625 C-18.16449271 99.09757709 -22.74197096 93.11405855 -27.3125 87.125 C-28.33549194 85.78707397 -28.33549194 85.78707397 -29.37915039 84.42211914 C-31.26112519 81.95427056 -33.13270571 79.47896721 -35 77 C-35.78769775 75.96891113 -35.78769775 75.96891113 -36.59130859 74.91699219 C-40 70.34730888 -40 70.34730888 -40 67 C-39.34 67 -38.68 67 -38 67 C-38 66.01 -38 65.02 -38 64 C-38.66 64 -39.32 64 -40 64 C-38.55140394 58.77210586 -36.16834412 54.8252817 -33.1875 50.375 C-32.18868998 48.85814673 -31.18999687 47.34121647 -30.19140625 45.82421875 C-29.66820801 45.03450684 -29.14500977 44.24479492 -28.60595703 43.43115234 C-25.9207128 39.36613836 -23.27580783 35.27501439 -20.625 31.1875 C-19.5392832 29.51808561 -18.4533432 27.84881636 -17.3671875 26.1796875 C-15.01435394 22.56239654 -12.66606742 18.94219766 -10.3203125 15.3203125 C-9.7226709 14.39839111 -9.1250293 13.47646973 -8.50927734 12.52661133 C-7.35498153 10.74583051 -6.20162898 8.96443783 -5.04931641 7.18237305 C-4.53288574 6.38613525 -4.01645508 5.58989746 -3.484375 4.76953125 C-3.02772461 4.06417236 -2.57107422 3.35881348 -2.10058594 2.63208008 C-1 1 -1 1 0 0 Z M0 2 C-1.28942865 3.54396487 -1.28942865 3.54396487 -2.546875 5.6015625 C-3.05492676 6.39071045 -3.56297852 7.1798584 -4.08642578 7.99291992 C-4.63540527 8.86150635 -5.18438477 9.73009277 -5.75 10.625 C-6.32347168 11.52001221 -6.89694336 12.41502441 -7.48779297 13.3371582 C-9.33247808 16.22019751 -11.16684145 19.10962047 -13 22 C-14.19495096 23.87653236 -15.39025892 25.75283743 -16.5859375 27.62890625 C-18.35247577 30.40121793 -20.11692283 33.17473097 -21.87426758 35.95288086 C-24.66009224 40.35339165 -27.4708885 44.73113549 -30.36328125 49.0625 C-30.88325684 49.8460083 -31.40323242 50.6295166 -31.93896484 51.43676758 C-32.91368499 52.90075342 -33.89667735 54.35927662 -34.88916016 55.8112793 C-36.00427264 57.49151951 -37.0134543 59.24119057 -38 61 C-36.70703926 64.87888221 -35.39447457 65.18088697 -31.85546875 67.109375 C-30.78490234 67.69976562 -29.71433594 68.29015625 -28.61132812 68.8984375 C-27.48146484 69.50945312 -26.35160156 70.12046875 -25.1875 70.75 C-22.99288836 71.95202795 -20.79887629 73.15515125 -18.60546875 74.359375 C-16.96650635 75.24592773 -16.96650635 75.24592773 -15.29443359 76.15039062 C-13.06497829 77.40208422 -10.86950785 78.71597277 -8.70947266 80.08398438 C-7.66710449 80.74205078 -6.62473633 81.40011719 -5.55078125 82.078125 C-4.16306519 82.98933105 -4.16306519 82.98933105 -2.74731445 83.91894531 C-0.00572536 85.28781144 -0.00572536 85.28781144 3.00415039 84.37304688 C5.93819996 83.02832397 8.70569495 81.59475934 11.484375 79.953125 C12.50273438 79.355 13.52109375 78.756875 14.5703125 78.140625 C15.61960938 77.51671875 16.66890625 76.8928125 17.75 76.25 C18.78382812 75.6415625 19.81765625 75.033125 20.8828125 74.40625 C27.27558152 70.6382199 33.6425174 66.82721159 40 63 C38.85504218 59.98595327 37.66987806 57.25552267 35.890625 54.56640625 C35.47296875 53.92896484 35.0553125 53.29152344 34.625 52.63476562 C34.17125 51.95091797 33.7175 51.26707031 33.25 50.5625 C32.25431908 49.04355129 31.25957394 47.52398887 30.265625 46.00390625 C29.73646484 45.1958252 29.20730469 44.38774414 28.66210938 43.55517578 C25.73812656 39.06011054 22.87239831 34.52812627 20 30 C18.81795145 28.14307439 17.63566147 26.28630243 16.453125 24.4296875 C14.20483992 20.89864626 11.96652353 17.36157129 9.734375 13.8203125 C8.73989002 12.25501344 7.74511501 10.6898986 6.75 9.125 C6.29625 8.39925781 5.8425 7.67351563 5.375 6.92578125 C4.30321352 5.24863388 3.15890488 3.6181746 2 2 C1.34 2 0.68 2 0 2 Z " fill="#C38A15" transform="translate(99,39)"/>
<path d="M0 0 C17.43956302 12.73914598 29.00989286 30.16992616 33.30029297 51.60107422 C36.55787852 72.82744219 30.89610463 94.32141845 18.484375 111.6796875 C5.78291188 127.70614097 -12.23358747 139.51163642 -32.80078125 142.34375 C-37.57377305 142.80750139 -42.34303047 143.20001476 -47.12890625 143.50390625 C-48.01642578 143.56932617 -48.90394531 143.63474609 -49.81835938 143.70214844 C-55.75966067 144.00700172 -59.9818919 143.10709057 -65.37890625 140.69140625 C-66.2915625 140.3871875 -67.20421875 140.08296875 -68.14453125 139.76953125 C-79.62608804 135.94234565 -89.2930867 129.60383898 -98.37890625 121.69140625 C-99.00410156 121.16160156 -99.62929687 120.63179687 -100.2734375 120.0859375 C-114.4856901 107.09279461 -121.55572073 87.03559688 -122.6953125 68.234375 C-123.541718 46.04850874 -115.20466814 26.07095978 -100.37890625 9.69140625 C-73.3994911 -16.98444305 -31.42409524 -21.83401627 0 0 Z M-94.37890625 9.69140625 C-95.06339844 10.28308594 -95.74789062 10.87476562 -96.453125 11.484375 C-108.53525699 22.61702707 -117.22065319 39.5726751 -118.56811523 55.99780273 C-118.64560697 58.33716188 -118.65751846 60.66347595 -118.62890625 63.00390625 C-118.61996338 63.83712402 -118.61102051 64.6703418 -118.60180664 65.52880859 C-118.26851792 83.33989581 -112.83850892 98.91741324 -101.37890625 112.69140625 C-100.59515625 113.67882812 -99.81140625 114.66625 -99.00390625 115.68359375 C-86.94061815 129.50611137 -69.34748012 137.51613646 -51.20947266 138.85107422 C-31.51318062 139.88186822 -12.75662888 135.54966639 2.546875 122.578125 C3.23136719 121.95550781 3.91585937 121.33289063 4.62109375 120.69140625 C5.43964844 119.97597656 6.25820312 119.26054687 7.1015625 118.5234375 C19.68816214 106.85084207 29.1519556 88.17604232 29.95703125 70.87890625 C30.36192547 47.81763622 24.45537119 29.05270378 8.16015625 12.13671875 C-7.16041571 -2.64471285 -26.44268617 -9.89906407 -47.60571289 -9.72753906 C-65.31646049 -9.14468723 -81.23676811 -2.16183568 -94.37890625 9.69140625 Z " fill="#FCD169" transform="translate(144.37890625,35.30859375)"/>
<path d="M0 0 C20.44748241 16.32604633 34.83472759 39.82436953 38 66 C40.16586334 94.58939615 33.9780961 120.95627657 15.3671875 143.22265625 C-1.50230834 162.60939953 -25.15100709 176.26901569 -51.06152344 178.23193359 C-80.16330506 179.62086235 -106.43045828 172.43286481 -128.3125 152.625 C-146.97805557 135.06190935 -159.15615723 111.47887597 -160.38671875 85.6953125 C-161.14937369 57.02622856 -153.09791251 31.31998849 -133.22094727 10.1953125 C-97.67948048 -26.27385722 -40.62927646 -30.70410741 0 0 Z M-130 11 C-130.64195312 11.56976563 -131.28390625 12.13953125 -131.9453125 12.7265625 C-141.74307423 21.61290454 -147.79703226 33.6839265 -152 46 C-152.54721993 47.23604502 -153.10699552 48.46673323 -153.6875 49.6875 C-161.4187639 69.19973747 -158.93345746 97.21354877 -151.04101562 116.32177734 C-141.96184873 136.54237905 -127.13749871 152.93748661 -108 164 C-107.04609375 164.56589844 -106.0921875 165.13179687 -105.109375 165.71484375 C-84.68966959 176.92286641 -57.86539261 178.77884815 -35.4375 173.171875 C-8.8769214 164.1171323 10.84521441 148.22947778 25 124 C25.51820313 123.20464844 26.03640625 122.40929687 26.5703125 121.58984375 C28.38589743 118.30095629 29.4811936 114.8907032 30.5625 111.3125 C30.77068359 110.65572266 30.97886719 109.99894531 31.19335938 109.32226562 C34.38670772 98.96140187 35.38997928 89.22544763 35.375 78.375 C35.37445618 77.71081055 35.37391235 77.04662109 35.37335205 76.36230469 C35.33434228 66.00131053 34.61359358 56.76799515 31 47 C30.38125 45.25009766 30.38125 45.25009766 29.75 43.46484375 C20.43138765 19.55942628 1.83950823 0.896237 -21.40283203 -9.67822266 C-27.46134178 -12.31228928 -33.61740811 -14.32214559 -40 -16 C-40.77988281 -16.22558594 -41.55976562 -16.45117188 -42.36328125 -16.68359375 C-74.16807364 -24.64852449 -107.58205888 -11.14538256 -130 11 Z " fill="#322882" transform="translate(161,21)"/>
<path d="M0 0 C3.3043743 1.37773819 4.77738627 2.70837142 6.62890625 5.75390625 C7.10070312 6.51703125 7.5725 7.28015625 8.05859375 8.06640625 C8.55488281 8.89011719 9.05117187 9.71382812 9.5625 10.5625 C10.63578666 12.30396022 11.71002426 14.04483468 12.78515625 15.78515625 C13.32414551 16.66316895 13.86313477 17.54118164 14.41845703 18.44580078 C16.722883 22.16745939 19.10747592 25.83460597 21.5 29.5 C25.54407032 35.72238557 29.53700845 41.97566465 33.5 48.25 C34.00466797 49.04857422 34.50933594 49.84714844 35.02929688 50.66992188 C36.35769164 52.77696866 37.67966597 54.88789703 39 57 C39.6084375 57.96421875 40.216875 58.9284375 40.84375 59.921875 C42 62 42 62 42 64 C41.34 64 40.68 64 40 64 C39.505 65.485 39.505 65.485 39 67 C40.485 67.495 40.485 67.495 42 68 C41.01 69.98 41.01 69.98 40 72 C39.01 72 38.02 72 37 72 C34.90658954 73.05072119 32.85473304 74.18496356 30.828125 75.359375 C30.2274823 75.70502502 29.6268396 76.05067505 29.00799561 76.40679932 C27.08511177 77.5151797 25.1675368 78.63239949 23.25 79.75 C21.97430188 80.48757368 20.69826365 81.22455944 19.421875 81.9609375 C17.05154995 83.32937337 14.68374161 84.70183463 12.31738281 86.07714844 C11.22264648 86.71168945 10.12791016 87.34623047 9 88 C8.41810913 88.39674927 7.83621826 88.79349854 7.23669434 89.20227051 C4.17586984 91.20637929 2.60877053 92.10777882 -1.05859375 91.45849609 C-4.120288 89.94035521 -7.10705704 88.38137662 -10.0625 86.6640625 C-11.18914062 86.01179688 -12.31578125 85.35953125 -13.4765625 84.6875 C-14.05567383 84.34847656 -14.63478516 84.00945312 -15.23144531 83.66015625 C-16.99213248 82.62960495 -18.75729085 81.60709853 -20.5234375 80.5859375 C-25.78926218 77.52525221 -30.95782007 74.41436737 -36 71 C-35.64518555 71.47091064 -35.29037109 71.94182129 -34.92480469 72.42700195 C-31.58811068 76.86454481 -28.28442963 81.32482448 -25.00048828 85.80151367 C-18.77479912 94.2873798 -12.46885314 102.6978083 -6 111 C-6.33 111.66 -6.66 112.32 -7 113 C-14.82543618 103.75368517 -22.01978529 94.05590236 -29.24658203 84.34082031 C-30.80283488 82.26321626 -32.37640831 80.20147244 -33.96484375 78.1484375 C-34.60292969 77.31880493 -34.60292969 77.31880493 -35.25390625 76.47241211 C-36.35095644 75.04973171 -37.45450204 73.63206644 -38.55859375 72.21484375 C-40 70 -40 70 -40 67 C-39.34 67 -38.68 67 -38 67 C-38 66.01 -38 65.02 -38 64 C-38.66 64 -39.32 64 -40 64 C-38.55140394 58.77210586 -36.16834412 54.8252817 -33.1875 50.375 C-32.18868998 48.85814673 -31.18999687 47.34121647 -30.19140625 45.82421875 C-29.66820801 45.03450684 -29.14500977 44.24479492 -28.60595703 43.43115234 C-25.9207128 39.36613836 -23.27580783 35.27501439 -20.625 31.1875 C-19.5392832 29.51808561 -18.4533432 27.84881636 -17.3671875 26.1796875 C-15.01435394 22.56239654 -12.66606742 18.94219766 -10.3203125 15.3203125 C-9.7226709 14.39839111 -9.1250293 13.47646973 -8.50927734 12.52661133 C-7.35498153 10.74583051 -6.20162898 8.96443783 -5.04931641 7.18237305 C-4.53288574 6.38613525 -4.01645508 5.58989746 -3.484375 4.76953125 C-3.02772461 4.06417236 -2.57107422 3.35881348 -2.10058594 2.63208008 C-1 1 -1 1 0 0 Z M0 2 C-1.28942865 3.54396487 -1.28942865 3.54396487 -2.546875 5.6015625 C-3.05492676 6.39071045 -3.56297852 7.1798584 -4.08642578 7.99291992 C-4.63540527 8.86150635 -5.18438477 9.73009277 -5.75 10.625 C-6.32347168 11.52001221 -6.89694336 12.41502441 -7.48779297 13.3371582 C-9.33247808 16.22019751 -11.16684145 19.10962047 -13 22 C-14.19495096 23.87653236 -15.39025892 25.75283743 -16.5859375 27.62890625 C-18.35247577 30.40121793 -20.11692283 33.17473097 -21.87426758 35.95288086 C-24.66009224 40.35339165 -27.4708885 44.73113549 -30.36328125 49.0625 C-30.88325684 49.8460083 -31.40323242 50.6295166 -31.93896484 51.43676758 C-32.91368499 52.90075342 -33.89667735 54.35927662 -34.88916016 55.8112793 C-36.00427264 57.49151951 -37.0134543 59.24119057 -38 61 C-36.70703926 64.87888221 -35.39447457 65.18088697 -31.85546875 67.109375 C-30.78490234 67.69976562 -29.71433594 68.29015625 -28.61132812 68.8984375 C-27.48146484 69.50945312 -26.35160156 70.12046875 -25.1875 70.75 C-22.99288836 71.95202795 -20.79887629 73.15515125 -18.60546875 74.359375 C-16.96650635 75.24592773 -16.96650635 75.24592773 -15.29443359 76.15039062 C-13.06497829 77.40208422 -10.86950785 78.71597277 -8.70947266 80.08398438 C-7.66710449 80.74205078 -6.62473633 81.40011719 -5.55078125 82.078125 C-4.16306519 82.98933105 -4.16306519 82.98933105 -2.74731445 83.91894531 C-0.00572536 85.28781144 -0.00572536 85.28781144 3.00415039 84.37304688 C5.93819996 83.02832397 8.70569495 81.59475934 11.484375 79.953125 C12.50273438 79.355 13.52109375 78.756875 14.5703125 78.140625 C15.61960938 77.51671875 16.66890625 76.8928125 17.75 76.25 C18.78382812 75.6415625 19.81765625 75.033125 20.8828125 74.40625 C27.27558152 70.6382199 33.6425174 66.82721159 40 63 C38.85504218 59.98595327 37.66987806 57.25552267 35.890625 54.56640625 C35.47296875 53.92896484 35.0553125 53.29152344 34.625 52.63476562 C34.17125 51.95091797 33.7175 51.26707031 33.25 50.5625 C32.25431908 49.04355129 31.25957394 47.52398887 30.265625 46.00390625 C29.73646484 45.1958252 29.20730469 44.38774414 28.66210938 43.55517578 C25.73812656 39.06011054 22.87239831 34.52812627 20 30 C18.81795145 28.14307439 17.63566147 26.28630243 16.453125 24.4296875 C14.20483992 20.89864626 11.96652353 17.36157129 9.734375 13.8203125 C8.73989002 12.25501344 7.74511501 10.6898986 6.75 9.125 C6.29625 8.39925781 5.8425 7.67351563 5.375 6.92578125 C4.30321352 5.24863388 3.15890488 3.6181746 2 2 C1.34 2 0.68 2 0 2 Z " fill="#796EA0" transform="translate(99,39)"/>
<path d="M0 0 C0.33 0 0.66 0 1 0 C1 13.53 1 27.06 1 41 C-19.58008982 50.60404192 -19.58008982 50.60404192 -24.8125 53 C-25.68197266 53.40605469 -26.55144531 53.81210938 -27.44726562 54.23046875 C-28.27548828 54.60816406 -29.10371094 54.98585937 -29.95703125 55.375 C-30.68897705 55.71273437 -31.42092285 56.05046875 -32.17504883 56.3984375 C-34 57 -34 57 -36 56 C-28.18989601 43.43761752 -20.33720623 30.90400287 -12.375 18.4375 C-11.71306641 17.39859619 -11.05113281 16.35969238 -10.36914062 15.28930664 C-7.04273627 10.09328939 -3.71741224 4.92660768 0 0 Z " fill="#FABA01" transform="translate(98,43)"/>
<path d="M0 0 C2.76545268 2.62558045 4.93848827 5.20074505 6.9609375 8.4296875 C7.5082251 9.29698486 8.0555127 10.16428223 8.61938477 11.05786133 C9.19873779 11.98751709 9.77809082 12.91717285 10.375 13.875 C11.62084703 15.85562396 12.86694838 17.83608797 14.11328125 19.81640625 C14.75217285 20.83492676 15.39106445 21.85344727 16.04931641 22.90283203 C17.97071735 25.95350693 19.90934882 28.99238832 21.85546875 32.02734375 C22.47695801 32.99752441 23.09844727 33.96770508 23.73876953 34.96728516 C24.92182736 36.81298207 26.10631238 38.65776525 27.29248047 40.50146484 C30.73891815 45.89513471 33.96477739 51.36437839 37 57 C31.93396874 55.41965876 27.53920169 53.79335489 23 51 C21.13594152 50.28053883 19.2701849 49.56465162 17.390625 48.88671875 C14.46193197 47.80042248 11.57578805 46.62700027 8.6875 45.4375 C7.17736328 44.81681641 7.17736328 44.81681641 5.63671875 44.18359375 C3 43 3 43 0 41 C-0.36076355 39.20297241 -0.36076355 39.20297241 -0.34057617 37.00927734 C-0.34034958 36.18857758 -0.34012299 35.36787781 -0.33988953 34.52230835 C-0.32440567 33.63580597 -0.30892181 32.74930359 -0.29296875 31.8359375 C-0.28872391 30.92872955 -0.28447906 30.02152161 -0.28010559 29.08682251 C-0.26328133 26.18258268 -0.2256226 23.2790309 -0.1875 20.375 C-0.17245799 18.40886417 -0.15876875 16.44271749 -0.14648438 14.4765625 C-0.11336557 9.65077561 -0.06155786 4.82550455 0 0 Z " fill="#DD9B01" transform="translate(101,43)"/>
<path d="M0 0 C25.89100712 6.77194324 48.05597672 23.08587124 62 46 C75.16186442 69.36857028 79.52623863 97.82214294 72.3203125 123.8984375 C64.15547763 150.32440842 46.92412436 172.03591504 22.48046875 185.21484375 C8.05087234 192.61588254 -4.52140707 195.58061982 -20.75 194.6875 C-22.14055252 194.62404225 -23.53117898 194.56218397 -24.921875 194.50195312 C-28.28231334 194.35026667 -31.64112724 194.1826587 -35 194 C-35 193.67 -35 193.34 -35 193 C-33.98184204 192.97812622 -33.98184204 192.97812622 -32.94311523 192.95581055 C-1.8487876 192.21102047 23.63168431 185.92732675 46 163 C57.38161371 150.76248894 65.09672664 137.23104652 69 121 C69.18401367 120.2771582 69.36802734 119.55431641 69.55761719 118.80957031 C71.27561642 111.35878221 71.38552227 103.99694615 71.375 96.375 C71.37445618 95.71081055 71.37391235 95.04662109 71.37335205 94.36230469 C71.33434228 84.00131053 70.61359358 74.76799515 67 65 C66.5875 63.83339844 66.175 62.66679688 65.75 61.46484375 C56.54982115 37.86324857 38.55031866 19.76319352 15.59741211 9.32202148 C6.38340524 5.31536242 -3.11339168 2.69612242 -13 1 C-8.52859657 -1.98093562 -5.13910849 -0.99763026 0 0 Z " fill="#322985" transform="translate(124,3)"/>
<path d="M0 0 C0 12.21 0 24.42 0 37 C-3.97783338 35.40886665 -7.4588431 33.73277455 -11.18359375 31.6640625 C-11.76158218 31.34343842 -12.33957062 31.02281433 -12.93507385 30.69247437 C-14.15193769 30.0164811 -15.36798455 29.3390153 -16.58325195 28.66015625 C-18.42627438 27.63126684 -20.27247997 26.60827954 -22.11914062 25.5859375 C-23.30748746 24.92483098 -24.49564476 24.26338363 -25.68359375 23.6015625 C-26.75150146 23.00682129 -27.81940918 22.41208008 -28.91967773 21.79931641 C-32.04469461 19.97389242 -35.07489415 18.13318093 -38 16 C-38 15.34 -38 14.68 -38 14 C-34.0047382 12.19763302 -30.00301692 10.41006886 -26 8.625 C-24.31197266 7.86316406 -24.31197266 7.86316406 -22.58984375 7.0859375 C-16.75661682 4.4933922 -11.24715494 2.31595162 -5 1 C-2 0 -2 0 0 0 Z " fill="#DB9A02" transform="translate(99,86)"/>
<path d="M0 0 C0.74378906 0.42667969 1.48757812 0.85335937 2.25390625 1.29296875 C13.80908746 7.90957192 25.40551326 14.45252514 37 21 C37 30.24 37 39.48 37 49 C30.53673478 44.69115652 30.53673478 44.69115652 29 40 C27.96289943 38.45578652 26.86707048 36.94996336 25.7265625 35.48046875 C24.74441772 34.20502197 24.74441772 34.20502197 23.74243164 32.90380859 C23.0436792 32.00742676 22.34492676 31.11104492 21.625 30.1875 C20.17799343 28.30889561 18.73138312 26.42998595 17.28515625 24.55078125 C16.56473145 23.61830566 15.84430664 22.68583008 15.10205078 21.72509766 C12.06748553 17.79108867 9.05726047 13.83936411 6.0625 9.875 C5.56121582 9.21910889 5.05993164 8.56321777 4.54345703 7.88745117 C2.56816637 5.27034793 1.04462472 3.13387417 0 0 Z " fill="#F5B604" transform="translate(62,109)"/>
<path d="M0 0 C0.66 0.33 1.32 0.66 2 1 C2 1.66 2 2.32 2 3 C0.60201172 3.67482422 0.60201172 3.67482422 -0.82421875 4.36328125 C-20.40861629 14.11280967 -34.33863081 28.19459429 -42 49 C-48.19149722 67.51644638 -47.4983127 86.57869618 -41 105 C-42.485 105.495 -42.485 105.495 -44 106 C-44 104.68 -44 103.36 -44 102 C-44.66 102 -45.32 102 -46 102 C-46 101.01 -46 100.02 -46 99 C-46.66 99 -47.32 99 -48 99 C-50.98442021 83.38508712 -54.15268244 58.50419085 -46 44 C-45.5875 42.989375 -45.175 41.97875 -44.75 40.9375 C-40.1918424 30.25575694 -34.72185532 22.10701764 -25.8671875 14.61328125 C-24.00443679 13.04602895 -24.00443679 13.04602895 -22.41015625 11.39453125 C-19.98509853 8.99634397 -17.25862971 7.30512235 -13.9375 6.5 C-11.86334796 6.09598179 -11.86334796 6.09598179 -10 4.5 C-7.8986616 2.9239962 -6.52601944 2.55256675 -4 2 C-2.948125 1.443125 -2.948125 1.443125 -1.875 0.875 C-1.25625 0.58625 -0.6375 0.2975 0 0 Z " fill="#F0E4E8" transform="translate(69,25)"/>
<path d="M0 0 C3.3043743 1.37773819 4.77738627 2.70837142 6.62890625 5.75390625 C7.10070312 6.51703125 7.5725 7.28015625 8.05859375 8.06640625 C8.55488281 8.89011719 9.05117187 9.71382812 9.5625 10.5625 C10.63578666 12.30396022 11.71002426 14.04483468 12.78515625 15.78515625 C13.32414551 16.66316895 13.86313477 17.54118164 14.41845703 18.44580078 C16.722883 22.16745939 19.10747592 25.83460597 21.5 29.5 C25.54407032 35.72238557 29.53700845 41.97566465 33.5 48.25 C34.00466797 49.04857422 34.50933594 49.84714844 35.02929688 50.66992188 C36.35769164 52.77696866 37.67966597 54.88789703 39 57 C39.6084375 57.96421875 40.216875 58.9284375 40.84375 59.921875 C42 62 42 62 42 64 C41.34 64 40.68 64 40 64 C39.505 65.485 39.505 65.485 39 67 C40.485 67.495 40.485 67.495 42 68 C41.01 69.98 41.01 69.98 40 72 C39.01 72 38.02 72 37 72 C34.61396729 73.22916837 32.35369625 74.61327764 30.05859375 76.00390625 C29.37925781 76.33261719 28.69992188 76.66132812 28 77 C27.34 76.67 26.68 76.34 26 76 C27.28813342 75.16121545 28.58063256 74.32913217 29.875 73.5 C30.95394531 72.80390625 30.95394531 72.80390625 32.0546875 72.09375 C34 71 34 71 36 71 C35.67 70.01 35.34 69.02 35 68 C31.24572275 70.08019127 27.49208284 72.16152674 23.73901367 74.24389648 C22.46379509 74.95123798 21.18840686 75.65827375 19.9128418 76.36499023 C18.07295098 77.38443774 16.23368538 78.40500544 14.39453125 79.42578125 C13.28956299 80.03848877 12.18459473 80.65119629 11.04614258 81.2824707 C8.02685654 82.91655789 8.02685654 82.91655789 5.4753418 84.78588867 C2.14175095 86.42095596 0.53649695 86.03256202 -3 85 C-6.10864258 83.49707031 -6.10864258 83.49707031 -9.39453125 81.578125 C-9.98618576 81.2362616 -10.57784027 80.89439819 -11.18742371 80.54217529 C-13.06759165 79.45335968 -14.94010569 78.35211928 -16.8125 77.25 C-18.05743942 76.52517653 -19.30287849 75.80121055 -20.54882812 75.078125 C-22.36436592 74.02407563 -24.17940823 72.96925767 -25.99221802 71.91052246 C-30.62475494 69.20577405 -35.29337042 66.57336399 -40 64 C-38.55140394 58.77210586 -36.16834412 54.8252817 -33.1875 50.375 C-32.18868998 48.85814673 -31.18999687 47.34121647 -30.19140625 45.82421875 C-29.66820801 45.03450684 -29.14500977 44.24479492 -28.60595703 43.43115234 C-25.9207128 39.36613836 -23.27580783 35.27501439 -20.625 31.1875 C-19.5392832 29.51808561 -18.4533432 27.84881636 -17.3671875 26.1796875 C-15.01435394 22.56239654 -12.66606742 18.94219766 -10.3203125 15.3203125 C-9.7226709 14.39839111 -9.1250293 13.47646973 -8.50927734 12.52661133 C-7.35498153 10.74583051 -6.20162898 8.96443783 -5.04931641 7.18237305 C-4.53288574 6.38613525 -4.01645508 5.58989746 -3.484375 4.76953125 C-3.02772461 4.06417236 -2.57107422 3.35881348 -2.10058594 2.63208008 C-1 1 -1 1 0 0 Z M0 2 C-1.28942865 3.54396487 -1.28942865 3.54396487 -2.546875 5.6015625 C-3.05492676 6.39071045 -3.56297852 7.1798584 -4.08642578 7.99291992 C-4.63540527 8.86150635 -5.18438477 9.73009277 -5.75 10.625 C-6.32347168 11.52001221 -6.89694336 12.41502441 -7.48779297 13.3371582 C-9.33247808 16.22019751 -11.16684145 19.10962047 -13 22 C-14.19495096 23.87653236 -15.39025892 25.75283743 -16.5859375 27.62890625 C-18.35247577 30.40121793 -20.11692283 33.17473097 -21.87426758 35.95288086 C-24.66009224 40.35339165 -27.4708885 44.73113549 -30.36328125 49.0625 C-30.88325684 49.8460083 -31.40323242 50.6295166 -31.93896484 51.43676758 C-32.91368499 52.90075342 -33.89667735 54.35927662 -34.88916016 55.8112793 C-36.00427264 57.49151951 -37.0134543 59.24119057 -38 61 C-36.70703926 64.87888221 -35.39447457 65.18088697 -31.85546875 67.109375 C-30.78490234 67.69976562 -29.71433594 68.29015625 -28.61132812 68.8984375 C-27.48146484 69.50945312 -26.35160156 70.12046875 -25.1875 70.75 C-22.99288836 71.95202795 -20.79887629 73.15515125 -18.60546875 74.359375 C-16.96650635 75.24592773 -16.96650635 75.24592773 -15.29443359 76.15039062 C-13.06497829 77.40208422 -10.86950785 78.71597277 -8.70947266 80.08398438 C-7.66710449 80.74205078 -6.62473633 81.40011719 -5.55078125 82.078125 C-4.16306519 82.98933105 -4.16306519 82.98933105 -2.74731445 83.91894531 C-0.00572536 85.28781144 -0.00572536 85.28781144 3.00415039 84.37304688 C5.93819996 83.02832397 8.70569495 81.59475934 11.484375 79.953125 C12.50273438 79.355 13.52109375 78.756875 14.5703125 78.140625 C15.61960938 77.51671875 16.66890625 76.8928125 17.75 76.25 C18.78382812 75.6415625 19.81765625 75.033125 20.8828125 74.40625 C27.27558152 70.6382199 33.6425174 66.82721159 40 63 C38.85504218 59.98595327 37.66987806 57.25552267 35.890625 54.56640625 C35.47296875 53.92896484 35.0553125 53.29152344 34.625 52.63476562 C34.17125 51.95091797 33.7175 51.26707031 33.25 50.5625 C32.25431908 49.04355129 31.25957394 47.52398887 30.265625 46.00390625 C29.73646484 45.1958252 29.20730469 44.38774414 28.66210938 43.55517578 C25.73812656 39.06011054 22.87239831 34.52812627 20 30 C18.81795145 28.14307439 17.63566147 26.28630243 16.453125 24.4296875 C14.20483992 20.89864626 11.96652353 17.36157129 9.734375 13.8203125 C8.73989002 12.25501344 7.74511501 10.6898986 6.75 9.125 C6.29625 8.39925781 5.8425 7.67351563 5.375 6.92578125 C4.30321352 5.24863388 3.15890488 3.6181746 2 2 C1.34 2 0.68 2 0 2 Z " fill="#4E3B71" transform="translate(99,39)"/>
<path d="M0 0 C1.32 0 2.64 0 4 0 C9.20299285 18.61453719 13.26598058 40.08742581 4.0625 58.3125 C3.72863281 58.89644531 3.39476562 59.48039062 3.05078125 60.08203125 C0.97536628 63.87024221 -0.44935722 67.97492724 -2 72 C-2.66 72 -3.32 72 -4 72 C-4.103125 72.556875 -4.20625 73.11375 -4.3125 73.6875 C-6.65851977 81.57865741 -13.65598644 86.67271951 -19.5 92.0625 C-20.05558594 92.57876953 -20.61117187 93.09503906 -21.18359375 93.62695312 C-30.30146585 102.04757618 -30.30146585 102.04757618 -35.125 103.75 C-35.78757813 103.99234375 -36.45015625 104.2346875 -37.1328125 104.484375 C-39 105 -39 105 -42 105 C-42.33 104.01 -42.66 103.02 -43 102 C-42.04480469 101.52691406 -41.08960938 101.05382812 -40.10546875 100.56640625 C-20.82079721 90.79887786 -7.44689784 77.02018373 1 57 C2.37819851 52.69425564 3.33292562 48.46701596 4 44 C4.17917969 42.89914063 4.35835937 41.79828125 4.54296875 40.6640625 C6.15278657 27.7580017 4.951115 16.34525088 1 4 C0.65351734 2.67002306 0.31313075 1.33822196 0 0 Z " fill="#F2E4E3" transform="translate(172,70)"/>
<path d="M0 0 C0.99 0 1.98 0 3 0 C3.42152344 1.16144531 3.84304688 2.32289063 4.27734375 3.51953125 C12.77932936 26.123583 27.03310265 43.84317945 48 56 C48.95519531 56.5671875 49.91039062 57.134375 50.89453125 57.71875 C59.68861834 62.54012362 69.27690552 64.81233172 79 67 C79.79374023 67.17869629 80.58748047 67.35739258 81.40527344 67.54150391 C84.20562166 68.03633397 86.89693298 68.21004562 89.73828125 68.31640625 C90.80498047 68.35830078 91.87167969 68.40019531 92.97070312 68.44335938 C94.07349609 68.48267578 95.17628906 68.52199219 96.3125 68.5625 C97.99569336 68.62727539 97.99569336 68.62727539 99.71289062 68.69335938 C102.47514569 68.79914787 105.2374863 68.90123672 108 69 C108 69.66 108 70.32 108 71 C76.58817286 71.9489978 49.66772988 66.30698659 26.1953125 44.22094727 C14.3551926 32.6820164 5.27164835 18.73891167 0 3 C0 2.01 0 1.02 0 0 Z " fill="#2B207E" transform="translate(5,128)"/>
<path d="M0 0 C0.99 0.33 1.98 0.66 3 1 C2.98428955 2.89274658 2.98428955 2.89274658 2.96826172 4.82373047 C2.93213101 9.49394914 2.90912484 14.16415539 2.89013672 18.83447266 C2.88006329 20.85793127 2.86640405 22.88137528 2.84912109 24.90478516 C2.82493153 27.80895589 2.81353051 30.71293461 2.8046875 33.6171875 C2.79436493 34.52556366 2.78404236 35.43393982 2.77340698 36.36984253 C2.77318039 37.63092331 2.77318039 37.63092331 2.77294922 38.91748047 C2.768508 39.65916473 2.76406677 40.400849 2.75949097 41.16500854 C2.84315675 43.24930143 2.84315675 43.24930143 5 45 C4.01 45 3.02 45 2 45 C2 57.54 2 70.08 2 83 C1.34 83 0.68 83 0 83 C0 70.46 0 57.92 0 45 C-2.31 45.99 -4.62 46.98 -7 48 C-7.99 47.67 -8.98 47.34 -10 47 C-7.03 45.68 -4.06 44.36 -1 43 C-1.00785522 41.09939819 -1.00785522 41.09939819 -1.01586914 39.16040039 C-1.03391514 34.4771393 -1.04543053 29.79388129 -1.05493164 25.1105957 C-1.05997278 23.08031702 -1.06680557 21.05004198 -1.07543945 19.01977539 C-1.08751467 16.10822653 -1.09323034 13.1967255 -1.09765625 10.28515625 C-1.10281754 9.3716188 -1.10797882 8.45808136 -1.11329651 7.51686096 C-1.11349168 5.34424573 -1.06211805 3.17172704 -1 1 C-0.67 0.67 -0.34 0.34 0 0 Z " fill="#A8721A" transform="translate(99,41)"/>
<path d="M0 0 C0.99 0.495 0.99 0.495 2 1 C-7.83676855 12.14833768 -24.55452344 18.66684982 -39 21 C-44.26766459 21.19930046 -49.49077267 20.97693484 -54.75 20.6875 C-56.14055252 20.62404225 -57.53117898 20.56218397 -58.921875 20.50195312 C-62.28231334 20.35026667 -65.64112724 20.1826587 -69 20 C-69 19.67 -69 19.34 -69 19 C-68.32122803 18.98541748 -67.64245605 18.97083496 -66.94311523 18.95581055 C-42.71629712 18.3755152 -22.17710755 15.40422554 -1.96875 1.15234375 C-1.3190625 0.77207031 -0.669375 0.39179688 0 0 Z " fill="#2C217E" transform="translate(158,177)"/>
<path d="M0 0 C0.66 0.33 1.32 0.66 2 1 C2 1.66 2 2.32 2 3 C0.60201172 3.67482422 0.60201172 3.67482422 -0.82421875 4.36328125 C-18.65011693 13.2373914 -31.86552323 25.5125528 -40 44 C-40.33 44 -40.66 44 -41 44 C-41.88110831 39.04376575 -40.95433632 36.33548629 -38.125 32.1875 C-17.06223033 4.99875423 -17.06223033 4.99875423 -4 2 C-2.948125 1.443125 -2.948125 1.443125 -1.875 0.875 C-1.25625 0.58625 -0.6375 0.2975 0 0 Z " fill="#F6EBE8" transform="translate(69,25)"/>
<path d="M0 0 C0.66 0.33 1.32 0.66 2 1 C1.42556152 1.55872803 0.85112305 2.11745605 0.25927734 2.69311523 C-2.37694571 5.26639401 -5.0009704 7.85179072 -7.625 10.4375 C-8.52863281 11.31599609 -9.43226562 12.19449219 -10.36328125 13.09960938 C-16.96641144 19.63044252 -22.98668658 26.25889711 -26.1875 35.125 C-26.49558594 35.95 -26.80367187 36.775 -27.12109375 37.625 C-27.41113281 38.40875 -27.70117188 39.1925 -28 40 C-28.97555698 42.34468631 -29.98738627 44.67098843 -31 47 C-33.01471235 41.76174788 -30.10720186 36.89704969 -27.9765625 32.0546875 C-23.25665446 22.12400098 -18.27237655 14.72662218 -9.8671875 7.61328125 C-8.00582312 6.04723979 -8.00582312 6.04723979 -6.41796875 4.40234375 C-4.47810687 2.48385776 -2.42037644 1.24121869 0 0 Z " fill="#E7E1EE" transform="translate(53,32)"/>
<path d="M0 0 C0.33 0.99 0.66 1.98 1 3 C1.66 3 2.32 3 3 3 C9.02376973 22.72067471 8.46095664 46.51141298 -1 65 C-1.37898437 65.804375 -1.75796875 66.60875 -2.1484375 67.4375 C-6.20140689 75.90485006 -6.20140689 75.90485006 -10 79 C-9.42415568 76.61435923 -8.77772405 74.33317216 -8 72 C-7.34 72 -6.68 72 -6 72 C-5.90203125 71.43152344 -5.8040625 70.86304688 -5.703125 70.27734375 C-4.79018471 65.56310897 -3.59546958 62.12995526 -1.015625 58.01953125 C1.17483678 53.66388224 1.98590267 48.74106651 3 44 C3.185625 43.22398438 3.37125 42.44796875 3.5625 41.6484375 C5.48546709 30.00761888 3.94898644 18.73187144 0.875 7.4765625 C0 4 0 4 0 0 Z " fill="#E0D8E9" transform="translate(176,70)"/>
<path d="M0 0 C1.32 0.33 2.64 0.66 4 1 C4.10997314 1.58450928 4.21994629 2.16901855 4.33325195 2.77124023 C5.07648932 5.25568327 6.04843144 6.64560983 7.66796875 8.66015625 C8.22532715 9.36261475 8.78268555 10.06507324 9.35693359 10.78881836 C9.96102051 11.5391333 10.56510742 12.28944824 11.1875 13.0625 C12.45629524 14.66779604 13.7231592 16.27462006 14.98828125 17.8828125 C15.64521973 18.7171582 16.3021582 19.55150391 16.97900391 20.41113281 C20.33534304 24.71055539 23.61700446 29.06327291 26.875 33.4375 C27.48754639 34.24775635 28.10009277 35.0580127 28.73120117 35.89282227 C29.29170166 36.64877686 29.85220215 37.40473145 30.4296875 38.18359375 C30.92710449 38.84931396 31.42452148 39.51503418 31.93701172 40.20092773 C33 42 33 42 33 45 C25.1755076 35.75480031 17.980279 26.05849395 10.75341797 16.34521484 C9.19297047 14.25810001 7.61943392 12.18232924 6.03515625 10.11328125 C5.60976562 9.55568115 5.184375 8.99808105 4.74609375 8.42358398 C3.64732309 6.98598037 2.54453098 5.5514528 1.44140625 4.1171875 C0 2 0 2 0 0 Z " fill="#534177" transform="translate(59,107)"/>
<path d="M0 0 C0.99 0.33 1.98 0.66 3 1 C2.67 14.86 2.34 28.72 2 43 C1.34 43 0.68 43 0 43 C-0.16720754 37.03702281 -0.32780784 31.07391908 -0.48217773 25.1105957 C-0.53568003 23.08027305 -0.59101547 21.04999786 -0.64819336 19.01977539 C-0.7298755 16.10833986 -0.80505001 13.19679947 -0.87890625 10.28515625 C-0.90594131 9.3716188 -0.93297638 8.45808136 -0.96083069 7.51686096 C-1.01273771 5.34515498 -1.01189236 3.17229367 -1 1 C-0.67 0.67 -0.34 0.34 0 0 Z " fill="#BE8819" transform="translate(99,41)"/>
<path d="M0 0 C4.73474097 1.6996506 8.96167111 4.13659027 13.3125 6.625 C14.05306641 7.04523438 14.79363281 7.46546875 15.55664062 7.8984375 C17.37269011 8.92948495 19.18656533 9.96436046 21 11 C20.67 12.32 20.34 13.64 20 15 C16.89489712 13.2099522 13.7910822 11.41768286 10.6875 9.625 C9.36588867 8.86316406 9.36588867 8.86316406 8.01757812 8.0859375 C7.17001953 7.59609375 6.32246094 7.10625 5.44921875 6.6015625 C4.66893311 6.15119629 3.88864746 5.70083008 3.0847168 5.23681641 C1.35675377 4.21165413 -0.32825919 3.11449387 -2 2 C-1.34 2 -0.68 2 0 2 C0 1.34 0 0.68 0 0 Z " fill="#9F9BCA" transform="translate(61,104)"/>
<path d="M0 0 C0.66 0.33 1.32 0.66 2 1 C0.8442468 4.46725961 0.28847149 4.71790649 -2.74609375 6.48046875 C-3.87821289 7.14272461 -3.87821289 7.14272461 -5.03320312 7.81835938 C-5.82662109 8.27017578 -6.62003906 8.72199219 -7.4375 9.1875 C-8.22705078 9.65091797 -9.01660156 10.11433594 -9.83007812 10.59179688 C-15.71788706 14 -15.71788706 14 -18 14 C-17.37636252 11.26184171 -16.60974343 9.47517684 -14.3671875 7.72753906 C-12.27949286 6.44933779 -10.16153651 5.27378863 -8 4.125 C-7.26265625 3.70992188 -6.5253125 3.29484375 -5.765625 2.8671875 C-1.73294368 0.65951524 -1.73294368 0.65951524 0 0 Z " fill="#A6A3CF" transform="translate(134,106)"/>
<path d="M0 0 C11.28158782 2.85764109 11.28158782 2.85764109 13.34375 6.13671875 C13.5603125 6.75160156 13.776875 7.36648438 14 8 C13.47535156 7.82984375 12.95070312 7.6596875 12.41015625 7.484375 C4.04827729 4.86867909 -4.46451854 2.95068428 -13 1 C-8.56641781 -1.95572146 -5.09246626 -0.950138 0 0 Z " fill="#3F3387" transform="translate(124,3)"/>
<path d="M0 0 C15.84 0.495 15.84 0.495 32 1 C32 1.66 32 2.32 32 3 C27.79168132 3.02914348 23.58338878 3.04684712 19.375 3.0625 C17.59029297 3.07506836 17.59029297 3.07506836 15.76953125 3.08789062 C14.61582031 3.09111328 13.46210937 3.09433594 12.2734375 3.09765625 C10.68668213 3.10551147 10.68668213 3.10551147 9.06787109 3.11352539 C5.96637654 2.99875578 3.04652343 2.57696282 0 2 C0 1.34 0 0.68 0 0 Z " fill="#1B0E70" transform="translate(81,196)"/>
<path d="M0 0 C3.96953235 2.19591151 7.7615568 4.49111797 11.5 7.0625 C15.21585624 9.58010414 18.81399967 11.39685094 23 13 C22.01 14.485 22.01 14.485 21 16 C16.545 13.525 16.545 13.525 12 11 C12 10.34 12 9.68 12 9 C10.700625 8.9071875 10.700625 8.9071875 9.375 8.8125 C4.96299977 7.7503518 3.19589071 6.19589071 0 3 C0 2.01 0 1.02 0 0 Z " fill="#F6EAE7" transform="translate(48,159)"/>
<path d="M0 0 C0 3 0 3 -2.59765625 5.9609375 C-3.74483786 7.10678673 -4.90018138 8.24450828 -6.0625 9.375 C-6.62388672 9.93960938 -7.18527344 10.50421875 -7.76367188 11.0859375 C-11.58262161 14.85687758 -15.5629343 17.98166486 -20 21 C-20 18 -20 18 -18.4609375 16.3515625 C-17.77257812 15.78179687 -17.08421875 15.21203125 -16.375 14.625 C-15.64410156 14.01140625 -14.91320312 13.3978125 -14.16015625 12.765625 C-13.44730469 12.18296875 -12.73445312 11.6003125 -12 11 C-8.1436247 7.82940045 -4.48499279 4.58456401 -1 1 C-0.67 0.67 -0.34 0.34 0 0 Z " fill="#E2DBEB" transform="translate(164,150)"/>
<path d="M0 0 C0.66 0.33 1.32 0.66 2 1 C-8.35594636 11.12251314 -8.35594636 11.12251314 -16 13 C-16.99 12.67 -17.98 12.34 -19 12 C-18.18208984 11.56300781 -18.18208984 11.56300781 -17.34765625 11.1171875 C-8.12625721 6.33955538 -8.12625721 6.33955538 0 0 Z " fill="#EFE6EF" transform="translate(149,162)"/>
<path d="M0 0 C0.66 0.33 1.32 0.66 2 1 C1.01 2.485 1.01 2.485 0 4 C1.11375 3.319375 2.2275 2.63875 3.375 1.9375 C5.2734375 0.77734375 5.2734375 0.77734375 7 0 C7.66 0.33 8.32 0.66 9 1 C-1.37357631 7.70387244 -1.37357631 7.70387244 -7 8 C-6.01347016 4.68167234 -5.31268497 3.23451373 -2.5 1.125 C-1.675 0.75375 -0.85 0.3825 0 0 Z " fill="#776DA1" transform="translate(116,116)"/>
<path d="M0 0 C0.66 0.33 1.32 0.66 2 1 C-4.41495451 7.88434143 -11.44453445 11.35277205 -20 15 C-20.33 14.34 -20.66 13.68 -21 13 C-19.98679688 12.48050781 -18.97359375 11.96101562 -17.9296875 11.42578125 C-16.5779249 10.72173823 -15.22637359 10.01728941 -13.875 9.3125 C-13.20984375 8.97283203 -12.5446875 8.63316406 -11.859375 8.28320312 C-7.41041296 5.94967892 -3.75554454 3.34021173 0 0 Z " fill="#F8E8DB" transform="translate(150,159)"/>
<path d="M0 0 C-0.33 0.99 -0.66 1.98 -1 3 C-15.85 2.505 -15.85 2.505 -31 2 C-31 1.67 -31 1.34 -31 1 C-26.95841399 0.83133892 -22.91671968 0.66542437 -18.875 0.5 C-17.73289062 0.45230469 -16.59078125 0.40460938 -15.4140625 0.35546875 C-14.30546875 0.31035156 -13.196875 0.26523438 -12.0546875 0.21875 C-10.53077393 0.1559082 -10.53077393 0.1559082 -8.97607422 0.09179688 C-5.98198857 -0.00055556 -2.99530376 -0.01562088 0 0 Z " fill="#544B97" transform="translate(120,195)"/>
<path d="M0 0 C0.66 0.33 1.32 0.66 2 1 C1.67 1.33 1.34 1.66 1 2 C1.99 2.33 2.98 2.66 4 3 C3.34 4.32 2.68 5.64 2 7 C1.01 7 0.02 7 -1 7 C-3.38603271 8.22916837 -5.64630375 9.61327764 -7.94140625 11.00390625 C-8.62074219 11.33261719 -9.30007812 11.66132812 -10 12 C-10.66 11.67 -11.32 11.34 -12 11 C-10.71186658 10.16121545 -9.41936744 9.32913217 -8.125 8.5 C-7.40570313 8.0359375 -6.68640625 7.571875 -5.9453125 7.09375 C-4 6 -4 6 -2 6 C-2 4.35 -2 2.7 -2 1 C-1.34 0.67 -0.68 0.34 0 0 Z " fill="#62548E" transform="translate(137,104)"/>
<path d="M0 0 C0.33 0 0.66 0 1 0 C1.20496094 0.90363281 1.40992188 1.80726562 1.62109375 2.73828125 C1.89050781 3.91777344 2.15992188 5.09726563 2.4375 6.3125 C2.83775391 8.07013672 2.83775391 8.07013672 3.24609375 9.86328125 C3.95313969 13.00236971 3.95313969 13.00236971 5 16 C4.01 16.33 3.02 16.66 2 17 C2 15.68 2 14.36 2 13 C1.34 13 0.68 13 0 13 C-0.19658808 11.58456585 -0.38187546 10.16755969 -0.5625 8.75 C-0.66691406 7.96109375 -0.77132813 7.1721875 -0.87890625 6.359375 C-1.00027349 3.99467126 -0.69633257 2.2488963 0 0 Z " fill="#F4E4DF" transform="translate(23,114)"/>
<path d="M0 0 C0.98484375 0.10183594 1.9696875 0.20367187 2.984375 0.30859375 C4.10585937 0.43427734 4.10585937 0.43427734 5.25 0.5625 C5.25 0.8925 5.25 1.2225 5.25 1.5625 C-0.03 2.2225 -5.31 2.8825 -10.75 3.5625 C-10.42 2.5725 -10.09 1.5825 -9.75 0.5625 C-6.49454896 -0.80389344 -3.44767963 -0.36939425 0 0 Z " fill="#392E82" transform="translate(86.75,2.4375)"/>
<path d="M0 0 C-1 2 -1 2 -4.25 3.125 C-7.37700635 3.85463482 -9.82622905 4.19234975 -13 4 C-10.84839889 0.77259834 -10.57842455 0.56187085 -7.0625 -0.25 C-6.37285156 -0.42015625 -5.68320313 -0.5903125 -4.97265625 -0.765625 C-3 -1 -3 -1 0 0 Z " fill="#261976" transform="translate(132,193)"/>
<path d="M0 0 C2.375 2.0625 2.375 2.0625 4 4 C2 5 2 5 -0.8203125 4.22265625 C-1.91085938 3.83980469 -3.00140625 3.45695313 -4.125 3.0625 C-5.22070312 2.68222656 -6.31640625 2.30195313 -7.4453125 1.91015625 C-8.28835937 1.60980469 -9.13140625 1.30945313 -10 1 C-6.22007015 -1.10177134 -4.22765419 -1.2330658 0 0 Z " fill="#42388B" transform="translate(134,6)"/>
<path d="M0 0 C0.66 0.33 1.32 0.66 2 1 C2 1.99 2 2.98 2 4 C-4.75 8 -4.75 8 -7 8 C-6.01347016 4.68167234 -5.31268497 3.23451373 -2.5 1.125 C-1.675 0.75375 -0.85 0.3825 0 0 Z " fill="#9994C5" transform="translate(123,112)"/>
<path d="M0 0 C4.29 0 8.58 0 13 0 C12.67 0.66 12.34 1.32 12 2 C7.31090292 3.08209933 4.30902834 3.21980248 0 1 C0 0.67 0 0.34 0 0 Z " fill="#F8EFEF" transform="translate(94,178)"/>
<path d="M0 0 C4.75 1.875 4.75 1.875 7 3 C7 3.99 7 4.98 7 6 C3.17902761 5.46930939 0.93828597 4.50298434 -2 2 C-1.34 2 -0.68 2 0 2 C0 1.34 0 0.68 0 0 Z " fill="#AEABD5" transform="translate(61,104)"/>
<path d="M0 0 C0 2.95274099 -0.43891831 4.49058403 -1.5 7.1875 C-1.7784375 7.90292969 -2.056875 8.61835937 -2.34375 9.35546875 C-2.5603125 9.89816406 -2.776875 10.44085938 -3 11 C-3.66 10.34 -4.32 9.68 -5 9 C-4.82194873 5.61702587 -4.21162756 4.23727939 -1.9375 1.6875 C-1.298125 1.130625 -0.65875 0.57375 0 0 Z " fill="#382F88" transform="translate(11,60)"/>
<path d="M0 0 C1 3 1 3 0.22265625 4.82421875 C-0.8515625 6.54947917 -1.92578125 8.27473958 -3 10 C-3.66 10 -4.32 10 -5 10 C-3.84414715 6.08788267 -2.64465038 3.1254959 0 0 Z " fill="#291F7D" transform="translate(14,51)"/>
<path d="M0 0 C3.63 0.33 7.26 0.66 11 1 C6.8204355 3.78637633 4.85331323 2.79562512 0 2 C0 1.34 0 0.68 0 0 Z " fill="#251978" transform="translate(73,194)"/>
<path d="M0 0 C0.66 0.66 1.32 1.32 2 2 C-0.28242128 6.56484257 -0.88096696 6.95238679 -6 9 C-4.02 6.03 -2.04 3.06 0 0 Z " fill="#F6E5D9" transform="translate(165,142)"/>
<path d="M0 0 C2.3431213 0.25561323 4.67843403 0.59270772 7 1 C7.33 1.66 7.66 2.32 8 3 C5.69 3 3.38 3 1 3 C0.67 2.01 0.34 1.02 0 0 Z " fill="#31257E" transform="translate(120,3)"/>
</svg>
