
<svg width="468" height="463" viewBox="0 0 468 463" fill="none" xmlns="http://www.w3.org/2000/svg">
<rect width="468" height="463" fill="white"/>
<path d="M351.795 230.524C351.795 294.612 298.175 346.565 233.893 346.565C169.611 346.565 116 294.603 116 230.524C116 166.445 169.62 116 233.902 116C298.184 116 351.804 166.436 351.804 230.524H351.795Z" fill="url(#paint0_linear_2_2062)"/>
<path d="M279.408 270.73H272.608C271.082 270.73 269.839 271.965 269.839 273.491V274.364C269.839 275.889 268.595 277.124 267.07 277.124H202.691C200.23 277.124 198.996 274.152 200.733 272.415L227.878 245.349H271.259C271.532 245.349 271.761 244.74 271.761 243.991V235.895C271.761 235.145 271.541 234.537 271.259 234.537H238.725L243.955 229.325C245.04 228.249 245.04 226.503 243.955 225.418L238.646 220.126H271.25C271.523 220.126 271.753 219.518 271.753 218.768V210.672C271.753 209.923 271.532 209.314 271.25 209.314H227.799L224.236 205.76L219.817 201.351L207.885 189.454C206.139 187.716 207.374 184.744 209.843 184.744H267.061C268.587 184.744 269.83 185.979 269.83 187.505V188.378C269.83 189.904 271.074 191.147 272.599 191.147H279.399C280.924 191.147 282.168 189.912 282.168 188.387V175.202C282.168 173.677 280.924 172.442 279.399 172.442H188.448C186.913 172.442 185.679 173.677 185.679 175.202V184.727L185.696 184.744L202.356 201.351L206.774 205.76L210.337 209.314H196.588C196.315 209.314 196.085 209.923 196.085 210.672V218.768C196.085 219.518 196.306 220.126 196.588 220.126H221.175L226.484 225.418C227.569 226.494 227.569 228.24 226.484 229.325L221.255 234.537H196.588C196.315 234.537 196.085 235.145 196.085 235.895V243.991C196.085 244.74 196.306 245.349 196.588 245.349H210.416L186.481 269.213C185.961 269.734 185.67 270.43 185.67 271.162V286.666C185.67 288.192 186.913 289.427 188.439 289.427H279.399C280.924 289.427 282.168 288.192 282.168 286.666V273.482C282.168 271.956 280.924 270.721 279.399 270.721L279.408 270.73Z" fill="white"/>
<defs>
<linearGradient id="paint0_linear_2_2062" x1="337.557" y1="131.371" x2="105.179" y2="168.797" gradientUnits="userSpaceOnUse">
<stop offset="0.48255" stop-color="#1C6BF5"/>
<stop offset="1" stop-color="#1E45B4"/>
</linearGradient>
</defs>
</svg>
