<svg version="1.1" xmlns="http://www.w3.org/2000/svg" width="96" height="80">
<path d="M0 0 C0.725289 -0.00807175 1.450578 -0.01614349 2.19784546 -0.02445984 C3.73262164 -0.03826523 5.26742806 -0.04900318 6.80224609 -0.05688477 C8.35572448 -0.06836208 9.90916476 -0.08874625 11.46240234 -0.1184082 C27.0762501 -0.41617922 27.0762501 -0.41617922 34.45849609 3.27661133 C36.79003248 4.36243798 38.99443065 4.81714831 41.5234375 5.23828125 C42.0184375 6.72328125 42.0184375 6.72328125 42.5234375 8.23828125 C43.5134375 8.56828125 44.5034375 8.89828125 45.5234375 9.23828125 C55.56327271 19.7444476 58.11862178 31.44615918 57.85546875 45.390625 C57.35812776 55.96577265 52.6157938 62.91841796 45.31640625 70.27734375 C43.29850681 72.04143914 43.29850681 72.04143914 43.5234375 74.23828125 C42.9046875 74.36203125 42.2859375 74.48578125 41.6484375 74.61328125 C39.33222918 75.11025481 39.33222918 75.11025481 37.5234375 77.23828125 C32.04227162 80.45137849 26.28221888 80.41731638 20.07421875 80.4765625 C19.26156052 80.48463425 18.44890228 80.49270599 17.61161804 80.50102234 C15.89450178 80.51481638 14.17735863 80.52555934 12.46020508 80.53344727 C10.71956234 80.54494467 8.97895424 80.565361 7.23852539 80.5949707 C-11.20246883 80.90824184 -11.20246883 80.90824184 -19.4765625 76.23828125 C-20.1365625 75.90828125 -20.7965625 75.57828125 -21.4765625 75.23828125 C-29.69712214 69.75790816 -36.00934053 59.71105553 -38.4765625 50.23828125 C-38.79884263 47.15036277 -38.85768873 44.09152112 -38.8515625 40.98828125 C-38.84995117 40.14434814 -38.84833984 39.30041504 -38.84667969 38.4309082 C-38.60074013 25.92536373 -32.72889551 17.05900817 -24.4140625 7.98828125 C-22.4765625 6.23828125 -22.4765625 6.23828125 -19.4765625 5.23828125 C-17.47044018 4.24963781 -15.49260836 3.21393534 -13.51171875 2.17578125 C-9.0947667 0.14110084 -4.80351502 0.05129913 0 0 Z " fill="#111110" transform="translate(38.4765625,-0.23828125)"/>
<path d="M0 0 C1.23877155 1.04839192 2.44797208 2.13273288 3.625 3.25 C4.23988281 3.82492187 4.85476562 4.39984375 5.48828125 4.9921875 C12.45688364 12.1846208 15.89118374 20.49941325 16.0625 30.5 C15.57611984 42.16032432 11.89544363 51.79159175 3.625 60.25 C-2.0920482 64.90626777 -7.11046283 67.09689886 -14.375 68.25 C-15.04654933 66.96086513 -15.71208859 65.66859796 -16.375 64.375 C-16.74625 63.65570313 -17.1175 62.93640625 -17.5 62.1953125 C-18.375 60.25 -18.375 60.25 -18.375 58.25 C-17.385 58.25 -16.395 58.25 -15.375 58.25 C-15.375 57.59 -15.375 56.93 -15.375 56.25 C-17.025 55.59 -18.675 54.93 -20.375 54.25 C-17.61276722 51.48776722 -15.16793383 51.67143709 -11.375 51.25 C-11.375 50.26 -11.375 49.27 -11.375 48.25 C-9.625 46.86328125 -9.625 46.86328125 -7.375 45.5625 C-6.6325 45.12550781 -5.89 44.68851563 -5.125 44.23828125 C-4.25875 43.74908203 -4.25875 43.74908203 -3.375 43.25 C-4.035 43.25 -4.695 43.25 -5.375 43.25 C-6.035 42.92 -6.695 42.59 -7.375 42.25 C-6.611875 41.59 -5.84875 40.93 -5.0625 40.25 C-1.80723306 37.04097265 -0.76043586 33.55214295 0.625 29.25 C-0.035 29.25 -0.695 29.25 -1.375 29.25 C-2.035 30.57 -2.695 31.89 -3.375 33.25 C-4.035 33.25 -4.695 33.25 -5.375 33.25 C-6.125 31.5625 -6.125 31.5625 -6.375 29.25 C-5.07364875 27.55824337 -3.73744796 25.89295195 -2.375 24.25 C-1.58553391 21.56492671 -1.58553391 21.56492671 -1.375 19.25 C-2.035 19.25 -2.695 19.25 -3.375 19.25 C-7.375 12.625 -7.375 12.625 -7.375 9.25 C-9.88583114 10.50541557 -10.24625446 11.75063488 -11.375 14.25 C-12.695 14.25 -14.015 14.25 -15.375 14.25 C-15.375 11.28 -15.375 8.31 -15.375 5.25 C-16.035 4.92 -16.695 4.59 -17.375 4.25 C-18.035 5.57 -18.695 6.89 -19.375 8.25 C-23.005 8.25 -26.635 8.25 -30.375 8.25 C-29.055 7.59 -27.735 6.93 -26.375 6.25 C-25.57624132 4.11997684 -25.375 2.51695035 -25.375 0.25 C-26.035 0.25 -26.695 0.25 -27.375 0.25 C-27.375 0.91 -27.375 1.57 -27.375 2.25 C-27.98988281 2.38277344 -28.60476562 2.51554688 -29.23828125 2.65234375 C-30.45064453 2.91724609 -30.45064453 2.91724609 -31.6875 3.1875 C-32.48800781 3.36152344 -33.28851563 3.53554687 -34.11328125 3.71484375 C-36.520401 4.24886159 -36.520401 4.24886159 -39.375 5.25 C-39.705 6.24 -40.035 7.23 -40.375 8.25 C-40.705 8.25 -41.035 8.25 -41.375 8.25 C-41.375 6.6 -41.375 4.95 -41.375 3.25 C-42.035 3.25 -42.695 3.25 -43.375 3.25 C-43.4575 3.806875 -43.54 4.36375 -43.625 4.9375 C-44.59961509 7.94256318 -46.38324469 9.82254822 -48.375 12.25 C-48.705 13.24 -49.035 14.23 -49.375 15.25 C-50.468125 15.20875 -51.56125 15.1675 -52.6875 15.125 C-56.46392229 14.92925334 -56.46392229 14.92925334 -59.375 17.25 C-59.87507794 20.70786015 -59.87507794 20.70786015 -59.375 24.25 C-57.87514391 25.91710346 -57.87514391 25.91710346 -56.375 27.25 C-56.6875 29.4375 -56.6875 29.4375 -57.375 31.25 C-59.025 29.93 -60.675 28.61 -62.375 27.25 C-60.80681728 32.702999 -59.33689783 37.01486783 -55.375 41.25 C-56.365 41.25 -57.355 41.25 -58.375 41.25 C-54.89763974 45.03034623 -54.89763974 45.03034623 -50.375 47.25 C-50.375 48.57 -50.375 49.89 -50.375 51.25 C-53.345 51.25 -56.315 51.25 -59.375 51.25 C-60.035 53.23 -60.695 55.21 -61.375 57.25 C-60.715 57.58 -60.055 57.91 -59.375 58.25 C-59.705 59.57 -60.035 60.89 -60.375 62.25 C-61.035 62.25 -61.695 62.25 -62.375 62.25 C-62.375 61.59 -62.375 60.93 -62.375 60.25 C-63.035 60.25 -63.695 60.25 -64.375 60.25 C-64.375 59.59 -64.375 58.93 -64.375 58.25 C-65.035 58.25 -65.695 58.25 -66.375 58.25 C-73.77759112 49.68414456 -77.10252133 39.59292015 -76.69140625 28.38671875 C-75.48404512 16.41744734 -69.83592092 7.67149207 -60.74609375 -0.0234375 C-45.23599422 -11.31744737 -15.58569376 -10.70237132 0 0 Z " fill="#E9E3D3" transform="translate(78.375,8.75)"/>
<path d="M0 0 C4.34206736 1.14712151 7.09516148 4.01213948 9.37109375 7.83984375 C9.57734375 8.39671875 9.78359375 8.95359375 9.99609375 9.52734375 C9.95484375 8.57859375 9.91359375 7.62984375 9.87109375 6.65234375 C9.99609375 3.52734375 9.99609375 3.52734375 11.99609375 1.52734375 C14.62109375 1.40234375 14.62109375 1.40234375 16.99609375 1.52734375 C16.99609375 2.51734375 16.99609375 3.50734375 16.99609375 4.52734375 C17.65609375 4.85734375 18.31609375 5.18734375 18.99609375 5.52734375 C18.99609375 6.18734375 18.99609375 6.84734375 18.99609375 7.52734375 C19.98609375 7.19734375 20.97609375 6.86734375 21.99609375 6.52734375 C25.09289545 10.52737928 25.32140096 13.67474779 25.296875 18.5390625 C24.99609375 20.52734375 24.99609375 20.52734375 22.99609375 22.52734375 C24.31609375 22.85734375 25.63609375 23.18734375 26.99609375 23.52734375 C27.93280964 26.50780339 28.19799315 28.03521397 26.99609375 30.96484375 C22.60285044 36.59368674 18.20668417 40.32557868 10.99609375 41.52734375 C3.80145037 42.21768434 -2.0672911 41.92483645 -8.00390625 37.52734375 C-11.85294496 34.19755438 -13.83106705 31.84524265 -14.50390625 26.71484375 C-14.00390625 23.52734375 -14.00390625 23.52734375 -12.00390625 21.52734375 C-8.37890625 21.90234375 -8.37890625 21.90234375 -5.00390625 22.52734375 C-5.80828125 22.25921875 -6.61265625 21.99109375 -7.44140625 21.71484375 C-8.28703125 21.32296875 -9.13265625 20.93109375 -10.00390625 20.52734375 C-11.69202105 15.46299935 -12.21724605 9.50966494 -10.16796875 4.47265625 C-7.48929773 0.71532576 -4.54757777 -0.35245877 0 0 Z " fill="#E8E8E8" transform="translate(43.00390625,20.47265625)"/>
<path d="M0 0 C0.725289 -0.00807175 1.450578 -0.01614349 2.19784546 -0.02445984 C3.73262164 -0.03826523 5.26742806 -0.04900318 6.80224609 -0.05688477 C8.35572448 -0.06836208 9.90916476 -0.08874625 11.46240234 -0.1184082 C27.0762501 -0.41617922 27.0762501 -0.41617922 34.45849609 3.27661133 C36.79003248 4.36243798 38.99443065 4.81714831 41.5234375 5.23828125 C42.0184375 6.72328125 42.0184375 6.72328125 42.5234375 8.23828125 C43.5134375 8.56828125 44.5034375 8.89828125 45.5234375 9.23828125 C55.56327271 19.7444476 58.11862178 31.44615918 57.85546875 45.390625 C57.35812776 55.96577265 52.6157938 62.91841796 45.31640625 70.27734375 C43.29850681 72.04143914 43.29850681 72.04143914 43.5234375 74.23828125 C42.9046875 74.36203125 42.2859375 74.48578125 41.6484375 74.61328125 C39.33222918 75.11025481 39.33222918 75.11025481 37.5234375 77.23828125 C32.04227162 80.45137849 26.28221888 80.41731638 20.07421875 80.4765625 C19.26156052 80.48463425 18.44890228 80.49270599 17.61161804 80.50102234 C15.89450178 80.51481638 14.17735863 80.52555934 12.46020508 80.53344727 C10.71956234 80.54494467 8.97895424 80.565361 7.23852539 80.5949707 C-11.20246883 80.90824184 -11.20246883 80.90824184 -19.4765625 76.23828125 C-20.1365625 75.90828125 -20.7965625 75.57828125 -21.4765625 75.23828125 C-29.69712214 69.75790816 -36.00934053 59.71105553 -38.4765625 50.23828125 C-38.79884263 47.15036277 -38.85768873 44.09152112 -38.8515625 40.98828125 C-38.84995117 40.14434814 -38.84833984 39.30041504 -38.84667969 38.4309082 C-38.60074013 25.92536373 -32.72889551 17.05900817 -24.4140625 7.98828125 C-22.4765625 6.23828125 -22.4765625 6.23828125 -19.4765625 5.23828125 C-17.47044018 4.24963781 -15.49260836 3.21393534 -13.51171875 2.17578125 C-9.0947667 0.14110084 -4.80351502 0.05129913 0 0 Z M-29.75 17.8671875 C-36.20880617 26.73708647 -37.37037912 36.50023776 -36.4765625 47.23828125 C-34.92311964 53.58888445 -32.386028 59.02566059 -28.4765625 64.23828125 C-27.8165625 65.22828125 -27.1565625 66.21828125 -26.4765625 67.23828125 C-25.8165625 67.23828125 -25.1565625 67.23828125 -24.4765625 67.23828125 C-24.4765625 67.89828125 -24.4765625 68.55828125 -24.4765625 69.23828125 C-23.8165625 69.23828125 -23.1565625 69.23828125 -22.4765625 69.23828125 C-22.4765625 69.89828125 -22.4765625 70.55828125 -22.4765625 71.23828125 C-20.52070925 72.24312329 -18.56180013 73.2420193 -16.6015625 74.23828125 C-15.51101562 74.79515625 -14.42046875 75.35203125 -13.296875 75.92578125 C-10.69281168 77.37892219 -10.69281168 77.37892219 -8.4765625 77.23828125 C-8.4765625 74.26828125 -8.4765625 71.29828125 -8.4765625 68.23828125 C-7.8165625 68.23828125 -7.1565625 68.23828125 -6.4765625 68.23828125 C-6.4765625 70.21828125 -6.4765625 72.19828125 -6.4765625 74.23828125 C-4.9915625 74.73328125 -4.9915625 74.73328125 -3.4765625 75.23828125 C-0.75229939 72.88550856 0.3376138 70.61331794 1.5234375 67.23828125 C3.1734375 67.23828125 4.8234375 67.23828125 6.5234375 67.23828125 C6.70179265 71.7863376 6.52129185 75.11770665 4.5234375 79.23828125 C5.1834375 79.23828125 5.8434375 79.23828125 6.5234375 79.23828125 C7.1834375 77.91828125 7.8434375 76.59828125 8.5234375 75.23828125 C8.8534375 76.55828125 9.1834375 77.87828125 9.5234375 79.23828125 C10.1834375 79.23828125 10.8434375 79.23828125 11.5234375 79.23828125 C13.85677083 79.23828125 16.19010417 79.23828125 18.5234375 79.23828125 C19.0184375 77.25828125 19.0184375 77.25828125 19.5234375 75.23828125 C20.5134375 75.73328125 20.5134375 75.73328125 21.5234375 76.23828125 C21.1934375 74.58828125 20.8634375 72.93828125 20.5234375 71.23828125 C21.1834375 70.90828125 21.8434375 70.57828125 22.5234375 70.23828125 C23.5134375 72.54828125 24.5034375 74.85828125 25.5234375 77.23828125 C34.55417277 76.05392253 41.58112062 71.98025672 47.44921875 64.921875 C48.93455716 62.74362438 50.26116151 60.55173589 51.5234375 58.23828125 C52.1215625 57.18640625 52.7196875 56.13453125 53.3359375 55.05078125 C57.06222933 46.22535324 56.9246233 34.86849709 53.5859375 25.98828125 C49.00583771 16.29761814 41.37855579 8.0825034 31.19116211 4.39379883 C23.70870734 2.18499009 16.73344931 1.78490298 8.9609375 1.86328125 C7.80658203 1.85167969 6.65222656 1.84007813 5.46289062 1.828125 C-9.43405273 1.87882362 -20.06750346 6.42949736 -29.75 17.8671875 Z " fill="#090808" transform="translate(38.4765625,-0.23828125)"/>
<path d="M0 0 C15.3941048 0.4566048 15.3941048 0.4566048 19.1875 4.25 C18.56875 4.930625 17.95 5.61125 17.3125 6.3125 C14.8555932 9.70881234 14.13804395 12.21018821 13.1875 16.25 C12.1975 15.92 11.2075 15.59 10.1875 15.25 C10.1875 13.27 10.1875 11.29 10.1875 9.25 C9.5275 9.25 8.8675 9.25 8.1875 9.25 C8.1875 12.22 8.1875 15.19 8.1875 18.25 C6.74818883 17.79738642 5.31111001 17.33767021 3.875 16.875 C3.07449219 16.61976562 2.27398437 16.36453125 1.44921875 16.1015625 C-0.8125 15.25 -0.8125 15.25 -3.8125 13.25 C-4 10.625 -4 10.625 -3.8125 8.25 C-4.4725 8.25 -5.1325 8.25 -5.8125 8.25 C-4.79197214 0.42595308 -4.79197214 0.42595308 0 0 Z " fill="#181817" transform="translate(21.8125,58.75)"/>
<path d="M0 0 C3.625 0.375 3.625 0.375 7 1 C7.33 1.99 7.66 2.98 8 4 C5.69 4 3.38 4 1 4 C1.33 4.66 1.66 5.32 2 6 C2.99 6.33 3.98 6.66 5 7 C6.051875 8.1446875 6.051875 8.1446875 7.125 9.3125 C12.14430884 14.00446262 18.1720938 16.29970193 25 17 C25 16.67 25 16.34 25 16 C23.35 16 21.7 16 20 16 C19.67 15.34 19.34 14.68 19 14 C19.73605469 13.98582031 20.47210938 13.97164062 21.23046875 13.95703125 C27.65535223 13.69883426 27.65535223 13.69883426 33.125 10.5625 C34.98340305 8.17257162 34.98340305 8.17257162 36 6 C36.66 6 37.32 6 38 6 C37.04134491 3.66924071 37.04134491 3.66924071 34 2 C35.875 1.375 35.875 1.375 38 1 C40 3 40 3 40.0625 6.1875 C38.63408927 11.3129738 36.26264794 13.899164 32 17 C25.2900143 20.56940969 17.04767245 21.46208443 9.734375 19.34375 C4.75424357 17.13880631 0.70181401 13.76790708 -2 9 C-2.5 5.1875 -2.5 5.1875 -2 2 C-1.34 1.34 -0.68 0.68 0 0 Z " fill="#F0F0F0" transform="translate(31,42)"/>
<path d="M0 0 C0.66 0.33 1.32 0.66 2 1 C2 1.99 2 2.98 2 4 C2.66 4.33 3.32 4.66 4 5 C4 6.65 4 8.3 4 10 C3.34 10 2.68 10 2 10 C2 9.01 2 8.02 2 7 C1.01 7 0.02 7 -1 7 C-0.7525 8.485 -0.7525 8.485 -0.5 10 C0.08474517 14.02732942 0.07132024 17.93474623 0 22 C-1.26839526 22.50615298 -2.53983102 23.00469099 -3.8125 23.5 C-4.52019531 23.7784375 -5.22789063 24.056875 -5.95703125 24.34375 C-8 25 -8 25 -11 25 C-11.67154933 23.71086513 -12.33708859 22.41859796 -13 21.125 C-13.37125 20.40570313 -13.7425 19.68640625 -14.125 18.9453125 C-15 17 -15 17 -15 15 C-14.01 15 -13.02 15 -12 15 C-12 14.34 -12 13.68 -12 13 C-14.475 12.01 -14.475 12.01 -17 11 C-14.23776722 8.23776722 -11.79293383 8.42143709 -8 8 C-8 7.01 -8 6.02 -8 5 C-6.3203125 3.578125 -6.3203125 3.578125 -4.125 2.25 C-3.40570313 1.80140625 -2.68640625 1.3528125 -1.9453125 0.890625 C-1.30335937 0.59671875 -0.66140625 0.3028125 0 0 Z " fill="#CFCABC" transform="translate(75,52)"/>
<path d="M0 0 C0.66 0.33 1.32 0.66 2 1 C2.82222311 11.30519632 1.25877769 19.70145385 -5.3359375 27.90625 C-6.92434956 29.64999573 -8.54593128 31.36441359 -10.20703125 33.0390625 C-12.22493069 34.80315789 -12.22493069 34.80315789 -12 37 C-12.61875 37.12375 -13.2375 37.2475 -13.875 37.375 C-16.19120832 37.87197356 -16.19120832 37.87197356 -18 40 C-23.79307302 43.39593936 -29.80362196 43.12928407 -36.3125 43.0625 C-37.56643555 43.05573242 -37.56643555 43.05573242 -38.84570312 43.04882812 C-40.89716649 43.03710548 -42.94859273 43.01917203 -45 43 C-45 42.01 -45 41.02 -45 40 C-44.67 40.66 -44.34 41.32 -44 42 C-41.69 42 -39.38 42 -37 42 C-37 40.35 -37 38.7 -37 37 C-36.34 37.33 -35.68 37.66 -35 38 C-35.33 36.35 -35.66 34.7 -36 33 C-34.515 32.505 -34.515 32.505 -33 32 C-30 36.625 -30 36.625 -30 40 C-18.58918309 36.56609061 -11.03467068 31.90317916 -5.19140625 21.33203125 C-4.79824219 20.56246094 -4.40507813 19.79289062 -4 19 C-3.64035156 18.40058594 -3.28070313 17.80117188 -2.91015625 17.18359375 C-1.57422219 13.97849873 -1.26947828 10.6709674 -0.875 7.25 C-0.78863281 6.55261719 -0.70226562 5.85523438 -0.61328125 5.13671875 C-0.40228154 3.42527668 -0.20024499 1.71273371 0 0 Z " fill="#0E0E0D" transform="translate(94,37)"/>
<path d="M0 0 C0.78375 0.04125 1.5675 0.0825 2.375 0.125 C2.375 1.115 2.375 2.105 2.375 3.125 C3.035 3.455 3.695 3.785 4.375 4.125 C4.375 4.785 4.375 5.445 4.375 6.125 C5.365 5.795 6.355 5.465 7.375 5.125 C10.41499418 9.05165914 10.88232087 12.28162673 10.74609375 17.09765625 C10.375 19.125 10.375 19.125 8.375 21.1875 C7.385 21.6515625 7.385 21.6515625 6.375 22.125 C7.035 23.775 7.695 25.425 8.375 27.125 C6.8125 29.5625 6.8125 29.5625 4.375 32.125 C0.625 32.9375 0.625 32.9375 -2.625 33.125 C-2.3125 31.25 -2.3125 31.25 -1.625 29.125 C-0.635 28.465 0.355 27.805 1.375 27.125 C2.07881157 25.13776732 2.7461811 23.13722047 3.375 21.125 C4.035 20.465 4.695 19.805 5.375 19.125 C5.87942453 13.87898486 5.02464989 10.65148522 2.375 6.125 C1.385 6.455 0.395 6.785 -0.625 7.125 C-0.955 10.095 -1.285 13.065 -1.625 16.125 C-1.955 16.125 -2.285 16.125 -2.625 16.125 C-3.9407048 11.35557011 -5.10043452 7.11706251 -4.625 2.125 C-2.625 0.125 -2.625 0.125 0 0 Z " fill="#F1F1F1" transform="translate(57.625,21.875)"/>
<path d="M0 0 C5.44693314 -0.09688221 10.63904667 -0.12862175 16 1 C15.34 1.66 14.68 2.32 14 3 C14.99 4.485 14.99 4.485 16 6 C16 9 16 9 15 12 C14.67 11.67 14.34 11.34 14 11 C13.67 12.32 13.34 13.64 13 15 C9.66666667 15 6.33333333 15 3 15 C3 13.68 3 12.36 3 11 C2.34 12.32 1.68 13.64 1 15 C0.34 14.67 -0.32 14.34 -1 14 C-0.67 13.484375 -0.34 12.96875 0 12.4375 C1.72651677 8.22911538 1.41933513 4.25800538 0 0 Z " fill="#EAEAE9" transform="translate(44,64)"/>
<path d="M0 0 C0.70125 0.00515625 1.4025 0.0103125 2.125 0.015625 C2.82625 0.01046875 3.5275 0.0053125 4.25 0 C6.125 0.265625 6.125 0.265625 8.125 2.265625 C7.75 4.890625 7.75 4.890625 7.125 7.265625 C6.135 7.595625 5.145 7.925625 4.125 8.265625 C3.39176204 10.28070858 3.39176204 10.28070858 3.125 12.265625 C8.04347493 11.21659628 8.04347493 11.21659628 12.0625 8.390625 C13.4231424 6.06531058 13.4231424 6.06531058 13.125 2.265625 C14.445 2.595625 15.765 2.925625 17.125 3.265625 C17.125 3.925625 17.125 4.585625 17.125 5.265625 C16.465 5.265625 15.805 5.265625 15.125 5.265625 C14.8775 6.02875 14.63 6.791875 14.375 7.578125 C12.95717532 10.62644807 11.96207973 11.53185405 9.125 13.265625 C6.546875 13.77734375 6.546875 13.77734375 3.875 13.953125 C2.98296875 14.01886719 2.0909375 14.08460937 1.171875 14.15234375 C0.49640625 14.18972656 -0.1790625 14.22710937 -0.875 14.265625 C1.105 14.265625 3.085 14.265625 5.125 14.265625 C4.795 15.255625 4.465 16.245625 4.125 17.265625 C-0.42515938 16.70110597 -3.96773611 15.50310185 -8.0625 13.453125 C-9.08730469 12.95167969 -10.11210938 12.45023438 -11.16796875 11.93359375 C-13.87797589 10.26379137 -15.02653758 8.77931578 -16.875 6.265625 C-17.865 6.265625 -18.855 6.265625 -19.875 6.265625 C-19.875 5.275625 -19.875 4.285625 -19.875 3.265625 C-17.895 3.265625 -15.915 3.265625 -13.875 3.265625 C-14.205 3.925625 -14.535 4.585625 -14.875 5.265625 C-10.47391389 10.04254306 -10.47391389 10.04254306 -4.4375 11.515625 C-0.9382675 11.6014087 -0.9382675 11.6014087 1.0625 9.765625 C1.413125 9.270625 1.76375 8.775625 2.125 8.265625 C-0.35 7.770625 -0.35 7.770625 -2.875 7.265625 C-3.5 4.890625 -3.5 4.890625 -3.875 2.265625 C-1.875 0.265625 -1.875 0.265625 0 0 Z " fill="#383836" transform="translate(51.875,42.734375)"/>
<path d="M0 0 C0.33 0.66 0.66 1.32 1 2 C1.66 2 2.32 2 3 2 C3.33 1.34 3.66 0.68 4 0 C3.55966055 5.5042431 2.15285436 8.52498091 -1 13 C-1 13.99 -1 14.98 -1 16 C-0.071875 15.01 -0.071875 15.01 0.875 14 C3 12 3 12 5 12 C4.5240307 16.99767765 3.12573658 20.07050258 0 24 C-2.25 25.375 -2.25 25.375 -4 26 C-4 23.69 -4 21.38 -4 19 C-6.49064888 18.31292445 -8.37886292 18 -11 18 C-10.01 17.5359375 -10.01 17.5359375 -9 17.0625 C-6.63205211 14.62055374 -6.67981846 13.91958954 -6.625 10.625 C-6.77629356 7.05796335 -7.34287172 4.21068605 -9 1 C-8.34 1 -7.68 1 -7 1 C-7 1.66 -7 2.32 -7 3 C-6.01 3.33 -5.02 3.66 -4 4 C-4.33 5.32 -4.66 6.64 -5 8 C-3.68 7.34 -2.36 6.68 -1 6 C-1.020625 5.195625 -1.04125 4.39125 -1.0625 3.5625 C-1 1 -1 1 0 0 Z " fill="#1A1A19" transform="translate(74,26)"/>
<path d="M0 0 C3.16115776 1.36983503 3.9927092 1.9890638 6 5 C6.265625 7.41015625 6.265625 7.41015625 6.25 10.0625 C6.25515625 10.94035156 6.2603125 11.81820312 6.265625 12.72265625 C6 15 6 15 4 17 C2.0625 16.9375 2.0625 16.9375 0 16 C-2.48398656 13.07244441 -3.22292654 10.62844948 -3.375 6.875 C-3 3 -3 3 -1.5 1 C-1.005 0.67 -0.51 0.34 0 0 Z " fill="#0A0A0A" transform="translate(42,27)"/>
<path d="M0 0 C1.79281163 2.68921744 2.77177132 4.87531209 3.875 7.875 C5.41751834 11.8530736 7.1716593 14.76761063 10 18 C10 18.66 10 19.32 10 20 C10.66 20 11.32 20 12 20 C12 20.66 12 21.32 12 22 C12.66 22 13.32 22 14 22 C14 22.66 14 23.32 14 24 C16.40798808 25.00980145 18.78952719 25.93960967 21.30078125 26.66015625 C22.10902344 26.89605469 22.91726562 27.13195312 23.75 27.375 C24.52859375 27.58898437 25.3071875 27.80296875 26.109375 28.0234375 C28 29 28 29 28.765625 31.1015625 C28.84296875 31.72804688 28.9203125 32.35453125 29 33 C28.40832031 32.79503906 27.81664063 32.59007812 27.20703125 32.37890625 C22.17156004 30.66006684 22.17156004 30.66006684 17 29.4375 C16.34 29.293125 15.68 29.14875 15 29 C14.67 28.34 14.34 27.68 14 27 C13.34 26.67 12.68 26.34 12 26 C5.53362492 19.63101008 -0.80553215 11.33445681 -1 2 C-0.67 1.34 -0.34 0.68 0 0 Z " fill="#0F0F0E" transform="translate(2,47)"/>
<path d="M0 0 C0.66 0 1.32 0 2 0 C5.62189055 9.89552239 5.62189055 9.89552239 5 14 C4.34 14.66 3.68 15.32 3 16 C2.01 16 1.02 16 0 16 C0 14.68 0 13.36 0 12 C-0.66 11.67 -1.32 11.34 -2 11 C-2 10.34 -2 9.68 -2 9 C-3.65 9.33 -5.3 9.66 -7 10 C-7 9.34 -7 8.68 -7 8 C-8.32 7.34 -9.64 6.68 -11 6 C-8.92446352 5.4465236 -7.15634036 5 -5 5 C-1.88667752 4.33131686 -1.88667752 4.33131686 -0.8125 1.9375 C-0.544375 1.298125 -0.27625 0.65875 0 0 Z " fill="#2A2928" transform="translate(69,18)"/>
<path d="M0 0 C2.89932357 2.39509338 3.50168276 4.31245243 4 8 C6.64 7.34 9.28 6.68 12 6 C12 6.99 12 7.98 12 9 C7.26101734 11.45153075 2.87937667 11.23154206 -2.3125 11.125 C-3.14845703 11.11597656 -3.98441406 11.10695313 -4.84570312 11.09765625 C-6.89725969 11.07420989 -8.94866777 11.03834266 -11 11 C-11 10.01 -11 9.02 -11 8 C-10.67 8.66 -10.34 9.32 -10 10 C-7.69 10 -5.38 10 -3 10 C-3 8.35 -3 6.7 -3 5 C-2.34 5.33 -1.68 5.66 -1 6 C-1.33 4.35 -1.66 2.7 -2 1 C-1.34 0.67 -0.68 0.34 0 0 Z " fill="#131312" transform="translate(60,69)"/>
<path d="M0 0 C1.79240663 0.11389875 3.58394835 0.24147687 5.375 0.375 C6.87160156 0.47941406 6.87160156 0.47941406 8.3984375 0.5859375 C11 1 11 1 13 3 C12.071875 4.0209375 12.071875 4.0209375 11.125 5.0625 C8.6680932 8.45881234 7.95054395 10.96018821 7 15 C6.01 14.67 5.02 14.34 4 14 C3.81824219 12.98679687 3.81824219 12.98679687 3.6328125 11.953125 C3.46523438 11.06109375 3.29765625 10.1690625 3.125 9.25 C2.96257813 8.36828125 2.80015625 7.4865625 2.6328125 6.578125 C2.03203736 4.13052256 1.22002883 2.19400143 0 0 Z " fill="#E8E3D2" transform="translate(28,60)"/>
<path d="M0 0 C4.70588235 0.70588235 4.70588235 0.70588235 6 2 C6.07205511 3.68608966 6.08386068 5.37500659 6.0625 7.0625 C6.05347656 7.98160156 6.04445313 8.90070313 6.03515625 9.84765625 C6.02355469 10.55792969 6.01195312 11.26820312 6 12 C3.03 11.01 0.06 10.02 -3 9 C-3 8.01 -3 7.02 -3 6 C-2.34 6 -1.68 6 -1 6 C-1.020625 5.195625 -1.04125 4.39125 -1.0625 3.5625 C-1 1 -1 1 0 0 Z " fill="#DFDACA" transform="translate(24,65)"/>
<path d="M0 0 C0.66 0.33 1.32 0.66 2 1 C3.1577506 4.47325181 3.06866652 7.36067448 3 11 C1.02 11.99 1.02 11.99 -1 13 C-3.60334924 10.28817788 -3.99456691 9.10866187 -4.1875 5.25 C-4.125625 4.1775 -4.06375 3.105 -4 2 C-2.68 2.33 -1.36 2.66 0 3 C0 2.01 0 1.02 0 0 Z " fill="#121111" transform="translate(61,30)"/>
<path d="M0 0 C1.32 0.66 2.64 1.32 4 2 C3.67 3.32 3.34 4.64 3 6 C2.01 6 1.02 6 0 6 C-0.32613618 10.67461851 0.29417212 13.16674383 3 17 C-0.11227195 17 -2.94152152 16.54372951 -6 16 C-5.34 15.67 -4.68 15.34 -4 15 C-4.02320313 14.39671875 -4.04640625 13.7934375 -4.0703125 13.171875 C-4.08835938 12.37265625 -4.10640625 11.5734375 -4.125 10.75 C-4.14820313 9.96109375 -4.17140625 9.1721875 -4.1953125 8.359375 C-3.8883424 4.65117616 -2.60271414 2.60271414 0 0 Z " fill="#C8C8C6" transform="translate(58,27)"/>
<path d="M0 0 C0 0.99 0 1.98 0 3 C-1.75 4.38671875 -1.75 4.38671875 -4 5.6875 C-4.7425 6.12449219 -5.485 6.56148437 -6.25 7.01171875 C-6.8275 7.33785156 -7.405 7.66398437 -8 8 C-7.34 8.66 -6.68 9.32 -6 10 C-8.12136362 10.55573751 -10.24725521 11.09421768 -12.375 11.625 C-13.55835938 11.92664062 -14.74171875 12.22828125 -15.9609375 12.5390625 C-16.96382812 12.69117188 -17.96671875 12.84328125 -19 13 C-19.66 12.34 -20.32 11.68 -21 11 C-20.14728516 10.77957031 -20.14728516 10.77957031 -19.27734375 10.5546875 C-13.98645349 9.01776779 -10.57892349 7.12527661 -6.57421875 3.36328125 C-4.57048893 1.62804128 -2.52298319 0.76454036 0 0 Z " fill="#282826" transform="translate(75,50)"/>
<path d="M0 0 C0.78375 0.04125 1.5675 0.0825 2.375 0.125 C2.705 0.785 3.035 1.445 3.375 2.125 C2.055 2.125 0.735 2.125 -0.625 2.125 C-0.3465625 3.0840625 -0.3465625 3.0840625 -0.0625 4.0625 C0.081875 4.743125 0.22625 5.42375 0.375 6.125 C0.045 6.455 -0.285 6.785 -0.625 7.125 C-0.85692865 8.63969448 -1.03715238 10.16254562 -1.1875 11.6875 C-1.27128906 12.51378906 -1.35507812 13.34007812 -1.44140625 14.19140625 C-1.50199219 14.82949219 -1.56257813 15.46757813 -1.625 16.125 C-1.955 16.125 -2.285 16.125 -2.625 16.125 C-3.9407048 11.35557011 -5.10043452 7.11706251 -4.625 2.125 C-2.625 0.125 -2.625 0.125 0 0 Z " fill="#F7F7F6" transform="translate(57.625,21.875)"/>
<path d="M0 0 C-0.33 0.66 -0.66 1.32 -1 2 C-1.91910156 1.84660156 -2.83820313 1.69320313 -3.78515625 1.53515625 C-8.97896901 0.793183 -14.20025636 0.64535417 -19.4375 0.4375 C-20.45521484 0.39431641 -21.47292969 0.35113281 -22.52148438 0.30664062 C-25.01421028 0.20131418 -27.50702338 0.09918328 -30 0 C-30 -0.33 -30 -0.66 -30 -1 C-27.16681141 -1.16950701 -24.33349012 -1.33567534 -21.5 -1.5 C-20.70851563 -1.54769531 -19.91703125 -1.59539063 -19.1015625 -1.64453125 C-3.78502358 -2.52334906 -3.78502358 -2.52334906 0 0 Z " fill="#111110" transform="translate(69,2)"/>
<path d="M0 0 C0.66 0.33 1.32 0.66 2 1 C4.04055005 1.07065617 6.08334257 1.08421976 8.125 1.0625 C9.22070312 1.05347656 10.31640625 1.04445312 11.4453125 1.03515625 C12.28835937 1.02355469 13.13140625 1.01195312 14 1 C13.67 1.66 13.34 2.32 13 3 C10.03 3 7.06 3 4 3 C4 3.33 4 3.66 4 4 C3.21625 4.061875 2.4325 4.12375 1.625 4.1875 C0.75875 4.455625 -0.1075 4.72375 -1 5 C-2.15521502 7.47130918 -2.15521502 7.47130918 -3 10 C-3.99 10.33 -4.98 10.66 -6 11 C-4.88059018 6.14922412 -3.8665284 3.222107 0 0 Z " fill="#6C6B68" transform="translate(41,62)"/>
<path d="M0 0 C1.4540625 0.0309375 1.4540625 0.0309375 2.9375 0.0625 C2.9375 1.3825 2.9375 2.7025 2.9375 4.0625 C1.2875 3.7325 -0.3625 3.4025 -2.0625 3.0625 C-2.0625 3.7225 -2.0625 4.3825 -2.0625 5.0625 C-1.0725 5.0625 -0.0825 5.0625 0.9375 5.0625 C0.6075 6.3825 0.2775 7.7025 -0.0625 9.0625 C-1.3825 8.4025 -2.7025 7.7425 -4.0625 7.0625 C-4.10504356 5.06295254 -4.10330783 3.06208364 -4.0625 1.0625 C-3.0625 0.0625 -3.0625 0.0625 0 0 Z " fill="#EBEAEA" transform="translate(24.0625,25.9375)"/>
<path d="M0 0 C0.33 0.66 0.66 1.32 1 2 C1.99 2 2.98 2 4 2 C4 2.66 4 3.32 4 4 C3.34 4 2.68 4 2 4 C2 5.32 2 6.64 2 8 C-0.31 8.33 -2.62 8.66 -5 9 C-4.6875 7.125 -4.6875 7.125 -4 5 C-3.01 4.34 -2.02 3.68 -1 3 C-0.67 2.01 -0.34 1.02 0 0 Z " fill="#D1D0CE" transform="translate(60,46)"/>
<path d="M0 0 C1.65 0 3.3 0 5 0 C5.625 2.875 5.625 2.875 6 6 C5.34 6.66 4.68 7.32 4 8 C3.01 8 2.02 8 1 8 C1 6.68 1 5.36 1 4 C0.34 3.67 -0.32 3.34 -1 3 C-0.67 2.01 -0.34 1.02 0 0 Z " fill="#E4E4E3" transform="translate(68,26)"/>
<path d="M0 0 C3.465 1.485 3.465 1.485 7 3 C6 6 6 6 4 7 C1.6670134 7.04022391 -0.66706666 7.04320247 -3 7 C-2.01 5.68 -1.02 4.36 0 3 C-0.99 2.67 -1.98 2.34 -3 2 C-2.01 2 -1.02 2 0 2 C0 1.34 0 0.68 0 0 Z " fill="#F3F2F2" transform="translate(47,48)"/>
<path d="M0 0 C0.598125 0.226875 1.19625 0.45375 1.8125 0.6875 C0.8225 1.3475 -0.1675 2.0075 -1.1875 2.6875 C-0.5275 4.3375 0.1325 5.9875 0.8125 7.6875 C-0.5075 9.0075 -1.8275 10.3275 -3.1875 11.6875 C-3.1875 10.6975 -3.1875 9.7075 -3.1875 8.6875 C-2.5275 8.6875 -1.8675 8.6875 -1.1875 8.6875 C-1.1875 8.0275 -1.1875 7.3675 -1.1875 6.6875 C-2.1775 6.6875 -3.1675 6.6875 -4.1875 6.6875 C-4.875 4.875 -4.875 4.875 -5.1875 2.6875 C-3.58493056 0.24147296 -2.95482043 -0.4221172 0 0 Z " fill="#EAEAE9" transform="translate(65.1875,41.3125)"/>
<path d="M0 0 C1.32 0.66 2.64 1.32 4 2 C4 2.99 4 3.98 4 5 C0.25 6.125 0.25 6.125 -2 5 C-2 6.98 -2 8.96 -2 11 C-2.33 11 -2.66 11 -3 11 C-3.36923077 3.49230769 -3.36923077 3.49230769 -1.5 1 C-1.005 0.67 -0.51 0.34 0 0 Z " fill="#70706E" transform="translate(42,27)"/>
<path d="M0 0 C1.32 0.66 2.64 1.32 4 2 C3.67 3.32 3.34 4.64 3 6 C2.01 6 1.02 6 0 6 C-0.66 6.99 -1.32 7.98 -2 9 C-2.125 5.625 -2.125 5.625 -2 2 C-1.34 1.34 -0.68 0.68 0 0 Z " fill="#7C7B7A" transform="translate(58,27)"/>
<path d="M0 0 C-0.33 0.99 -0.66 1.98 -1 3 C-1.78375 3.0825 -2.5675 3.165 -3.375 3.25 C-6.14749104 3.72806339 -6.14749104 3.72806339 -7.3125 6.0625 C-7.539375 6.701875 -7.76625 7.34125 -8 8 C-8.33 6.35 -8.66 4.7 -9 3 C-5.92807025 0.26939578 -4.09590633 -0.34132553 0 0 Z " fill="#353433" transform="translate(27,23)"/>
<path d="M0 0 C0.99 0.99 1.98 1.98 3 3 C2.01 3.66 1.02 4.32 0 5 C0 3.35 0 1.7 0 0 Z M-8 3 C-7.67 3.66 -7.34 4.32 -7 5 C-4.69 5 -2.38 5 0 5 C0 5.33 0 5.66 0 6 C-2.64 6 -5.28 6 -8 6 C-8 5.01 -8 4.02 -8 3 Z " fill="#262524" transform="translate(57,74)"/>
<path d="M0 0 C3.63 0.33 7.26 0.66 11 1 C11 1.33 11 1.66 11 2 C9.02 2 7.04 2 5 2 C4.34 3.32 3.68 4.64 3 6 C2.01 4.02 1.02 2.04 0 0 Z " fill="#D1CCBF" transform="translate(28,60)"/>
<path d="M0 0 C2.50037734 2.17424117 3.43628586 3.73045798 4 7 C2.35 7.33 0.7 7.66 -1 8 C-0.67 5.36 -0.34 2.72 0 0 Z " fill="#CAC6B9" transform="translate(64,15)"/>
<path d="M0 0 C1.32 0.99 2.64 1.98 4 3 C3.67 4.32 3.34 5.64 3 7 C1.35 5.35 -0.3 3.7 -2 2 C-1.34 1.34 -0.68 0.68 0 0 Z " fill="#DAD5C5" transform="translate(18,33)"/>
<path d="M0 0 C2 1 2 1 2 1 Z " fill="#040404" transform="translate(70,79)"/>
<path d="M0 0 C2 1 2 1 2 1 Z " fill="#040404" transform="translate(24,79)"/>
<path d="M0 0 C2 1 2 1 2 1 Z " fill="#040404" transform="translate(22,78)"/>
<path d="M0 0 C2 1 2 1 2 1 Z " fill="#040404" transform="translate(20,77)"/>
<path d="M0 0 C2 1 2 1 2 1 Z " fill="#040404" transform="translate(76,76)"/>
<path d="" fill="#040404" transform="translate(0,0)"/>
<path d="" fill="#040404" transform="translate(0,0)"/>
<path d="" fill="#040404" transform="translate(0,0)"/>
<path d="" fill="#040404" transform="translate(0,0)"/>
<path d="" fill="#040404" transform="translate(0,0)"/>
<path d="" fill="#040404" transform="translate(0,0)"/>
<path d="M0 0 C2 1 2 1 2 1 Z " fill="#040404" transform="translate(75,3)"/>
<path d="M0 0 C2 1 2 1 2 1 Z " fill="#040404" transform="translate(19,3)"/>
<path d="M0 0 C2 1 2 1 2 1 Z " fill="#040404" transform="translate(21,2)"/>
<path d="M0 0 C2 1 2 1 2 1 Z " fill="#040404" transform="translate(71,1)"/>
<path d="M0 0 C2 1 2 1 2 1 Z " fill="#040404" transform="translate(23,1)"/>
<path d="M0 0 C2 1 2 1 2 1 Z " fill="#040404" transform="translate(69,0)"/>
<path d="M0 0 C2 1 2 1 2 1 Z " fill="#040404" transform="translate(25,0)"/>
<path d="" fill="#040404" transform="translate(0,0)"/>
<path d="" fill="#040404" transform="translate(0,0)"/>
<path d="" fill="#040404" transform="translate(0,0)"/>
<path d="" fill="#040404" transform="translate(0,0)"/>
<path d="" fill="#040404" transform="translate(0,0)"/>
<path d="" fill="#040404" transform="translate(0,0)"/>
<path d="" fill="#040404" transform="translate(0,0)"/>
<path d="" fill="#040404" transform="translate(0,0)"/>
<path d="" fill="#040404" transform="translate(0,0)"/>
<path d="" fill="#040404" transform="translate(0,0)"/>
<path d="" fill="#040404" transform="translate(0,0)"/>
<path d="" fill="#040404" transform="translate(0,0)"/>
<path d="" fill="#040404" transform="translate(0,0)"/>
<path d="" fill="#040404" transform="translate(0,0)"/>
<path d="" fill="#040404" transform="translate(0,0)"/>
<path d="" fill="#040404" transform="translate(0,0)"/>
<path d="" fill="#040404" transform="translate(0,0)"/>
<path d="" fill="#040404" transform="translate(0,0)"/>
<path d="" fill="#040404" transform="translate(0,0)"/>
<path d="" fill="#040404" transform="translate(0,0)"/>
<path d="" fill="#040404" transform="translate(0,0)"/>
<path d="" fill="#040404" transform="translate(0,0)"/>
<path d="" fill="#040404" transform="translate(0,0)"/>
<path d="" fill="#040404" transform="translate(0,0)"/>
<path d="" fill="#040404" transform="translate(0,0)"/>
<path d="" fill="#040404" transform="translate(0,0)"/>
<path d="" fill="#040404" transform="translate(0,0)"/>
<path d="" fill="#040404" transform="translate(0,0)"/>
<path d="" fill="#040404" transform="translate(0,0)"/>
<path d="" fill="#040404" transform="translate(0,0)"/>
<path d="" fill="#040404" transform="translate(0,0)"/>
<path d="" fill="#040404" transform="translate(0,0)"/>
<path d="" fill="#040404" transform="translate(0,0)"/>
<path d="" fill="#040404" transform="translate(0,0)"/>
<path d="" fill="#040404" transform="translate(0,0)"/>
<path d="" fill="#040404" transform="translate(0,0)"/>
<path d="" fill="#040404" transform="translate(0,0)"/>
<path d="" fill="#040404" transform="translate(0,0)"/>
<path d="" fill="#040404" transform="translate(0,0)"/>
<path d="" fill="#040404" transform="translate(0,0)"/>
<path d="" fill="#040404" transform="translate(0,0)"/>
<path d="" fill="#040404" transform="translate(0,0)"/>
<path d="" fill="#040404" transform="translate(0,0)"/>
<path d="" fill="#040404" transform="translate(0,0)"/>
<path d="" fill="#040404" transform="translate(0,0)"/>
<path d="" fill="#040404" transform="translate(0,0)"/>
<path d="" fill="#040404" transform="translate(0,0)"/>
<path d="" fill="#040404" transform="translate(0,0)"/>
<path d="" fill="#040404" transform="translate(0,0)"/>
<path d="" fill="#040404" transform="translate(0,0)"/>
<path d="" fill="#040404" transform="translate(0,0)"/>
<path d="" fill="#040404" transform="translate(0,0)"/>
<path d="" fill="#040404" transform="translate(0,0)"/>
<path d="" fill="#040404" transform="translate(0,0)"/>
<path d="" fill="#040404" transform="translate(0,0)"/>
<path d="" fill="#040404" transform="translate(0,0)"/>
<path d="" fill="#040404" transform="translate(0,0)"/>
<path d="" fill="#040404" transform="translate(0,0)"/>
</svg>
