<svg width="20" height="20" viewBox="0 0 20 20" fill="none" xmlns="http://www.w3.org/2000/svg">
<rect width="20" height="20" fill="#1E1E1E"/>
<path d="M-1932 -1932C-1932 -1933.1 -1931.1 -1934 -1930 -1934H14026C14027.1 -1934 14028 -1933.1 14028 -1932V1552C14028 1553.1 14027.1 1554 14026 1554H-1930C-1931.1 1554 -1932 1553.1 -1932 1552V-1932Z" fill="#444444"/>
<path d="M-1930 -1933H14026V-1935H-1930V-1933ZM14027 -1932V1552H14029V-1932H14027ZM14026 1553H-1930V1555H14026V1553ZM-1931 1552V-1932H-1933V1552H-1931ZM-1930 1553C-1930.55 1553 -1931 1552.55 -1931 1552H-1933C-1933 1553.66 -1931.66 1555 -1930 1555V1553ZM14027 1552C14027 1552.55 14026.6 1553 14026 1553V1555C14027.7 1555 14029 1553.66 14029 1552H14027ZM14026 -1933C14026.6 -1933 14027 -1932.55 14027 -1932H14029C14029 -1933.66 14027.7 -1935 14026 -1935V-1933ZM-1930 -1935C-1931.66 -1935 -1933 -1933.66 -1933 -1932H-1931C-1931 -1932.55 -1930.55 -1933 -1930 -1933V-1935Z" fill="white" fill-opacity="0.1"/>
<rect x="-272" y="-606" width="746" height="1232" rx="16" fill="white"/>
<rect x="-271.5" y="-605.5" width="745" height="1231" rx="15.5" stroke="#D4D4D8" stroke-opacity="0.56"/>
<mask id="path-5-inside-1_2690_5222" fill="white">
<path d="M-208 -14H410V34H-208V-14Z"/>
</mask>
<path d="M410 33H-208V35H410V33Z" fill="#D4D4D8" fill-opacity="0.56" mask="url(#path-5-inside-1_2690_5222)"/>
<path d="M10 20C15.5228 20 20 15.5228 20 10C20 4.47715 15.5228 0 10 0C4.47715 0 0 4.47715 0 10C0 15.5228 4.47715 20 10 20Z" fill="#FF6C15"/>
<path d="M14.6009 8.8487C14.8064 7.5787 13.9075 6.99092 13.4031 6.66648C12.9009 6.34203 12.1331 6.1087 12.1331 6.1087L12.6242 4.13092L11.4909 3.84648L10.9998 5.82425L10.0942 5.59536L10.5853 3.61759L9.43865 3.33203L8.94754 5.30981L6.55087 4.70759L6.25976 5.88092C6.25976 5.88092 7.44309 6.17648 7.57309 6.21092C7.70642 6.24314 7.68865 6.31092 7.67753 6.35537C7.66642 6.39981 6.18865 12.3609 6.16642 12.4398C6.14865 12.5198 6.13531 12.5654 6.02531 12.5398L4.76865 12.2243L4.44531 13.5276L6.76531 14.1087L6.29531 15.9998L7.53198 16.3098L8.00198 14.4176L8.77198 14.6109L8.30198 16.5031L9.47976 16.7987L9.95087 14.9076L10.8375 15.1298C11.4264 15.2776 13.6642 15.3054 14.1509 13.3398C14.6386 11.3731 13.0264 10.5409 13.0264 10.5409C13.0264 10.5409 14.3931 10.1187 14.6009 8.8487ZM11.9153 12.4954C11.682 13.4365 10.632 13.5087 10.3931 13.4476L8.28754 12.9209L8.90976 10.4076L11.0931 10.9543C11.512 11.0609 12.1498 11.5543 11.9153 12.4954ZM12.3042 8.66759C12.0553 9.66981 11.0553 9.62425 10.7398 9.54648L9.20087 9.16092L9.7942 6.7687L11.1986 7.11981C11.4386 7.17981 12.5542 7.66648 12.3042 8.66759Z" fill="#FFF6ED"/>
</svg>
