<svg id="Layer_1" data-name="Layer 1" xmlns="http://www.w3.org/2000/svg" xmlns:xlink="http://www.w3.org/1999/xlink" viewBox="0 0 1080 1080"><defs><style>.cls-1{fill:#fff;}.cls-2{fill:url(#linear-gradient);}.cls-3{fill:#3083dc;}</style><linearGradient id="linear-gradient" x1="418.11" y1="773.65" x2="485.9" y2="700.97" gradientUnits="userSpaceOnUse"><stop offset="0" stop-color="#3083dc"/><stop offset="0.1" stop-color="#2e7fd5"/><stop offset="0.24" stop-color="#2a72c0"/><stop offset="0.41" stop-color="#235f9f"/><stop offset="0.61" stop-color="#194370"/><stop offset="0.82" stop-color="#0c2036"/><stop offset="1"/></linearGradient></defs><path class="cls-1" d="M155,495.14a2.7,2.7,0,0,1-2.7-2.7A43.47,43.47,0,0,0,108.83,449a2.7,2.7,0,0,1,0-5.4,43.47,43.47,0,0,0,43.42-43.42,2.7,2.7,0,0,1,5.4,0,43.47,43.47,0,0,0,43.42,43.42,2.7,2.7,0,1,1,0,5.4,43.47,43.47,0,0,0-43.42,43.42A2.7,2.7,0,0,1,155,495.14Z"/><path class="cls-1" d="M155,400.2a46.12,46.12,0,0,0,46.12,46.12h0A46.12,46.12,0,0,0,155,492.44h0a46.12,46.12,0,0,0-46.12-46.12h0A46.12,46.12,0,0,0,155,400.2h0m0-5.4a5.4,5.4,0,0,0-5.4,5.4,40.77,40.77,0,0,1-40.72,40.72,5.4,5.4,0,1,0,0,10.8,40.77,40.77,0,0,1,40.72,40.72,5.4,5.4,0,0,0,10.8,0,40.76,40.76,0,0,1,40.72-40.72,5.4,5.4,0,0,0,0-10.8,40.76,40.76,0,0,1-40.72-40.72,5.4,5.4,0,0,0-5.4-5.4Z"/><path class="cls-1" d="M575.35,321.37a2.7,2.7,0,0,1-2.7-2.7,43.46,43.46,0,0,0-43.42-43.42,2.7,2.7,0,0,1,0-5.4,43.47,43.47,0,0,0,43.42-43.43,2.7,2.7,0,1,1,5.4,0,43.48,43.48,0,0,0,43.43,43.43,2.7,2.7,0,0,1,0,5.4,43.47,43.47,0,0,0-43.43,43.42A2.7,2.7,0,0,1,575.35,321.37Z"/><path class="cls-1" d="M575.35,226.42a46.12,46.12,0,0,0,46.12,46.13,46.12,46.12,0,0,0-46.12,46.12h0a46.11,46.11,0,0,0-46.12-46.12,46.12,46.12,0,0,0,46.12-46.13h0m0-5.4a5.4,5.4,0,0,0-5.4,5.4,40.77,40.77,0,0,1-40.72,40.73,5.4,5.4,0,1,0,0,10.8A40.76,40.76,0,0,1,570,318.67a5.4,5.4,0,1,0,10.8,0A40.76,40.76,0,0,1,621.47,278a5.4,5.4,0,0,0,0-10.8,40.77,40.77,0,0,1-40.72-40.73,5.4,5.4,0,0,0-5.4-5.4Z"/><polygon class="cls-1" points="1035.33 853.61 705.44 380.81 610.34 452.39 726.49 598.01 406.01 280.75 44.67 853.61 1035.33 853.61"/><path class="cls-2" d="M397.61,660.6s22.44,60.54,7.21,193h64.65S505.85,733,494.78,709.91,397.61,660.6,397.61,660.6Z"/><path class="cls-3" d="M747.2,739.87c-33.35-109.67-133.46-128.75-175-128.75-19.14,0-89.83-30.4-115.67-43.61-3.63-1.85-8.58-12.6-7.08-16.38l7.33-11.9c2-8.25,3.52-17.3-3.41-22.21l-12.11-6a9.81,9.81,0,0,0-11,1.49l-11.52,10.39s-57.84-12.78-67.87-11.27c-5.87.89-11.35,10.64-14.89,18.59a9.33,9.33,0,0,1-11.35,4.88c-20.61-7.22-29-4.87-29-4.87s-18.1,23.53,0,41.63c140.15,144,187.66,115.27,205.43,282.31h64l29.82-63,50.71.45,24.19,62.56h94.55ZM356.75,542.43a6.39,6.39,0,1,1,6.39-6.39A6.39,6.39,0,0,1,356.75,542.43Z"/></svg>
