<?xml version="1.0" encoding="UTF-8"?>
<svg version="1.1" xmlns="http://www.w3.org/2000/svg" width="512" height="512">
<path d="M0 0 C168.96 0 337.92 0 512 0 C512 168.96 512 337.92 512 512 C343.04 512 174.08 512 0 512 C0 343.04 0 174.08 0 0 Z " fill="#072320" transform="translate(0,0)"/>
<path d="M0 0 C1.29035156 -0.020625 2.58070313 -0.04125 3.91015625 -0.0625 C15.49076469 -0.10914898 26.21532519 1.60568664 36.6875 6.6875 C37.75170166 7.19966064 37.75170166 7.19966064 38.83740234 7.72216797 C57.57206868 17.1496412 73.80855795 32.74680333 86.11474609 49.54248047 C86.99433223 50.73423278 87.88919505 51.91479464 88.79541016 53.08642578 C92.80399972 58.29223349 96.26004233 63.73573677 99.625 69.375 C100.15351563 70.24253906 100.68203125 71.11007813 101.2265625 72.00390625 C103.81870761 76.32634112 106.05495862 80.34008998 107.375 85.25 C108.035 85.25 108.695 85.25 109.375 85.25 C109.601875 84.445625 109.82875 83.64125 110.0625 82.8125 C121.20286412 52.57436881 151.0053265 19.63236984 180.2109375 6.0859375 C200.95966491 -1.92891388 226.22399192 -3.04697022 247.375 4.25 C248.86966797 4.64832031 248.86966797 4.64832031 250.39453125 5.0546875 C272.63842359 11.30799057 292.85953684 28.84364154 304.07421875 48.77734375 C304.71810547 50.00130859 304.71810547 50.00130859 305.375 51.25 C305.81457031 52.07628906 306.25414062 52.90257812 306.70703125 53.75390625 C316.13540173 72.86700774 317.8337456 95.82232719 310.98828125 116.0625 C306.78141652 127.37224042 301.41479015 137.19293028 293.375 146.25 C292.58222656 147.25546875 292.58222656 147.25546875 291.7734375 148.28125 C284.17336218 157.71582626 274.20267043 164.08402567 263.625 169.6875 C262.84543945 170.1004834 262.06587891 170.5134668 261.26269531 170.93896484 C249.32643545 177.04841201 235.77406849 180.55869753 222.375 181.25 C221.14394531 181.31445312 219.91289062 181.37890625 218.64453125 181.4453125 C193.61057324 182.31682179 173.08107044 172.4653165 154.375 156.25 C153.86710938 155.8159082 153.35921875 155.38181641 152.8359375 154.93457031 C134.42363359 139.0959074 120.37617774 118.8006163 109.375 97.25 C109.375 96.59 109.375 95.93 109.375 95.25 C108.715 95.25 108.055 95.25 107.375 95.25 C107.14039063 96.07113281 106.90578125 96.89226562 106.6640625 97.73828125 C105.11746685 101.95158275 103.04728377 105.59531233 100.75 109.4375 C100.3070459 110.18491455 99.8640918 110.9323291 99.40771484 111.70239258 C96.2156061 117.01856506 92.80350821 122.05221494 89.0625 127 C87.61065981 128.93578692 86.28818428 130.89156027 85 132.9375 C84.46375 133.700625 83.9275 134.46375 83.375 135.25 C82.715 135.25 82.055 135.25 81.375 135.25 C81.10945312 135.83265625 80.84390625 136.4153125 80.5703125 137.015625 C78.4741422 140.93395641 75.37425563 144.0008064 72.375 147.25 C71.7871875 147.89195312 71.199375 148.53390625 70.59375 149.1953125 C59.41898315 160.89093712 45.43559006 170.34164218 30.375 176.25 C29.13097412 176.7749707 29.13097412 176.7749707 27.86181641 177.31054688 C19.77250007 180.41874349 12.14327652 180.83783798 3.60253906 180.71655273 C1.37749589 180.68753255 -0.84515949 180.69600187 -3.0703125 180.70898438 C-11.62154719 180.69645253 -19.41762877 179.79839667 -27.625 177.25 C-28.31948242 177.05672119 -29.01396484 176.86344238 -29.72949219 176.66430664 C-54.42372659 169.75031071 -74.76592145 153.09791997 -87.61572266 131.06884766 C-98.67198117 111.144047 -101.22957898 87.80043907 -94.96020508 65.86108398 C-91.14403645 53.87570757 -84.88668309 43.70878411 -76.625 34.25 C-76.09648438 33.57839844 -75.56796875 32.90679687 -75.0234375 32.21484375 C-63.7944363 18.30305162 -47.29875517 9.67495384 -30.625 4.25 C-29.75359375 3.940625 -28.8821875 3.63125 -27.984375 3.3125 C-18.77509429 0.05479526 -9.68772518 0.03802836 0 0 Z " fill="#7EF9DF" transform="translate(147.625,165.75)"/>
<path d="M0 0 C0.75990234 -0.01224609 1.51980469 -0.02449219 2.30273438 -0.03710938 C28.61939486 -0.10453037 52.32124287 19.9383182 70.61328125 36.921875 C72.74637867 38.89507517 74.91608987 40.80044703 77.125 42.6875 C84.68891032 49.27492189 91.59915145 56.52564973 98.0625 64.1875 C96.72250502 67.194318 95.26404709 69.18512609 92.875 71.4375 C90.45200498 73.78153795 88.21283867 76.15514687 86.0625 78.75 C76.41645416 89.88503278 64.87389427 99.44466825 53.0625 108.1875 C52.52415527 108.58807617 51.98581055 108.98865234 51.43115234 109.40136719 C32.2147237 123.56698733 12.19758279 133.34826747 -12.16357422 129.86962891 C-26.58079355 127.26860135 -39.57589143 121.40302695 -50.9375 112.1875 C-51.66710937 111.62160156 -52.39671875 111.05570312 -53.1484375 110.47265625 C-61.74728256 103.47168087 -66.89335112 94.37934773 -70.9375 84.1875 C-71.25847656 83.445 -71.57945313 82.7025 -71.91015625 81.9375 C-76.99169103 68.3237138 -74.69130419 52.92019147 -68.8359375 40.00146484 C-65.6098304 33.48788449 -61.26840895 28.09754772 -55.9375 23.1875 C-55.174375 22.383125 -54.41125 21.57875 -53.625 20.75 C-39.13855348 6.93734169 -19.85265131 0.01675329 0 0 Z " fill="#072320" transform="translate(155.9375,190.8125)"/>
<path d="M0 0 C0.80050781 0.39058594 1.60101563 0.78117188 2.42578125 1.18359375 C18.90994939 9.64527153 29.84348638 23.73499442 36 41 C38.4352697 51.92749223 38.60265687 65.70046972 34 76 C33.58621094 76.96035156 33.17242187 77.92070312 32.74609375 78.91015625 C24.08311454 97.58159101 9.13443318 109.12580279 -9.5 116.875 C-28.71898217 123.76876534 -47.88028894 122.65215471 -66.15234375 114.0859375 C-76.67695881 108.92357769 -85.90514785 102.35093048 -95 95 C-95.5667041 94.54367187 -96.1334082 94.08734375 -96.71728516 93.6171875 C-129.05360777 67.37210335 -129.05360777 67.37210335 -133.96484375 56.953125 C-134.01838377 53.97867957 -132.71825093 53.00900945 -130.6875 50.875 C-129.86378906 50.00746094 -129.04007812 49.13992187 -128.19140625 48.24609375 C-127.12861374 47.16307086 -126.06468457 46.08116292 -125 45 C-124.33339355 44.31437988 -123.66678711 43.62875977 -122.97998047 42.92236328 C-114.3796355 34.08942197 -105.81534367 25.48765852 -96 18 C-95.29488281 17.42765625 -94.58976562 16.8553125 -93.86328125 16.265625 C-65.29227122 -6.76017975 -34.56304999 -17.85224907 0 0 Z " fill="#072320" transform="translate(393,200)"/>
<path d="M0 0 C4.21097615 3.62781359 8.36390842 7.29503595 12.42578125 11.08984375 C13.72128906 12.28673828 13.72128906 12.28673828 15.04296875 13.5078125 C25.98401447 23.98901717 36.24301615 36.69072194 43.42578125 50.08984375 C43.42578125 50.74984375 43.42578125 51.40984375 43.42578125 52.08984375 C44.08578125 52.08984375 44.74578125 52.08984375 45.42578125 52.08984375 C45.68746094 51.37441406 45.94914063 50.65898437 46.21875 49.921875 C57.83011436 22.67838258 87.4275145 -4.55527574 114.34326172 -16.0859375 C140.35004068 -26.37889011 169.5502396 -25.24431266 195.42578125 -14.91015625 C200.87746196 -12.47373794 206.15962294 -9.72052502 211.42578125 -6.91015625 C212.08578125 -6.58015625 212.74578125 -6.25015625 213.42578125 -5.91015625 C213.42578125 -5.25015625 213.42578125 -4.59015625 213.42578125 -3.91015625 C214.04453125 -3.76578125 214.66328125 -3.62140625 215.30078125 -3.47265625 C217.42578125 -2.91015625 217.42578125 -2.91015625 219.42578125 -1.91015625 C219.42578125 -1.25015625 219.42578125 -0.59015625 219.42578125 0.08984375 C220.15023438 0.33605469 220.8746875 0.58226562 221.62109375 0.8359375 C229.98298034 4.57432969 236.26278684 12.75109999 241.42578125 20.08984375 C242.08449219 21.01796875 242.74320312 21.94609375 243.421875 22.90234375 C257.99598785 44.06098018 264.06903953 67.4722875 260.42578125 93.08984375 C254.91707978 121.17519058 238.12819288 145.14845479 214.62646484 161.32861328 C190.87723746 176.80740318 159.95229132 182.87220309 132.05078125 178.02734375 C110.22862658 173.27466589 92.44702642 160.05804933 76.42578125 145.08984375 C75.20568359 143.95095703 75.20568359 143.95095703 73.9609375 142.7890625 C64.62855975 133.78103279 56.96229629 123.57596523 49.73828125 112.83984375 C49.30386719 112.19571533 48.86945313 111.55158691 48.421875 110.88793945 C45.42578125 106.34178331 45.42578125 106.34178331 45.42578125 104.08984375 C44.76578125 104.08984375 44.10578125 104.08984375 43.42578125 104.08984375 C43.16410156 104.80527344 42.90242187 105.52070313 42.6328125 106.2578125 C29.95314283 136.00784652 -1.6060344 162.33596035 -30.89453125 174.46484375 C-33.76916095 175.48559999 -36.61852854 176.33846745 -39.57421875 177.08984375 C-40.43015625 177.31285156 -41.28609375 177.53585937 -42.16796875 177.765625 C-57.82599022 181.07270712 -75.15220904 180.06971722 -90.57421875 176.08984375 C-91.22406738 175.92355469 -91.87391602 175.75726563 -92.54345703 175.5859375 C-104.83098964 172.35158819 -117.0183188 167.234755 -127.57421875 160.08984375 C-127.57421875 159.42984375 -127.57421875 158.76984375 -127.57421875 158.08984375 C-128.26773438 157.87585938 -128.96125 157.661875 -129.67578125 157.44140625 C-133.36478718 155.72119594 -136.03587611 153.24095755 -138.94921875 150.46484375 C-139.52575195 149.92069824 -140.10228516 149.37655273 -140.69628906 148.81591797 C-157.22118128 133.0701497 -170.70778293 111.51393153 -171.70043945 88.11450195 C-171.78131297 84.56402626 -171.80918661 81.01618755 -171.82421875 77.46484375 C-171.84484375 76.26988281 -171.86546875 75.07492188 -171.88671875 73.84375 C-171.93879086 61.82811147 -169.52994184 51.01881483 -164.57421875 40.08984375 C-164.26613281 39.4040625 -163.95804688 38.71828125 -163.640625 38.01171875 C-161.11892371 32.69626541 -157.94395909 27.90132109 -154.57421875 23.08984375 C-154.15785156 22.4659375 -153.74148437 21.84203125 -153.3125 21.19921875 C-150.01188297 16.48121963 -146.11349791 12.42176132 -142.07421875 8.33984375 C-141.25522095 7.50694824 -141.25522095 7.50694824 -140.41967773 6.65722656 C-131.78621257 -1.91015625 -131.78621257 -1.91015625 -127.57421875 -1.91015625 C-127.57421875 -2.57015625 -127.57421875 -3.23015625 -127.57421875 -3.91015625 C-126.98253906 -4.23628906 -126.39085937 -4.56242187 -125.78125 -4.8984375 C-124.99105469 -5.33542969 -124.20085937 -5.77242187 -123.38671875 -6.22265625 C-122.60941406 -6.65191406 -121.83210938 -7.08117187 -121.03125 -7.5234375 C-119.38134584 -8.45462347 -117.75197053 -9.42306993 -116.14453125 -10.42578125 C-79.47000189 -31.60560064 -32.02826256 -26.61359616 0 0 Z M-87.57421875 -9.91015625 C-88.56010986 -9.64489136 -88.56010986 -9.64489136 -89.56591797 -9.37426758 C-114.53218334 -2.48605945 -137.38327481 12.57832689 -150.80615234 35.16259766 C-161.4097799 54.47330543 -165.30673044 76.93063173 -160.07421875 98.58984375 C-156.31819965 111.3259226 -149.93612929 122.8093304 -141.57421875 133.08984375 C-140.57841797 134.34861328 -140.57841797 134.34861328 -139.5625 135.6328125 C-133.4983976 142.86265732 -126.39173018 147.9498076 -118.57421875 153.08984375 C-117.17429687 154.04890625 -117.17429687 154.04890625 -115.74609375 155.02734375 C-100.57724925 164.73540423 -83.19759528 168.29876411 -65.47412109 168.43994141 C-63.97526355 168.45634873 -62.47647914 168.48343257 -60.97802734 168.52197266 C-34.14322392 169.20547263 -13.47333348 155.89695783 5.578125 137.87890625 C9.72701802 133.8153814 13.86390192 129.68610723 17.42578125 125.08984375 C17.42578125 124.42984375 17.42578125 123.76984375 17.42578125 123.08984375 C18.08578125 123.08984375 18.74578125 123.08984375 19.42578125 123.08984375 C21.3386135 120.69189514 23.11416427 118.29192296 24.86328125 115.77734375 C25.65375854 114.64872925 25.65375854 114.64872925 26.46020508 113.49731445 C30.43063429 107.73554503 34.09797769 101.82629457 37.61328125 95.77734375 C38.08241943 94.97192139 38.55155762 94.16649902 39.03491211 93.33666992 C40.98070008 89.92092461 42.60867788 86.96285978 43.42578125 83.08984375 C44.08578125 83.08984375 44.74578125 83.08984375 45.42578125 83.08984375 C45.66554688 83.91742188 45.9053125 84.745 46.15234375 85.59765625 C47.64265197 89.6845751 49.58844792 93.23182733 51.80078125 96.96484375 C52.45735718 98.07424316 52.45735718 98.07424316 53.12719727 99.20605469 C57.99847124 107.26802596 63.5639515 114.72775679 69.42578125 122.08984375 C69.88597656 122.6725 70.34617187 123.25515625 70.8203125 123.85546875 C86.72986144 143.84556482 106.51820829 160.24177625 131.42578125 167.08984375 C132.23789062 167.31929687 133.05 167.54875 133.88671875 167.78515625 C158.79792178 173.82165937 185.90466487 165.88671115 207.39648438 153.33886719 C211.76899376 150.6476066 215.61727442 147.51387275 219.42578125 144.08984375 C220.42544922 143.3009375 220.42544922 143.3009375 221.4453125 142.49609375 C236.94082725 130.0263304 247.4998019 109.6224311 250.42578125 90.08984375 C252.95674983 64.69696 246.55538857 42.73051659 230.62768555 22.94726562 C222.56712184 13.29945467 213.14364999 6.46566555 202.42578125 0.08984375 C201.61753906 -0.39355469 200.80929687 -0.87695312 199.9765625 -1.375 C186.05686832 -8.97860258 170.49235769 -12.10458371 154.81494141 -12.15039062 C152.82702585 -12.160029 150.83925252 -12.19119924 148.8515625 -12.22265625 C119.88537043 -12.338637 98.20772874 3.53617693 78.42578125 23.08984375 C75.94029923 25.65224591 73.6522464 28.30047996 71.42578125 31.08984375 C70.65878906 32.04246094 69.89179688 32.99507812 69.1015625 33.9765625 C53.66165483 52.07821062 53.66165483 52.07821062 45.42578125 73.08984375 C44.76578125 73.08984375 44.10578125 73.08984375 43.42578125 73.08984375 C43.19117188 72.26871094 42.9565625 71.44757813 42.71484375 70.6015625 C41.16831031 66.38843049 39.09864433 62.74404988 36.80078125 58.90234375 C36.35420166 58.15130371 35.90762207 57.40026367 35.44750977 56.62646484 C18.16789584 27.92055603 -7.9045777 -1.84403256 -41.578125 -10.578125 C-49.01632078 -12.21184966 -56.23568825 -12.31808546 -63.82421875 -12.22265625 C-65.12101562 -12.22587891 -66.4178125 -12.22910156 -67.75390625 -12.23242188 C-74.63576758 -12.19387785 -80.95798687 -11.83245091 -87.57421875 -9.91015625 Z " fill="#11352F" transform="translate(211.57421875,177.91015625)"/>
<path d="M0 0 C0.75990234 -0.01224609 1.51980469 -0.02449219 2.30273438 -0.03710938 C28.61939486 -0.10453037 52.32124287 19.9383182 70.61328125 36.921875 C72.74637867 38.89507517 74.91608987 40.80044703 77.125 42.6875 C84.68891032 49.27492189 91.59915145 56.52564973 98.0625 64.1875 C96.72250502 67.194318 95.26404709 69.18512609 92.875 71.4375 C90.45200498 73.78153795 88.21283867 76.15514687 86.0625 78.75 C76.41645416 89.88503278 64.87389427 99.44466825 53.0625 108.1875 C52.52415527 108.58807617 51.98581055 108.98865234 51.43115234 109.40136719 C32.2147237 123.56698733 12.19758279 133.34826747 -12.16357422 129.86962891 C-26.58079355 127.26860135 -39.57589143 121.40302695 -50.9375 112.1875 C-51.66710937 111.62160156 -52.39671875 111.05570312 -53.1484375 110.47265625 C-61.74728256 103.47168087 -66.89335112 94.37934773 -70.9375 84.1875 C-71.25847656 83.445 -71.57945313 82.7025 -71.91015625 81.9375 C-76.99169103 68.3237138 -74.69130419 52.92019147 -68.8359375 40.00146484 C-65.6098304 33.48788449 -61.26840895 28.09754772 -55.9375 23.1875 C-55.174375 22.383125 -54.41125 21.57875 -53.625 20.75 C-39.13855348 6.93734169 -19.85265131 0.01675329 0 0 Z M-51.86328125 32.77734375 C-53.13949227 34.15720977 -53.13949227 34.15720977 -52.9375 36.1875 C-53.5975 36.1875 -54.2575 36.1875 -54.9375 36.1875 C-56.06668033 38.56059022 -57.19092065 40.93581994 -58.3125 43.3125 C-58.62960938 43.97765625 -58.94671875 44.6428125 -59.2734375 45.328125 C-65.16253714 57.84246174 -65.23353001 68.97271568 -60.9375 82.1875 C-54.30526295 98.31937691 -41.316783 108.40741239 -25.671875 115.125 C-11.24022334 120.7327275 4.42389569 122.32671976 19.03662109 116.38476562 C32.26960827 110.53726302 43.99364741 102.4465548 55.0625 93.1875 C55.57506348 92.7651709 56.08762695 92.3428418 56.61572266 91.90771484 C66.3388727 83.88403478 75.26355357 75.2082686 84.0625 66.1875 C82.6234916 62.90076262 80.84239422 60.71022846 78.31640625 58.17578125 C77.56705811 57.42232422 76.81770996 56.66886719 76.0456543 55.89257812 C75.24683838 55.10302734 74.44802246 54.31347656 73.625 53.5 C72.39873901 52.28280273 72.39873901 52.28280273 71.14770508 51.04101562 C65.37112709 45.35872346 59.50340824 40.10950749 53.0625 35.1875 C52.07507813 34.383125 51.08765625 33.57875 50.0703125 32.75 C18.30384016 7.06469246 -21.49879056 1.67763537 -51.86328125 32.77734375 Z " fill="#10342E" transform="translate(155.9375,190.8125)"/>
<path d="M0 0 C0.80050781 0.39058594 1.60101563 0.78117188 2.42578125 1.18359375 C18.90994939 9.64527153 29.84348638 23.73499442 36 41 C38.4352697 51.92749223 38.60265687 65.70046972 34 76 C33.58621094 76.96035156 33.17242187 77.92070312 32.74609375 78.91015625 C24.08311454 97.58159101 9.13443318 109.12580279 -9.5 116.875 C-28.71898217 123.76876534 -47.88028894 122.65215471 -66.15234375 114.0859375 C-76.67695881 108.92357769 -85.90514785 102.35093048 -95 95 C-95.5667041 94.54367187 -96.1334082 94.08734375 -96.71728516 93.6171875 C-129.05360777 67.37210335 -129.05360777 67.37210335 -133.96484375 56.953125 C-134.01838377 53.97867957 -132.71825093 53.00900945 -130.6875 50.875 C-129.86378906 50.00746094 -129.04007812 49.13992187 -128.19140625 48.24609375 C-127.12861374 47.16307086 -126.06468457 46.08116292 -125 45 C-124.33339355 44.31437988 -123.66678711 43.62875977 -122.97998047 42.92236328 C-114.3796355 34.08942197 -105.81534367 25.48765852 -96 18 C-95.29488281 17.42765625 -94.58976562 16.8553125 -93.86328125 16.265625 C-65.29227122 -6.76017975 -34.56304999 -17.85224907 0 0 Z M-121 55 C-119.59365534 58.18046187 -117.92151657 60.33536362 -115.47265625 62.79296875 C-114.76850586 63.50122803 -114.06435547 64.2094873 -113.33886719 64.93920898 C-112.58766602 65.68114502 -111.83646484 66.42308105 -111.0625 67.1875 C-110.29196289 67.95199463 -109.52142578 68.71648926 -108.72753906 69.50415039 C-103.07232422 75.06171868 -97.29694244 80.17543087 -91 85 C-89.9996875 85.80566406 -88.999375 86.61132812 -87.96875 87.44140625 C-70.8452012 101.14549389 -51.98446835 112.75875145 -29.29296875 110.59765625 C-17.11542438 109.10510499 -6.12047324 104.93633616 4 98 C4.82113281 97.443125 5.64226562 96.88625 6.48828125 96.3125 C16.40278669 89.11406916 23.78604146 78.77590231 26.3125 66.6875 C28.02177226 54.77286693 26.93703072 46.01107458 22 35 C21.3263234 33.33615444 20.65712606 31.6704513 20 30 C19.34 30 18.68 30 18 30 C17.5978125 29.12794922 17.5978125 29.12794922 17.1875 28.23828125 C10.44126832 15.5225222 -3.91303085 8.37106771 -17.00390625 3.99609375 C-59.38525774 -7.68558369 -93.78601566 27.00350493 -121 55 Z " fill="#10332E" transform="translate(393,200)"/>
<path d="M0 0 C3 1 3 1 4.2109375 2.765625 C5.13471643 5.38147425 5.02641299 7.02039168 4.625 9.75 C4.51414062 10.54921875 4.40328125 11.3484375 4.2890625 12.171875 C4.19367188 12.77515625 4.09828125 13.3784375 4 14 C4.66 14.33 5.32 14.66 6 15 C5.01 16.98 4.02 18.96 3 21 C-0.57108274 15.64337589 -4.10280286 9.61681718 -3 3 C-1.5 1.125 -1.5 1.125 0 0 Z " fill="#10332E" transform="translate(416,224)"/>
<path d="M0 0 C0.93423645 3.01031744 1.04449911 3.86650268 0 7 C1.32 7.33 2.64 7.66 4 8 C3.01 8 2.02 8 1 8 C1.33 9.65 1.66 11.3 2 13 C2.66 13 3.32 13 4 13 C7 16.46153846 7 16.46153846 7 19 C7.66 19 8.32 19 9 19 C9 19.66 9 20.32 9 21 C10.32 21.66 11.64 22.32 13 23 C12.01 23.66 11.02 24.32 10 25 C-2.79238329 11.66093366 -2.79238329 11.66093366 -4 2 C-2.68 1.34 -1.36 0.68 0 0 Z " fill="#153D37" transform="translate(92,276)"/>
<path d="M0 0 C1.32 0 2.64 0 4 0 C4.33 0.99 4.66 1.98 5 3 C3.75645114 4.29787866 2.5048736 5.58806759 1.25 6.875 C0.55390625 7.59429687 -0.1421875 8.31359375 -0.859375 9.0546875 C-2.85122217 10.86479679 -4.5427658 11.94848086 -7 13 C-7.33 12.01 -7.66 11.02 -8 10 C-6.35 9.67 -4.7 9.34 -3 9 C-2.87625 8.071875 -2.7525 7.14375 -2.625 6.1875 C-2 3 -2 3 0 0 Z " fill="#17403A" transform="translate(411,292)"/>
<path d="M0 0 C0.66 0.33 1.32 0.66 2 1 C-2.625 6.875 -2.625 6.875 -6 8 C-6 7.34 -6 6.68 -6 6 C-8.64 6.66 -11.28 7.32 -14 8 C-14 7.34 -14 6.68 -14 6 C-13.32453125 5.73445313 -12.6490625 5.46890625 -11.953125 5.1953125 C-11.06109375 4.84210938 -10.1690625 4.48890625 -9.25 4.125 C-8.36828125 3.77695312 -7.4865625 3.42890625 -6.578125 3.0703125 C-4.02311179 2.06169378 -4.02311179 2.06169378 -1.796875 0.8046875 C-1.20390625 0.53914063 -0.6109375 0.27359375 0 0 Z " fill="#174039" transform="translate(412,334)"/>
<path d="M0 0 C1.43793392 0.31049726 2.8753318 0.6234776 4.3125 0.9375 C5.11300781 1.11152344 5.91351563 1.28554688 6.73828125 1.46484375 C9 2 9 2 12 3 C12 3.66 12 4.32 12 5 C7.545 4.01 7.545 4.01 3 3 C2.67 3.66 2.34 4.32 2 5 C1.34 3.35 0.68 1.7 0 0 Z M-1 4 C-0.34 4 0.32 4 1 4 C0.67 4.66 0.34 5.32 0 6 C-0.33 5.34 -0.66 4.68 -1 4 Z " fill="#153C36" transform="translate(105,338)"/>
<path d="M0 0 C3.53600465 1.91135386 5.78972846 3.62642766 8 7 C7.01 7 6.02 7 5 7 C3.66018514 7.3062434 2.32488113 7.63451555 1 8 C0.40267181 5.23735711 0 2.83967231 0 0 Z " fill="#18433C" transform="translate(407,210)"/>
<path d="M0 0 C0.66 0.99 1.32 1.98 2 3 C0.02 5.97 0.02 5.97 -2 9 C-3.65 8.01 -5.3 7.02 -7 6 C-6.34 5.01 -5.68 4.02 -5 3 C-3.68 3.33 -2.36 3.66 -1 4 C-0.67 2.68 -0.34 1.36 0 0 Z " fill="#133934" transform="translate(420,283)"/>
<path d="M0 0 C0 0.66 0 1.32 0 2 C-3.96 3.32 -7.92 4.64 -12 6 C-12.66 5.34 -13.32 4.68 -14 4 C-12.42466914 3.13116294 -10.83935491 2.28040932 -9.25 1.4375 C-8.36828125 0.96183594 -7.4865625 0.48617187 -6.578125 -0.00390625 C-3.79298812 -1.07998186 -2.73019786 -1.06528748 0 0 Z " fill="#143B35" transform="translate(114,170)"/>
<path d="M0 0 C7.42857143 -0.28571429 7.42857143 -0.28571429 11 2 C11.33 1.34 11.66 0.68 12 0 C11.67 1.65 11.34 3.3 11 5 C10.29875 4.71125 9.5975 4.4225 8.875 4.125 C5.94547497 2.97866412 2.99078347 1.97374346 0 1 C0 0.67 0 0.34 0 0 Z " fill="#174039" transform="translate(401,172)"/>
<path d="M0 0 C0.33 0.66 0.66 1.32 1 2 C1.66 2 2.32 2 3 2 C3 2.66 3 3.32 3 4 C4.32 4.66 5.64 5.32 7 6 C6.01 6.66 5.02 7.32 4 8 C2 6.25 2 6.25 0 4 C0 2.68 0 1.36 0 0 Z " fill="#1B4841" transform="translate(98,293)"/>
<path d="M0 0 C3.68754757 0.49831724 5.60490662 1.10067643 8 4 C6.02 4 4.04 4 2 4 C1.34 2.68 0.68 1.36 0 0 Z " fill="#17403A" transform="translate(90,330)"/>
<path d="M0 0 C0.66 0.33 1.32 0.66 2 1 C1.34 2.32 0.68 3.64 0 5 C-0.99 5 -1.98 5 -3 5 C-1.125 1.125 -1.125 1.125 0 0 Z " fill="#17413A" transform="translate(96,218)"/>
</svg>
