<svg version="1.1" xmlns="http://www.w3.org/2000/svg" width="200" height="200">
<path d="M0 0 C0.89847656 0.42925781 1.79695312 0.85851563 2.72265625 1.30078125 C26.88243114 13.64138569 43.0638576 34.48266154 52.3125 59.55859375 C59.93723986 83.80638779 58.0598389 110.13435065 47 133 C46.57074219 133.89847656 46.14148438 134.79695312 45.69921875 135.72265625 C33.35861431 159.88243114 12.51733846 176.0638576 -12.55859375 185.3125 C-36.80638779 192.93723986 -63.13435065 191.0598389 -86 180 C-86.89847656 179.57074219 -87.79695313 179.14148438 -88.72265625 178.69921875 C-112.88243114 166.35861431 -129.0638576 145.51733846 -138.3125 120.44140625 C-145.93723986 96.19361221 -144.0598389 69.86564935 -133 47 C-132.57074219 46.10152344 -132.14148438 45.20304687 -131.69921875 44.27734375 C-119.35861431 20.11756886 -98.51733846 3.9361424 -73.44140625 -5.3125 C-49.19361221 -12.93723986 -22.86564935 -11.0598389 0 0 Z " fill="#6476D9" transform="translate(143,10)"/>
<path d="M0 0 C0.89847656 0.42925781 1.79695312 0.85851563 2.72265625 1.30078125 C26.88243114 13.64138569 43.0638576 34.48266154 52.3125 59.55859375 C59.93723986 83.80638779 58.0598389 110.13435065 47 133 C46.57074219 133.89847656 46.14148438 134.79695312 45.69921875 135.72265625 C33.35861431 159.88243114 12.51733846 176.0638576 -12.55859375 185.3125 C-36.80638779 192.93723986 -63.13435065 191.0598389 -86 180 C-86.89847656 179.57074219 -87.79695313 179.14148438 -88.72265625 178.69921875 C-112.88243114 166.35861431 -129.0638576 145.51733846 -138.3125 120.44140625 C-145.93723986 96.19361221 -144.0598389 69.86564935 -133 47 C-132.57074219 46.10152344 -132.14148438 45.20304687 -131.69921875 44.27734375 C-119.35861431 20.11756886 -98.51733846 3.9361424 -73.44140625 -5.3125 C-49.19361221 -12.93723986 -22.86564935 -11.0598389 0 0 Z M-102 31 C-102.60328125 31.51691406 -103.2065625 32.03382812 -103.828125 32.56640625 C-116.29374882 43.72139205 -125.00044647 62.87665331 -126.17700195 79.50097656 C-126.74141529 103.81347451 -123.30268841 126.55409825 -106 145 C-105.154375 145.92425781 -104.30875 146.84851563 -103.4375 147.80078125 C-97.51675542 154.01588103 -91.50424627 158.84716469 -84 163 C-83.01902344 163.54527344 -82.03804687 164.09054688 -81.02734375 164.65234375 C-63.63444886 173.83130376 -41.29453528 176.1739898 -22.125 171.5 C-9.57288795 167.52586419 2.33405984 162.06687855 12 153 C12.92425781 152.154375 13.84851563 151.30875 14.80078125 150.4375 C30.58059733 135.40503651 39.88408766 115.28768358 40.47314453 93.48461914 C40.64688468 71.34538588 35.31948755 51.57787403 20 35 C19.154375 34.07445313 18.30875 33.14890625 17.4375 32.1953125 C2.97654727 17.03596149 -16.73083549 7.54315181 -37.75390625 6.72265625 C-63.44555369 6.13199748 -83.18583455 13.06166639 -102 31 Z " fill="#CEC6F8" transform="translate(143,10)"/>
<path d="M0 0 C0.66 0 1.32 0 2 0 C3.39658472 2.0607787 4.65623205 4.10735288 5.89453125 6.26171875 C6.27847046 6.91557053 6.66240967 7.5694223 7.0579834 8.24308777 C7.88496825 9.65294486 8.70866548 11.06473437 9.52944946 12.47821045 C11.67181204 16.16715263 13.83733643 19.84246707 16 23.51953125 C16.64356194 24.61599976 16.64356194 24.61599976 17.30012512 25.73461914 C21.36452093 32.64877488 25.56201332 39.47574215 29.8137207 46.27612305 C31.21336508 48.51483444 32.60875625 50.75605847 34 53 C34.55606934 53.8962207 35.11213867 54.79244141 35.68505859 55.71582031 C36.51191162 57.06691895 36.51191162 57.06691895 37.35546875 58.4453125 C37.86102295 59.26789551 38.36657715 60.09047852 38.88745117 60.93798828 C40 63 40 63 40 65 C38.65035156 65.74830078 38.65035156 65.74830078 37.2734375 66.51171875 C35.97385048 67.23678588 34.67438213 67.96206575 33.375 68.6875 C32.67584473 69.07526611 31.97668945 69.46303223 31.25634766 69.86254883 C26.85217425 72.32673198 22.53174535 74.8906909 18.25 77.5625 C17.27627441 78.16231689 16.30254883 78.76213379 15.29931641 79.38012695 C13.36933207 80.57295331 11.44937582 81.78217965 9.54052734 83.00854492 C8.6480127 83.55615479 7.75549805 84.10376465 6.8359375 84.66796875 C6.04751465 85.16578857 5.2590918 85.6636084 4.44677734 86.17651367 C0.9643907 87.34854422 -0.68065412 86.47979019 -4 85 C-6.19916492 83.78763549 -8.36442726 82.51257358 -10.5 81.19140625 C-11.09876953 80.8240184 -11.69753906 80.45663055 -12.31445312 80.07810974 C-14.21321733 78.91193948 -16.10684638 77.73775238 -18 76.5625 C-19.89390037 75.39209856 -21.78887502 74.22350691 -23.68554688 73.05760193 C-25.40719053 71.99849978 -27.12556665 70.9340914 -28.84375 69.86938477 C-31.83787153 68.0960255 -34.86799 66.51382449 -38 65 C-36.43941828 60.69410174 -34.27674739 56.85520175 -31.9375 52.9375 C-31.3024353 51.86556396 -31.3024353 51.86556396 -30.65454102 50.77197266 C-25.56595348 42.21522038 -20.38744837 33.71158632 -15.20458984 25.21166992 C-12.09769763 20.11477404 -8.99360315 15.01807974 -5.9765625 9.8671875 C-5.55705322 9.15320801 -5.13754395 8.43922852 -4.70532227 7.70361328 C-3.65307293 5.90483114 -2.60933355 4.10107801 -1.56640625 2.296875 C-1.04949219 1.53890625 -0.53257813 0.7809375 0 0 Z " fill="#DE9C03" transform="translate(99,37)"/>
<path d="M0 0 C0.89847656 0.42925781 1.79695312 0.85851563 2.72265625 1.30078125 C26.88243114 13.64138569 43.0638576 34.48266154 52.3125 59.55859375 C59.93723986 83.80638779 58.0598389 110.13435065 47 133 C46.57074219 133.89847656 46.14148438 134.79695312 45.69921875 135.72265625 C33.35861431 159.88243114 12.51733846 176.0638576 -12.55859375 185.3125 C-36.80638779 192.93723986 -63.13435065 191.0598389 -86 180 C-86.89847656 179.57074219 -87.79695313 179.14148438 -88.72265625 178.69921875 C-112.88243114 166.35861431 -129.0638576 145.51733846 -138.3125 120.44140625 C-145.93723986 96.19361221 -144.0598389 69.86564935 -133 47 C-132.57074219 46.10152344 -132.14148438 45.20304687 -131.69921875 44.27734375 C-119.35861431 20.11756886 -98.51733846 3.9361424 -73.44140625 -5.3125 C-49.19361221 -12.93723986 -22.86564935 -11.0598389 0 0 Z M-106 17 C-107.00740234 17.79277344 -107.00740234 17.79277344 -108.03515625 18.6015625 C-125.26146502 32.50589921 -135.2268279 54.6160097 -139 76 C-140.71939293 102.68706242 -136.36716386 128.40658075 -118.87890625 149.56640625 C-116.64292861 152.10464776 -114.33952411 154.55720317 -112 157 C-111.31292969 157.76183594 -110.62585938 158.52367187 -109.91796875 159.30859375 C-94.8821339 175.40446891 -72.29454254 185.0549536 -50.46289062 186.12426758 C-21.27443672 187.00046373 3.78527173 178.69920644 25.41552734 158.55957031 C34.18126981 149.93159453 40.20611955 139.89801998 45.21582031 128.74365234 C45.87749103 127.27240321 46.57186391 125.81592596 47.2734375 124.36328125 C56.55149126 103.81901936 55.2423266 77.12107927 47.75 56.375 C43.25018506 45.42768901 37.69739234 35.97762392 30 27 C29.33291016 26.11634766 29.33291016 26.11634766 28.65234375 25.21484375 C19.82334367 13.79384365 6.90098895 6.78742689 -6 1 C-6.88171875 0.57976563 -7.7634375 0.15953125 -8.671875 -0.2734375 C-40.41073031 -14.43876554 -80.53995077 -5.23783266 -106 17 Z " fill="#746C9A" transform="translate(143,10)"/>
<path d="M0 0 C1.56727016 1.3670227 3.10818915 2.76469585 4.625 4.1875 C5.54925781 5.033125 6.47351563 5.87875 7.42578125 6.75 C13.64529767 12.67495204 18.45627935 18.68799249 22.625 26.1875 C23.15867188 27.11046875 23.69234375 28.0334375 24.2421875 28.984375 C34.05974712 47.05649967 36.1071834 69.90065812 30.6875 89.75 C26.15362141 104.44797666 18.64236361 116.56305235 7.625 127.1875 C6.83480469 127.99703125 6.04460937 128.8065625 5.23046875 129.640625 C-10.92159187 145.39089307 -32.51538646 150.64054048 -54.4140625 150.40234375 C-76.30024681 149.84356232 -93.69926058 141.1910379 -109.375 126.1875 C-110.01308594 125.61257812 -110.65117188 125.03765625 -111.30859375 124.4453125 C-125.13429748 111.57416738 -132.73477955 91.12819222 -133.72265625 72.609375 C-134.56587018 47.75549489 -127.39514797 27.11863341 -110.34570312 8.65429688 C-101.10367684 -0.95593763 -89.19652562 -8.92282369 -76.375 -12.8125 C-75.49972656 -13.10769531 -74.62445313 -13.40289063 -73.72265625 -13.70703125 C-49.38956273 -20.70959036 -20.10749258 -15.46974548 0 0 Z M-84.5 -5.125 C-85.5065564 -4.60280884 -85.5065564 -4.60280884 -86.53344727 -4.07006836 C-106.53762902 6.57218505 -119.95607183 22.88186014 -127.375 44.1875 C-133.48867993 64.93695916 -130.44893949 86.9005842 -120.5625 106 C-117.3641391 111.51328707 -113.56985812 116.40023825 -109.375 121.1875 C-108.48554687 122.22003906 -108.48554687 122.22003906 -107.578125 123.2734375 C-94.75570969 137.1369891 -75.44904828 145.88868527 -56.69140625 146.62109375 C-54.44022787 146.64472989 -52.18870768 146.64565772 -49.9375 146.625 C-48.1599231 146.61146484 -48.1599231 146.61146484 -46.34643555 146.59765625 C-37.69510807 146.42628392 -30.38126847 145.67615554 -22.375 142.1875 C-21.73030762 141.90841797 -21.08561523 141.62933594 -20.42138672 141.34179688 C-11.47970961 137.39009158 -3.62779329 132.82387144 3.625 126.1875 C4.64787109 125.30191406 4.64787109 125.30191406 5.69140625 124.3984375 C18.22527061 112.87022566 27.43153427 94.84447626 28.91259766 77.89648438 C29.02534125 74.50920982 29.03483681 71.13884768 29 67.75 C29.01740234 66.06293945 29.01740234 66.06293945 29.03515625 64.34179688 C28.99712067 53.30513988 27.15774568 42.86095668 21.9375 33.0625 C21.58937256 32.3914624 21.24124512 31.7204248 20.88256836 31.02905273 C9.14031138 8.95720068 -8.6155209 -3.58837066 -31.99609375 -10.953125 C-37.77282598 -12.32770887 -43.65764246 -12.14137509 -49.5625 -12.125 C-50.70525391 -12.14111328 -51.84800781 -12.15722656 -53.02539062 -12.17382812 C-64.15411395 -12.18011909 -74.61669949 -10.39044725 -84.5 -5.125 Z " fill="#3B3EB1" transform="translate(150.375,32.8125)"/>
<path d="M0 0 C4.225466 1.52498021 7.93896138 3.65875279 11.75 6 C12.39251709 6.38647705 13.03503418 6.7729541 13.69702148 7.17114258 C17.3442963 9.36546292 20.95830092 11.60379744 24.55078125 13.88671875 C26.05454882 14.82053587 27.55845204 15.75413457 29.0625 16.6875 C29.76407227 17.14576172 30.46564453 17.60402344 31.18847656 18.07617188 C35.23942821 20.57514347 35.23942821 20.57514347 39.88671875 20.62890625 C44.28060388 18.32997263 48.52760698 15.84937108 52.75 13.25 C54.453125 12.21354167 56.15625 11.17708333 57.859375 10.140625 C60.51741567 8.52295328 63.16626377 6.89522946 65.79882812 5.23632812 C67.14364258 4.40004883 67.14364258 4.40004883 68.515625 3.546875 C69.32805664 3.03479492 70.14048828 2.52271484 70.97753906 1.99511719 C71.64495117 1.66672852 72.31236328 1.33833984 73 1 C73.99 1.495 73.99 1.495 75 2 C68.77593235 11.15524179 62.44260779 20.21653399 55.93798828 29.17480469 C50.21485327 37.06229419 44.60189166 45.0261362 39 53 C35.53046485 51.84348828 35.09866072 51.09844223 33.1015625 48.16015625 C32.54621826 47.35328369 31.99087402 46.54641113 31.41870117 45.71508789 C30.82677979 44.83973389 30.2348584 43.96437988 29.625 43.0625 C28.36452152 41.22831372 27.10277516 39.39499818 25.83984375 37.5625 C25.20030762 36.63179687 24.56077148 35.70109375 23.90185547 34.7421875 C21.05613313 30.63908694 18.12606902 26.59936631 15.1875 22.5625 C0 1.62769519 0 1.62769519 0 0 Z " fill="#FCBB04" transform="translate(62,110)"/>
<path d="M0 0 C0.33 0 0.66 0 1 0 C1 15.18 1 30.36 1 46 C-17.23709677 55.11854839 -17.23709677 55.11854839 -25.8125 58.875 C-27.5076172 59.6198822 -29.20167873 60.36717272 -30.89453125 61.1171875 C-31.61487549 61.43284668 -32.33521973 61.74850586 -33.07739258 62.07373047 C-35.2454251 63.06352309 -35.2454251 63.06352309 -38 65 C-36.43941828 60.69410174 -34.27674739 56.85520175 -31.9375 52.9375 C-31.3024353 51.86556396 -31.3024353 51.86556396 -30.65454102 50.77197266 C-25.56612309 42.21550559 -20.3854248 33.71375603 -15.20678711 25.21166992 C-12.0987376 20.10841148 -8.9916086 15.00535697 -5.94140625 9.8671875 C-5.51738525 9.15320801 -5.09336426 8.43922852 -4.65649414 7.70361328 C-3.908975 6.44086298 -3.1644578 5.17632862 -2.42358398 3.90966797 C-1.64244267 2.59025618 -0.82603581 1.29177941 0 0 Z " fill="#FCBB01" transform="translate(99,37)"/>
<path d="M0 0 C0.66 0.33 1.32 0.66 2 1 C1.67 14.2 1.34 27.4 1 41 C-12.5 34.25 -12.5 34.25 -17.859375 30.9140625 C-18.4194928 30.56741547 -18.9796106 30.22076843 -19.55670166 29.86361694 C-21.2908489 28.78889088 -23.02048595 27.70716219 -24.75 26.625 C-25.94762051 25.88103346 -27.14553593 25.13754144 -28.34375 24.39453125 C-31.23208341 22.60096938 -34.11739549 20.80274933 -37 19 C-33.71731345 15.20305036 -29.96308496 13.3052433 -25.4609375 11.29296875 C-24.73887115 10.96331619 -24.01680481 10.63366364 -23.27285767 10.29402161 C-21.75356384 9.603145 -20.2322226 8.91675514 -18.70898438 8.23461914 C-16.37031075 7.18539622 -14.04045578 6.11819962 -11.7109375 5.04882812 C-10.23226188 4.37912307 -8.75311113 3.71046587 -7.2734375 3.04296875 C-6.22499161 2.56188911 -6.22499161 2.56188911 -5.15536499 2.0710907 C-3.46269341 1.31972371 -1.73355846 0.65150939 0 0 Z " fill="#DF9D02" transform="translate(99,83)"/>
<path d="M0 0 C7.91496023 2.63832008 15.33377571 5.62780733 22.9375 9 C24.18027004 9.53922042 25.42310814 10.07828398 26.66601562 10.6171875 C27.83712891 11.13539062 29.00824219 11.65359375 30.21484375 12.1875 C31.27823975 12.65542969 32.34163574 13.12335938 33.43725586 13.60546875 C36 15 36 15 38 18 C28.12213865 23.9467343 18.23847197 29.88382058 8.3125 35.75 C7.58877197 36.17974121 6.86504395 36.60948242 6.11938477 37.05224609 C1.11696968 40 1.11696968 40 0 40 C0 26.8 0 13.6 0 0 Z " fill="#C38102" transform="translate(100,84)"/>
<path d="M0 0 C3.77890822 2.49247138 6.78801617 4.89229086 8.9375 8.9375 C9.41324089 12.33706512 9.30754709 15.53169626 8.9375 18.9375 C8.2775 18.9375 7.6175 18.9375 6.9375 18.9375 C6.89625 19.494375 6.855 20.05125 6.8125 20.625 C5.47125322 24.16972364 2.92825278 25.72434295 -0.0625 27.9375 C-4.14256667 29.29752222 -7.80032392 29.57864786 -12.0625 28.9375 C-16.65870532 26.04359295 -19.28495414 23.07263248 -21.0625 17.9375 C-21.7597818 13.15121998 -21.56005963 9.89707929 -19.3125 5.5625 C-13.9383567 -0.70733385 -8.09498031 -2.80846256 0 0 Z " fill="#F8F7F6" transform="translate(149.0625,47.0625)"/>
<path d="M0 0 C0.66 0 1.32 0 2 0 C2.50660156 1.12148437 2.50660156 1.12148437 3.0234375 2.265625 C3.46945313 3.25046875 3.91546875 4.2353125 4.375 5.25 C4.81585938 6.22453125 5.25671875 7.1990625 5.7109375 8.203125 C6.47439796 9.85960284 7.26024314 11.50654469 8.09375 13.12890625 C10.75223283 18.61775657 11.2162636 24.03526377 10.97265625 30.01953125 C10.90288626 32.2138266 10.90288626 32.2138266 12 35 C11.95336535 42.11178449 10.50303305 48.3940571 8 55 C7.649375 56.093125 7.29875 57.18625 6.9375 58.3125 C6 61 6 61 4.8125 63.1875 C3.6797224 65.16687603 3.6797224 65.16687603 5 68 C3.40053748 71.87611682 1.16017567 75.41239547 -1 79 C-1.46148437 79.78632813 -1.92296875 80.57265625 -2.3984375 81.3828125 C-6.24387519 87.38495069 -11.06109451 92.33901213 -16.0625 97.375 C-17.08996338 98.410802 -17.08996338 98.410802 -18.13818359 99.4675293 C-21.87892569 103.15542585 -25.51090667 106.27057988 -30 109 C-30.65226562 109.40605469 -31.30453125 109.81210938 -31.9765625 110.23046875 C-36.56551285 112.89466978 -36.56551285 112.89466978 -39.0625 113.5 C-41.25101274 113.91976879 -41.25101274 113.91976879 -43.4375 116 C-47.46157665 118.85081645 -52.00241803 118.62510075 -56.78125 118.82421875 C-59.92144972 118.99571024 -62.91031218 119.42766325 -66 120 C-66 119.01 -66 118.02 -66 117 C-64.8140625 116.6596875 -63.628125 116.319375 -62.40625 115.96875 C-47.7786061 111.6424564 -33.4502114 106.46015553 -22 96 C-21.16984375 95.24976563 -20.3396875 94.49953125 -19.484375 93.7265625 C-4.00586514 79.03588098 4.90831877 58.7438578 5.47143555 37.48193359 C5.56750281 25.98177877 4.46576278 15.95403738 1 5 C0.64189457 3.33847979 0.29824333 1.67330207 0 0 Z " fill="#E3D6F6" transform="translate(177,66)"/>
<path d="M0 0 C1.54158234 0.10540734 3.08325193 0.2095452 4.625 0.3125 C8.94509816 0.76607313 11.5034328 2.39790348 15 5 C17.22602615 5.76939681 17.22602615 5.76939681 19 6 C18.67 6.66 18.34 7.32 18 8 C17.34 7.9278125 16.68 7.855625 16 7.78125 C-10.97862371 5.25200403 -35.64249295 6.3449077 -57.59375 24.09765625 C-70.0774695 35.02091081 -80.68286956 48.04860867 -86 64 C-86.99 63.67 -87.98 63.34 -89 63 C-88.37585647 46.7722682 -75.93197689 32.91814939 -64.55517578 22.37792969 C-58.16093578 16.71245236 -49.65870873 9.54619799 -41 8 C-40.01 7.67 -39.02 7.34 -38 7 C-37.01 7 -36.02 7 -35 7 C-33.32580562 6.0126546 -31.65948148 5.01187895 -30 4 C-28.67611673 3.63091739 -27.3414017 3.29921626 -26 3 C-24.80375 2.690625 -23.6075 2.38125 -22.375 2.0625 C-20.917505 1.704899 -19.45910194 1.35098672 -18 1 C-17.18789062 0.79890625 -16.37578125 0.5978125 -15.5390625 0.390625 C-9.89150567 -0.89528025 -5.69950319 -0.99515135 0 0 Z M-29 5 C-29.33 5.66 -29.66 6.32 -30 7 C-29.34 7 -28.68 7 -28 7 C-28.33 6.34 -28.66 5.68 -29 5 Z " fill="#E4D7F6" transform="translate(106,11)"/>
<path d="M0 0 C0.66 0.33 1.32 0.66 2 1 C-4.22423797 10.15549232 -10.55359893 19.22039519 -17.06420898 28.17480469 C-19.8923782 32.06844664 -22.69627774 35.97615256 -25.45703125 39.91796875 C-26.01011963 40.7076001 -26.56320801 41.49723145 -27.13305664 42.31079102 C-28.19370192 43.82881255 -29.25158093 45.34877145 -30.30639648 46.87084961 C-31.5133306 48.5977827 -32.75312968 50.30167663 -34 52 C-34.33 52 -34.66 52 -35 52 C-36.54619465 41.83698154 -38.05406078 30.98226634 -35 21 C-29.44769213 14.11253652 -21.15668993 10.74497075 -13.16113281 7.40576172 C-9.16325486 5.62789786 -5.57608479 3.39876643 -1.92138672 1.00610352 C-0.97030029 0.50808228 -0.97030029 0.50808228 0 0 Z " fill="#DE9C07" transform="translate(135,111)"/>
<path d="M0 0 C4.25467032 1.48477981 5.83179956 4.48048922 7.94921875 8.2109375 C8.31957245 8.84313705 8.68992615 9.47533661 9.07150269 10.12669373 C10.28619859 12.20415914 11.48656726 14.28955381 12.6875 16.375 C13.95341375 18.54605922 15.22317558 20.71483785 16.49308777 22.88356018 C17.36164056 24.36743118 18.22898906 25.8520077 19.09516907 27.33726501 C23.49832307 34.88150091 28.01871027 42.35239833 32.5625 49.8125 C33.28938551 51.00890391 34.01619436 52.2053544 34.74291992 53.40185547 C38.29165779 59.25157428 38.29165779 59.25157428 42 65 C42 66.32 42 67.64 42 69 C40.25024414 70.48876953 40.25024414 70.48876953 37.78515625 71.8828125 C36.87894531 72.40601074 35.97273438 72.92920898 35.0390625 73.46826172 C34.05679688 74.01498535 33.07453125 74.56170898 32.0625 75.125 C30.04261923 76.2754282 28.02309195 77.42647726 26.00390625 78.578125 C24.99215332 79.14982422 23.98040039 79.72152344 22.93798828 80.31054688 C20.24439432 81.85946413 17.59933389 83.46248663 14.96484375 85.109375 C14.2061499 85.57843262 13.44745605 86.04749023 12.66577148 86.53076172 C11.25556751 87.40603881 9.85227022 88.29257553 8.45727539 89.19189453 C5.65770349 90.90024022 3.48457373 91.97714909 0.18359375 92.1328125 C-4.73212867 90.38365974 -9.00106564 87.7197801 -13.4375 85 C-14.40510254 84.41710205 -15.37270508 83.8342041 -16.36962891 83.23364258 C-18.32449007 82.05505727 -20.27699582 80.87255576 -22.22705078 79.68603516 C-25.44169128 77.73143864 -28.66911343 75.7989275 -31.89868164 73.86914062 C-34.60287704 72.25230236 -37.30165197 70.62657428 -40 69 C-39.40837055 64.77400627 -37.94853766 61.8100791 -35.78125 58.15234375 C-35.45127014 57.5912944 -35.12129028 57.03024506 -34.78131104 56.45219421 C-33.69477116 54.60957504 -32.59772724 52.77347283 -31.5 50.9375 C-30.73818353 49.6524318 -29.97679652 48.36710892 -29.21582031 47.08154297 C-26.82292107 43.04692077 -24.41301232 39.02261609 -22 35 C-21.60401611 34.33901306 -21.20803223 33.67802612 -20.80004883 32.99700928 C-18.12585646 28.53411779 -15.44159763 24.07741332 -12.75 19.625 C-12.39478271 19.03613007 -12.03956543 18.44726013 -11.67358398 17.84054565 C-7.9830102 11.73057904 -4.26045888 5.73015207 0 0 Z M0 3 C-1.39658472 5.0607787 -2.65623205 7.10735288 -3.89453125 9.26171875 C-4.27847046 9.91557053 -4.66240967 10.5694223 -5.0579834 11.24308777 C-5.88496825 12.65294486 -6.70866548 14.06473437 -7.52944946 15.47821045 C-9.67181204 19.16715263 -11.83733643 22.84246707 -14 26.51953125 C-14.42904129 27.25051025 -14.85808258 27.98148926 -15.30012512 28.73461914 C-19.36452093 35.64877488 -23.56201332 42.47574215 -27.8137207 49.27612305 C-29.21336508 51.51483444 -30.60875625 53.75605847 -32 56 C-32.55606934 56.8962207 -33.11213867 57.79244141 -33.68505859 58.71582031 C-34.51191162 60.06691895 -34.51191162 60.06691895 -35.35546875 61.4453125 C-35.86102295 62.26789551 -36.36657715 63.09047852 -36.88745117 63.93798828 C-38.1582797 65.90285725 -38.1582797 65.90285725 -38 68 C-36.52853516 68.81791016 -36.52853516 68.81791016 -35.02734375 69.65234375 C-27.3235938 73.95101506 -19.68101935 78.32772934 -12.13842773 82.90405273 C-10.42866146 83.9410689 -8.7143604 84.97059646 -7 86 C-6.4136377 86.4026709 -5.82727539 86.8053418 -5.22314453 87.22021484 C-2.2025136 89.19782167 -0.60252555 90.10055084 3.01953125 89.49609375 C6.34265543 87.82799865 9.53743436 86.03231182 12.6875 84.0625 C13.99387633 83.26152602 15.30121957 82.46212755 16.609375 81.6640625 C17.65641602 81.02452637 17.65641602 81.02452637 18.72460938 80.37207031 C22.92892819 77.83684802 27.18474246 75.39029219 31.4375 72.9375 C32.70823364 72.20382202 32.70823364 72.20382202 34.00463867 71.45532227 C36.00250534 70.30252455 38.000928 69.15070589 40 68 C38.75052431 64.71162188 37.3539948 61.70694453 35.55859375 58.68359375 C35.06560791 57.85053711 34.57262207 57.01748047 34.06469727 56.15917969 C33.52772217 55.26102539 32.99074707 54.36287109 32.4375 53.4375 C31.87538818 52.49165039 31.31327637 51.54580078 30.73413086 50.57128906 C23.85859422 39.03236924 16.87750081 27.55584207 9.87158203 16.09570312 C8.64013635 14.05882193 7.42695941 12.01076432 6.23388672 9.95117188 C5.70166504 9.03400391 5.16944336 8.11683594 4.62109375 7.171875 C4.16017334 6.36331055 3.69925293 5.55474609 3.22436523 4.72167969 C2.82032471 4.15352539 2.41628418 3.58537109 2 3 C1.34 3 0.68 3 0 3 Z " fill="#D8DAE7" transform="translate(99,34)"/>
<path d="M0 0 C4.0358161 0.5889076 6.88921159 1.87471846 10.38671875 3.94921875 C11.40830078 4.55056641 12.42988281 5.15191406 13.48242188 5.77148438 C14.54009766 6.40376953 15.59777344 7.03605469 16.6875 7.6875 C17.72583984 8.30044922 18.76417969 8.91339844 19.83398438 9.54492188 C20.86201172 10.15271484 21.89003906 10.76050781 22.94921875 11.38671875 C23.9654834 11.98661621 24.98174805 12.58651367 26.02880859 13.20458984 C27.970289 14.37777365 29.89147027 15.58541287 31.78759766 16.83056641 C36.6232956 20.06370581 36.6232956 20.06370581 42.203125 21.1171875 C45.6055811 19.75810587 48.66759542 18.08235406 51.75 16.125 C52.38397705 15.73513916 53.0179541 15.34527832 53.67114258 14.94360352 C56.5878303 13.14706487 59.48687077 11.32287137 62.38623047 9.49853516 C64.016826 8.47409932 65.64946939 7.45291557 67.28417969 6.43505859 C68.86438233 5.45040164 70.43945038 4.45744754 72.00878906 3.45556641 C73.09305176 2.77953369 73.09305176 2.77953369 74.19921875 2.08984375 C75.15574341 1.48450806 75.15574341 1.48450806 76.1315918 0.86694336 C78 0 78 0 82 0 C81.60830438 5.4096341 78.45952734 8.88966366 75.3125 13.0625 C74.12221445 14.67338408 72.9334668 16.28540543 71.74609375 17.8984375 C71.12847168 18.7347168 70.51084961 19.57099609 69.87451172 20.43261719 C66.80546954 24.63606178 63.84420944 28.91327015 60.875 33.1875 C59.14106891 35.66512854 57.40480725 38.14110819 55.66796875 40.61669922 C54.56785186 42.18861682 53.47140921 43.76311315 52.37890625 45.34033203 C50.89001926 47.48594442 49.38491646 49.61915681 47.875 51.75 C47.43784668 52.38832764 47.00069336 53.02665527 46.55029297 53.68432617 C45.3046875 55.421875 45.3046875 55.421875 43 58 C41.68 58 40.36 58 39 58 C36.94956801 55.70887838 35.20445152 53.4968479 33.4375 51 C32.9108374 50.2766748 32.3841748 49.55334961 31.84155273 48.80810547 C27.87670449 43.32890959 24.03329356 37.76375553 20.23413086 32.16870117 C16.05853117 26.02829038 11.7118849 20.01775368 7.32641602 14.02587891 C0 3.97517532 0 3.97517532 0 0 Z M3 3 C5.65590226 7.82835687 8.55510273 12.28546688 11.875 16.6875 C16.42331267 22.79990643 20.8334834 28.99782391 25.1875 35.25 C30.04773727 42.225707 34.9488681 49.16057917 40 56 C43.43199991 54.85600003 43.798039 54.22662783 45.71484375 51.30859375 C46.487677 50.15085449 46.487677 50.15085449 47.27612305 48.96972656 C47.82437744 48.1340918 48.37263184 47.29845703 48.9375 46.4375 C53.19296896 40.07313136 57.53538407 33.83084425 62.1875 27.75 C67.80460796 20.3872477 72.95742812 12.7646682 78 5 C77.01 4.505 77.01 4.505 76 4 C73.79666967 5.09735767 71.73841594 6.2456057 69.63671875 7.515625 C68.69322319 8.07307404 68.69322319 8.07307404 67.73066711 8.64178467 C65.71172383 9.83703536 63.69964073 11.04333978 61.6875 12.25 C60.34223172 13.04890977 58.99653345 13.84709595 57.65039062 14.64453125 C50.89561278 18.62211873 50.89561278 18.62211873 44.25756836 22.78808594 C42 24 42 24 39.1171875 23.4375 C35.64072552 21.83431954 32.37427577 20.01302958 29.125 18 C28.48731689 17.61207275 27.84963379 17.22414551 27.19262695 16.82446289 C23.61986988 14.64277565 20.07376091 12.42016447 16.53515625 10.18359375 C15.8086084 9.72533203 15.08206055 9.26707031 14.33349609 8.79492188 C12.92064513 7.9012414 11.51072067 7.00291473 10.10400391 6.09960938 C6.81218847 3.79040981 6.81218847 3.79040981 3 3 Z " fill="#D9DBE6" transform="translate(59,107)"/>
<path d="M0 0 C0.66 0 1.32 0 2 0 C0.70425552 4.31861618 -0.95399829 7.89193859 -3.31640625 11.7265625 C-3.99058594 12.82806641 -4.66476563 13.92957031 -5.359375 15.06445312 C-5.71837891 15.64461182 -6.07738281 16.22477051 -6.44726562 16.82250977 C-7.57860402 18.65102802 -8.70232132 20.48403543 -9.82421875 22.31835938 C-11.80433861 25.55355086 -13.79055153 28.78495054 -15.77862549 32.01525879 C-18.98321482 37.22273646 -22.18184109 42.43379118 -25.36886597 47.65203857 C-26.48449458 49.47466841 -27.60645999 51.29328923 -28.72875977 53.11181641 C-29.74474243 54.77349854 -29.74474243 54.77349854 -30.78125 56.46875 C-31.38001953 57.44263672 -31.97878906 58.41652344 -32.59570312 59.41992188 C-33.8250597 61.67858674 -34.54631821 63.48844136 -35 66 C-34.31228516 66.25144775 -33.62457031 66.50289551 -32.91601562 66.76196289 C-29.55838149 68.1874956 -26.47287242 69.95005939 -23.34375 71.80859375 C-22.7189978 72.1759816 -22.09424561 72.54336945 -21.45056152 72.92189026 C-19.4651025 74.09050669 -17.48253947 75.26393887 -15.5 76.4375 C-14.16815435 77.22232026 -12.83612481 78.00682854 -11.50390625 78.79101562 C-1.17191977 84.87761783 -1.17191977 84.87761783 1.54101562 86.80883789 C4.87502733 88.42387394 6.47052634 88.04357367 10 87 C12.34567423 85.83111065 14.52453352 84.64440101 16.75390625 83.2890625 C17.3772435 82.9202597 18.00058075 82.55145691 18.64280701 82.17147827 C20.62140123 80.99806806 22.59193132 79.81182799 24.5625 78.625 C25.88946167 77.83507629 27.21693138 77.04600536 28.54492188 76.2578125 C35.19870852 72.30693356 35.19870852 72.30693356 41.78881836 68.25146484 C44 67 44 67 46 67 C44.77937928 70.66186217 43.88525309 70.94285853 40.6171875 72.8203125 C39.70388672 73.35188965 38.79058594 73.8834668 37.84960938 74.43115234 C36.86798828 74.99012207 35.88636719 75.5490918 34.875 76.125 C32.86140374 77.28546045 30.84838497 78.4469235 28.8359375 79.609375 C27.84303711 80.18107422 26.85013672 80.75277344 25.82714844 81.34179688 C23.32173533 82.81129306 20.86118974 84.32666323 18.4140625 85.890625 C17.74391113 86.31456543 17.07375977 86.73850586 16.38330078 87.17529297 C15.16239339 87.95303978 13.94919293 88.74307341 12.74560547 89.54736328 C10.03103238 91.25410196 8.39952279 92.02979819 5.1652832 91.78857422 C1.70607954 90.92677493 -0.70863433 89.66573863 -3.73828125 87.796875 C-4.80626953 87.14589844 -5.87425781 86.49492188 -6.97460938 85.82421875 C-8.62686523 84.79748047 -8.62686523 84.79748047 -10.3125 83.75 C-22.49332389 75.41518782 -22.49332389 75.41518782 -36 70 C-37.1800958 65.05094363 -37.1195722 62.21184606 -34.49752808 57.78796387 C-34.11162506 57.18117798 -33.72572205 56.57439209 -33.328125 55.94921875 C-32.93424591 55.29675171 -32.54036682 54.64428467 -32.134552 53.9720459 C-30.85731724 51.86584853 -29.55420021 49.77708455 -28.25 47.6875 C-27.37015011 46.24692151 -26.49206094 44.8052662 -25.61572266 43.36254883 C-23.47993531 39.85534943 -21.3241402 36.36105917 -19.1595459 32.87158203 C-17.01762556 29.41438416 -14.89727175 25.94399073 -12.77636719 22.47387695 C-11.86840021 20.99249878 -10.95529971 19.51424992 -10.03613281 18.03979492 C-8.38173035 15.37343391 -6.99663878 12.98991633 -6 10 C-5.34 10 -4.68 10 -4 10 C-3.71125 9.278125 -3.4225 8.55625 -3.125 7.8125 C-2.08333333 5.20833333 -1.04166667 2.60416667 0 0 Z " fill="#5969C2" transform="translate(94,37)"/>
<path d="M0 0 C3.36275074 3.02139159 5.11749467 5.94085843 7.0625 10 C10.98669641 17.48706425 16.01216372 23.08860418 22 29 C22.75410156 29.7528125 23.50820313 30.505625 24.28515625 31.28125 C35.84150148 42.18741973 49.78664719 47.35025045 64.875 51.16796875 C68 52 68 52 70 53 C71.37548156 53.08308638 72.75485796 53.10736016 74.1328125 53.09765625 C74.93847656 53.09443359 75.74414062 53.09121094 76.57421875 53.08789062 C77.41597656 53.07951172 78.25773437 53.07113281 79.125 53.0625 C80.39923828 53.05573242 80.39923828 53.05573242 81.69921875 53.04882812 C83.79950909 53.03702874 85.8997633 53.01909306 88 53 C84.96500979 56.40216273 82.80749334 56.52398916 78.25 56.8125 C72.91790717 57.09284715 68.94539758 56.93515557 64 55 C63.29875 54.835 62.5975 54.67 61.875 54.5 C60 54 60 54 57.375 52.875 C56.59125 52.58625 55.8075 52.2975 55 52 C54.01 52.495 54.01 52.495 53 53 C43.16027849 50.21517316 34.04544321 44.3134157 27 37 C25.0867946 35.30857679 23.1699489 33.62126471 21.25 31.9375 C11.91502108 23.50260775 4.84226449 13.65941332 0 2 C0 1.34 0 0.68 0 0 Z " fill="#E5D7F3" transform="translate(21,131)"/>
<path d="M0 0 C6.43048693 0.57159884 11.99756014 2.70607394 18 5 C18.99 5.33 19.98 5.66 21 6 C21 6.66 21 7.32 21 8 C22.98 8.66 24.96 9.32 27 10 C27 10.66 27 11.32 27 12 C27.763125 12.061875 28.52625 12.12375 29.3125 12.1875 C32.95082167 13.28745772 33.17180866 14.69519258 35 18 C36.1450869 19.33136898 37.3140573 20.64239102 38.5 21.9375 C41.35349892 25.13055933 43.17329612 28.10832651 45 32 C46.49330482 34.28053617 48.03366413 36.52133735 49.59765625 38.75390625 C51.05976877 41.09572993 52.0498038 43.4131022 53 46 C48.92712075 44.64237358 48.47134071 42.75913372 46.375 39.0625 C42.59493419 32.65626469 38.26474926 27.2824162 33 22 C32.25234375 21.22914062 31.5046875 20.45828125 30.734375 19.6640625 C22.14285142 11.3285777 11.34408185 5.70418999 0 2 C0 1.34 0 0.68 0 0 Z " fill="#E9DBF6" transform="translate(125,19)"/>
<path d="M0 0 C2.875 1.125 2.875 1.125 6 3 C7.375 6.1875 7.375 6.1875 8 9 C8.34933594 8.4225 8.69867188 7.845 9.05859375 7.25 C9.51363281 6.5075 9.96867188 5.765 10.4375 5 C10.88996094 4.2575 11.34242188 3.515 11.80859375 2.75 C12.39833984 1.88375 12.39833984 1.88375 13 1 C13.33 1 13.66 1 14 1 C14.47727273 7.20454545 14.47727273 7.20454545 12.5 10.5 C9.3118306 12.41290164 7.42723199 12.28019168 3.83984375 11.60546875 C2 11 2 11 0 9.3125 C-1.26542891 6.38619565 -1.28051616 4.15580677 -1 1 C-0.67 0.67 -0.34 0.34 0 0 Z " fill="#69C9FF" transform="translate(136,60)"/>
<path d="M0 0 C0.70703125 1.640625 0.70703125 1.640625 1 4 C-0.36328125 6.796875 -0.36328125 6.796875 -2.3125 9.75 C-3.26576172 11.22726563 -3.26576172 11.22726563 -4.23828125 12.734375 C-4.81964844 13.48203125 -5.40101562 14.2296875 -6 15 C-6.66 15 -7.32 15 -8 15 C-6.62712658 11.30123909 -4.93644547 8.0485524 -2.875 4.6875 C-2.33617188 3.80449219 -1.79734375 2.92148437 -1.2421875 2.01171875 C-0.83226563 1.34785156 -0.42234375 0.68398438 0 0 Z M-9 15 C-8.34 15.66 -7.68 16.32 -7 17 C-7.99 18.485 -7.99 18.485 -9 20 C-9.66 20 -10.32 20 -11 20 C-10.34 18.35 -9.68 16.7 -9 15 Z M-12 20 C-11.34 20.66 -10.68 21.32 -10 22 C-10.99 23.485 -10.99 23.485 -12 25 C-12.66 25 -13.32 25 -14 25 C-13.34 23.35 -12.68 21.7 -12 20 Z M-15 25 C-14.34 25.66 -13.68 26.32 -13 27 C-13.99 28.485 -13.99 28.485 -15 30 C-15.66 30 -16.32 30 -17 30 C-16.34 28.35 -15.68 26.7 -15 25 Z M-18 30 C-17.34 30.66 -16.68 31.32 -16 32 C-16.99 33.485 -16.99 33.485 -18 35 C-18.66 35 -19.32 35 -20 35 C-19.34 33.35 -18.68 31.7 -18 30 Z M-21 35 C-20.34 35.66 -19.68 36.32 -19 37 C-19.99 38.485 -19.99 38.485 -21 40 C-21.66 40 -22.32 40 -23 40 C-22.34 38.35 -21.68 36.7 -21 35 Z M-24 40 C-23.34 40.66 -22.68 41.32 -22 42 C-23.65 44.64 -25.3 47.28 -27 50 C-27.66 49.34 -28.32 48.68 -29 48 C-27.35 45.36 -25.7 42.72 -24 40 Z " fill="#FCBB16" transform="translate(99,37)"/>
<path d="M0 0 C-0.33 0.99 -0.66 1.98 -1 3 C-9.83223535 4.19354532 -18.15967082 3.77546747 -27 3 C-27.33 2.01 -27.66 1.02 -28 0 C-24.27129547 -0.19756803 -20.54203204 -0.38128099 -16.8125 -0.5625 C-15.75740234 -0.61857422 -14.70230469 -0.67464844 -13.61523438 -0.73242188 C-12.59365234 -0.78076172 -11.57207031 -0.82910156 -10.51953125 -0.87890625 C-9.58214111 -0.9260376 -8.64475098 -0.97316895 -7.67895508 -1.02172852 C-4.98697068 -0.99989432 -2.61483024 -0.61586406 0 0 Z " fill="#4042B1" transform="translate(119,179)"/>
<path d="M0 0 C1.45880109 0.14107747 2.91703551 0.28802415 4.375 0.4375 C5.59316406 0.55931641 5.59316406 0.55931641 6.8359375 0.68359375 C9 1 9 1 11 2 C12.37548156 2.08308638 13.75485796 2.10736016 15.1328125 2.09765625 C15.93847656 2.09443359 16.74414062 2.09121094 17.57421875 2.08789062 C18.83685547 2.07532227 18.83685547 2.07532227 20.125 2.0625 C21.39923828 2.05573242 21.39923828 2.05573242 22.69921875 2.04882812 C24.79950909 2.03702874 26.8997633 2.01909306 29 2 C25.96500979 5.40216273 23.80749334 5.52398916 19.25 5.8125 C13.91790717 6.09284715 9.94539758 5.93515557 5 4 C3.824375 3.7834375 3.824375 3.7834375 2.625 3.5625 C2.08875 3.376875 1.5525 3.19125 1 3 C0.67 2.01 0.34 1.02 0 0 Z " fill="#EBDDFA" transform="translate(80,182)"/>
<path d="M0 0 C0.99 0 1.98 0 3 0 C3.78118882 9.47041213 4.16656743 18.52388303 3 28 C2.01 28 1.02 28 0 28 C0 18.76 0 9.52 0 0 Z " fill="#6D6691" transform="translate(196,86)"/>
<path d="M0 0 C0.66 0 1.32 0 2 0 C3.65 3.63 5.3 7.26 7 11 C7.33 11 7.66 11 8 11 C8 21.56 8 32.12 8 43 C7.67 43 7.34 43 7 43 C6.96132812 41.59814453 6.96132812 41.59814453 6.921875 40.16796875 C6.57821106 32.20902432 5.72157991 24.61123713 4.0625 16.8125 C3.80774902 15.61113403 3.80774902 15.61113403 3.54785156 14.38549805 C2.6619114 10.40509544 1.54212377 6.78269823 0 3 C0 2.01 0 1.02 0 0 Z " fill="#EFE1F8" transform="translate(177,66)"/>
<path d="M0 0 C2.04807818 3.33862125 2.12690926 5.43555155 1.609375 9.28125 C1.47660156 10.28800781 1.34382812 11.29476562 1.20703125 12.33203125 C1.05621094 13.37746094 0.90539062 14.42289063 0.75 15.5 C0.54697266 17.06814453 0.54697266 17.06814453 0.33984375 18.66796875 C-0.82058814 27.13803701 -0.82058814 27.13803701 -3 31 C-4.03053823 24.50760916 -3.94033196 18.61834895 -3.1875 12.125 C-3.0639917 11.01910522 -3.0639917 11.01910522 -2.93798828 9.89086914 C-2.4764319 6.24474066 -1.95422346 3.14984541 0 0 Z " fill="#736B98" transform="translate(4,77)"/>
<path d="M0 0 C0.99 0 1.98 0 3 0 C2.93941406 0.7528125 2.87882812 1.505625 2.81640625 2.28125 C2.1142545 11.18237378 1.53770682 20.08779539 1 29 C0.67 29 0.34 29 0 29 C-0.33 24.38 -0.66 19.76 -1 15 C-1.99 15.495 -1.99 15.495 -3 16 C-2.85957123 14.35369672 -2.71250671 12.70795821 -2.5625 11.0625 C-2.48128906 10.14597656 -2.40007813 9.22945312 -2.31640625 8.28515625 C-2 6 -2 6 -1 5 C-1.33 4.34 -1.66 3.68 -2 3 C-1.34 2.01 -0.68 1.02 0 0 Z " fill="#EBDEF9" transform="translate(15,80)"/>
<path d="M0 0 C0 0.66 0 1.32 0 2 C4.95 2 9.9 2 15 2 C15 2.33 15 2.66 15 3 C6.19045163 3.29437847 -2.31018921 3.25483734 -11 1.625 C-12.03157227 1.43587036 -12.03157227 1.43587036 -13.08398438 1.24291992 C-14.74002727 0.90466345 -16.37400171 0.46154639 -18 0 C-18.33 -0.66 -18.66 -1.32 -19 -2 C-12.85381342 -3.88785869 -5.70949691 -2.85474845 0 0 Z " fill="#3E42B2" transform="translate(92,180)"/>
<path d="M0 0 C2.68487165 2.68487165 2.25769449 4.06476981 2.265625 7.8125 C2.26820313 8.97007813 2.27078125 10.12765625 2.2734375 11.3203125 C2.26570312 12.53460938 2.25796875 13.74890625 2.25 15 C2.25773438 16.21429688 2.26546875 17.42859375 2.2734375 18.6796875 C2.27085937 19.83726563 2.26828125 20.99484375 2.265625 22.1875 C2.26336914 23.25355469 2.26111328 24.31960937 2.25878906 25.41796875 C2 28 2 28 0 30 C-1.01946539 24.95121902 -1.15036701 20.12413591 -1.125 15 C-1.12886719 14.21882813 -1.13273438 13.43765625 -1.13671875 12.6328125 C-1.12944141 8.31007169 -0.85947175 4.25643155 0 0 Z " fill="#3438B0" transform="translate(181,85)"/>
<path d="M0 0 C8.25 0.33 16.5 0.66 25 1 C25.33 1.66 25.66 2.32 26 3 C27.65 2.67 29.3 2.34 31 2 C31.33 2.66 31.66 3.32 32 4 C27.12929813 5.88989379 22.77608662 6.4014447 17.625 6.625 C16.88894531 6.66367188 16.15289062 6.70234375 15.39453125 6.7421875 C13.59672594 6.83557998 11.79839892 6.9188371 10 7 C9.67 6.34 9.34 5.68 9 5 C9.77085938 4.93941406 10.54171875 4.87882813 11.3359375 4.81640625 C12.33882812 4.73261719 13.34171875 4.64882812 14.375 4.5625 C15.37273437 4.48128906 16.37046875 4.40007812 17.3984375 4.31640625 C19.97927613 4.15034374 19.97927613 4.15034374 22 3 C21.40461426 3.01571045 20.80922852 3.0314209 20.19580078 3.04760742 C17.50562997 3.10985801 14.81561043 3.14895783 12.125 3.1875 C11.18785156 3.21263672 10.25070313 3.23777344 9.28515625 3.26367188 C8.38925781 3.27333984 7.49335937 3.28300781 6.5703125 3.29296875 C5.74289551 3.3086792 4.91547852 3.32438965 4.06298828 3.34057617 C3.38220215 3.22818604 2.70141602 3.1157959 2 3 C1.34 2.01 0.68 1.02 0 0 Z " fill="#D7CBF1" transform="translate(86,182)"/>
<path d="M0 0 C0.33 0 0.66 0 1 0 C1.06058594 1.22976562 1.12117188 2.45953125 1.18359375 3.7265625 C1.26805005 5.35938427 1.35269547 6.99219627 1.4375 8.625 C1.47681641 9.43324219 1.51613281 10.24148437 1.55664062 11.07421875 C1.73749377 14.49651679 1.96721065 17.80326392 2.53125 21.1875 C3.04962234 24.29773401 3.097507 27.22436976 3.0625 30.375 C3.05347656 31.43460938 3.04445313 32.49421875 3.03515625 33.5859375 C3.02355469 34.38257813 3.01195312 35.17921875 3 36 C1.0549 33.08235 0.54723683 31.37462715 0 28 C-0.33 28 -0.66 28 -1 28 C-1.19573608 26.56359829 -1.38127816 25.12580496 -1.5625 23.6875 C-1.71912109 22.48673828 -1.71912109 22.48673828 -1.87890625 21.26171875 C-2 19 -2 19 -1 16 C-0.77202438 13.26710707 -0.58331813 10.54957796 -0.4375 7.8125 C-0.39431641 7.06291016 -0.35113281 6.31332031 -0.30664062 5.54101562 C-0.20077315 3.69421625 -0.0999024 1.84713166 0 0 Z " fill="#DED1F0" transform="translate(16,93)"/>
<path d="M0 0 C0.89203125 0.11085937 1.7840625 0.22171875 2.703125 0.3359375 C3.37859375 0.43132813 4.0540625 0.52671875 4.75 0.625 C4.75 0.955 4.75 1.285 4.75 1.625 C7.225 2.12 7.225 2.12 9.75 2.625 C9.75 2.955 9.75 3.285 9.75 3.625 C1.17 3.625 -7.41 3.625 -16.25 3.625 C-16.25 3.295 -16.25 2.965 -16.25 2.625 C-15.1775 2.50125 -14.105 2.3775 -13 2.25 C-9.4446782 1.87368737 -9.4446782 1.87368737 -7.34375 0.5625 C-4.65258273 -0.64250027 -2.90162003 -0.38179211 0 0 Z " fill="#6A648D" transform="translate(103.25,0.375)"/>
<path d="M0 0 C4.10839064 1.45002023 7.50344613 3.3979134 11 6 C11 6.66 11 7.32 11 8 C10.01 8.495 10.01 8.495 9 9 C9.680625 9.763125 10.36125 10.52625 11.0625 11.3125 C11.701875 12.199375 12.34125 13.08625 13 14 C12.67 14.99 12.34 15.98 12 17 C9.15117747 13.48388571 6.41751228 9.9054798 3.75 6.25 C3.04359375 5.28578125 2.3371875 4.3215625 1.609375 3.328125 C0 1 0 1 0 0 Z " fill="#FCBB15" transform="translate(62,110)"/>
<path d="M0 0 C2.91691525 -0.05401695 5.83282724 -0.09368066 8.75 -0.125 C9.575 -0.14175781 10.4 -0.15851562 11.25 -0.17578125 C12.04921875 -0.18222656 12.8484375 -0.18867188 13.671875 -0.1953125 C14.4050293 -0.20578613 15.13818359 -0.21625977 15.89355469 -0.22705078 C18.29896076 0.03222456 19.91251494 0.80774075 22 2 C16.96145894 2.83211276 12.1874338 3.1078534 7.0625 3.0625 C6.37865234 3.05798828 5.69480469 3.05347656 4.99023438 3.04882812 C3.32678396 3.0371956 1.6633795 3.01926694 0 3 C0 2.01 0 1.02 0 0 Z " fill="#2D32AE" transform="translate(93,17)"/>
<path d="M0 0 C1.19325335 3.57976005 0.62775903 5.29794161 0 9 C-0.14872096 11.93830128 -0.1421911 14.87098016 -0.125 17.8125 C-0.12306641 18.60769043 -0.12113281 19.40288086 -0.11914062 20.22216797 C-0.07986896 25.54675138 0.21874757 30.7265461 1 36 C-0.485 36.495 -0.485 36.495 -2 37 C-3.36811365 31.17307056 -2.93731006 25.56568866 -2.6875 19.625 C-2.65205078 18.51382813 -2.61660156 17.40265625 -2.58007812 16.2578125 C-2.35110922 10.51650268 -1.91684596 5.42975956 0 0 Z " fill="#4E52B9" transform="translate(181,82)"/>
<path d="M0 0 C0.66 0 1.32 0 2 0 C2.99 2.31 3.98 4.62 5 7 C3.68 6.67 2.36 6.34 1 6 C1 7.65 1 9.3 1 11 C-1.475 10.01 -1.475 10.01 -4 9 C-2.80100302 5.9168649 -1.52299523 2.93720508 0 0 Z " fill="#38B4FF" transform="translate(142,50)"/>
<path d="M0 0 C-0.33 0.99 -0.66 1.98 -1 3 C-9.91 2.34 -18.82 1.68 -28 1 C-28 0.67 -28 0.34 -28 0 C-24.27129547 -0.19756803 -20.54203204 -0.38128099 -16.8125 -0.5625 C-15.75740234 -0.61857422 -14.70230469 -0.67464844 -13.61523438 -0.73242188 C-12.59365234 -0.78076172 -11.57207031 -0.82910156 -10.51953125 -0.87890625 C-9.58214111 -0.9260376 -8.64475098 -0.97316895 -7.67895508 -1.02172852 C-4.98697068 -0.99989432 -2.61483024 -0.61586406 0 0 Z " fill="#4F54BB" transform="translate(119,179)"/>
<path d="M0 0 C4.62 1.65 9.24 3.3 14 5 C13.67 5.66 13.34 6.32 13 7 C10.25 7.875 10.25 7.875 7 8 C4.25 6.125 4.25 6.125 2 4 C1.34 3.67 0.68 3.34 0 3 C0 2.01 0 1.02 0 0 Z " fill="#4546B2" transform="translate(64,171)"/>
<path d="M0 0 C2.52394612 3.12488567 4.39701907 6.31314387 6 10 C5.67 10.66 5.34 11.32 5 12 C0.125 9.25 0.125 9.25 -1 7 C-1.125 3.9375 -1.125 3.9375 -1 1 C-0.67 0.67 -0.34 0.34 0 0 Z " fill="#18A5FF" transform="translate(136,60)"/>
<path d="M0 0 C-1.40844718 3.21524305 -3.10344786 5.32183868 -5.625 7.75 C-6.57246094 8.67039063 -6.57246094 8.67039063 -7.5390625 9.609375 C-8.02117187 10.06828125 -8.50328125 10.5271875 -9 11 C-9.66 10.34 -10.32 9.68 -11 9 C-8.81638059 4.63276119 -5.32701042 0 0 0 Z " fill="#3335AF" transform="translate(164,152)"/>
<path d="M0 0 C0.99 0 1.98 0 3 0 C3.125 5.75 3.125 5.75 2 8 C1.34 8 0.68 8 0 8 C0 12.62 0 17.24 0 22 C-0.33 22 -0.66 22 -1 22 C-1.02895225 18.70835171 -1.0467823 15.41673601 -1.0625 12.125 C-1.07506836 10.71927734 -1.07506836 10.71927734 -1.08789062 9.28515625 C-1.09111328 8.38925781 -1.09433594 7.49335937 -1.09765625 6.5703125 C-1.10289307 5.74289551 -1.10812988 4.91547852 -1.11352539 4.06298828 C-1 2 -1 2 0 0 Z " fill="#282EAF" transform="translate(18,85)"/>
<path d="M0 0 C-4.79554443 3.19702962 -9.84037849 4.22732858 -15.5625 3.625 C-16.366875 3.41875 -17.17125 3.2125 -18 3 C-17.67 2.34 -17.34 1.68 -17 1 C-11.35450392 -0.20116938 -5.75098214 -0.10414253 0 0 Z " fill="#655F87" transform="translate(114,196)"/>
<path d="M0 0 C0.33 0 0.66 0 1 0 C1.28307925 7.24997422 0.50974035 13.90961228 -1 21 C-1.33 21 -1.66 21 -2 21 C-2.22331199 19.41870971 -2.42804644 17.83478911 -2.625 16.25 C-2.74101563 15.36828125 -2.85703125 14.4865625 -2.9765625 13.578125 C-3.00259696 10.71433417 -2.37197585 9.46148608 -1 7 C-0.61250787 4.67504723 -0.27017161 2.34148732 0 0 Z " fill="#655E86" transform="translate(3,87)"/>
<path d="M0 0 C2.64 0.66 5.28 1.32 8 2 C8 2.33 8 2.66 8 3 C5.89679937 3.50404808 3.79240209 4.00310508 1.6875 4.5 C-0.07013672 4.91765625 -0.07013672 4.91765625 -1.86328125 5.34375 C-5 6 -5 6 -8 6 C-7.34 5.01 -6.68 4.02 -6 3 C-3.375 2.8125 -3.375 2.8125 -1 3 C-0.67 2.01 -0.34 1.02 0 0 Z " fill="#E0D3F1" transform="translate(79,15)"/>
<path d="M0 0 C5.45479185 0.56820748 9.91059256 1.94637945 15 4 C14.67 4.99 14.34 5.98 14 7 C9.27934033 5.45730076 4.58335908 3.92205381 0 2 C0 1.34 0 0.68 0 0 Z " fill="#E0D2EF" transform="translate(125,19)"/>
<path d="M0 0 C1.98 0 3.96 0 6 0 C6.33 0.99 6.66 1.98 7 3 C11.95 3 16.9 3 22 3 C22 3.33 22 3.66 22 4 C19.27076612 4.0270817 16.54180363 4.04687847 13.8125 4.0625 C13.04357422 4.07087891 12.27464844 4.07925781 11.48242188 4.08789062 C7.51473211 4.10491934 3.87428766 3.98604115 0 3 C0 2.01 0 1.02 0 0 Z " fill="#1D25AD" transform="translate(85,179)"/>
<path d="M0 0 C-2.64 2.64 -5.28 5.28 -8 8 C-8.99 7.67 -9.98 7.34 -11 7 C-9.91072362 3.73217086 -9.31652071 3.18062667 -6.625 1.25 C-6.01914063 0.80140625 -5.41328125 0.3528125 -4.7890625 -0.109375 C-3 -1 -3 -1 0 0 Z " fill="#EBDCF6" transform="translate(156,165)"/>
<path d="M0 0 C0.33 0 0.66 0 1 0 C1.06058594 1.08539063 1.12117187 2.17078125 1.18359375 3.2890625 C1.26806064 4.73438486 1.35270551 6.17969682 1.4375 7.625 C1.47681641 8.33785156 1.51613281 9.05070312 1.55664062 9.78515625 C1.80309681 13.91803682 2.23470053 17.92269024 3 22 C2.01 22.33 1.02 22.66 0 23 C0 15.41 0 7.82 0 0 Z " fill="#DBCEED" transform="translate(183,93)"/>
<path d="M0 0 C1 2 1 2 0.44140625 4.1640625 C0.15136719 4.97617188 -0.13867188 5.78828125 -0.4375 6.625 C-0.72496094 7.44226563 -1.01242188 8.25953125 -1.30859375 9.1015625 C-1.65083984 10.04128906 -1.65083984 10.04128906 -2 11 C-3.32 10.01 -4.64 9.02 -6 8 C-5.67 6.02 -5.34 4.04 -5 2 C-3.68 2.66 -2.36 3.32 -1 4 C-1.33 3.01 -1.66 2.02 -2 1 C-1.34 0.67 -0.68 0.34 0 0 Z " fill="#D5C9ED" transform="translate(21,71)"/>
<path d="M0 0 C3.21524305 1.40844718 5.32183868 3.10344786 7.75 5.625 C8.67039063 6.57246094 8.67039063 6.57246094 9.609375 7.5390625 C10.29773438 8.26222656 10.29773438 8.26222656 11 9 C10.34 9.66 9.68 10.32 9 11 C7.33333333 9.33333333 5.66666667 7.66666667 4 6 C3.236875 5.278125 2.47375 4.55625 1.6875 3.8125 C0 2 0 2 0 0 Z " fill="#3032AF" transform="translate(152,36)"/>
<path d="M0 0 C3.21524305 1.40844718 5.32183868 3.10344786 7.75 5.625 C8.67039062 6.57246094 8.67039062 6.57246094 9.609375 7.5390625 C10.29773438 8.26222656 10.29773438 8.26222656 11 9 C10.34 9.66 9.68 10.32 9 11 C7.49403892 9.54782324 5.99537896 8.08807139 4.5 6.625 C3.6646875 5.81289062 2.829375 5.00078125 1.96875 4.1640625 C0 2 0 2 0 0 Z " fill="#2F32AF" transform="translate(36,152)"/>
<path d="M0 0 C0.33 0 0.66 0 1 0 C1.33 3.3 1.66 6.6 2 10 C1.34 10 0.68 10 0 10 C-0.33 11.32 -0.66 12.64 -1 14 C-1.33 10.7 -1.66 7.4 -2 4 C-1.34 4 -0.68 4 0 4 C0 2.68 0 1.36 0 0 Z " fill="#7A74A1" transform="translate(4,110)"/>
<path d="M0 0 C0.99 0 1.98 0 3 0 C2.67 3.96 2.34 7.92 2 12 C-0.25900493 9.74099507 -0.34458029 9.05816925 -0.6875 6 C-0.77386719 5.29875 -0.86023438 4.5975 -0.94921875 3.875 C-1 2 -1 2 0 0 Z " fill="#4548B4" transform="translate(178,77)"/>
<path d="M0 0 C0.33 0.66 0.66 1.32 1 2 C-3.62 2 -8.24 2 -13 2 C-12 0 -12 0 -10.4375 -0.6875 C-6.7687971 -1.15784653 -3.64631183 -0.65753164 0 0 Z " fill="#DAD0FA" transform="translate(106,11)"/>
<path d="M0 0 C0.66 0.33 1.32 0.66 2 1 C1.21172254 2.29373782 0.41924884 3.58491951 -0.375 4.875 C-0.81585938 5.59429687 -1.25671875 6.31359375 -1.7109375 7.0546875 C-3 9 -3 9 -5 11 C-5.33 8.36 -5.66 5.72 -6 3 C-4.03533587 1.93224776 -2.03144641 0.93446535 0 0 Z " fill="#C8EBFF" transform="translate(148,60)"/>
<path d="M0 0 C3.96873434 1.32291145 4.29905037 2.91149738 6.1875 6.5625 C6.71730469 7.57441406 7.24710938 8.58632812 7.79296875 9.62890625 C8.19128906 10.41136719 8.58960938 11.19382812 9 12 C8.01 12 7.02 12 6 12 C5.18432826 10.56429734 4.37257907 9.12636566 3.5625 7.6875 C3.11003906 6.88699219 2.65757813 6.08648437 2.19140625 5.26171875 C1 3 1 3 0 0 Z " fill="#DE9D1C" transform="translate(121,74)"/>
<path d="M0 0 C1.98 0 3.96 0 6 0 C6 0.99 6 1.98 6 3 C9.96 3 13.92 3 18 3 C18 3.33 18 3.66 18 4 C12.72 4 7.44 4 2 4 C2.33 3.01 2.66 2.02 3 1 C2.01 0.67 1.02 0.34 0 0 Z " fill="#565BBE" transform="translate(87,17)"/>
<path d="M0 0 C-1 2 -1 2 -2.5625 3.1875 C-6.24191796 4.41397265 -9.19442869 3.63426189 -13 3 C-9.21656826 -0.94792877 -5.07874402 -0.29300446 0 0 Z " fill="#79729F" transform="translate(95,1)"/>
<path d="M0 0 C0.66 0 1.32 0 2 0 C4.21854707 4.62197306 5.38281159 7.76824163 5 13 C2.94876752 10.94876752 2.35852882 9.72994937 1.375 7.0625 C0.98441406 6.02802734 0.98441406 6.02802734 0.5859375 4.97265625 C0 3 0 3 0 0 Z " fill="#EFE0F7" transform="translate(177,66)"/>
<path d="M0 0 C4.97874064 0.47416578 8.06718758 1.9099331 12 5 C12 5.66 12 6.32 12 7 C7.69235185 5.43358249 3.93828536 3.31663844 0 1 C0 0.67 0 0.34 0 0 Z " fill="#FCBB1A" transform="translate(78,121)"/>
<path d="M0 0 C-0.33 0.99 -0.66 1.98 -1 3 C-3.64 3.33 -6.28 3.66 -9 4 C-9 3.01 -9 2.02 -9 1 C-6.04335481 -0.4783226 -3.25770263 -0.06032783 0 0 Z " fill="#ECDDF8" transform="translate(120,182)"/>
<path d="M0 0 C4.8274799 1.41292095 8.7162359 3.42974154 13 6 C11 7 11 7 8.65234375 6.328125 C7.75644531 5.97234375 6.86054688 5.6165625 5.9375 5.25 C5.03902344 4.90453125 4.14054688 4.5590625 3.21484375 4.203125 C1 3 1 3 0 0 Z " fill="#3035B0" transform="translate(133,24)"/>
<path d="M0 0 C4.2742558 1.5830577 6.26531794 4.50568404 9 8 C6 8 6 8 4.39453125 6.7578125 C3.87246094 6.21898437 3.35039062 5.68015625 2.8125 5.125 C2.28269531 4.59132813 1.75289062 4.05765625 1.20703125 3.5078125 C0 2 0 2 0 0 Z " fill="#DED0ED" transform="translate(155,36)"/>
<path d="M0 0 C0.33 0.66 0.66 1.32 1 2 C1.66 2.33 2.32 2.66 3 3 C2.01 5.64 1.02 8.28 0 11 C-0.66 11 -1.32 11 -2 11 C-1.85892253 9.54119891 -1.71197585 8.08296449 -1.5625 6.625 C-1.48128906 5.81289062 -1.40007812 5.00078125 -1.31640625 4.1640625 C-1 2 -1 2 0 0 Z " fill="#716996" transform="translate(193,125)"/>
<path d="M0 0 C0.33 0 0.66 0 1 0 C1.33 3.63 1.66 7.26 2 11 C0.68 11.33 -0.64 11.66 -2 12 C-1.34 8.04 -0.68 4.08 0 0 Z " fill="#4749B3" transform="translate(20,105)"/>
<path d="M0 0 C-0.33 0.99 -0.66 1.98 -1 3 C-4.63 2.67 -8.26 2.34 -12 2 C-8.38983318 -0.40677788 -4.12558991 -2.06279495 0 0 Z " fill="#4749B3" transform="translate(117,19)"/>
<path d="M0 0 C-3.21627837 2.14418558 -5.19090105 2.67582137 -9 3 C-9.66 2.34 -10.32 1.68 -11 1 C-3.57142857 -1.42857143 -3.57142857 -1.42857143 0 0 Z " fill="#E0D3EF" transform="translate(129,180)"/>
<path d="M0 0 C0.99 0 1.98 0 3 0 C3.33 1.65 3.66 3.3 4 5 C3.34 5 2.68 5 2 5 C1.67 5.99 1.34 6.98 1 8 C0.67 5.36 0.34 2.72 0 0 Z " fill="#3338B0" transform="translate(19,116)"/>
<path d="M0 0 C0.66 0 1.32 0 2 0 C2.99 2.31 3.98 4.62 5 7 C3.68 6.67 2.36 6.34 1 6 C1 7.65 1 9.3 1 11 C0.34 10.67 -0.32 10.34 -1 10 C-0.67 6.7 -0.34 3.4 0 0 Z " fill="#78CDFF" transform="translate(142,50)"/>
<path d="M0 0 C5.21979128 -0.1799928 9.07262981 0.02905192 14 2 C13.67 2.99 13.34 3.98 13 5 C12.154375 4.525625 11.30875 4.05125 10.4375 3.5625 C6.87412671 1.94278487 3.87438575 1.38743857 0 1 C0 0.67 0 0.34 0 0 Z " fill="#9187A4" transform="translate(139,45)"/>
<path d="M0 0 C2.40072955 2.88087546 4.47291037 5.56404834 6 9 C5.34 9.66 4.68 10.32 4 11 C0 4.5 0 4.5 0 0 Z " fill="#DE9D1B" transform="translate(100,37)"/>
<path d="M0 0 C0.99 0.66 1.98 1.32 3 2 C-3.4 5.07692308 -3.4 5.07692308 -6.4375 4.6875 C-6.953125 4.460625 -7.46875 4.23375 -8 4 C-7.01 4 -6.02 4 -5 4 C-5 3.34 -5 2.68 -5 2 C-2.6875 0.875 -2.6875 0.875 0 0 Z " fill="#2E33AF" transform="translate(129,175)"/>
<path d="M0 0 C1.98 0 3.96 0 6 0 C6.33 0.99 6.66 1.98 7 3 C4.125 3.625 4.125 3.625 1 4 C0.34 3.34 -0.32 2.68 -1 2 C-0.67 1.34 -0.34 0.68 0 0 Z " fill="#6170C3" transform="translate(97,125)"/>
<path d="M0 0 C3.60296594 -0.41176754 4.78402067 -0.1535853 7.8125 2 C8.534375 2.66 9.25625 3.32 10 4 C7 5 7 5 5.17578125 4.22265625 C3.45052083 3.1484375 1.72526042 2.07421875 0 1 C0 0.67 0 0.34 0 0 Z " fill="#DDDBDD" transform="translate(73,116)"/>
<path d="M0 0 C1 2 1 2 0.1875 5.5625 C-1 9 -1 9 -3 10 C-3.36923077 4.58461538 -3.36923077 4.58461538 -1.5 1.625 C-1.005 1.08875 -0.51 0.5525 0 0 Z " fill="#EEDFF8" transform="translate(26,55)"/>
<path d="M0 0 C0.99 0 1.98 0 3 0 C2.67 0.99 2.34 1.98 2 3 C1.9314505 4.89470816 1.91519628 6.7916834 1.9375 8.6875 C1.94652344 9.68136719 1.95554688 10.67523438 1.96484375 11.69921875 C1.97644531 12.45847656 1.98804688 13.21773437 2 14 C1.34 13.67 0.68 13.34 0 13 C0 8.71 0 4.42 0 0 Z " fill="#A0919C" transform="translate(127,53)"/>
<path d="M0 0 C1.65 0.33 3.3 0.66 5 1 C4.67 1.99 4.34 2.98 4 4 C1.4375 5.1875 1.4375 5.1875 -1 6 C-0.67 4.02 -0.34 2.04 0 0 Z " fill="#CAEBFF" transform="translate(143,56)"/>
<path d="M0 0 C0.99 0.66 1.98 1.32 3 2 C2.67 2.99 2.34 3.98 2 5 C-0.5625 6.1875 -0.5625 6.1875 -3 7 C-1.125 1.125 -1.125 1.125 0 0 Z " fill="#4547B3" transform="translate(48,34)"/>
<path d="M0 0 C1.32 0.33 2.64 0.66 4 1 C4 1.66 4 2.32 4 3 C5.65 3.33 7.3 3.66 9 4 C8.01 4.66 7.02 5.32 6 6 C3.96166576 4.7260411 1.96147874 3.38938077 0 2 C0 1.34 0 0.68 0 0 Z " fill="#DE9E1C" transform="translate(84,113)"/>
<path d="M0 0 C1.8871875 0.061875 1.8871875 0.061875 3.8125 0.125 C2.8225 0.455 1.8325 0.785 0.8125 1.125 C0.8125 1.785 0.8125 2.445 0.8125 3.125 C-1.8275 2.795 -4.4675 2.465 -7.1875 2.125 C-4.09861478 0.06574319 -3.47814073 -0.1140374 0 0 Z " fill="#7B73A1" transform="translate(124.1875,3.875)"/>
<path d="M0 0 C0.99 0.33 1.98 0.66 3 1 C3.33 2.65 3.66 4.3 4 6 C3.01 6 2.02 6 1 6 C1 5.34 1 4.68 1 4 C0.34 3.67 -0.32 3.34 -1 3 C-0.67 2.01 -0.34 1.02 0 0 Z " fill="#4547B2" transform="translate(21,121)"/>
<path d="M0 0 C2.475 0.99 2.475 0.99 5 2 C5 2.99 5 3.98 5 5 C5.66 5 6.32 5 7 5 C6.67 5.66 6.34 6.32 6 7 C5.34 7 4.68 7 4 7 C2.02 3.535 2.02 3.535 0 0 Z " fill="#FABD2B" transform="translate(62,110)"/>
<path d="M0 0 C0 0.33 0 0.66 0 1 C-1.98 1 -3.96 1 -6 1 C-6 1.66 -6 2.32 -6 3 C-7.65 3.33 -9.3 3.66 -11 4 C-10.67 3.01 -10.34 2.02 -10 1 C-6.52674819 -0.1577506 -3.63932552 -0.06866652 0 0 Z " fill="#767FBF" transform="translate(145,44)"/>
<path d="M0 0 C2.97 0.33 5.94 0.66 9 1 C9 1.33 9 1.66 9 2 C6.36 2.33 3.72 2.66 1 3 C0.67 2.01 0.34 1.02 0 0 Z " fill="#F0E1F9" transform="translate(80,182)"/>
<path d="M0 0 C2.91227269 3.28804981 4.49701212 5.59885603 5 10 C2.08772731 6.71195019 0.50298788 4.40114397 0 0 Z " fill="#FCBC1C" transform="translate(86,141)"/>
<path d="M0 0 C0.99 0.33 1.98 0.66 3 1 C3.8125 2.875 3.8125 2.875 4 5 C3.01 6.485 3.01 6.485 2 8 C1.67 7.01 1.34 6.02 1 5 C0.34 4.34 -0.32 3.68 -1 3 C-0.67 2.01 -0.34 1.02 0 0 Z " fill="#4A4BB4" transform="translate(175,68)"/>
<path d="M0 0 C0.99 0.33 1.98 0.66 3 1 C2.34 2.65 1.68 4.3 1 6 C0.01 5.01 -0.98 4.02 -2 3 C-1.34 2.01 -0.68 1.02 0 0 Z " fill="#4345B2" transform="translate(36,46)"/>
<path d="M0 0 C0.99 0.33 1.98 0.66 3 1 C1.02 1.33 -0.96 1.66 -3 2 C-2.01 1.34 -1.02 0.68 0 0 Z " fill="#6D6D8B" transform="translate(134,194)"/>
<path d="M0 0 C2.97 0.495 2.97 0.495 6 1 C4.125 1.625 4.125 1.625 2 2 C1.34 1.34 0.68 0.68 0 0 Z " fill="#6D6D8B" transform="translate(63,194)"/>
<path d="M0 0 C0.625 1.875 0.625 1.875 1 4 C0.34 4.66 -0.32 5.32 -1 6 C-0.67 4.02 -0.34 2.04 0 0 Z " fill="#6D6D8B" transform="translate(195,131)"/>
<path d="M0 0 C0.99 1.485 0.99 1.485 2 3 C1.67 3.99 1.34 4.98 1 6 C0.67 4.02 0.34 2.04 0 0 Z " fill="#6D6D8B" transform="translate(4,131)"/>
<path d="M0 0 C0.66 0.66 1.32 1.32 2 2 C1.625 4.125 1.625 4.125 1 6 C0.67 4.02 0.34 2.04 0 0 Z " fill="#6D6D8B" transform="translate(194,63)"/>
<path d="M0 0 C0.33 0.99 0.66 1.98 1 3 C0.34 3.99 -0.32 4.98 -1 6 C-0.67 4.02 -0.34 2.04 0 0 Z " fill="#6D6D8B" transform="translate(5,63)"/>
<path d="M0 0 C2.97 0.495 2.97 0.495 6 1 C5.01 1.33 4.02 1.66 3 2 C2.01 1.34 1.02 0.68 0 0 Z " fill="#6D6D8B" transform="translate(131,4)"/>
<path d="M0 0 C2.125 0.375 2.125 0.375 4 1 C2.02 1.33 0.04 1.66 -2 2 C-1.34 1.34 -0.68 0.68 0 0 Z " fill="#6D6D8B" transform="translate(65,4)"/>
<path d="M0 0 C1.65 0 3.3 0 5 0 C5 0.33 5 0.66 5 1 C3.35 1 1.7 1 0 1 C0 0.67 0 0.34 0 0 Z " fill="#535378" transform="translate(115,199)"/>
<path d="M0 0 C1.65 0 3.3 0 5 0 C5 0.33 5 0.66 5 1 C3.35 1 1.7 1 0 1 C0 0.67 0 0.34 0 0 Z " fill="#535378" transform="translate(80,199)"/>
<path d="M0 0 C1.65 0 3.3 0 5 0 C5 0.33 5 0.66 5 1 C3.35 1 1.7 1 0 1 C0 0.67 0 0.34 0 0 Z " fill="#9090A1" transform="translate(120,198)"/>
<path d="M0 0 C1.65 0 3.3 0 5 0 C5 0.33 5 0.66 5 1 C3.35 1 1.7 1 0 1 C0 0.67 0 0.34 0 0 Z " fill="#9090A1" transform="translate(75,198)"/>
<path d="M0 0 C0.66 0.33 1.32 0.66 2 1 C0.68 1.33 -0.64 1.66 -2 2 C-1.34 1.34 -0.68 0.68 0 0 Z " fill="#A5A5C0" transform="translate(141,191)"/>
<path d="M0 0 C1.98 0.99 1.98 0.99 4 2 C2.68 1.67 1.36 1.34 0 1 C0 0.67 0 0.34 0 0 Z " fill="#A5A5C0" transform="translate(57,191)"/>
<path d="M0 0 C0.66 0.33 1.32 0.66 2 1 C0.68 1.33 -0.64 1.66 -2 2 C-1.34 1.34 -0.68 0.68 0 0 Z " fill="#4747C4" transform="translate(147,188)"/>
<path d="M0 0 C1.98 0.99 1.98 0.99 4 2 C2.68 1.67 1.36 1.34 0 1 C0 0.67 0 0.34 0 0 Z " fill="#4747C4" transform="translate(51,188)"/>
<path d="M0 0 C0.33 0.99 0.66 1.98 1 3 C0.01 3.495 0.01 3.495 -1 4 C-0.67 2.68 -0.34 1.36 0 0 Z " fill="#4747C4" transform="translate(189,145)"/>
<path d="M0 0 C0.66 1.32 1.32 2.64 2 4 C1.34 3.67 0.68 3.34 0 3 C0 2.01 0 1.02 0 0 Z " fill="#4747C4" transform="translate(10,145)"/>
<path d="M0 0 C0.33 0.99 0.66 1.98 1 3 C0.01 3.495 0.01 3.495 -1 4 C-0.67 2.68 -0.34 1.36 0 0 Z " fill="#A572C0" transform="translate(192,139)"/>
<path d="M0 0 C0.66 1.32 1.32 2.64 2 4 C1.34 3.67 0.68 3.34 0 3 C0 2.01 0 1.02 0 0 Z " fill="#A572C0" transform="translate(7,139)"/>
<path d="M0 0 C0.33 0 0.66 0 1 0 C1 1.65 1 3.3 1 5 C0.67 5 0.34 5 0 5 C0 3.35 0 1.7 0 0 Z " fill="#9090A1" transform="translate(198,120)"/>
<path d="M0 0 C0.33 0 0.66 0 1 0 C1 1.65 1 3.3 1 5 C0.67 5 0.34 5 0 5 C0 3.35 0 1.7 0 0 Z " fill="#9090A1" transform="translate(1,120)"/>
<path d="M0 0 C0.33 0 0.66 0 1 0 C1 1.65 1 3.3 1 5 C0.67 5 0.34 5 0 5 C0 3.35 0 1.7 0 0 Z " fill="#535378" transform="translate(199,115)"/>
<path d="M0 0 C0.33 0 0.66 0 1 0 C1 1.65 1 3.3 1 5 C0.67 5 0.34 5 0 5 C0 3.35 0 1.7 0 0 Z " fill="#535378" transform="translate(0,115)"/>
<path d="M0 0 C0.33 0 0.66 0 1 0 C1 1.65 1 3.3 1 5 C0.67 5 0.34 5 0 5 C0 3.35 0 1.7 0 0 Z " fill="#535378" transform="translate(199,80)"/>
<path d="M0 0 C0.33 0 0.66 0 1 0 C1 1.65 1 3.3 1 5 C0.67 5 0.34 5 0 5 C0 3.35 0 1.7 0 0 Z " fill="#535378" transform="translate(0,80)"/>
<path d="M0 0 C0.33 0 0.66 0 1 0 C1 1.65 1 3.3 1 5 C0.67 5 0.34 5 0 5 C0 3.35 0 1.7 0 0 Z " fill="#9090A1" transform="translate(198,75)"/>
<path d="M0 0 C0.33 0 0.66 0 1 0 C1 1.65 1 3.3 1 5 C0.67 5 0.34 5 0 5 C0 3.35 0 1.7 0 0 Z " fill="#9090A1" transform="translate(1,75)"/>
<path d="M0 0 C0.99 0.495 0.99 0.495 2 1 C1.67 1.99 1.34 2.98 1 4 C0.67 2.68 0.34 1.36 0 0 Z " fill="#A572C0" transform="translate(191,57)"/>
<path d="M0 0 C0.33 0.66 0.66 1.32 1 2 C0.34 2.66 -0.32 3.32 -1 4 C-0.67 2.68 -0.34 1.36 0 0 Z " fill="#A572C0" transform="translate(8,57)"/>
<path d="M0 0 C0.99 0.495 0.99 0.495 2 1 C1.67 1.99 1.34 2.98 1 4 C0.67 2.68 0.34 1.36 0 0 Z " fill="#4747C4" transform="translate(188,51)"/>
<path d="M0 0 C0.33 0.66 0.66 1.32 1 2 C0.34 2.66 -0.32 3.32 -1 4 C-0.67 2.68 -0.34 1.36 0 0 Z " fill="#4747C4" transform="translate(11,51)"/>
<path d="M0 0 C1.32 0.33 2.64 0.66 4 1 C3.01 1.495 3.01 1.495 2 2 C1.34 1.34 0.68 0.68 0 0 Z " fill="#4747C4" transform="translate(145,10)"/>
<path d="M0 0 C0.99 0.33 1.98 0.66 3 1 C1.68 1.33 0.36 1.66 -1 2 C-0.67 1.34 -0.34 0.68 0 0 Z " fill="#4747C4" transform="translate(52,10)"/>
<path d="M0 0 C1.32 0.33 2.64 0.66 4 1 C3.01 1.495 3.01 1.495 2 2 C1.34 1.34 0.68 0.68 0 0 Z " fill="#A5A5C0" transform="translate(139,7)"/>
<path d="M0 0 C0.99 0.33 1.98 0.66 3 1 C1.68 1.33 0.36 1.66 -1 2 C-0.67 1.34 -0.34 0.68 0 0 Z " fill="#A5A5C0" transform="translate(58,7)"/>
<path d="M0 0 C1.65 0 3.3 0 5 0 C5 0.33 5 0.66 5 1 C3.35 1 1.7 1 0 1 C0 0.67 0 0.34 0 0 Z " fill="#9090A1" transform="translate(120,1)"/>
<path d="M0 0 C1.65 0 3.3 0 5 0 C5 0.33 5 0.66 5 1 C3.35 1 1.7 1 0 1 C0 0.67 0 0.34 0 0 Z " fill="#9090A1" transform="translate(75,1)"/>
<path d="M0 0 C1.65 0 3.3 0 5 0 C5 0.33 5 0.66 5 1 C3.35 1 1.7 1 0 1 C0 0.67 0 0.34 0 0 Z " fill="#535378" transform="translate(115,0)"/>
<path d="M0 0 C1.65 0 3.3 0 5 0 C5 0.33 5 0.66 5 1 C3.35 1 1.7 1 0 1 C0 0.67 0 0.34 0 0 Z " fill="#535378" transform="translate(80,0)"/>
<path d="M0 0 C0.66 0.33 1.32 0.66 2 1 C1.01 1 0.02 1 -1 1 C-0.67 0.67 -0.34 0.34 0 0 Z " fill="#797986" transform="translate(152,185)"/>
<path d="M0 0 C0.99 0.33 1.98 0.66 3 1 C2.01 1 1.02 1 0 1 C0 0.67 0 0.34 0 0 Z " fill="#797986" transform="translate(46,185)"/>
<path d="M0 0 C0 3 0 3 0 3 Z " fill="#797986" transform="translate(186,151)"/>
<path d="M0 0 C0.99 0.495 0.99 0.495 2 1 C1.67 1.66 1.34 2.32 1 3 C0.67 2.01 0.34 1.02 0 0 Z " fill="#797986" transform="translate(13,151)"/>
<path d="M0 0 C0.99 0.495 0.99 0.495 2 1 C1.67 1.66 1.34 2.32 1 3 C0.67 2.01 0.34 1.02 0 0 Z " fill="#797986" transform="translate(185,46)"/>
<path d="M0 0 C0 3 0 3 0 3 Z " fill="#797986" transform="translate(14,46)"/>
<path d="M0 0 C0.99 0.33 1.98 0.66 3 1 C2.01 1 1.02 1 0 1 C0 0.67 0 0.34 0 0 Z " fill="#797986" transform="translate(151,13)"/>
<path d="M0 0 C0.66 0.33 1.32 0.66 2 1 C1.01 1 0.02 1 -1 1 C-0.67 0.67 -0.34 0.34 0 0 Z " fill="#797986" transform="translate(47,13)"/>
<path d="M0 0 C3 1 3 1 3 1 Z " fill="#60609E" transform="translate(125,197)"/>
<path d="M0 0 C3 1 3 1 3 1 Z " fill="#60609E" transform="translate(72,197)"/>
<path d="M0 0 C3 1 3 1 3 1 Z " fill="#777788" transform="translate(128,196)"/>
<path d="M0 0 C3 1 3 1 3 1 Z " fill="#777788" transform="translate(69,196)"/>
<path d="" fill="#777788" transform="translate(0,0)"/>
<path d="" fill="#777788" transform="translate(0,0)"/>
<path d="" fill="#60609E" transform="translate(0,0)"/>
<path d="" fill="#60609E" transform="translate(0,0)"/>
<path d="" fill="#60609E" transform="translate(0,0)"/>
<path d="" fill="#60609E" transform="translate(0,0)"/>
<path d="" fill="#777788" transform="translate(0,0)"/>
<path d="" fill="#777788" transform="translate(0,0)"/>
<path d="M0 0 C3 1 3 1 3 1 Z " fill="#777788" transform="translate(128,3)"/>
<path d="M0 0 C3 1 3 1 3 1 Z " fill="#777788" transform="translate(69,3)"/>
<path d="M0 0 C3 1 3 1 3 1 Z " fill="#60609E" transform="translate(125,2)"/>
<path d="M0 0 C3 1 3 1 3 1 Z " fill="#60609E" transform="translate(72,2)"/>
<path d="M0 0 C2 1 2 1 2 1 Z " fill="#73738C" transform="translate(137,193)"/>
<path d="M0 0 C2 1 2 1 2 1 Z " fill="#73738C" transform="translate(61,193)"/>
<path d="M0 0 C2 1 2 1 2 1 Z " fill="#BFBFBF" transform="translate(143,190)"/>
<path d="M0 0 C2 1 2 1 2 1 Z " fill="#BFBFBF" transform="translate(55,190)"/>
<path d="M0 0 C2 1 2 1 2 1 Z " fill="#73738C" transform="translate(149,187)"/>
<path d="M0 0 C2 1 2 1 2 1 Z " fill="#73738C" transform="translate(49,187)"/>
<path d="M0 0 C2 1 2 1 2 1 Z " fill="#B233CC" transform="translate(154,184)"/>
<path d="M0 0 C2 1 2 1 2 1 Z " fill="#B233CC" transform="translate(44,184)"/>
<path d="M0 0 C2 1 2 1 2 1 Z " fill="#6A6A95" transform="translate(158,181)"/>
<path d="M0 0 C2 1 2 1 2 1 Z " fill="#6A6A95" transform="translate(40,181)"/>
<path d="M0 0 C2 1 2 1 2 1 Z " fill="#6A6A95" transform="translate(162,178)"/>
<path d="M0 0 C2 1 2 1 2 1 Z " fill="#6A6A95" transform="translate(36,178)"/>
<path d="" fill="#6A6A95" transform="translate(0,0)"/>
<path d="" fill="#6A6A95" transform="translate(0,0)"/>
<path d="" fill="#6A6A95" transform="translate(0,0)"/>
<path d="" fill="#6A6A95" transform="translate(0,0)"/>
<path d="" fill="#B233CC" transform="translate(0,0)"/>
<path d="" fill="#B233CC" transform="translate(0,0)"/>
<path d="" fill="#73738C" transform="translate(0,0)"/>
<path d="" fill="#73738C" transform="translate(0,0)"/>
<path d="" fill="#BFBFBF" transform="translate(0,0)"/>
<path d="" fill="#BFBFBF" transform="translate(0,0)"/>
<path d="" fill="#73738C" transform="translate(0,0)"/>
<path d="" fill="#73738C" transform="translate(0,0)"/>
<path d="" fill="#73738C" transform="translate(0,0)"/>
<path d="" fill="#73738C" transform="translate(0,0)"/>
<path d="" fill="#BFBFBF" transform="translate(0,0)"/>
<path d="" fill="#BFBFBF" transform="translate(0,0)"/>
<path d="" fill="#73738C" transform="translate(0,0)"/>
<path d="" fill="#73738C" transform="translate(0,0)"/>
<path d="" fill="#B233CC" transform="translate(0,0)"/>
<path d="" fill="#B233CC" transform="translate(0,0)"/>
<path d="" fill="#6A6A95" transform="translate(0,0)"/>
<path d="" fill="#6A6A95" transform="translate(0,0)"/>
<path d="" fill="#6A6A95" transform="translate(0,0)"/>
<path d="" fill="#6A6A95" transform="translate(0,0)"/>
<path d="M0 0 C2 1 2 1 2 1 Z " fill="#6A6A95" transform="translate(162,21)"/>
<path d="M0 0 C2 1 2 1 2 1 Z " fill="#6A6A95" transform="translate(36,21)"/>
<path d="M0 0 C2 1 2 1 2 1 Z " fill="#6A6A95" transform="translate(158,18)"/>
<path d="M0 0 C2 1 2 1 2 1 Z " fill="#6A6A95" transform="translate(40,18)"/>
<path d="M0 0 C2 1 2 1 2 1 Z " fill="#B233CC" transform="translate(154,15)"/>
<path d="M0 0 C2 1 2 1 2 1 Z " fill="#B233CC" transform="translate(44,15)"/>
<path d="M0 0 C2 1 2 1 2 1 Z " fill="#73738C" transform="translate(149,12)"/>
<path d="M0 0 C2 1 2 1 2 1 Z " fill="#73738C" transform="translate(49,12)"/>
<path d="M0 0 C2 1 2 1 2 1 Z " fill="#BFBFBF" transform="translate(143,9)"/>
<path d="M0 0 C2 1 2 1 2 1 Z " fill="#BFBFBF" transform="translate(55,9)"/>
<path d="M0 0 C2 1 2 1 2 1 Z " fill="#73738C" transform="translate(137,6)"/>
<path d="M0 0 C2 1 2 1 2 1 Z " fill="#73738C" transform="translate(61,6)"/>
<path d="" fill="#666699" transform="translate(0,0)"/>
<path d="" fill="#666699" transform="translate(0,0)"/>
<path d="" fill="#805580" transform="translate(0,0)"/>
<path d="" fill="#805580" transform="translate(0,0)"/>
<path d="" fill="#805580" transform="translate(0,0)"/>
<path d="" fill="#805580" transform="translate(0,0)"/>
<path d="" fill="#555580" transform="translate(0,0)"/>
<path d="" fill="#555580" transform="translate(0,0)"/>
<path d="" fill="#808080" transform="translate(0,0)"/>
<path d="" fill="#808080" transform="translate(0,0)"/>
<path d="" fill="#666699" transform="translate(0,0)"/>
<path d="" fill="#666699" transform="translate(0,0)"/>
<path d="" fill="#8080AA" transform="translate(0,0)"/>
<path d="" fill="#8080AA" transform="translate(0,0)"/>
<path d="" fill="#8080AA" transform="translate(0,0)"/>
<path d="" fill="#8080AA" transform="translate(0,0)"/>
<path d="" fill="#666699" transform="translate(0,0)"/>
<path d="" fill="#666699" transform="translate(0,0)"/>
<path d="" fill="#8055AA" transform="translate(0,0)"/>
<path d="" fill="#8055AA" transform="translate(0,0)"/>
<path d="" fill="#666699" transform="translate(0,0)"/>
<path d="" fill="#666699" transform="translate(0,0)"/>
<path d="" fill="#666699" transform="translate(0,0)"/>
<path d="" fill="#666699" transform="translate(0,0)"/>
<path d="" fill="#8055AA" transform="translate(0,0)"/>
<path d="" fill="#8055AA" transform="translate(0,0)"/>
<path d="" fill="#666699" transform="translate(0,0)"/>
<path d="" fill="#666699" transform="translate(0,0)"/>
<path d="" fill="#8080AA" transform="translate(0,0)"/>
<path d="" fill="#8080AA" transform="translate(0,0)"/>
<path d="" fill="#8080AA" transform="translate(0,0)"/>
<path d="" fill="#8080AA" transform="translate(0,0)"/>
<path d="" fill="#666699" transform="translate(0,0)"/>
<path d="" fill="#666699" transform="translate(0,0)"/>
<path d="" fill="#808080" transform="translate(0,0)"/>
<path d="" fill="#808080" transform="translate(0,0)"/>
<path d="" fill="#555580" transform="translate(0,0)"/>
<path d="" fill="#555580" transform="translate(0,0)"/>
<path d="" fill="#805580" transform="translate(0,0)"/>
<path d="" fill="#805580" transform="translate(0,0)"/>
<path d="" fill="#805580" transform="translate(0,0)"/>
<path d="" fill="#805580" transform="translate(0,0)"/>
<path d="" fill="#666699" transform="translate(0,0)"/>
<path d="" fill="#666699" transform="translate(0,0)"/>
<path d="" fill="#666699" transform="translate(0,0)"/>
<path d="" fill="#666699" transform="translate(0,0)"/>
<path d="" fill="#805580" transform="translate(0,0)"/>
<path d="" fill="#805580" transform="translate(0,0)"/>
<path d="" fill="#805580" transform="translate(0,0)"/>
<path d="" fill="#805580" transform="translate(0,0)"/>
<path d="" fill="#555580" transform="translate(0,0)"/>
<path d="" fill="#555580" transform="translate(0,0)"/>
<path d="" fill="#808080" transform="translate(0,0)"/>
<path d="" fill="#808080" transform="translate(0,0)"/>
<path d="" fill="#666699" transform="translate(0,0)"/>
<path d="" fill="#666699" transform="translate(0,0)"/>
<path d="" fill="#8080AA" transform="translate(0,0)"/>
<path d="" fill="#8080AA" transform="translate(0,0)"/>
<path d="" fill="#8080AA" transform="translate(0,0)"/>
<path d="" fill="#8080AA" transform="translate(0,0)"/>
<path d="" fill="#666699" transform="translate(0,0)"/>
<path d="" fill="#666699" transform="translate(0,0)"/>
<path d="" fill="#8055AA" transform="translate(0,0)"/>
<path d="" fill="#8055AA" transform="translate(0,0)"/>
<path d="" fill="#666699" transform="translate(0,0)"/>
<path d="" fill="#666699" transform="translate(0,0)"/>
<path d="" fill="#666699" transform="translate(0,0)"/>
<path d="" fill="#666699" transform="translate(0,0)"/>
<path d="" fill="#8055AA" transform="translate(0,0)"/>
<path d="" fill="#8055AA" transform="translate(0,0)"/>
<path d="" fill="#666699" transform="translate(0,0)"/>
<path d="" fill="#666699" transform="translate(0,0)"/>
<path d="" fill="#8080AA" transform="translate(0,0)"/>
<path d="" fill="#8080AA" transform="translate(0,0)"/>
<path d="" fill="#8080AA" transform="translate(0,0)"/>
<path d="" fill="#8080AA" transform="translate(0,0)"/>
<path d="" fill="#666699" transform="translate(0,0)"/>
<path d="" fill="#666699" transform="translate(0,0)"/>
<path d="" fill="#808080" transform="translate(0,0)"/>
<path d="" fill="#808080" transform="translate(0,0)"/>
<path d="" fill="#555580" transform="translate(0,0)"/>
<path d="" fill="#555580" transform="translate(0,0)"/>
<path d="" fill="#805580" transform="translate(0,0)"/>
<path d="" fill="#805580" transform="translate(0,0)"/>
<path d="" fill="#805580" transform="translate(0,0)"/>
<path d="" fill="#805580" transform="translate(0,0)"/>
<path d="" fill="#666699" transform="translate(0,0)"/>
<path d="" fill="#666699" transform="translate(0,0)"/>
</svg>
