<svg version="1.1" xmlns="http://www.w3.org/2000/svg" width="500" height="500">
<path d="M0 0 C0.9398877 0.16097168 1.87977539 0.32194336 2.84814453 0.48779297 C36.65795818 6.53210278 68.52745532 19.92122632 97 39 C97.66950684 39.44585449 98.33901367 39.89170898 99.02880859 40.35107422 C111.36530395 48.64448968 122.7194546 58.26478674 133 69 C134.2375 70.2375 134.2375 70.2375 135.5 71.5 C136.7375 72.7375 136.7375 72.7375 138 74 C138.55945313 74.52464844 139.11890625 75.04929687 139.6953125 75.58984375 C146.20065956 81.81864771 151.59621308 88.82234882 157 96 C157.43103027 96.57024902 157.86206055 97.14049805 158.30615234 97.72802734 C168.88737479 111.82953327 177.49705635 127.06673543 185 143 C185.51046875 144.07894531 186.0209375 145.15789062 186.546875 146.26953125 C194.82351574 164.66948258 200.54096598 184.14742396 204 204 C204.24556641 205.40644775 204.24556641 205.40644775 204.49609375 206.84130859 C208.97552045 233.92610662 208.8453783 262.98628773 204 290 C203.76651855 291.3602832 203.76651855 291.3602832 203.52832031 292.74804688 C193.31043408 350.5474273 161.38810028 405.72393987 115 442 C114.21625 442.65097656 113.4325 443.30195313 112.625 443.97265625 C73.90011081 476.00985899 20.72032925 496.9725316 -29.703125 497.203125 C-30.70220886 497.20882507 -31.70129272 497.21452515 -32.73065186 497.22039795 C-34.83832766 497.22979019 -36.94601777 497.23635875 -39.05371094 497.24023438 C-42.20014843 497.24984769 -45.34590526 497.280889 -48.4921875 497.3125 C-65.85534054 497.40368139 -83.00893766 495.96250147 -99.875 491.625 C-101.16555298 491.30366089 -101.16555298 491.30366089 -102.48217773 490.97583008 C-117.48323099 487.17162867 -131.75624075 482.04611913 -146 476 C-146.72832031 475.69223633 -147.45664063 475.38447266 -148.20703125 475.06738281 C-182.63538739 460.29640441 -214.90864026 434.37093778 -238 405 C-238.77988281 404.03707031 -239.55976563 403.07414062 -240.36328125 402.08203125 C-257.72701459 380.23197447 -270.93001478 355.34392507 -280 329 C-280.27537598 328.22269531 -280.55075195 327.44539063 -280.83447266 326.64453125 C-285.61788847 313.05836168 -288.5926522 299.18675789 -291 285 C-291.20133545 283.83525146 -291.20133545 283.83525146 -291.40673828 282.64697266 C-295.52854813 257.3885683 -294.54344178 229.07691105 -290 204 C-289.83902832 203.07864258 -289.67805664 202.15728516 -289.51220703 201.20800781 C-281.05712067 154.21364691 -258.94567087 111.48728396 -226.48046875 76.7265625 C-224.89549033 74.98433425 -223.36115529 73.19372573 -221.8984375 71.34765625 C-220.18681775 69.23102359 -218.51407791 67.55718425 -216.4375 65.8125 C-213.1827826 63.04240045 -210.05312287 60.17553278 -206.9375 57.25 C-172.08332211 25.59915533 -126.17449713 6.15760697 -80 -1 C-79.28263672 -1.11714355 -78.56527344 -1.23428711 -77.82617188 -1.35498047 C-52.63460854 -5.31247863 -25.04349865 -4.32940826 0 0 Z " fill="#EABC14" transform="translate(293,3)"/>
<path d="M0 0 C0.9398877 0.16097168 1.87977539 0.32194336 2.84814453 0.48779297 C36.65795818 6.53210278 68.52745532 19.92122632 97 39 C97.66950684 39.44585449 98.33901367 39.89170898 99.02880859 40.35107422 C111.36530395 48.64448968 122.7194546 58.26478674 133 69 C134.2375 70.2375 134.2375 70.2375 135.5 71.5 C136.7375 72.7375 136.7375 72.7375 138 74 C138.55945313 74.52464844 139.11890625 75.04929687 139.6953125 75.58984375 C146.20065956 81.81864771 151.59621308 88.82234882 157 96 C157.43103027 96.57024902 157.86206055 97.14049805 158.30615234 97.72802734 C168.88737479 111.82953327 177.49705635 127.06673543 185 143 C185.51046875 144.07894531 186.0209375 145.15789062 186.546875 146.26953125 C194.82351574 164.66948258 200.54096598 184.14742396 204 204 C204.24556641 205.40644775 204.24556641 205.40644775 204.49609375 206.84130859 C208.97552045 233.92610662 208.8453783 262.98628773 204 290 C203.76651855 291.3602832 203.76651855 291.3602832 203.52832031 292.74804688 C193.31043408 350.5474273 161.38810028 405.72393987 115 442 C114.21625 442.65097656 113.4325 443.30195313 112.625 443.97265625 C73.90011081 476.00985899 20.72032925 496.9725316 -29.703125 497.203125 C-30.70220886 497.20882507 -31.70129272 497.21452515 -32.73065186 497.22039795 C-34.83832766 497.22979019 -36.94601777 497.23635875 -39.05371094 497.24023438 C-42.20014843 497.24984769 -45.34590526 497.280889 -48.4921875 497.3125 C-65.85534054 497.40368139 -83.00893766 495.96250147 -99.875 491.625 C-101.16555298 491.30366089 -101.16555298 491.30366089 -102.48217773 490.97583008 C-117.48323099 487.17162867 -131.75624075 482.04611913 -146 476 C-146.72832031 475.69223633 -147.45664063 475.38447266 -148.20703125 475.06738281 C-182.63538739 460.29640441 -214.90864026 434.37093778 -238 405 C-238.77988281 404.03707031 -239.55976563 403.07414062 -240.36328125 402.08203125 C-257.72701459 380.23197447 -270.93001478 355.34392507 -280 329 C-280.27537598 328.22269531 -280.55075195 327.44539063 -280.83447266 326.64453125 C-285.61788847 313.05836168 -288.5926522 299.18675789 -291 285 C-291.20133545 283.83525146 -291.20133545 283.83525146 -291.40673828 282.64697266 C-295.52854813 257.3885683 -294.54344178 229.07691105 -290 204 C-289.83902832 203.07864258 -289.67805664 202.15728516 -289.51220703 201.20800781 C-281.05712067 154.21364691 -258.94567087 111.48728396 -226.48046875 76.7265625 C-224.89549033 74.98433425 -223.36115529 73.19372573 -221.8984375 71.34765625 C-220.18681775 69.23102359 -218.51407791 67.55718425 -216.4375 65.8125 C-213.1827826 63.04240045 -210.05312287 60.17553278 -206.9375 57.25 C-172.08332211 25.59915533 -126.17449713 6.15760697 -80 -1 C-79.28263672 -1.11714355 -78.56527344 -1.23428711 -77.82617188 -1.35498047 C-52.63460854 -5.31247863 -25.04349865 -4.32940826 0 0 Z M-86 44 C-87.49080078 44.75216797 -87.49080078 44.75216797 -89.01171875 45.51953125 C-97.54023262 50.10151713 -104.22507131 56.18668645 -111 63 C-111.6909375 63.6909375 -112.381875 64.381875 -113.09375 65.09375 C-119.95651334 72.4556234 -131 86.5235088 -131 97 C-131.54624023 96.83991455 -132.09248047 96.6798291 -132.65527344 96.51489258 C-153.293515 91.98281725 -176.27350159 97.46368413 -194.1875 107.84765625 C-216.25922194 122.00846765 -232.2332374 142.99251959 -238.39575195 168.62084961 C-239.5027547 174.81156677 -239.48631394 180.97683165 -239.4375 187.25 C-239.43412628 187.93353546 -239.43075256 188.61707092 -239.42727661 189.32131958 C-239.35259996 199.76551336 -238.73190041 209.17632098 -235 219 C-234.74798828 219.67015137 -234.49597656 220.34030273 -234.23632812 221.03076172 C-231.17008161 229.01807652 -227.67459283 236.1976074 -222.3828125 242.984375 C-220.93773855 245.09075398 -220.2003178 246.45236856 -220 249 C-220.93359375 250.578125 -220.93359375 250.578125 -222.4375 252.25 C-229.49651499 261.05727572 -234.30704274 272.09905656 -237 283 C-237.33483398 284.06025391 -237.66966797 285.12050781 -238.01464844 286.21289062 C-239.62216781 292.39124555 -239.39432938 298.58915219 -239.375 304.9375 C-239.37412384 305.63352325 -239.37324768 306.32954651 -239.37234497 307.04666138 C-239.32856882 317.55763213 -238.75404067 327.07462839 -235 337 C-234.76394043 337.64888184 -234.52788086 338.29776367 -234.28466797 338.96630859 C-225.23913724 363.39682324 -207.36512193 381.06392867 -184.05078125 392.203125 C-174.34444907 396.6463758 -164.52770124 399.14328077 -153.8515625 399.09765625 C-153.19417084 399.0962413 -152.53677917 399.09482635 -151.85946655 399.09336853 C-149.78126269 399.08781762 -147.70317073 399.07527465 -145.625 399.0625 C-144.20703282 399.05747864 -142.78906393 399.05291685 -141.37109375 399.04882812 C-137.91402678 399.03786437 -134.45702433 399.02063421 -131 399 C-130.51188843 400.19604858 -130.51188843 400.19604858 -130.01391602 401.41625977 C-124.3429506 415.19219367 -117.48214921 425.54298784 -107 436 C-105.88818359 437.12921875 -105.88818359 437.12921875 -104.75390625 438.28125 C-86.19982209 455.95848709 -61.96096298 461.7949949 -37.0078125 461.21875 C-12.18466031 460.30445342 10.2785318 448.0295062 27.171875 430.2421875 C34.68672058 421.91671747 39.51926243 412.18893265 44 402 C45.2375 402.0314209 45.2375 402.0314209 46.5 402.06347656 C68.59668325 402.79778191 68.59668325 402.79778191 90 398 C91.59908203 397.42185547 91.59908203 397.42185547 93.23046875 396.83203125 C117.91413858 387.16504269 136.38197083 369.49590392 147.09521484 345.29150391 C149.55963994 339.04997828 151.06703584 332.47548531 152.55444336 325.94433594 C152.85738408 324.62235241 153.18847095 323.30657233 153.54418945 321.99780273 C158.45713681 300.46451498 149.96649716 276.0779593 139 258 C137.35444408 255.85105672 135.69387764 253.78131212 133.87109375 251.78125 C133 250 133 250 133.64453125 247.5625 C135.00061417 244.99883892 136.49591467 242.8071753 138.25 240.5 C152.08391631 221.11526072 156.62338118 196.72208781 153.17749023 173.41210938 C150.14661826 155.45799418 142.18858657 139.49810414 130 126 C129.25105469 125.15695313 128.50210937 124.31390625 127.73046875 123.4453125 C113.52837508 108.32467546 93.70207074 98.10950171 73 96 C68.56158858 95.86219301 64.12772081 95.86035386 59.6875 95.875 C58.49576172 95.87113281 57.30402344 95.86726563 56.07617188 95.86328125 C54.94115234 95.86457031 53.80613281 95.86585937 52.63671875 95.8671875 C51.08537231 95.86887939 51.08537231 95.86887939 49.50268555 95.87060547 C47.00139576 95.83245428 47.00139576 95.83245428 45 97 C44.649375 95.783125 44.29875 94.56625 43.9375 93.3125 C40.35379133 82.66185181 34.47052593 73.32844851 27 65 C26.18789063 64.09378906 25.37578125 63.18757813 24.5390625 62.25390625 C8.54204032 45.34209834 -14.10493123 34.57116702 -37.43359375 33.76171875 C-55.36308333 33.43120752 -69.95854952 35.49535424 -86 44 Z " fill="#352900" transform="translate(293,3)"/>
<path d="M0 0 C4.77777246 2.12642015 7.70140837 4.39010902 9.84765625 9.30859375 C11.21428379 17.5734365 9.03994555 23.30414999 4.84765625 30.30859375 C3.91179687 31.93861328 3.91179687 31.93861328 2.95703125 33.6015625 C1.275302 36.5172435 -0.42866289 39.41757859 -2.15234375 42.30859375 C0.46063423 45.02184402 3.12306168 47.33606629 6.16015625 49.55859375 C18.44547817 59.06916211 24.86458348 71.47861396 28.84765625 86.30859375 C30.20213867 86.20683838 30.20213867 86.20683838 31.58398438 86.10302734 C82.62537497 82.45815192 82.62537497 82.45815192 102.83203125 98.92578125 C109.85749353 105.42277955 115.19689544 114.12426757 117.84765625 123.30859375 C118.05132812 123.9221875 118.255 124.53578125 118.46484375 125.16796875 C121.79094005 136.92321319 120.79490036 150.89834155 116.84765625 162.30859375 C116.51894531 163.29085937 116.19023437 164.273125 115.8515625 165.28515625 C109.93272405 181.13699348 98.46900273 192.34623975 83.84765625 200.30859375 C83.14511719 200.70046875 82.44257813 201.09234375 81.71875 201.49609375 C73.39378155 205.92738811 65.13827662 206.72018779 55.84765625 207.30859375 C55.45578125 208.52546875 55.06390625 209.74234375 54.66015625 210.99609375 C54.061831 212.76890929 53.45699879 214.53953476 52.84765625 216.30859375 C52.50734375 217.29859375 52.16703125 218.28859375 51.81640625 219.30859375 C45.44425189 236.87507335 34.95498871 250.69084878 22.59765625 264.43359375 C21.89141113 265.23228882 21.89141113 265.23228882 21.17089844 266.04711914 C16.79529554 270.79091301 12.64961857 273.96409019 6.03515625 274.77734375 C0.98490517 274.49569513 -3.50099649 272.67918823 -8.15234375 270.80859375 C-9.07080078 270.44693115 -9.98925781 270.08526855 -10.93554688 269.71264648 C-29.73018471 262.1781387 -45.71739151 252.74354599 -60.15234375 238.30859375 C-64.67024448 238.57435262 -68.14785971 239.70954826 -72.24609375 241.54296875 C-87.22399818 247.55868447 -104.91848669 244.97326659 -119.33203125 238.98828125 C-137.56813204 230.4966618 -148.2507958 216.62498576 -155.3203125 198.27734375 C-159.42666782 184.55093537 -158.69083295 169.07106255 -152.15234375 156.30859375 C-150.09927936 152.99210512 -147.80305884 150.16321 -145.15234375 147.30859375 C-144.16621094 146.18710937 -144.16621094 146.18710937 -143.16015625 145.04296875 C-131.36535575 132.3408759 -112.89097612 123.48301484 -96.15234375 119.30859375 C-96.47589844 118.04789062 -96.79945313 116.7871875 -97.1328125 115.48828125 C-98.32168115 110.11261876 -98.49764488 104.92374284 -98.46484375 99.43359375 C-98.45747192 97.97505981 -98.45747192 97.97505981 -98.44995117 96.48706055 C-98.27770256 85.96222872 -95.7797089 77.98568347 -91.04296875 68.62109375 C-89.83231633 66.20858161 -89.83231633 66.20858161 -91.15234375 63.30859375 C-92.86818203 61.97781025 -92.86818203 61.97781025 -95.01171875 60.8203125 C-95.79804688 60.36076172 -96.584375 59.90121094 -97.39453125 59.42773438 C-99.04957753 58.48291434 -100.70580557 57.54016105 -102.36328125 56.59960938 C-108.20267418 53.18061628 -112.9222153 49.9989791 -115.15234375 43.30859375 C-115.92480039 36.7743704 -115.09300916 32.59738153 -111.15234375 27.30859375 C-107.78871878 24.18522771 -105.02971744 23.00828416 -100.52734375 22.68359375 C-92.20474317 23.09108013 -85.45102194 27.81467035 -78.6328125 32.19140625 C-77.44558594 32.94490356 -77.44558594 32.94490356 -76.234375 33.71362305 C-74.66321078 34.71914892 -73.10395878 35.7435879 -71.55859375 36.78833008 C-67.81926975 39.19862222 -65.92438143 40.32773518 -61.37109375 40.21484375 C-58.85339127 39.50597606 -56.40322536 38.81043038 -53.96484375 37.87109375 C-50.2695353 36.5193057 -46.93991618 36.08801643 -43.02734375 35.74609375 C-39.6757793 35.20442677 -37.73470207 34.82624559 -35.18359375 32.55859375 C-33.27918297 29.89960511 -31.71929468 27.18133712 -30.15234375 24.30859375 C-28.89684798 22.12394796 -27.62778411 19.94771525 -26.35400391 17.77368164 C-25.48703063 16.28527647 -24.63196263 14.78985535 -23.79052734 13.28686523 C-18.52900592 4.0446574 -11.37933881 -3.65543189 0 0 Z " fill="#352900" transform="translate(273.15234375,115.69140625)"/>
<path d="M0 0 C1.0206958 -0.00193359 2.0413916 -0.00386719 3.09301758 -0.00585938 C10.37781822 0.15920692 17.09054872 1.22228919 22.875 5.875 C29.18044589 13.84953451 29.76112137 21.69030817 29 31.5625 C27.14539598 41.01095563 21.70942475 48.34733876 14 54.0390625 C6.68584501 58.42125019 -1.71198934 58.49685204 -10 57.5625 C-14.61668713 56.39788322 -18.73393331 54.66074108 -23 52.5625 C-23.99644531 52.0778125 -24.99289062 51.593125 -26.01953125 51.09375 C-42.1725761 42.45621094 -57.24637524 26.21479958 -65 9.5625 C-65 8.5725 -65 7.5825 -65 6.5625 C-16.42813175 -0.02884448 -16.42813175 -0.02884448 0 0 Z " fill="#EABB14" transform="translate(332,232.4375)"/>
<path d="M0 0 C1.06726696 24.58666844 -5.21624335 48.43335345 -22 67 C-29.45847275 74.80352665 -35.63627195 78.01963303 -46.4375 78.4375 C-56.29187857 78.15070202 -63.01242993 74.84460936 -70.09375 68.0625 C-76.24756914 61.40426946 -78.41765406 53.07472889 -79.4375 44.1875 C-78.51969878 37.50066253 -73.76489444 33.28850563 -68.80322266 29.10473633 C-57.57423832 20.67370741 -43.02244148 16.28092794 -30.0625 11.25 C-27.16082922 10.11678025 -24.25988729 8.98171701 -21.35923767 7.84588623 C-19.57024807 7.14607847 -17.78054697 6.4480858 -15.99000549 5.7522583 C-12.30489961 4.31681317 -8.64428464 2.85988462 -5.02514648 1.26464844 C-2 0 -2 0 0 0 Z " fill="#EABB14" transform="translate(226,250)"/>
<path d="M0 0 C0.89404541 0.71893433 0.89404541 0.71893433 1.80615234 1.45239258 C7.15109358 5.54610386 12.93553108 8.81454302 18.76708984 12.15942383 C19.85892578 12.79170898 20.95076172 13.42399414 22.07568359 14.07543945 C27.17692346 17.06589593 27.17692346 17.06589593 32.39208984 19.84692383 C32.39208984 20.50692383 32.39208984 21.16692383 32.39208984 21.84692383 C29.69290076 22.55537035 26.99368208 23.26370369 24.29443359 23.97192383 C23.44519318 24.19475037 22.59595276 24.4175769 21.72097778 24.64715576 C17.0102376 25.88278249 12.29906729 27.11673817 7.5871582 28.34790039 C6.63234055 28.59739441 5.67752289 28.84688843 4.69377136 29.10394287 C2.75124795 29.61151641 0.80871246 30.11904375 -1.13383484 30.62652588 C-6.40373862 32.00453467 -11.67102926 33.39172101 -16.93476868 34.79309082 C-19.80499902 35.55630909 -22.67683618 36.31334514 -25.54904175 37.0690918 C-26.87610441 37.419962 -28.20238931 37.77378766 -29.52786255 38.13061523 C-31.35331679 38.62170802 -33.18171635 39.10181397 -35.01025391 39.58129883 C-36.02595459 39.85167969 -37.04165527 40.12206055 -38.08813477 40.40063477 C-40.60791016 40.84692383 -40.60791016 40.84692383 -43.60791016 39.84692383 C-43.01365234 39.10313477 -42.41939453 38.3593457 -41.80712891 37.59301758 C-35.32691655 29.15511707 -30.74848684 20.39647633 -26.62817383 10.58105469 C-23.06707488 2.51958388 -23.06707488 2.51958388 -19.02978516 0.74926758 C-17.90056641 0.45149414 -16.77134766 0.1537207 -15.60791016 -0.15307617 C-14.87443359 -0.40573242 -14.14095703 -0.65838867 -13.38525391 -0.91870117 C-8.60269321 -2.1778042 -4.31889898 -3.0972001 0 0 Z " fill="#E9BA14" transform="translate(272.60791015625,297.153076171875)"/>
</svg>
