<svg version="1.1" xmlns="http://www.w3.org/2000/svg" width="64" height="64">
<path d="M0 0 C3.62029668 6.75788714 5.7393701 12.73584781 6.4375 20.375 C6.91751732 25.46851715 8.39367819 30.16082926 10 35 C11.32 35 12.64 35 14 35 C14 35.66 14 36.32 14 37 C12.68 37 11.36 37 10 37 C10 37.66 10 38.32 10 39 C10.99 39 11.98 39 13 39 C13 39.66 13 40.32 13 41 C12.01 41.66 11.02 42.32 10 43 C10.33 43.99 10.66 44.98 11 46 C9.35 46 7.7 46 6 46 C4.76572985 47.98135781 4.76572985 47.98135781 5.375 50.3125 C5 53 5 53 3.62109375 54.3671875 C-3.14501891 59.30659588 -8.67808909 60.34257797 -16.9375 60.3125 C-17.81857422 60.32861328 -18.69964844 60.34472656 -19.60742188 60.36132812 C-24.85019956 60.3652553 -28.42661559 59.85553985 -33 57 C-32.67 55.35 -32.34 53.7 -32 52 C-34.475 52.495 -34.475 52.495 -37 53 C-37.495 51.515 -37.495 51.515 -38 50 C-39.98 50.495 -39.98 50.495 -42 51 C-41.67 49.68 -41.34 48.36 -41 47 C-41.99 46.67 -42.98 46.34 -44 46 C-44 45.34 -44 44.68 -44 44 C-43.34 44 -42.68 44 -42 44 C-41.97302863 41.39576408 -41.95317511 38.79180756 -41.9375 36.1875 C-41.92912109 35.44951172 -41.92074219 34.71152344 -41.91210938 33.95117188 C-41.89740172 30.70077932 -41.96468298 28.10595105 -43 25 C-43.12139491 22.54387046 -43.17542192 20.08409804 -43.1875 17.625 C-43.20167969 16.31789063 -43.21585938 15.01078125 -43.23046875 13.6640625 C-43.0164804 10.26201037 -42.48144811 8.03316253 -41 5 C-38.75 4.7109375 -38.75 4.7109375 -36 5 C-34 7.0390625 -34 7.0390625 -32 9.625 C-29.18507224 12.60967215 -27.84749792 13.8873386 -23.73828125 14.43359375 C-19.15656497 13.93728469 -15.480635 13.32342472 -11.9765625 10.19140625 C-10.48754081 8.19218677 -9.23525911 6.16277201 -8 4 C-4.6 0 -4.6 0 0 0 Z " fill="#F7F9FA" transform="translate(49,4)"/>
<path d="M0 0 C3.62029668 6.75788714 5.7393701 12.73584781 6.4375 20.375 C6.91751732 25.46851715 8.39367819 30.16082926 10 35 C11.32 35 12.64 35 14 35 C14 35.66 14 36.32 14 37 C12.68 37 11.36 37 10 37 C10 37.66 10 38.32 10 39 C10.99 39 11.98 39 13 39 C13 39.66 13 40.32 13 41 C12.01 41.66 11.02 42.32 10 43 C10.33 43.99 10.66 44.98 11 46 C9.35 46 7.7 46 6 46 C4.76572985 47.98135781 4.76572985 47.98135781 5.375 50.3125 C5 53 5 53 3.62109375 54.3671875 C-3.14501891 59.30659588 -8.67808909 60.34257797 -16.9375 60.3125 C-17.81857422 60.32861328 -18.69964844 60.34472656 -19.60742188 60.36132812 C-24.85019956 60.3652553 -28.42661559 59.85553985 -33 57 C-32.67 55.35 -32.34 53.7 -32 52 C-34.475 52.495 -34.475 52.495 -37 53 C-37.495 51.515 -37.495 51.515 -38 50 C-39.98 50.495 -39.98 50.495 -42 51 C-41.67 49.68 -41.34 48.36 -41 47 C-41.99 46.67 -42.98 46.34 -44 46 C-44 45.34 -44 44.68 -44 44 C-43.34 44 -42.68 44 -42 44 C-41.97302863 41.39576408 -41.95317511 38.79180756 -41.9375 36.1875 C-41.92912109 35.44951172 -41.92074219 34.71152344 -41.91210938 33.95117188 C-41.89740172 30.70077932 -41.96468298 28.10595105 -43 25 C-43.12139491 22.54387046 -43.17542192 20.08409804 -43.1875 17.625 C-43.20167969 16.31789063 -43.21585938 15.01078125 -43.23046875 13.6640625 C-43.0164804 10.26201037 -42.48144811 8.03316253 -41 5 C-38.75 4.7109375 -38.75 4.7109375 -36 5 C-34 7.0390625 -34 7.0390625 -32 9.625 C-29.18507224 12.60967215 -27.84749792 13.8873386 -23.73828125 14.43359375 C-19.15656497 13.93728469 -15.480635 13.32342472 -11.9765625 10.19140625 C-10.48754081 8.19218677 -9.23525911 6.16277201 -8 4 C-4.6 0 -4.6 0 0 0 Z M-4 2 C-5.13033298 3.24517965 -6.25405036 4.49636652 -7.375 5.75 C-8.00148437 6.44609375 -8.62796875 7.1421875 -9.2734375 7.859375 C-11.07421202 9.8744344 -11.07421202 9.8744344 -11.8515625 12.15625 C-13 14 -13 14 -15.75 15.046875 C-17.35875 15.39492188 -17.35875 15.39492188 -19 15.75 C-20.60875 16.11351562 -20.60875 16.11351562 -22.25 16.484375 C-25 17 -25 17 -27 17 C-28.89268584 15.000181 -30.59885766 12.87936015 -32.34375 10.75 C-33.16359375 9.88375 -33.16359375 9.88375 -34 9 C-34.66 9 -35.32 9 -36 9 C-35.649375 9.86625 -35.29875 10.7325 -34.9375 11.625 C-33.46417894 16.9289558 -34.5677257 20.3304192 -37.0625 25.0625 C-38.70307095 28.20592974 -39.70115316 30.39406948 -39 34 C-37.60042803 36.28484306 -37.60042803 36.28484306 -36 38 C-38.475 38.495 -38.475 38.495 -41 39 C-40.28350296 44.32771097 -40.28350296 44.32771097 -37.1796875 48.3515625 C-33.37382806 50.4544611 -30.55403599 51.92733954 -26.1875 52.5 C-23 53 -23 53 -20.5625 55.5625 C-20.046875 56.366875 -19.53125 57.17125 -19 58 C-16.05043472 56.63055898 -13.47531189 55.12169591 -11 53 C-11 52.34 -11 51.68 -11 51 C-10.01 50.9175 -9.02 50.835 -8 50.75 C-1.83821092 49.86260238 4.14484957 46.97956931 8 42 C8 41.01 8 40.02 8 39 C6.02 39 4.04 39 2 39 C2 38.01 2 37.02 2 36 C4.97 35.505 4.97 35.505 8 35 C7.505 33.02 7.505 33.02 7 31 C5.35 31.33 3.7 31.66 2 32 C2.33 30.35 2.66 28.7 3 27 C3.66 27 4.32 27 5 27 C5.02789332 14.29780654 5.02789332 14.29780654 0 3 C-2.06172291 2.2270057 -2.06172291 2.2270057 -4 2 Z " fill="#0A2924" transform="translate(49,4)"/>
<path d="M0 0 C1.32 0 2.64 0 4 0 C4 0.99 4 1.98 4 3 C5.98 3 7.96 3 10 3 C9.75873283 6.25710685 8.79730672 7.20269328 6.4375 9.5625 C1.74783733 13.223827 -3.07217424 15 -9 15 C-9.33 15.99 -9.66 16.98 -10 18 C-11.62332967 19.38576923 -13.28724465 20.72641268 -15 22 C-18.16115776 20.63016497 -18.9927092 20.0109362 -21 17 C-24.56769552 16.26393501 -24.56769552 16.26393501 -28 16 C-28 15.67 -28 15.34 -28 15 C-26.69289063 14.97873047 -26.69289063 14.97873047 -25.359375 14.95703125 C-16.54917035 14.60424167 -9.91739868 12.77383254 -2 9 C-1.01 8.67 -0.02 8.34 1 8 C2.22520264 4.99152582 2.22520264 4.99152582 3 2 C2.01 2 1.02 2 0 2 C0 1.34 0 0.68 0 0 Z " fill="#8BC6DA" transform="translate(47,40)"/>
<path d="M0 0 C2.6411622 1.05646488 3.10287816 2.00000887 4.28125 4.5625 C6.74420396 10.5178457 6.38369614 16.4782596 6.03125 22.8125 C5.43828125 22.02488281 4.8453125 21.23726562 4.234375 20.42578125 C1.76114559 17.49211019 -0.47815074 16.31980423 -3.96875 14.8125 C-3.96875 14.1525 -3.96875 13.4925 -3.96875 12.8125 C-4.62875 12.8125 -5.28875 12.8125 -5.96875 12.8125 C-5.80375 11.719375 -5.63875 10.62625 -5.46875 9.5 C-4.90156816 5.93724127 -4.90156816 5.93724127 -4.96875 2.8125 C-3.39655673 0.61142942 -2.76809204 -0.26362781 0 0 Z " fill="#EFB8CE" transform="translate(46.96875,6.1875)"/>
<path d="M0 0 C3.68792313 3.68792313 3.99062717 9.34321193 4.4375 14.375 C4.91751732 19.46851715 6.39367819 24.16082926 8 29 C9.32 29 10.64 29 12 29 C12 29.66 12 30.32 12 31 C10.68 31 9.36 31 8 31 C8 31.66 8 32.32 8 33 C8.99 33 9.98 33 11 33 C11 33.66 11 34.32 11 35 C10.01 35.66 9.02 36.32 8 37 C8.33 37.99 8.66 38.98 9 40 C7.35 40 5.7 40 4 40 C2.768606 42.46278801 2.92840804 44.2795055 3 47 C2.34 47 1.68 47 1 47 C0.34 45.02 -0.32 43.04 -1 41 C0.93254772 38.9754262 2.63158688 37.57894208 5 36 C5.33 35.01 5.66 34.02 6 33 C4.02 33 2.04 33 0 33 C0 32.01 0 31.02 0 30 C1.98 29.67 3.96 29.34 6 29 C5.67 28.01 5.34 27.02 5 26 C3.35 26 1.7 26 0 26 C0.33 24.35 0.66 22.7 1 21 C1.66 21 2.32 21 3 21 C2.67 20.01 2.34 19.02 2 18 C1.79903961 16.06575623 1.63664342 14.1273486 1.5 12.1875 C1.18591915 8.07453654 0.78842136 4.05473843 0 0 Z " fill="#0E2B28" transform="translate(51,10)"/>
<path d="M0 0 C0.66 0.33 1.32 0.66 2 1 C1.34 3.31 0.68 5.62 0 8 C0.66 8 1.32 8 2 8 C2 8.66 2 9.32 2 10 C2.556875 10.0825 3.11375 10.165 3.6875 10.25 C7.53167837 11.49676055 10.18263207 14.18263207 13 17 C13 17.99 13 18.98 13 20 C12.34 20 11.68 20 11 20 C10.67 21.65 10.34 23.3 10 25 C9.01 24.67 8.02 24.34 7 24 C7.66 24 8.32 24 9 24 C8.01226174 18.51256523 6.41509859 15.63568856 2.01953125 12.15625 C-1.29917712 10.25617712 -4.20911663 10.13301345 -8 10 C-8.33 10.66 -8.66 11.32 -9 12 C-9.66 10.68 -10.32 9.36 -11 8 C-10.0925 7.95875 -9.185 7.9175 -8.25 7.875 C-4.73286917 7.28015926 -4.73286917 7.28015926 -2.6875 4 C-2.130625 3.01 -1.57375 2.02 -1 1 C-0.67 0.67 -0.34 0.34 0 0 Z " fill="#91CFE5" transform="translate(41,11)"/>
<path d="M0 0 C0.66 0.99 1.32 1.98 2 3 C1.67 3.99 1.34 4.98 1 6 C0.34 5.01 -0.32 4.02 -1 3 C-3.60700463 3.37644248 -4.75687341 3.7343842 -6.5625 5.70703125 C-7.036875 6.40183594 -7.51125 7.09664062 -8 7.8125 C-13.54524589 15.56750554 -13.54524589 15.56750554 -17.3125 16.6875 C-18.199375 16.790625 -19.08625 16.89375 -20 17 C-21.0725 17.391875 -22.145 17.78375 -23.25 18.1875 C-27 18 -27 18 -29.30859375 15.90625 C-30.87738429 14.11334653 -32.40522332 12.28365305 -33.88671875 10.41796875 C-35.87960918 8.13774846 -37.21993997 7.08566678 -40 6 C-40.66 7.32 -41.32 8.64 -42 10 C-41.67 8.35 -41.34 6.7 -41 5 C-38.75 4.7109375 -38.75 4.7109375 -36 5 C-34 7.0390625 -34 7.0390625 -32 9.625 C-29.18507224 12.60967215 -27.84749792 13.8873386 -23.73828125 14.43359375 C-19.15656497 13.93728469 -15.480635 13.32342472 -11.9765625 10.19140625 C-10.48754081 8.19218677 -9.23525911 6.16277201 -8 4 C-4.6 0 -4.6 0 0 0 Z " fill="#1A3636" transform="translate(49,4)"/>
<path d="M0 0 C3 1 3 1 4.6875 3.9375 C6 7 6 7 6 9 C5.34 9 4.68 9 4 9 C3.01 11.97 2.02 14.94 1 18 C-1 17 -1 17 -2 14 C-2.06937062 11.77181559 -2.08457084 9.54165476 -2.0625 7.3125 C-2.05347656 6.13300781 -2.04445313 4.95351563 -2.03515625 3.73828125 C-2.02355469 2.83464844 -2.01195312 1.93101563 -2 1 C-1.34 0.67 -0.68 0.34 0 0 Z " fill="#E4B1C5" transform="translate(9,13)"/>
<path d="M0 0 C1.88671875 0.26953125 1.88671875 0.26953125 4 1 C6.21913234 4.35673809 7.02039714 8.02093731 6.9375 12 C5.9130503 15.27823905 4.45179189 18.08067003 2.86328125 21.11328125 C1.73634576 23.57622172 1.55546932 25.33281595 2 28 C2.91568906 30.25132517 2.91568906 30.25132517 4 32 C2.68 32 1.36 32 0 32 C0 28.7 0 25.4 0 22 C-0.66 22 -1.32 22 -2 22 C-3.2062252 18.38132441 -3.10816918 15.07493749 -3.0625 11.3125 C-3.05798828 10.61060547 -3.05347656 9.90871094 -3.04882812 9.18554688 C-3.03706927 7.45699462 -3.01913454 5.72848635 -3 4 C-2.67 4 -2.34 4 -2 4 C-1.93941406 4.90363281 -1.87882813 5.80726562 -1.81640625 6.73828125 C-1.73261719 7.91777344 -1.64882812 9.09726562 -1.5625 10.3125 C-1.48128906 11.48425781 -1.40007813 12.65601563 -1.31640625 13.86328125 C-1.1132629 17.02590958 -1.1132629 17.02590958 0 20 C1.32 17.36 2.64 14.72 4 12 C4.66 12 5.32 12 6 12 C4.68 9.36 3.36 6.72 2 4 C1.01 4 0.02 4 -1 4 C-0.67 2.68 -0.34 1.36 0 0 Z " fill="#60696C" transform="translate(9,10)"/>
<path d="M0 0 C0.66 0.33 1.32 0.66 2 1 C2.31241371 3.54941373 2.51303421 6.00361513 2.625 8.5625 C2.66367187 9.27341797 2.70234375 9.98433594 2.7421875 10.71679688 C2.83671783 12.47742425 2.91945817 14.23867728 3 16 C1.02 15.34 -0.96 14.68 -3 14 C-3 13.34 -3 12.68 -3 12 C-3.66 12 -4.32 12 -5 12 C-4.58525633 6.71201818 -3.64775386 3.88309282 0 0 Z " fill="#CC7598" transform="translate(46,7)"/>
<path d="M0 0 C0.66 1.98 1.32 3.96 2 6 C0.4375 7.5625 0.4375 7.5625 -2 9 C-5.75 8.6875 -5.75 8.6875 -9 8 C-9 7.34 -9 6.68 -9 6 C-9.99 5.67 -10.98 5.34 -12 5 C-12 4.34 -12 3.68 -12 3 C-10.56445975 2.49440092 -9.1264798 1.9957251 -7.6875 1.5 C-6.88699219 1.2215625 -6.08648437 0.943125 -5.26171875 0.65625 C-3 0 -3 0 0 0 Z " fill="#072824" transform="translate(51,52)"/>
<path d="M0 0 C-0.639375 0.103125 -1.27875 0.20625 -1.9375 0.3125 C-2.618125 0.539375 -3.29875 0.76625 -4 1 C-4.33 1.99 -4.66 2.98 -5 4 C-6.62332967 5.38576923 -8.28724465 6.72641268 -10 8 C-13.16115776 6.63016497 -13.9927092 6.0109362 -16 3 C-19.56769552 2.26393501 -19.56769552 2.26393501 -23 2 C-23 1.67 -23 1.34 -23 1 C-15.3164908 0.38794237 -7.70947565 -0.13292199 0 0 Z " fill="#7FC1D6" transform="translate(42,54)"/>
<path d="M0 0 C0.66 0.33 1.32 0.66 2 1 C1.34 3.31 0.68 5.62 0 8 C0.66 8 1.32 8 2 8 C1.67 8.99 1.34 9.98 1 11 C-1.97 10.67 -4.94 10.34 -8 10 C-8.33 10.66 -8.66 11.32 -9 12 C-9.66 10.68 -10.32 9.36 -11 8 C-10.0925 7.95875 -9.185 7.9175 -8.25 7.875 C-4.73286917 7.28015926 -4.73286917 7.28015926 -2.6875 4 C-2.130625 3.01 -1.57375 2.02 -1 1 C-0.67 0.67 -0.34 0.34 0 0 Z " fill="#8EC5D8" transform="translate(41,11)"/>
<path d="M0 0 C3.05295148 1.13072277 4.60796794 2.61372244 6.5625 5.125 C7.7690625 6.548125 7.7690625 6.548125 9 8 C9.99 8 10.98 8 12 8 C11.67 9.65 11.34 11.3 11 13 C10.67 12.01 10.34 11.02 10 10 C9.236875 10 8.47375 10 7.6875 10 C5.79166667 10 3.89583333 10 2 10 C1.7834375 8.63875 1.7834375 8.63875 1.5625 7.25 C1.13590527 4.78523044 0.64925779 2.41152893 0 0 Z " fill="#AFD2DD" transform="translate(13,13)"/>
<path d="M0 0 C5.79754604 5.79754604 4.61543153 17.22766873 5 25 C3.35 25.33 1.7 25.66 0 26 C0.33 24.35 0.66 22.7 1 21 C1.66 21 2.32 21 3 21 C2.67 20.01 2.34 19.02 2 18 C1.79903961 16.06575623 1.63664342 14.1273486 1.5 12.1875 C1.18591915 8.07453654 0.78842136 4.05473843 0 0 Z " fill="#1E302D" transform="translate(51,10)"/>
<path d="M0 0 C0.33 0 0.66 0 1 0 C0.97679687 1.01320312 0.95359375 2.02640625 0.9296875 3.0703125 C0.9109159 4.42186758 0.8927172 5.77343069 0.875 7.125 C0.85824219 7.79015625 0.84148438 8.4553125 0.82421875 9.140625 C0.78124188 13.52426567 1.55069921 16.89567761 3 21 C2.67 21.66 2.34 22.32 2 23 C1.01 23 0.02 23 -1 23 C-0.67 21.68 -0.34 20.36 0 19 C-0.99 18.67 -1.98 18.34 -3 18 C-3 17.34 -3 16.68 -3 16 C-2.34 16 -1.68 16 -1 16 C-0.67 10.72 -0.34 5.44 0 0 Z " fill="#082520" transform="translate(8,32)"/>
<path d="M0 0 C0.66 0.99 1.32 1.98 2 3 C1.67 3.99 1.34 4.98 1 6 C0.34 5.01 -0.32 4.02 -1 3 C-3.6707644 3.37657199 -4.79395927 3.78044841 -6.66796875 5.77734375 C-7.16941406 6.49019531 -7.67085937 7.20304688 -8.1875 7.9375 C-8.69667969 8.64777344 -9.20585938 9.35804687 -9.73046875 10.08984375 C-11.03533324 11.96847609 -11.03533324 11.96847609 -12 14 C-13.98 14 -15.96 14 -18 14 C-17.401875 13.74992187 -16.80375 13.49984375 -16.1875 13.2421875 C-13.69225627 11.82524553 -12.62724311 10.46858383 -11 8.125 C-5.12045455 0 -5.12045455 0 0 0 Z " fill="#132521" transform="translate(49,4)"/>
<path d="M0 0 C3.69230769 0.69230769 3.69230769 0.69230769 5 2 C5.04063832 3.66617115 5.042721 5.33388095 5 7 C3.125 7.625 3.125 7.625 1 8 C-1 6 -1 6 -1.1875 3.4375 C-1 1 -1 1 0 0 Z " fill="#39534F" transform="translate(40,35)"/>
<path d="M0 0 C1.875 1.0625 1.875 1.0625 3.25 3.1875 C4.07207782 6.96905796 3.14569036 9.46221065 1.875 13.0625 C1.545 13.0625 1.215 13.0625 0.875 13.0625 C0.545 9.4325 0.215 5.8025 -0.125 2.0625 C-1.115 3.0525 -2.105 4.0425 -3.125 5.0625 C-4.115 4.7325 -5.105 4.4025 -6.125 4.0625 C-2.74657221 0.08078154 -2.74657221 0.08078154 0 0 Z " fill="#BEAAB9" transform="translate(47.125,5.9375)"/>
<path d="M0 0 C1.88671875 0.265625 1.88671875 0.265625 4 1 C6.21550678 4.42323791 7.1068567 7.97417572 6.6875 12 C6.460625 12.66 6.23375 13.32 6 14 C5.34 14 4.68 14 4 14 C4 13.34 4 12.68 4 12 C4.66 12 5.32 12 6 12 C4.68 9.36 3.36 6.72 2 4 C1.01 4 0.02 4 -1 4 C-0.67 2.68 -0.34 1.36 0 0 Z " fill="#8D7F88" transform="translate(9,10)"/>
<path d="M0 0 C3.3 0 6.6 0 10 0 C8.68 1.65 7.36 3.3 6 5 C2.83884224 3.63016497 2.0072908 3.0109362 0 0 Z " fill="#EBF0F1" transform="translate(26,57)"/>
<path d="M0 0 C2.0625 0.4375 2.0625 0.4375 4 1 C4 2.65 4 4.3 4 6 C2.68 6.33 1.36 6.66 0 7 C-0.38133299 5.0085944 -0.71325582 3.00720923 -1 1 C-0.67 0.67 -0.34 0.34 0 0 Z " fill="#324D49" transform="translate(17,39)"/>
<path d="M0 0 C3.14688078 1.57344039 4.79965407 4.27851951 7 7 C2.6109185 6.48964169 -0.33708062 5.47785723 -4 3 C-2.68 2.67 -1.36 2.34 0 2 C0 1.34 0 0.68 0 0 Z " fill="#314B4B" transform="translate(25,56)"/>
<path d="M0 0 C0.33 0.66 0.66 1.32 1 2 C3.02463255 2.65213292 3.02463255 2.65213292 5 3 C1.33708062 5.47785723 -1.6109185 6.48964169 -6 7 C-4.02 4.69 -2.04 2.38 0 0 Z " fill="#374E4E" transform="translate(38,55)"/>
<path d="M0 0 C1.32 0 2.64 0 4 0 C4 0.66 4 1.32 4 2 C4.66 2 5.32 2 6 2 C6 2.66 6 3.32 6 4 C6.66 4 7.32 4 8 4 C8 4.99 8 5.98 8 7 C3.25 5.125 3.25 5.125 1 4 C0.375 1.9375 0.375 1.9375 0 0 Z " fill="#ABB9BB" transform="translate(9,47)"/>
<path d="M0 0 C0.33 0.66 0.66 1.32 1 2 C0.67 2.99 0.34 3.98 0 5 C0.66 5.33 1.32 5.66 2 6 C2 6.99 2 7.98 2 9 C2.99 9 3.98 9 5 9 C5.33 9.99 5.66 10.98 6 12 C4.02 11.34 2.04 10.68 0 10 C0 9.34 0 8.68 0 8 C-0.66 8 -1.32 8 -2 8 C-1.125 1.125 -1.125 1.125 0 0 Z " fill="#6E7483" transform="translate(43,11)"/>
<path d="M0 0 C0.5625 1.9375 0.5625 1.9375 1 4 C0 5 0 5 -3.0625 5.0625 C-4.5165625 5.0315625 -4.5165625 5.0315625 -6 5 C-6 4.01 -6 3.02 -6 2 C-4.02 1.34 -2.04 0.68 0 0 Z " fill="#43626C" transform="translate(57,38)"/>
<path d="M0 0 C0 0.99 0 1.98 0 3 C-1.98 3.33 -3.96 3.66 -6 4 C-6 2.68 -6 1.36 -6 0 C-3 -1 -3 -1 0 0 Z " fill="#97CFE2" transform="translate(57,36)"/>
<path d="M0 0 C-4.83646298 3.22430866 -7.26939984 3.09242903 -13 3 C-9.25711729 -0.74288271 -5.09766283 -0.09803198 0 0 Z " fill="#324747" transform="translate(47,61)"/>
<path d="M0 0 C1.32 0 2.64 0 4 0 C4 0.66 4 1.32 4 2 C4.99 2.33 5.98 2.66 7 3 C1.375 5.125 1.375 5.125 -2 4 C-1.34 2.68 -0.68 1.36 0 0 Z " fill="#778B89" transform="translate(26,43)"/>
<path d="M0 0 C0.66 0.33 1.32 0.66 2 1 C0.6875 3.9375 0.6875 3.9375 -1 7 C-1.99 7.33 -2.98 7.66 -4 8 C-3.50168276 4.31245243 -2.89932357 2.39509338 0 0 Z " fill="#DAE7EA" transform="translate(41,11)"/>
<path d="M0 0 C2 3.75 2 3.75 2 6 C0.35 6.33 -1.3 6.66 -3 7 C-2.67 5.35 -2.34 3.7 -2 2 C-1.34 2 -0.68 2 0 2 C0 1.34 0 0.68 0 0 Z " fill="#536F7B" transform="translate(54,29)"/>
<path d="M0 0 C0.33 0 0.66 0 1 0 C1 4.29 1 8.58 1 13 C-2 9 -2 9 -1.85546875 6.640625 C-1.63503906 5.85171875 -1.41460937 5.0628125 -1.1875 4.25 C-0.97480469 3.45078125 -0.76210938 2.6515625 -0.54296875 1.828125 C-0.36378906 1.22484375 -0.18460938 0.6215625 0 0 Z " fill="#D2C9D2" transform="translate(52,16)"/>
<path d="M0 0 C1.60031344 3.20062687 0.03173691 5.72271806 -1 9 C-3 7 -3 7 -3.125 3.875 C-3.08375 2.92625 -3.0425 1.9775 -3 1 C-2.01 0.67 -1.02 0.34 0 0 Z " fill="#AFB6BA" transform="translate(29,20)"/>
<path d="M0 0 C0 0.99 0 1.98 0 3 C-3 3 -3 3 -6 2 C-6 1.34 -6 0.68 -6 0 C-3 -1 -3 -1 0 0 Z " fill="#183634" transform="translate(45,55)"/>
<path d="M0 0 C0.66 0.33 1.32 0.66 2 1 C1.01 2.485 1.01 2.485 0 4 C-2.1640625 4.29296875 -2.1640625 4.29296875 -4.625 4.1875 C-5.44226562 4.16042969 -6.25953125 4.13335937 -7.1015625 4.10546875 C-8.04128906 4.05326172 -8.04128906 4.05326172 -9 4 C-6.04245816 2.5086438 -3.13948098 1.07403297 0 0 Z " fill="#9DDBF0" transform="translate(43,50)"/>
<path d="M0 0 C2.31 0.33 4.62 0.66 7 1 C7 1.66 7 2.32 7 3 C4.69 3.33 2.38 3.66 0 4 C0 2.68 0 1.36 0 0 Z " fill="#143431" transform="translate(18,55)"/>
<path d="M0 0 C1.98 0.99 3.96 1.98 6 3 C4.625 4.5 4.625 4.5 3 6 C2.34 6 1.68 6 1 6 C0.67 4.02 0.34 2.04 0 0 Z " fill="#193E3D" transform="translate(11,51)"/>
</svg>
