<svg width="60" height="60" viewBox="0 0 60 60" fill="none" xmlns="http://www.w3.org/2000/svg">
<g clip-path="url(#clip0_463_1374)">
<path d="M30 60C46.5694 60 60 46.5694 60 30C60 13.4306 46.5694 0 30 0C13.4306 0 0 13.4306 0 30C0 46.5694 13.4306 60 30 60Z" fill="#0098EA"/>
<path d="M40.2432 16.7437H19.7551C15.9883 16.7437 13.6014 20.8069 15.497 24.0937L28.1401 46.0087C28.9651 47.4394 31.0332 47.4394 31.8582 46.0087L44.5051 24.0919C46.3989 20.8125 44.0101 16.7437 40.2451 16.7437H40.2432ZM28.1307 39.435L25.3764 34.1062L18.7314 22.2225C18.6304 22.045 18.5781 21.844 18.5796 21.6398C18.5812 21.4356 18.6366 21.2354 18.7403 21.0595C18.8439 20.8836 18.9922 20.7381 19.17 20.6378C19.3479 20.5374 19.5491 20.4858 19.7532 20.4881H28.1251V39.4387L28.1289 39.435H28.1307ZM41.2614 22.2206L34.6201 34.1081L31.8658 39.435V20.4844H40.2414C41.1601 20.4844 41.7001 21.4594 41.2614 22.2206Z" fill="white"/>
</g>
<defs>
<clipPath id="clip0_463_1374">
<rect width="60" height="60" fill="white"/>
</clipPath>
</defs>
</svg>
