<svg width="48" height="48" viewBox="0 0 48 48" fill="none" xmlns="http://www.w3.org/2000/svg" class="h-6 w-6"><path d="m19.973 35.228-3.16-.8-1.164 4.595 3.16.8 1.164-4.595Z" fill="#664AED"></path><path d="m25.45 36.611-3.16-.8-1.165 4.595 3.16.8 1.164-4.595ZM32.422 9.029l-3.16-.8-1.164 4.595 3.16.8 1.164-4.595Z" fill="#146AF4"></path><path d="m26.973 7.631-3.16-.8-1.164 4.595 3.16.8 1.164-4.595Z" fill="#664AED"></path><path d="m26.922 37-16.32-4.14.98-3.88 16.32 4.14c1.4.36 2.8-.42 3.12-1.72.32-1.3-.54-2.64-1.94-3l-10.2-2.58.98-3.88 10.2 2.58c3.68.94 5.98 4.5 5.1 7.92-.88 3.42-4.58 5.48-8.26 4.54l.02.02Z" fill="#B9B9FC"></path><path d="m25.804 12.238-5.331-1.35-5.828 23.014 5.332 1.35 5.827-23.014Z" fill="#664AED"></path><path d="m27.502 25.94-10.2-2.58.98-3.88 10.2 2.58c1.4.36 2.8-.42 3.12-1.72.32-1.3-.54-2.64-1.94-3l-14.24-3.6.98-3.88 14.24 3.6c3.68.94 5.98 4.5 5.1 7.92-.88 3.42-4.58 5.48-8.26 4.54l.02.02Z" fill="#9FF7EC"></path><path d="m25.78 12.224-5.33-1.35-1.115 4.401 5.331 1.35 1.115-4.4Z" fill="#664AED"></path></svg>
