<svg width="60" height="60" viewBox="0 0 60 60" fill="none" xmlns="http://www.w3.org/2000/svg">
<rect width="60" height="60" rx="30" fill="white"/>
<path fill-rule="evenodd" clip-rule="evenodd" d="M16.5497 12H44.4507C45.1165 12 45.7315 12.3648 46.0635 12.9567L54.1922 27.4476C54.6137 28.1991 54.4885 29.1476 53.8872 29.757L31.5127 52.4335C30.7879 53.1681 29.622 53.1681 28.8972 52.4335L6.55292 29.7876C5.93767 29.1641 5.82246 28.1879 6.27489 27.4317L14.9638 12.9102C15.3022 12.3447 15.9027 12 16.5497 12ZM40.8482 18.4697V22.5356H32.9003V25.3547C38.4824 25.6559 42.6704 26.8932 42.7015 28.3762L42.7013 31.4679C42.6702 32.9509 38.4824 34.1882 32.9003 34.4895V41.4077H27.6228V34.4895C22.0407 34.1882 17.8527 32.9509 17.8217 31.4679L17.8218 28.3762C17.8529 26.8932 22.0407 25.6559 27.6228 25.3547V22.5356H19.6749V18.4697H40.8482ZM30.2616 32.3655C36.2186 32.3655 41.1977 31.3193 42.4162 29.9221C41.3829 28.7373 37.6453 27.8048 32.9003 27.5487V30.5003C32.0499 30.5462 31.167 30.5704 30.2616 30.5704C29.3561 30.5704 28.4733 30.5462 27.6228 30.5003V27.5487C22.8778 27.8048 19.1402 28.7373 18.1069 29.9221C19.3254 31.3193 24.3045 32.3655 30.2616 32.3655Z" fill="#009393"/>
</svg>
