<svg version="1.1" xmlns="http://www.w3.org/2000/svg" width="200" height="200">
<path d="M0 0 C0.69174316 0.3000293 1.38348633 0.60005859 2.09619141 0.90917969 C6.86554001 3.04217763 11.45068433 5.43496032 16 8 C16.98484375 8.54398438 17.9696875 9.08796875 18.984375 9.6484375 C40.71888423 22.52582014 56.36244759 44.93100415 63.30102539 68.99926758 C67.83107821 87.77476952 67.75976556 112.16337939 60 130 C59.6999707 130.69174316 59.39994141 131.38348633 59.09082031 132.09619141 C56.95782237 136.86554001 54.56503968 141.45068433 52 146 C51.45601562 146.98484375 50.91203125 147.9696875 50.3515625 148.984375 C37.47417986 170.71888423 15.06899585 186.36244759 -8.99926758 193.30102539 C-27.77476952 197.83107821 -52.16337939 197.75976556 -70 190 C-70.69174316 189.6999707 -71.38348633 189.39994141 -72.09619141 189.09082031 C-76.86554001 186.95782237 -81.45068433 184.56503968 -86 182 C-86.98484375 181.45601562 -87.9696875 180.91203125 -88.984375 180.3515625 C-110.71888423 167.47417986 -126.36244759 145.06899585 -133.30102539 121.00073242 C-137.83107821 102.22523048 -137.75976556 77.83662061 -130 60 C-129.6999707 59.30825684 -129.39994141 58.61651367 -129.09082031 57.90380859 C-126.95782237 53.13445999 -124.56503968 48.54931567 -122 44 C-121.45601562 43.01515625 -120.91203125 42.0303125 -120.3515625 41.015625 C-107.47417986 19.28111577 -85.06899585 3.63755241 -61.00073242 -3.30102539 C-42.22523048 -7.83107821 -17.83662061 -7.75976556 0 0 Z " fill="#0E0C30" transform="translate(135,5)"/>
<path d="M0 0 C4.21105962 0.45325431 7.19160904 2.0586182 10.796875 4.2109375 C11.91336426 4.87407959 13.02985352 5.53722168 14.18017578 6.22045898 C15.37035977 6.93823723 16.56029683 7.65642509 17.75 8.375 C18.96452709 9.10190109 20.17920888 9.82854374 21.39404297 10.55493164 C46.79212566 25.79212566 46.79212566 25.79212566 50 29 C50.09319449 30.5348297 50.117458 32.07392082 50.11352539 33.61157227 C50.11341209 35.08298424 50.11341209 35.08298424 50.11329651 36.5841217 C50.10813522 37.6507756 50.10297394 38.7174295 50.09765625 39.81640625 C50.0962413 40.9025975 50.09482635 41.98878876 50.09336853 43.1078949 C50.08775048 46.59279075 50.07519492 50.07762342 50.0625 53.5625 C50.05748733 55.91861887 50.05292402 58.27473874 50.04882812 60.63085938 C50.03777519 66.42059464 50.02101951 72.21029281 50 78 C42.22393268 82.38437164 34.44578168 86.76443905 26.63671875 91.08984375 C25.48365234 91.72857422 24.33058594 92.36730469 23.14257812 93.02539062 C21.38958794 93.99553047 19.63658203 94.96564232 17.88305664 95.93481445 C16.13364924 96.90202236 14.38516905 97.87090674 12.63671875 98.83984375 C11.62311279 99.40050537 10.60950684 99.96116699 9.56518555 100.53881836 C7.66697176 101.62007937 5.81767113 102.78821924 4 104 C-9.23531925 102.93664956 -25.59633757 90.2072955 -36.62109375 83.32421875 C-39.65062267 81.63783073 -42.80846665 80.34966498 -46 79 C-46.43377053 72.08298882 -46.72973297 65.16950454 -46.93383789 58.24194336 C-47.01894796 55.89067662 -47.1346958 53.54029999 -47.2824707 51.19213867 C-48.4372886 32.35941637 -48.4372886 32.35941637 -44.51824951 26.9576416 C-40.62178335 23.38512067 -36.10458171 21.18960537 -31.30465698 19.06326294 C-27.75877527 17.42735589 -24.54011801 15.3333069 -21.25 13.2421875 C-20.03612504 12.50406495 -18.81999804 11.76963225 -17.6015625 11.0390625 C-17.01020508 10.68360352 -16.41884766 10.32814453 -15.80957031 9.96191406 C-14.91383301 9.4238916 -14.91383301 9.4238916 -14 8.875 C-12.12661466 7.74768723 -10.25372388 6.61957417 -8.38183594 5.48977661 C-6.7269913 4.49122988 -5.07057758 3.49528485 -3.4140625 2.49951172 C-1.13469758 1.2105496 -1.13469758 1.2105496 0 0 Z " fill="#0E0C31" transform="translate(98,23)"/>
<path d="M0 0 C0.69174316 0.3000293 1.38348633 0.60005859 2.09619141 0.90917969 C6.86554001 3.04217763 11.45068433 5.43496032 16 8 C16.98484375 8.54398438 17.9696875 9.08796875 18.984375 9.6484375 C40.71888423 22.52582014 56.36244759 44.93100415 63.30102539 68.99926758 C67.83107821 87.77476952 67.75976556 112.16337939 60 130 C59.6999707 130.69174316 59.39994141 131.38348633 59.09082031 132.09619141 C56.95782237 136.86554001 54.56503968 141.45068433 52 146 C51.45601562 146.98484375 50.91203125 147.9696875 50.3515625 148.984375 C37.47417986 170.71888423 15.06899585 186.36244759 -8.99926758 193.30102539 C-27.77476952 197.83107821 -52.16337939 197.75976556 -70 190 C-70.69174316 189.6999707 -71.38348633 189.39994141 -72.09619141 189.09082031 C-76.86554001 186.95782237 -81.45068433 184.56503968 -86 182 C-86.98484375 181.45601562 -87.9696875 180.91203125 -88.984375 180.3515625 C-110.71888423 167.47417986 -126.36244759 145.06899585 -133.30102539 121.00073242 C-137.83107821 102.22523048 -137.75976556 77.83662061 -130 60 C-129.6999707 59.30825684 -129.39994141 58.61651367 -129.09082031 57.90380859 C-126.95782237 53.13445999 -124.56503968 48.54931567 -122 44 C-121.45601562 43.01515625 -120.91203125 42.0303125 -120.3515625 41.015625 C-107.47417986 19.28111577 -85.06899585 3.63755241 -61.00073242 -3.30102539 C-42.22523048 -7.83107821 -17.83662061 -7.75976556 0 0 Z M-104.125 36.25 C-121.30180057 56.16814854 -126.17888038 78.55998919 -125.22509766 104.12304688 C-124.88178688 108.51087141 -124.03033153 112.72751465 -123 117 C-122.71334473 118.20813354 -122.71334473 118.20813354 -122.42089844 119.44067383 C-116.84440397 141.75413357 -100.73550569 161.44997544 -81.29296875 173.12890625 C-77.28334189 175.40721143 -73.3250217 177.40269085 -69 179 C-68.29875 179.26167969 -67.5975 179.52335938 -66.875 179.79296875 C-56.62339136 183.39933822 -46.76728476 185.54492746 -35.875 185.4375 C-34.79331543 185.43065186 -33.71163086 185.42380371 -32.59716797 185.41674805 C-18.93496326 185.1468998 -6.06254438 182.62861863 6 176 C6.84820312 175.5359375 7.69640625 175.071875 8.5703125 174.59375 C29.24511025 162.70732193 45.48459825 143.92200743 51.92895508 120.72729492 C52.67414348 117.82989652 53.35065143 114.92023425 54 112 C54.26043091 111.09580322 54.26043091 111.09580322 54.52612305 110.17333984 C59.2137403 88.67454088 53.79822163 65.72437495 42.37890625 47.3984375 C28.36309134 26.48800694 7.92116013 10.93092473 -17 6 C-51.19264886 -0.06919517 -80.65223379 11.21849541 -104.125 36.25 Z " fill="#0E0C30" transform="translate(135,5)"/>
<path d="M0 0 C3.56870251 0.57041378 6.2294189 1.47909272 9.34375 3.30078125 C10.1680249 3.77821777 10.9922998 4.2556543 11.84155273 4.74755859 C12.71884033 5.26398926 13.59612793 5.78041992 14.5 6.3125 C15.87103882 7.10261475 15.87103882 7.10261475 17.26977539 7.90869141 C22.15994197 10.73063195 27.01288165 13.60650154 31.83984375 16.53515625 C32.77828125 17.09485107 33.71671875 17.6545459 34.68359375 18.23120117 C36.48956633 19.30918108 38.28566201 20.4039215 40.0703125 21.5168457 C40.89144531 22.0037085 41.71257812 22.49057129 42.55859375 22.9921875 C43.27329834 23.42901855 43.98800293 23.86584961 44.72436523 24.31591797 C48.81978983 25.54704979 52.00359956 23.51873121 55.63037109 21.63061523 C56.50258301 21.11184814 57.37479492 20.59308105 58.2734375 20.05859375 C59.25610596 19.47867676 60.23877441 18.89875977 61.2512207 18.30126953 C62.28206787 17.68622559 63.31291504 17.07118164 64.375 16.4375 C66.52168164 15.17240677 68.66881858 13.90808582 70.81640625 12.64453125 C71.86586426 12.02529785 72.91532227 11.40606445 73.99658203 10.76806641 C78.08683265 8.36019818 82.18956624 5.97642931 86.3125 3.625 C86.95687012 3.25044678 87.60124023 2.87589355 88.26513672 2.48999023 C91.07467676 0.8954591 92.71072321 0 96 0 C98.98013966 33.50304374 98.98013966 33.50304374 94.47363281 41.81542969 C90.36621196 45.97182128 85.2509063 47.89368688 79.83300781 49.85253906 C74.74177083 51.91465676 70.28216769 55.02255449 65.6875 58 C63.17467628 59.5550624 60.65567353 61.09951285 58.13427734 62.640625 C56.26689911 63.83000523 54.53254274 65.10252598 52.76953125 66.4375 C50 68 50 68 47.05859375 68.01171875 C43.34546806 66.78349454 40.29431334 64.95979819 37.0625 62.8125 C35.66266666 61.90828287 34.26154139 61.00606378 32.859375 60.10546875 C32.09431641 59.61224121 31.32925781 59.11901367 30.54101562 58.61083984 C24.69749071 54.90642234 18.74102071 51.38030455 12.80688477 47.82348633 C11.86643311 47.25525146 10.92598145 46.6870166 9.95703125 46.1015625 C9.12147705 45.59963379 8.28592285 45.09770508 7.42504883 44.58056641 C6.62478271 44.05897949 5.8245166 43.53739258 5 43 C4.08283203 42.46004395 3.16566406 41.92008789 2.22070312 41.36376953 C-1.09576341 37.83364322 -0.6331844 34.75223395 -0.48828125 30.078125 C-0.48120651 29.21813904 -0.47413177 28.35815308 -0.46684265 27.47210693 C-0.43889611 24.7305125 -0.3761598 21.990975 -0.3125 19.25 C-0.28741734 17.38935245 -0.26460411 15.52867283 -0.24414062 13.66796875 C-0.18906887 9.11118894 -0.10279655 4.55594296 0 0 Z " fill="#0E0D31" transform="translate(52,109)"/>
<path d="M0 0 C1.82869629 0.00966797 1.82869629 0.00966797 3.69433594 0.01953125 C25.77072427 0.46187386 44.46777901 8.53423997 61.375 22.5 C62.57382812 23.45326172 62.57382812 23.45326172 63.796875 24.42578125 C80.16983692 38.06050644 91.37484334 59.48506185 94.375 80.5 C94.74696339 85.33690426 94.85808692 90.149774 94.875 95 C94.88120361 96.16845459 94.88740723 97.33690918 94.89379883 98.54077148 C94.78521401 105.97803704 93.61488482 112.42883601 91.375 119.5 C90.95314366 121.10280973 90.53574265 122.70680629 90.125 124.3125 C86.4978234 136.11017235 80.12984624 146.01585007 72.375 155.5 C71.73820313 156.30179688 71.10140625 157.10359375 70.4453125 157.9296875 C65.21715465 164.1991382 59.0512944 168.85206207 52.375 173.5 C51.35792969 174.22509766 51.35792969 174.22509766 50.3203125 174.96484375 C35.00188944 185.25382748 17.74819035 188.66738964 -0.3125 188.75 C-1.42044922 188.770625 -2.52839844 188.79125 -3.66992188 188.8125 C-11.41936525 188.84873352 -18.2156951 187.73806345 -25.625 185.5 C-26.883125 185.12359375 -28.14125 184.7471875 -29.4375 184.359375 C-53.36616573 176.03126095 -73.2294075 159.05556413 -84.70214844 136.37011719 C-85.70535434 134.22288752 -86.64992047 132.0622029 -87.5625 129.875 C-87.83263916 129.23175781 -88.10277832 128.58851563 -88.38110352 127.92578125 C-92.6825886 116.96713864 -94.11593118 106.15299002 -94 94.4375 C-94.01160156 93.26123047 -94.02320312 92.08496094 -94.03515625 90.87304688 C-94.00903737 82.99820444 -92.90545505 76.02830839 -90.625 68.5 C-90.24859375 67.241875 -89.8721875 65.98375 -89.484375 64.6875 C-85.40031133 52.9530072 -79.59081286 43.00702448 -71.625 33.5 C-70.73554687 32.39205078 -70.73554687 32.39205078 -69.828125 31.26171875 C-52.79441639 10.88461692 -26.21195206 -0.14664029 0 0 Z M-68.75 35.75 C-85.92680057 55.66814854 -90.80388038 78.05998919 -89.85009766 103.62304688 C-89.50678688 108.01087141 -88.65533153 112.22751465 -87.625 116.5 C-87.33834473 117.70813354 -87.33834473 117.70813354 -87.04589844 118.94067383 C-81.46940397 141.25413357 -65.36050569 160.94997544 -45.91796875 172.62890625 C-41.90834189 174.90721143 -37.9500217 176.90269085 -33.625 178.5 C-32.92375 178.76167969 -32.2225 179.02335938 -31.5 179.29296875 C-21.24839136 182.89933822 -11.39228476 185.04492746 -0.5 184.9375 C0.58168457 184.93065186 1.66336914 184.92380371 2.77783203 184.91674805 C16.44003674 184.6468998 29.31245562 182.12861863 41.375 175.5 C42.22320312 175.0359375 43.07140625 174.571875 43.9453125 174.09375 C64.62011025 162.20732193 80.85959825 143.42200743 87.30395508 120.22729492 C88.04914348 117.32989652 88.72565143 114.42023425 89.375 111.5 C89.63543091 110.59580322 89.63543091 110.59580322 89.90112305 109.67333984 C94.5887403 88.17454088 89.17322163 65.22437495 77.75390625 46.8984375 C63.73809134 25.98800694 43.29616013 10.43092473 18.375 5.5 C-15.81764886 -0.56919517 -45.27723379 10.71849541 -68.75 35.75 Z " fill="#9E52E3" transform="translate(99.625,5.5)"/>
<path d="M0 0 C-0.53920842 4.6849256 -2.6584281 8.01646848 -5.1875 11.875 C-6.09660876 13.29457721 -7.00406068 14.71521637 -7.91015625 16.13671875 C-8.40402832 16.90935059 -8.89790039 17.68198242 -9.40673828 18.47802734 C-12.37494486 23.17639908 -15.24420171 27.93522574 -18.125 32.6875 C-19.32401495 34.66158213 -20.5232286 36.63554359 -21.72265625 38.609375 C-22.2861377 39.53685547 -22.84961914 40.46433594 -23.43017578 41.41992188 C-25.46528512 44.76471744 -27.51116615 48.10262834 -29.5625 51.4375 C-30.16191406 52.41332031 -30.76132813 53.38914063 -31.37890625 54.39453125 C-32.43341259 56.08936434 -33.5030214 57.77492487 -34.58984375 59.44921875 C-37.28026965 63.39255406 -37.28026965 63.39255406 -38 68 C-37.19820312 68.38929687 -36.39640625 68.77859375 -35.5703125 69.1796875 C-26.94318328 73.42478283 -18.51531781 77.96623925 -10.12890625 82.66796875 C-9.43168457 83.0551709 -8.73446289 83.44237305 -8.01611328 83.84130859 C-6.69623246 84.59986446 -5.39591077 85.39378017 -4.12060547 86.22509766 C-1.28446884 88.0378299 0.59160123 89.00106632 3.9921875 88.9921875 C7.6480509 87.78622737 10.83439287 86.08373452 14.125 84.125 C15.5254358 83.31535737 16.92651031 82.50681881 18.328125 81.69921875 C19.07384766 81.26657715 19.81957031 80.83393555 20.58789062 80.38818359 C24.98939947 77.85508852 29.43120581 75.39541105 33.875 72.9375 C34.74914551 72.44846191 35.62329102 71.95942383 36.52392578 71.45556641 C37.33845215 71.00487793 38.15297852 70.55418945 38.9921875 70.08984375 C39.71776855 69.68628662 40.44334961 69.28272949 41.19091797 68.86694336 C43 68 43 68 45 68 C44.67 67.2575 44.34 66.515 44 65.75 C43 63 43 63 43 59 C44.98 59.495 44.98 59.495 47 60 C46.67 48.78 46.34 37.56 46 26 C45.34 26 44.68 26 44 26 C44.020625 25.113125 44.04125 24.22625 44.0625 23.3125 C42.79616013 19.36449922 41.95638526 19.04990746 38.4375 17.125 C36.96833545 16.3961477 35.49188303 15.68114255 34 15 C34.33 13.68 34.66 12.36 35 11 C41.13234982 12.45239864 46.59970407 15.50413714 51 20 C52.33768625 23.8352791 52.1771031 27.37820811 51.9765625 31.40234375 C51.96241302 32.48004532 51.94826355 33.55774689 51.9336853 34.66810608 C51.87791458 38.09412202 51.75251959 41.51347863 51.625 44.9375 C51.57481639 47.26618125 51.52919304 49.59496553 51.48828125 51.92382812 C51.37831401 57.61813895 51.21122744 63.3085939 51 69 C43.22393268 73.38437164 35.44578168 77.76443905 27.63671875 82.08984375 C26.48365234 82.72857422 25.33058594 83.36730469 24.14257812 84.02539062 C22.38958794 84.99553047 20.63658203 85.96564232 18.88305664 86.93481445 C17.13364924 87.90202236 15.38516905 88.87090674 13.63671875 89.83984375 C12.62311279 90.40050537 11.60950684 90.96116699 10.56518555 91.53881836 C8.66697176 92.62007937 6.81767113 93.78821924 5 95 C-8.23531925 93.93664956 -24.59633757 81.2072955 -35.62109375 74.32421875 C-38.65062267 72.63783073 -41.80846665 71.34966498 -45 70 C-45.43377053 63.08298882 -45.72973297 56.16950454 -45.93383789 49.24194336 C-46.01894796 46.89067662 -46.1346958 44.54029999 -46.2824707 42.19213867 C-47.44745738 23.19358426 -47.44745738 23.19358426 -43.36920166 17.87203979 C-39.37857023 14.33197515 -34.91460072 12.02808811 -30.04263306 9.92625427 C-27.22815894 8.65000024 -24.76832692 6.9668912 -22.25 5.1875 C-20.078125 3.73046875 -20.078125 3.73046875 -18 3 C-15.234375 3.86328125 -15.234375 3.86328125 -13 5 C-17.70247265 9.07877627 -22.97383025 12.095846 -28.3125 15.25 C-29.70952148 16.08144531 -29.70952148 16.08144531 -31.13476562 16.9296875 C-33.42120575 18.28982624 -35.70964036 19.64647544 -38 21 C-36.58562564 21.95199365 -35.17001782 22.9021549 -33.75390625 23.8515625 C-32.9657251 24.38088379 -32.17754395 24.91020508 -31.36547852 25.45556641 C-28.31400024 27.44789292 -25.18822385 29.2363017 -22 31 C-21.73429199 30.28666504 -21.46858398 29.57333008 -21.19482422 28.83837891 C-19.04287616 23.72629307 -16.00018413 19.1064639 -13.125 14.375 C-12.49980469 13.32570313 -11.87460938 12.27640625 -11.23046875 11.1953125 C-10.31587891 9.68710937 -10.31587891 9.68710937 -9.3828125 8.1484375 C-8.82996582 7.23239746 -8.27711914 6.31635742 -7.70751953 5.37255859 C-5.64559625 2.50756424 -3.71098214 0 0 0 Z " fill="#A8E93C" transform="translate(97,32)"/>
<path d="M0 0 C2.13453819 1.09246923 4.22828638 2.2662413 6.2890625 3.4921875 C6.87416595 3.83879425 7.45926941 4.185401 8.06210327 4.54251099 C9.29282138 5.27372807 10.52143976 6.00848958 11.74804688 6.74658203 C13.62107556 7.87264064 15.50125678 8.98591719 17.3828125 10.09765625 C27.3897132 16.06073311 27.3897132 16.06073311 30 19 C29.34 20.32 28.68 21.64 28 23 C28.721875 23.268125 29.44375 23.53625 30.1875 23.8125 C35.64705882 26.11764706 35.64705882 26.11764706 38 28 C38.3125 31.1875 38.3125 31.1875 38 34 C38.99 33.67 39.98 33.34 41 33 C41 44.55 41 56.1 41 68 C39.02 67.505 39.02 67.505 37 67 C36.505 68.485 36.505 68.485 36 70 C35.33750244 68.90836548 35.33750244 68.90836548 34.66162109 67.79467773 C30.60557803 61.1116991 26.5485502 54.42931976 22.49032593 47.74766541 C19.99229527 43.63462098 17.4958488 39.52061894 15 35.40625 C13.79173579 33.41662469 12.58340625 31.42703905 11.375 29.4375 C10.83278809 28.54281006 10.29057617 27.64812012 9.73193359 26.72631836 C6.35143416 21.16459935 2.87487824 15.67847067 -0.69287109 10.23461914 C-2 8 -2 8 -2 6 C-2.66 6 -3.32 6 -4 6 C-4.33 6.99 -4.66 7.98 -5 9 C-5.598125 9.144375 -6.19625 9.28875 -6.8125 9.4375 C-10.48521104 10.38191141 -12.42551679 13.15785244 -14.50805664 16.21069336 C-14.97074951 16.99581299 -15.43344238 17.78093262 -15.91015625 18.58984375 C-16.42513672 19.45673828 -16.94011719 20.32363281 -17.47070312 21.21679688 C-17.99599609 22.11462891 -18.52128906 23.01246094 -19.0625 23.9375 C-19.59166016 24.83146484 -20.12082031 25.72542969 -20.66601562 26.64648438 C-21.65385229 28.31601511 -22.63925332 29.9869913 -23.62133789 31.65991211 C-25.06758817 34.11472155 -26.53126183 36.55859112 -28 39 C-32.04301175 37.51481201 -35.61146256 35.57122002 -39.3125 33.375 C-40.38113281 32.74335937 -41.44976562 32.11171875 -42.55078125 31.4609375 C-43.35902344 30.97882812 -44.16726562 30.49671875 -45 30 C-42.63355945 27.41688964 -40.09537812 25.688686 -37.11328125 23.86328125 C-36.17548828 23.28642578 -35.23769531 22.70957031 -34.27148438 22.11523438 C-33.29501953 21.52033203 -32.31855469 20.92542969 -31.3125 20.3125 C-30.32443359 19.70599609 -29.33636719 19.09949219 -28.31835938 18.47460938 C-25.88116698 16.97932709 -23.44166929 15.48795663 -21 14 C-21.33 12.68 -21.66 11.36 -22 10 C-19.28693529 8.12138044 -16.55236165 6.27676935 -13.8125 4.4375 C-13.04357422 3.90447266 -12.27464844 3.37144531 -11.48242188 2.82226562 C-10.35610352 2.07299805 -10.35610352 2.07299805 -9.20703125 1.30859375 C-8.5210083 0.84251709 -7.83498535 0.37644043 -7.12817383 -0.10375977 C-4.25582126 -1.31339683 -2.95111137 -0.96781551 0 0 Z " fill="#A7E93C" transform="translate(103,24)"/>
<path d="M0 0 C2.98013966 33.50304374 2.98013966 33.50304374 -1.52636719 41.81542969 C-5.63378804 45.97182128 -10.7490937 47.89368688 -16.16699219 49.85253906 C-21.25822917 51.91465676 -25.71783231 55.02255449 -30.3125 58 C-32.82532372 59.5550624 -35.34432647 61.09951285 -37.86572266 62.640625 C-39.73310089 63.83000523 -41.46745726 65.10252598 -43.23046875 66.4375 C-46 68 -46 68 -48.91015625 68.03125 C-52.85058695 66.71611257 -55.98904327 64.78451756 -59.4375 62.5 C-60.84160805 61.59504972 -62.2465792 60.69143741 -63.65234375 59.7890625 C-64.36632324 59.32790039 -65.08030273 58.86673828 -65.81591797 58.39160156 C-69.33528095 56.14921737 -72.91500929 54.01033416 -76.5 51.875 C-77.15282959 51.48505859 -77.80565918 51.09511719 -78.47827148 50.69335938 C-79.98469415 49.79419741 -81.49221346 48.89687303 -83 48 C-82.34 47.01 -81.68 46.02 -81 45 C-76.423371 45.56354014 -73.35881894 47.41365054 -69.5 49.875 C-68.3965625 50.57367188 -67.293125 51.27234375 -66.15625 51.9921875 C-65.1146875 52.65476563 -64.073125 53.31734375 -63 54 C-61.33689411 55.00591082 -59.67159938 56.00826753 -58 57 C-60.7441625 51.84097451 -63.89055281 47.54354385 -67.70703125 43.11328125 C-69 41 -69 41 -68.82421875 38.79296875 C-68 37 -68 37 -66 36 C-65.66266846 36.47832275 -65.32533691 36.95664551 -64.9777832 37.44946289 C-63.42290365 39.65396022 -61.86770364 41.8582313 -60.3125 44.0625 C-59.51682617 45.19075195 -59.51682617 45.19075195 -58.70507812 46.34179688 C-57.64870923 47.83885954 -56.59029514 49.33448127 -55.52978516 50.82861328 C-54.52779608 52.2508429 -53.53737462 53.6813096 -52.56005859 55.12060547 C-51.42104905 56.78080704 -50.21652016 58.39572735 -49 60 C-48.34 60 -47.68 60 -47 60 C-45.64788298 58.46963321 -45.64788298 58.46963321 -44.3203125 56.45703125 C-43.80339844 55.71259766 -43.28648438 54.96816406 -42.75390625 54.20117188 C-42.21636719 53.41291016 -41.67882812 52.62464844 -41.125 51.8125 C-40.06655722 50.27634156 -39.00669336 48.74116115 -37.9453125 47.20703125 C-37.19169434 46.11769287 -37.19169434 46.11769287 -36.42285156 45.00634766 C-34.70978906 42.59077669 -32.89060902 40.27877753 -31 38 C-29.68 38.33 -28.36 38.66 -27 39 C-28.95233238 43.21703793 -31.63859175 46.80278854 -34.34375 50.5625 C-35.77462336 52.66831362 -36.89245886 54.71735531 -38 57 C-35.93337163 55.69586074 -33.86686644 54.3915271 -31.80053711 53.08691406 C-30.05559682 51.98546432 -28.31031558 50.88455455 -26.56469727 49.78417969 C-22.81857897 47.42101186 -19.07365253 45.05752643 -15.359375 42.64453125 C-14.39515625 42.01933594 -13.4309375 41.39414063 -12.4375 40.75 C-11.61121094 40.20859375 -10.78492188 39.6671875 -9.93359375 39.109375 C-8 38 -8 38 -6 38 C-6.33 36.35 -6.66 34.7 -7 33 C-6.34 33 -5.68 33 -5 33 C-5 25.41 -5 17.82 -5 10 C-5.66 10.66 -6.32 11.32 -7 12 C-7 11.34 -7 10.68 -7 10 C-7.99 10.33 -8.98 10.66 -10 11 C-10.66 11 -11.32 11 -12 11 C-13.64934288 11.83095254 -15.27008319 12.71899845 -16.875 13.6328125 C-18.35419922 14.47199219 -18.35419922 14.47199219 -19.86328125 15.328125 C-20.89839844 15.92109375 -21.93351562 16.5140625 -23 17.125 C-24.00417969 17.69476563 -25.00835937 18.26453125 -26.04296875 18.8515625 C-31.96550681 22.21093484 -31.96550681 22.21093484 -37.76953125 25.76855469 C-41.15400483 27.92634688 -44.06825956 29.77316267 -47.984375 30.7265625 C-52.90078869 29.54203796 -56.94337504 26.96632626 -61.25 24.375 C-62.14074219 23.85292969 -63.03148438 23.33085937 -63.94921875 22.79296875 C-66.64196395 21.21015045 -69.32240716 19.6083007 -72 18 C-72.95712891 17.42668945 -73.91425781 16.85337891 -74.90039062 16.26269531 C-77.26802646 14.84361549 -79.63454882 13.4227174 -82 12 C-79 10 -79 10 -76.8671875 10.07421875 C-72.64099738 11.43880602 -68.96642929 13.6079359 -65.125 15.8125 C-64.34769531 16.25142578 -63.57039063 16.69035156 -62.76953125 17.14257812 C-62.00253906 17.57634766 -61.23554687 18.01011719 -60.4453125 18.45703125 C-59.6915332 18.88064941 -58.93775391 19.30426758 -58.16113281 19.74072266 C-56.77604496 20.5478039 -55.41254327 21.39388002 -54.08105469 22.28662109 C-52.11593164 23.63208282 -52.11593164 23.63208282 -49 25 C-44.84663588 23.96165897 -41.39013623 22.23758426 -37.7265625 20.05859375 C-36.74389404 19.47867676 -35.76122559 18.89875977 -34.7487793 18.30126953 C-33.71793213 17.68622559 -32.68708496 17.07118164 -31.625 16.4375 C-29.47831836 15.17240677 -27.33118142 13.90808582 -25.18359375 12.64453125 C-24.13413574 12.02529785 -23.08467773 11.40606445 -22.00341797 10.76806641 C-17.91316735 8.36019818 -13.81043376 5.97642931 -9.6875 3.625 C-9.04312988 3.25044678 -8.39875977 2.87589355 -7.73486328 2.48999023 C-4.92532324 0.8954591 -3.28927679 0 0 0 Z " fill="#A8EA3C" transform="translate(148,109)"/>
<path d="M0 0 C3.20067028 0.54024817 5.75251159 1.20007692 8.55078125 2.84765625 C9.16630859 3.20537109 9.78183594 3.56308594 10.41601562 3.93164062 C11.04185547 4.30482422 11.66769531 4.67800781 12.3125 5.0625 C12.95767578 5.43955078 13.60285156 5.81660156 14.26757812 6.20507812 C15.84878152 7.13037493 17.4249146 8.06432681 19 9 C17 11 17 11 14.375 11.125 C13.59125 11.08375 12.8075 11.0425 12 11 C13.68578992 14.87072435 16.2208449 18.02037192 18.8125 21.3125 C19.7112958 22.47628587 20.60973688 23.64034579 21.5078125 24.8046875 C22.91806064 26.62330457 24.34296925 28.41720502 25.8046875 30.1953125 C27.1875 31.9375 27.1875 31.9375 29 35 C28.76023437 35.89074219 28.52046875 36.78148437 28.2734375 37.69921875 C27.8612317 42.67513156 30.42313041 45.11341666 33.4375 48.875 C33.96666016 49.56335938 34.49582031 50.25171875 35.04101562 50.9609375 C36.34511193 52.65273811 37.67053325 54.32806261 39 56 C38.505 56.99 38.505 56.99 38 58 C37.13834229 57.44687134 37.13834229 57.44687134 36.25927734 56.88256836 C33.64203956 55.2164062 31.00906323 53.57692044 28.375 51.9375 C27.47136719 51.35677734 26.56773438 50.77605469 25.63671875 50.17773438 C20.5529055 46.82218617 20.5529055 46.82218617 14.71484375 46.33984375 C13.81894531 46.55769531 12.92304687 46.77554688 12 47 C9.04296875 45.6015625 9.04296875 45.6015625 6.1875 43.625 C5.23230469 42.97789062 4.27710938 42.33078125 3.29296875 41.6640625 C1 40 1 40 0 39 C-0.08865208 36.1156618 -0.11521296 33.25537842 -0.09765625 30.37109375 C-0.0962413 29.50686295 -0.09482635 28.64263214 -0.09336853 27.75221252 C-0.08775239 24.98060708 -0.07519719 22.2090812 -0.0625 19.4375 C-0.05748708 17.5631522 -0.05292381 15.68880315 -0.04882812 13.81445312 C-0.03777772 9.20960456 -0.0205023 4.60481579 0 0 Z " fill="#ABEE3D" transform="translate(52,109)"/>
<path d="M0 0 C3.45522283 2.66319467 4.1008811 6.16873487 5.1875 10.1875 C12.26750753 34.29035611 27.18819903 53.50685578 49 66 C51.94505142 67.5349965 54.88587523 68.8498971 58 70 C58.70125 70.26167969 59.4025 70.52335937 60.125 70.79296875 C70.37660864 74.39933822 80.23271524 76.54492746 91.125 76.4375 C92.74752686 76.42722778 92.74752686 76.42722778 94.40283203 76.41674805 C116.12129513 75.98777707 134.00416074 68.387784 151 55 C151.66 55.33 152.32 55.66 153 56 C152.61851919 58.49843064 152.26777617 59.73890154 150.43359375 61.52734375 C148.29941405 63.03505191 146.16423899 64.53562037 144 66 C143.40058594 66.42410156 142.80117187 66.84820312 142.18359375 67.28515625 C126.74400749 77.65602305 109.53005178 81.16667215 91.3125 81.25 C90.20455078 81.270625 89.09660156 81.29125 87.95507812 81.3125 C80.20563475 81.34873352 73.4093049 80.23806345 66 78 C64.741875 77.62359375 63.48375 77.2471875 62.1875 76.859375 C38.38284227 68.57442059 18.07680531 51.51729815 6.890625 28.74121094 C3.30028608 20.81366221 -0.19448156 13.03026478 -0.0625 4.1875 C-0.05347656 3.39730469 -0.04445313 2.60710937 -0.03515625 1.79296875 C-0.02355469 1.20128906 -0.01195312 0.60960938 0 0 Z " fill="#27ACE8" transform="translate(8,113)"/>
<path d="M0 0 C0 8.25 0 16.5 0 25 C-0.99 24.67 -1.98 24.34 -3 24 C-3 24.66 -3 25.32 -3 26 C-2.34 26.33 -1.68 26.66 -1 27 C-3.82997413 30.03052348 -6.65560133 32.18930619 -10.2109375 34.3125 C-11.20867187 34.91320312 -12.20640625 35.51390625 -13.234375 36.1328125 C-14.78898437 37.05707031 -14.78898437 37.05707031 -16.375 38 C-18.42515561 39.22803807 -20.47465414 40.45717391 -22.5234375 41.6875 C-23.47702148 42.25984375 -24.43060547 42.8321875 -25.41308594 43.421875 C-28.33471034 45.20418721 -31.18002422 47.06187232 -34 49 C-34.66 48.67 -35.32 48.34 -36 48 C-35.63648437 47.52578613 -35.27296875 47.05157227 -34.8984375 46.56298828 C-33.26065064 44.42074207 -31.63026055 42.27297842 -30 40.125 C-29.14148438 39.00544922 -29.14148438 39.00544922 -28.265625 37.86328125 C-27.45351562 36.79013672 -27.45351562 36.79013672 -26.625 35.6953125 C-26.12226562 35.03547363 -25.61953125 34.37563477 -25.1015625 33.69580078 C-23.81841927 32.05749417 -23.81841927 32.05749417 -24 30 C-24.66 29.67 -25.32 29.34 -26 29 C-24.65329896 26.16244957 -23.13417315 23.62878965 -21.3203125 21.06640625 C-20.80339844 20.33486328 -20.28648438 19.60332031 -19.75390625 18.84960938 C-19.21636719 18.09486328 -18.67882812 17.34011719 -18.125 16.5625 C-17.59519531 15.81162109 -17.06539062 15.06074219 -16.51953125 14.28710938 C-8.28321349 2.66838321 -8.28321349 2.66838321 -3 1 C-1 0 -1 0 0 0 Z " fill="#A8E93C" transform="translate(144,118)"/>
<path d="M0 0 C5.64279165 8.46418748 5.47116889 19.23724537 5.375 29.0625 C5.38660156 30.25166016 5.39820313 31.44082031 5.41015625 32.66601562 C5.38510623 40.2686978 4.3150888 46.77993683 2 54 C1.57759451 55.6026651 1.16012329 57.20664799 0.75 58.8125 C-3.91445139 73.9839888 -13.55661446 88.10030472 -25 99 C-26.485 99.495 -26.485 99.495 -28 100 C-28.75 98.2578125 -28.75 98.2578125 -29 96 C-27.375 93.9921875 -27.375 93.9921875 -25 91.875 C-11.98510748 79.46358009 -4.85069718 63.31725965 -1 46 C-0.7373938 45.10450439 -0.7373938 45.10450439 -0.46948242 44.19091797 C0.63211528 39.05012868 0.22852498 33.60953507 0.25 28.375 C0.270625 27.14136719 0.29125 25.90773438 0.3125 24.63671875 C0.34097468 17.93805126 -0.07730898 12.27135092 -2.45019531 5.97509766 C-3 4 -3 4 -2 1 C-1.67 1.33 -1.34 1.66 -1 2 C-0.67 1.34 -0.34 0.68 0 0 Z " fill="#724BC4" transform="translate(189,71)"/>
<path d="M0 0 C0.66 1.32 1.32 2.64 2 4 C1.23816406 4.66644531 0.47632813 5.33289063 -0.30859375 6.01953125 C-17.79383146 21.52214155 -29.63522432 39.54194968 -33 63 C-33.07839853 65.30879451 -33.10787794 67.61958492 -33.09765625 69.9296875 C-33.09443359 71.21875 -33.09121094 72.5078125 -33.08789062 73.8359375 C-33.07953733 75.18229236 -33.07107241 76.52864652 -33.0625 77.875 C-33.0574783 79.24479004 -33.05291657 80.61458185 -33.04882812 81.984375 C-33.03707254 85.3229619 -33.02063964 88.66145815 -33 92 C-33.66 91.67 -34.32 91.34 -35 91 C-35.66 91.99 -36.32 92.98 -37 94 C-38.7039178 88.33848555 -38.22580257 82.35577692 -38.25 76.5 C-38.270625 75.283125 -38.29125 74.06625 -38.3125 72.8125 C-38.34694237 64.75298625 -37.36307705 57.69952401 -35 50 C-34.62359375 48.741875 -34.2471875 47.48375 -33.859375 46.1875 C-29.77843356 34.46197811 -23.97716654 24.49007744 -16 15 C-15.360625 14.2265625 -14.72125 13.453125 -14.0625 12.65625 C-9.82296815 7.68804862 -5.40574286 3.6661288 0 0 Z " fill="#8954DD" transform="translate(44,24)"/>
<path d="M0 0 C7.0933976 3.84588523 13.9933058 7.97664236 20.875 12.1875 C22.421875 13.13012695 22.421875 13.13012695 24 14.09179688 C31.54400941 18.69600627 31.54400941 18.69600627 35 21 C33.59980125 25.20059624 30.63174123 26.19051525 26.9375 28.1875 C26.27427734 28.55552734 25.61105469 28.92355469 24.92773438 29.30273438 C23.28972543 30.21012062 21.64543779 31.10615573 20 32 C17.18553325 28.58977021 14.70889188 25.1140026 12.36328125 21.3671875 C11.70392578 20.31402344 11.04457031 19.26085937 10.36523438 18.17578125 C9.68783203 17.08652344 9.01042969 15.99726562 8.3125 14.875 C7.62349609 13.77800781 6.93449219 12.68101563 6.22460938 11.55078125 C5.56912109 10.50019531 4.91363281 9.44960938 4.23828125 8.3671875 C3.341698 6.93028564 3.341698 6.93028564 2.42700195 5.46435547 C1 3 1 3 0 0 Z " fill="#0F0F31" transform="translate(106,31)"/>
<path d="M0 0 C0 3.6800059 -1.03021704 5.03784861 -2.95703125 8.1484375 C-3.57513672 9.15390625 -4.19324219 10.159375 -4.83007812 11.1953125 C-5.48427734 12.24460937 -6.13847656 13.29390625 -6.8125 14.375 C-7.77639648 15.93734375 -7.77639648 15.93734375 -8.75976562 17.53125 C-9.96151574 19.47895693 -11.16605874 21.42494531 -12.37426758 23.36865234 C-13.93808222 25.89978227 -15.47507908 28.44528859 -17 31 C-21.04301175 29.51481201 -24.61146256 27.57122002 -28.3125 25.375 C-29.38113281 24.74335937 -30.44976562 24.11171875 -31.55078125 23.4609375 C-32.35902344 22.97882812 -33.16726562 22.49671875 -34 22 C-31.42603086 19.12652651 -28.47673585 17.31434589 -25.1953125 15.3125 C-24.63431854 14.96872314 -24.07332458 14.62494629 -23.49533081 14.27075195 C-21.7076075 13.17653798 -19.91637504 12.08822299 -18.125 11 C-16.92815205 10.26861091 -15.73153501 9.53684382 -14.53515625 8.8046875 C-9.70203164 5.84985828 -4.86041832 2.90975999 0 0 Z " fill="#0F1031" transform="translate(92,32)"/>
<path d="M0 0 C6.1406782 1.45437115 11.56168432 4.53859003 16 9 C17.42993609 12.74081331 17.40721831 16.21818734 17.328125 20.19140625 C17.33769226 21.25487778 17.34725952 22.3183493 17.3571167 23.41404724 C17.36389849 25.65394028 17.34560409 27.89403342 17.30371094 30.13354492 C17.25005462 33.55901318 17.30323654 36.97141876 17.3671875 40.39648438 C17.36057999 42.57815385 17.34776882 44.75981521 17.328125 46.94140625 C17.34836731 47.96029434 17.36860962 48.97918243 17.38946533 50.02894592 C17.2468496 54.36316551 17.1040035 56.9585672 13.86071777 60.01803589 C9.49248267 62.79568017 6.24285501 64.34813706 1 64 C2.67517239 60.46352496 3.49280817 59.2088437 7.1875 57.6875 C8.115625 57.460625 9.04375 57.23375 10 57 C9.67 56.2575 9.34 55.515 9 54.75 C8 52 8 52 8 48 C9.32 48.33 10.64 48.66 12 49 C11.67 37.78 11.34 26.56 11 15 C10.34 15 9.68 15 9 15 C9.020625 14.113125 9.04125 13.22625 9.0625 12.3125 C7.79616013 8.36449922 6.95638526 8.04990746 3.4375 6.125 C1.96833545 5.3961477 0.49188303 4.68114255 -1 4 C-0.67 2.68 -0.34 1.36 0 0 Z " fill="#ACEF3C" transform="translate(132,43)"/>
<path d="M0 0 C0 11.55 0 23.1 0 35 C-2.52995529 31.83755589 -4.68933693 29.06805682 -6.76171875 25.6796875 C-7.24060547 24.89722656 -7.71949219 24.11476563 -8.21289062 23.30859375 C-8.69951172 22.50550781 -9.18613281 21.70242187 -9.6875 20.875 C-10.18572266 20.06417969 -10.68394531 19.25335938 -11.19726562 18.41796875 C-14.87139423 12.38581731 -14.87139423 12.38581731 -16 9 C-13.5224077 7.49734474 -11.04304235 5.99777081 -8.5625 4.5 C-7.50192383 3.85611328 -7.50192383 3.85611328 -6.41992188 3.19921875 C-1.11328125 0 -1.11328125 0 0 0 Z " fill="#0E0F30" transform="translate(144,57)"/>
<path d="M0 0 C1.45458984 1.65478516 1.45458984 1.65478516 2.9609375 3.7890625 C3.51523438 4.56636719 4.06953125 5.34367188 4.640625 6.14453125 C5.21296875 6.96308594 5.7853125 7.78164062 6.375 8.625 C7.22191406 9.81802734 7.22191406 9.81802734 8.0859375 11.03515625 C9.19943078 12.60487247 10.30985252 14.17677262 11.41699219 15.75097656 C13.59519593 18.84561149 15.79727549 21.92278561 18 25 C17.67 25.66 17.34 26.32 17 27 C-4.60739583 14.11811831 -4.60739583 14.11811831 -14 8 C-12.56684975 4.38226397 -10.95412036 3.030893 -7.5625 1.1875 C-6.78003906 0.74792969 -5.99757813 0.30835938 -5.19140625 -0.14453125 C-3 -1 -3 -1 0 0 Z " fill="#111331" transform="translate(73,140)"/>
<path d="M0 0 C5.31027254 1.46032495 9.46330032 3.98320986 14 7 C8.65155968 11.4105219 2.87524882 14.9652388 -3 18.625 C-4.62035156 19.6459375 -4.62035156 19.6459375 -6.2734375 20.6875 C-7.31757812 21.33976562 -8.36171875 21.99203125 -9.4375 22.6640625 C-10.38496094 23.25654785 -11.33242187 23.8490332 -12.30859375 24.45947266 C-14.82333747 25.89888057 -17.28445338 27.00138361 -20 28 C-14.87333748 19.52912384 -9.0991664 11.7732383 -3 4 C-1.99546355 2.67008109 -0.99327948 1.33834736 0 0 Z " fill="#0F1031" transform="translate(128,139)"/>
<path d="M0 0 C6.93 3.96 6.93 3.96 14 8 C15 12 15 12 14.05957031 14.24243164 C13.57069336 15.04028076 13.08181641 15.83812988 12.578125 16.66015625 C12.04703125 17.53607422 11.5159375 18.41199219 10.96875 19.31445312 C10.4015625 20.22130859 9.834375 21.12816406 9.25 22.0625 C8.69828125 22.97322266 8.1465625 23.88394531 7.578125 24.82226562 C5.23933415 28.63685599 3.18334945 31.81665055 0 35 C0 23.45 0 11.9 0 0 Z " fill="#0E0F30" transform="translate(56,57)"/>
<path d="M0 0 C3.45522283 2.66319467 4.1008811 6.16873487 5.1875 10.1875 C10.15661277 27.10412185 18.90278297 42.0398404 32 54 C31.01 54.99 30.02 55.98 29 57 C24.16003489 53.13261305 20.18309246 49.15031787 16.5625 44.125 C16.09585937 43.48079102 15.62921875 42.83658203 15.1484375 42.17285156 C6.29053455 29.59584278 -0.77159952 15.68919029 0 0 Z " fill="#3499E4" transform="translate(8,113)"/>
<path d="M0 0 C0.99 0.495 0.99 0.495 2 1 C1.61851919 3.49843064 1.26777617 4.73890154 -0.56640625 6.52734375 C-2.70058595 8.03505191 -4.83576101 9.53562037 -7 11 C-7.59941406 11.42410156 -8.19882813 11.84820312 -8.81640625 12.28515625 C-19.39895885 19.39352312 -34.00315679 26.06096679 -47 25 C-47.64291992 24.83636963 -48.28583984 24.67273926 -48.94824219 24.50415039 C-52.3263019 23.67410597 -55.78800877 23.62405606 -59.25 23.4375 C-60.36761719 23.37272461 -60.36761719 23.37272461 -61.5078125 23.30664062 C-63.338349 23.20103275 -65.16915176 23.10005799 -67 23 C-67 22.67 -67 22.34 -67 22 C-65.76507813 21.97421875 -64.53015625 21.9484375 -63.2578125 21.921875 C-38.89737618 21.19520394 -19.35452356 15.24574202 0 0 Z " fill="#2793D0" transform="translate(159,168)"/>
<path d="M0 0 C1.99746415 5.99239245 -2.05615082 12.35995661 -4.625 17.8125 C-9.18324189 26.68076269 -18.0623935 42.6874645 -28 46 C-28.75 44.2578125 -28.75 44.2578125 -29 42 C-27.375 39.9921875 -27.375 39.9921875 -25 37.875 C-14.8123845 28.15976235 -9.29527805 16.13267858 -3.390625 3.578125 C-2 1 -2 1 0 0 Z " fill="#5A58CD" transform="translate(189,125)"/>
<path d="M0 0 C0.33 0 0.66 0 1 0 C1 8.25 1 16.5 1 25 C-2.96 22.69 -6.92 20.38 -11 18 C-10.14381896 14.57527583 -9.6873341 13.2367653 -7.75 10.546875 C-7.3065625 9.928125 -6.863125 9.309375 -6.40625 8.671875 C-5.9421875 8.03765625 -5.478125 7.4034375 -5 6.75 C-4.30390625 5.77546875 -4.30390625 5.77546875 -3.59375 4.78125 C-2.42593183 3.16531556 -1.21642781 1.57966667 0 0 Z " fill="#0F1131" transform="translate(143,118)"/>
<path d="M0 0 C3.10260437 3.10260437 5.69528859 6.01676434 8.3125 9.5 C9.03050781 10.4384375 9.74851562 11.376875 10.48828125 12.34375 C12 15 12 15 12.078125 17.140625 C9.68893952 21.2611043 4.04821623 22.95262628 0 25 C0 16.75 0 8.5 0 0 Z " fill="#0F1131" transform="translate(56,118)"/>
<path d="M0 0 C0.66 1.32 1.32 2.64 2 4 C2.66 2.68 3.32 1.36 4 0 C4 11.55 4 23.1 4 35 C3.34 34.67 2.68 34.34 2 34 C1.34 34.99 0.68 35.98 0 37 C-1.06840794 33.51520767 -1.12915405 30.2937781 -1.1328125 26.66015625 C-1.13410156 25.43232422 -1.13539063 24.20449219 -1.13671875 22.93945312 C-1.13285156 21.66005859 -1.12898437 20.38066406 -1.125 19.0625 C-1.12886719 17.78697266 -1.13273438 16.51144531 -1.13671875 15.19726562 C-1.13542969 13.96814453 -1.13414062 12.73902344 -1.1328125 11.47265625 C-1.13168457 10.35125244 -1.13055664 9.22984863 -1.12939453 8.07446289 C-1.01114969 5.26492095 -0.64108415 2.732088 0 0 Z " fill="#4659B9" transform="translate(7,81)"/>
<path d="M0 0 C1.32 0.66 2.64 1.32 4 2 C3.45730469 3.02738281 2.91460937 4.05476563 2.35546875 5.11328125 C-1.69650111 12.91539826 -5.23292799 20.31189597 -7 29 C-7.66 29 -8.32 29 -9 29 C-9.495 31.475 -9.495 31.475 -10 34 C-10.33 34 -10.66 34 -11 34 C-11.81161103 21.82583453 -6.78606972 11.48613866 -1 1 C-0.67 0.67 -0.34 0.34 0 0 Z " fill="#6C57D3" transform="translate(19,52)"/>
<path d="M0 0 C-0.33 0.99 -0.66 1.98 -1 3 C-3.3359375 4.140625 -3.3359375 4.140625 -6.375 5.25 C-12.01778733 7.45716681 -16.81885934 10.2449928 -21.8203125 13.64453125 C-24 15 -24 15 -26 15 C-26 13.68 -26 12.36 -26 11 C-23.47265625 9 -23.47265625 9 -20.0625 7 C-19.47218994 6.65332275 -18.88187988 6.30664551 -18.27368164 5.94946289 C-5.04967502 -1.69822033 -5.04967502 -1.69822033 0 0 Z " fill="#9C53E4" transform="translate(71,12)"/>
<path d="M0 0 C0.33 0 0.66 0 1 0 C1.33 4.95 1.66 9.9 2 15 C2.33 12.69 2.66 10.38 3 8 C3.33 8 3.66 8 4 8 C4.36741339 16.55937129 3.73977333 23.86222087 1 32 C0.360625 32.12375 -0.27875 32.2475 -0.9375 32.375 C-1.618125 32.58125 -2.29875 32.7875 -3 33 C-3.33 33.66 -3.66 34.32 -4 35 C-3.68917128 33.24970238 -3.37626821 31.49977306 -3.0625 29.75 C-2.80146484 28.28820312 -2.80146484 28.28820312 -2.53515625 26.796875 C-2.2350883 25.22863668 -1.90780034 23.66310316 -1.48632812 22.12304688 C-0.95326012 19.79595885 -0.79058399 17.61872897 -0.68359375 15.234375 C-0.64169922 14.34492187 -0.59980469 13.45546875 -0.55664062 12.5390625 C-0.51732422 11.61867188 -0.47800781 10.69828125 -0.4375 9.75 C-0.39431641 8.81414062 -0.35113281 7.87828125 -0.30664062 6.9140625 C-0.2008195 4.60951359 -0.09873443 2.30486161 0 0 Z " fill="#5F4BBA" transform="translate(190,93)"/>
<path d="M0 0 C3.60956421 2.7255893 4.36997013 6.66309796 5.5625 10.8125 C5.98001239 12.21497969 6.39797444 13.6173256 6.81640625 15.01953125 C7.11248779 16.0262085 7.11248779 16.0262085 7.41455078 17.05322266 C8.21722138 19.72231996 9.10131173 22.36191507 10 25 C8.68 25.33 7.36 25.66 6 26 C5.18167278 24.10667466 4.37057732 22.21022267 3.5625 20.3125 C3.11003906 19.25675781 2.65757813 18.20101562 2.19140625 17.11328125 C0.50800687 12.7143655 -0.13255369 8.88109706 -0.0625 4.1875 C-0.05347656 3.39730469 -0.04445313 2.60710937 -0.03515625 1.79296875 C-0.02355469 1.20128906 -0.01195312 0.60960938 0 0 Z " fill="#3F82DA" transform="translate(8,113)"/>
<path d="M0 0 C-1.42777089 4.20696128 -3.4882949 7.14972107 -6.3125 10.5625 C-7.45138672 11.95662109 -7.45138672 11.95662109 -8.61328125 13.37890625 C-10.91118989 15.90246876 -13.2770751 17.95178215 -16 20 C-16.66 19.34 -17.32 18.68 -18 18 C-16.63107063 14.90296672 -15.07882641 12.88238392 -12.625 10.5625 C-10.48598002 8.49448484 -8.61656213 6.52070267 -6.75 4.1875 C-4.78821566 1.73526958 -3.29167027 0 0 0 Z " fill="#447AD7" transform="translate(178,151)"/>
<path d="M0 0 C0.66 0.33 1.32 0.66 2 1 C1.61851919 3.49843064 1.26777617 4.73890154 -0.56640625 6.52734375 C-1.22511719 6.99269531 -1.88382813 7.45804688 -2.5625 7.9375 C-3.63564453 8.69740234 -3.63564453 8.69740234 -4.73046875 9.47265625 C-14.42966752 16 -14.42966752 16 -17 16 C-17.33 14.68 -17.66 13.36 -18 12 C-17.3709375 11.63648438 -16.741875 11.27296875 -16.09375 10.8984375 C-10.44756937 7.58215671 -5.14381487 4.05183182 0 0 Z " fill="#3490DB" transform="translate(159,168)"/>
<path d="M0 0 C0.66 0.33 1.32 0.66 2 1 C1 4 1 4 -1.22265625 5.38671875 C-7.14495357 8.0994079 -11.48003726 9.61509082 -18 9 C-16.18310332 5.36620665 -11.62150437 4.48720086 -8 3 C-7.23945313 2.68289062 -6.47890625 2.36578125 -5.6953125 2.0390625 C-3.82262001 1.29135744 -1.91296525 0.63765508 0 0 Z " fill="#3099DF" transform="translate(140,181)"/>
<path d="M0 0 C7.35342179 -0.20177072 13.94887561 -0.21211746 21 2 C18.50935112 2.68707555 16.62113708 3 14 3 C16.31 3.66 18.62 4.32 21 5 C17.14451071 6.38797615 13.99505593 5.57072228 10 5 C6.85702247 4.75200448 3.71129183 4.59227542 0.5625 4.4375 C-0.67790039 4.37272461 -0.67790039 4.37272461 -1.94335938 4.30664062 C-3.96209549 4.20161967 -5.98102951 4.10041441 -8 4 C-8 3.67 -8 3.34 -8 3 C-0.08 2.505 -0.08 2.505 8 2 C5.36 1.67 2.72 1.34 0 1 C0 0.67 0 0.34 0 0 Z " fill="#8744C3" transform="translate(101,6)"/>
<path d="M0 0 C2.58311036 2.36644055 4.311314 4.90462188 6.13671875 7.88671875 C6.71357422 8.82451172 7.29042969 9.76230469 7.88476562 10.72851562 C8.47966797 11.70498047 9.07457031 12.68144531 9.6875 13.6875 C10.29400391 14.67556641 10.90050781 15.66363281 11.52539062 16.68164062 C13.02067291 19.11883302 14.51204337 21.55833071 16 24 C15.01 24 14.02 24 13 24 C12.34 23.34 11.68 22.68 11 22 C11 21.01 11 20.02 11 19 C10.34 19 9.68 19 9 19 C8.443125 18.01 7.88625 17.02 7.3125 16 C5.34534236 12.5239831 3.18987075 9.20248957 0.953125 5.89453125 C0 4 0 4 0 0 Z " fill="#161D31" transform="translate(104,37)"/>
<path d="M0 0 C1.32 0.66 2.64 1.32 4 2 C2.02 5.96 0.04 9.92 -2 14 C-2.66 13.34 -3.32 12.68 -4 12 C-4.99 12.495 -4.99 12.495 -6 13 C-3.10933941 3.40546697 -3.10933941 3.40546697 0 0 Z " fill="#7856D8" transform="translate(19,52)"/>
<path d="M0 0 C0.58007812 0.13277344 1.16015625 0.26554688 1.7578125 0.40234375 C6.15770982 1.39704001 10.53894158 2.31368332 15 3 C13.02 3.99 13.02 3.99 11 5 C11.66 5.66 12.32 6.32 13 7 C8.28596212 6.52060632 4.33420699 6.03165952 0 4 C0 2.66666667 0 1.33333333 0 0 Z " fill="#24A1DA" transform="translate(72,186)"/>
<path d="M0 0 C1.12894876 0.93274109 2.25300876 1.87140122 3.375 2.8125 C4.00148438 3.33457031 4.62796875 3.85664063 5.2734375 4.39453125 C7 6 7 6 9 9 C7.02 9.99 7.02 9.99 5 11 C2.69 8.36 0.38 5.72 -2 3 C-1.34 2.67 -0.68 2.34 0 2 C0 1.34 0 0.68 0 0 Z " fill="#2C9ADC" transform="translate(31,159)"/>
<path d="M0 0 C1 3 1 3 0.1796875 5.2265625 C-0.25085938 6.01804688 -0.68140625 6.80953125 -1.125 7.625 C-1.54007813 8.42164063 -1.95515625 9.21828125 -2.3828125 10.0390625 C-4.42963549 12.52095898 -5.86445765 12.69383593 -9 13 C-7.4274017 8.67535468 -5.4611743 4.87821405 -3 1 C-2.01 0.67 -1.02 0.34 0 0 Z " fill="#5565D5" transform="translate(183,140)"/>
<path d="M0 0 C0.33 0 0.66 0 1 0 C1.79773542 7.83007996 2.14500285 15.19636521 1 23 C-1.48731205 19.26903192 -1.26081721 16.37278041 -1.1875 12.0625 C-1.18685547 11.34642578 -1.18621094 10.63035156 -1.18554688 9.89257812 C-1.15695659 6.46492077 -1.06905246 3.27557672 0 0 Z " fill="#855FEC" transform="translate(192,88)"/>
<path d="M0 0 C3.15111212 2.52952288 3.58798017 4.76756266 4.1875 8.6875 C4.42533203 10.17830078 4.42533203 10.17830078 4.66796875 11.69921875 C4.77753906 12.45847656 4.88710937 13.21773437 5 14 C3.68 14 2.36 14 1 14 C-0.20568053 9.32798795 -0.09382426 4.78503708 0 0 Z " fill="#4B7CE0" transform="translate(8,113)"/>
<path d="M0 0 C-3.0581389 2.03875926 -3.71060009 2.25490139 -7.16015625 2.265625 C-7.95357422 2.26820312 -8.74699219 2.27078125 -9.56445312 2.2734375 C-10.80098633 2.26183594 -10.80098633 2.26183594 -12.0625 2.25 C-12.89072266 2.25773438 -13.71894531 2.26546875 -14.57226562 2.2734375 C-15.36439453 2.27085938 -16.15652344 2.26828125 -16.97265625 2.265625 C-17.69718994 2.26336914 -18.42172363 2.26111328 -19.16821289 2.25878906 C-21 2 -21 2 -23 0 C-15.19636521 -1.14500285 -7.83007996 -0.79773542 0 0 Z " fill="#B65BFC" transform="translate(112,7)"/>
<path d="M0 0 C2.94721162 2.74395564 5.19168608 5.38337216 7 9 C6.67 9.66 6.34 10.32 6 11 C5.01 11.33 4.02 11.66 3 12 C2.29773859 10.75823305 1.61370891 9.50614401 0.9375 8.25 C0.36322266 7.20585937 0.36322266 7.20585937 -0.22265625 6.140625 C-1.1312406 3.63859372 -0.88336837 2.4667645 0 0 Z " fill="#3A8DDF" transform="translate(16,137)"/>
<path d="M0 0 C0.33 0 0.66 0 1 0 C1 5.61 1 11.22 1 17 C0.34 17 -0.32 17 -1 17 C-1.22126178 14.54220024 -1.42750395 12.08472352 -1.625 9.625 C-1.68945312 8.92632812 -1.75390625 8.22765625 -1.8203125 7.5078125 C-1.96119739 5.67630889 -1.98761659 3.83687252 -2 2 C-1.34 1.34 -0.68 0.68 0 0 Z " fill="#5E69E3" transform="translate(8,92)"/>
<path d="M0 0 C0.66 0.33 1.32 0.66 2 1 C1.61479436 3.53910197 1.29902057 4.72751123 -0.62890625 6.484375 C-1.26699219 6.90203125 -1.90507812 7.3196875 -2.5625 7.75 C-3.20316406 8.17796875 -3.84382812 8.6059375 -4.50390625 9.046875 C-5.24447266 9.51867187 -5.24447266 9.51867187 -6 10 C-6.33 8.35 -6.66 6.7 -7 5 C-4.69 3.35 -2.38 1.7 0 0 Z " fill="#3D87DC" transform="translate(159,168)"/>
<path d="M0 0 C0.66 1.32 1.32 2.64 2 4 C2.66 2.68 3.32 1.36 4 0 C3.93976735 1.60520004 3.85091401 3.20934327 3.75 4.8125 C3.70359375 5.70582031 3.6571875 6.59914063 3.609375 7.51953125 C3 10 3 10 0.953125 11.82421875 C-0.01367188 12.40623047 -0.01367188 12.40623047 -1 13 C-1.07654536 8.48382401 -1.10228696 4.40914783 0 0 Z " fill="#5A54C6" transform="translate(7,81)"/>
<path d="M0 0 C8.25 0 16.5 0 25 0 C25 0.66 25 1.32 25 2 C21.51965238 2.8700869 19.42190558 2.90387676 16 2 C13.24682026 1.77609683 10.50694671 1.58606338 7.75 1.4375 C7.00492187 1.39431641 6.25984375 1.35113281 5.4921875 1.30664062 C3.661651 1.20103275 1.83084824 1.10005799 0 1 C0 0.67 0 0.34 0 0 Z " fill="#259CD7" transform="translate(92,190)"/>
<path d="M0 0 C6.63934426 3.19672131 6.63934426 3.19672131 8.375 7.0625 C8.58125 8.031875 8.7875 9.00125 9 10 C9.33 10.99 9.66 11.98 10 13 C9.01 13.495 9.01 13.495 8 14 C6.85018626 12.23174858 5.70528078 10.46030479 4.5625 8.6875 C3.92441406 7.70136719 3.28632812 6.71523438 2.62890625 5.69921875 C1 3 1 3 0 0 Z " fill="#182031" transform="translate(106,31)"/>
<path d="M0 0 C-1.31224548 3.93673644 -2.91910327 6.22719294 -6 9 C-6.99 8.34 -7.98 7.68 -9 7 C-3.65789474 0 -3.65789474 0 0 0 Z " fill="#4F72DB" transform="translate(178,151)"/>
<path d="M0 0 C1.32 0.33 2.64 0.66 4 1 C4.33 1.66 4.66 2.32 5 3 C3.71475739 3.86380259 2.42157581 4.71580369 1.125 5.5625 C0.40570313 6.03816406 -0.31359375 6.51382813 -1.0546875 7.00390625 C-1.69664063 7.33261719 -2.33859375 7.66132813 -3 8 C-3.66 7.67 -4.32 7.34 -5 7 C-3.35 4.69 -1.7 2.38 0 0 Z " fill="#192131" transform="translate(113,159)"/>
<path d="M0 0 C2.37339853 1.85744232 2.9940468 2.97847688 3.8125 5.9375 C4.00613718 9.10024068 3.70401547 10.39385869 2 13 C-0.24828052 8.50343896 -0.16682272 4.92127034 0 0 Z " fill="#8C59E5" transform="translate(188,75)"/>
<path d="M0 0 C3.37503669 1.1858237 5.64722731 2.27573689 8 5 C5.6875 5.625 5.6875 5.625 3 6 C2.01 5.34 1.02 4.68 0 4 C0 2.68 0 1.36 0 0 Z " fill="#A955ED" transform="translate(148,20)"/>
<path d="M0 0 C0.825 0.495 1.65 0.99 2.5 1.5 C6.75488188 3.32352081 9.42308671 3.23673689 14 3 C13.67 3.99 13.34 4.98 13 6 C5.78287462 6.48929664 5.78287462 6.48929664 2 4.125 C0 2 0 2 0 0 Z " fill="#1D2632" transform="translate(91,135)"/>
<path d="M0 0 C4.84455959 2.37823834 4.84455959 2.37823834 7 4 C7.9375 6.75 7.9375 6.75 8 9 C7.01 9.495 7.01 9.495 6 10 C4.99421411 8.71283353 3.99553202 7.42011342 3 6.125 C2.443125 5.40570313 1.88625 4.68640625 1.3125 3.9453125 C0 2 0 2 0 0 Z " fill="#1A2131" transform="translate(62,118)"/>
<path d="M0 0 C1.98 0.66 3.96 1.32 6 2 C5.01 2.495 5.01 2.495 4 3 C3.67 3.99 3.34 4.98 3 6 C1.02 5.01 -0.96 4.02 -3 3 C-2.01 2.01 -1.02 1.02 0 0 Z " fill="#9FDC3B" transform="translate(78,160)"/>
<path d="M0 0 C0.66 0 1.32 0 2 0 C2 1.98 2 3.96 2 6 C1.34 6 0.68 6 0 6 C-0.33 7.65 -0.66 9.3 -1 11 C-1.33 11 -1.66 11 -2 11 C-2.28571429 3.57142857 -2.28571429 3.57142857 0 0 Z " fill="#6E60E3" transform="translate(10,75)"/>
<path d="M0 0 C0.66 0.33 1.32 0.66 2 1 C1.34 2.32 0.68 3.64 0 5 C-2.64 5 -5.28 5 -8 5 C-6.35197949 1.70395897 -3.32254422 1.22409524 0 0 Z " fill="#2FA8ED" transform="translate(130,185)"/>
<path d="M0 0 C1.09658936 3.28976808 0.79953138 4.71303767 0 8 C-1.32 8 -2.64 8 -4 8 C-3.50168276 4.31245243 -2.89932357 2.39509338 0 0 Z " fill="#675EDD" transform="translate(189,125)"/>
<path d="M0 0 C3.69790046 1.23263349 3.9354846 2.20052451 5.6875 5.5625 C6.12449219 6.38878906 6.56148438 7.21507813 7.01171875 8.06640625 C7.33785156 8.70449219 7.66398437 9.34257813 8 10 C7.01 10 6.02 10 5 10 C3.61328125 8.3203125 3.61328125 8.3203125 2.3125 6.125 C1.87550781 5.40570313 1.43851562 4.68640625 0.98828125 3.9453125 C0 2 0 2 0 0 Z " fill="#151C31" transform="translate(120,65)"/>
<path d="M0 0 C2.00240549 0.31856451 4.00211562 0.65421232 6 1 C7.66627298 1.03622333 9.33405374 1.04899842 11 1 C9.375 2.5625 9.375 2.5625 7 4 C3.32706204 3.77962372 1.63033454 3.63033454 -1 1 C-0.67 0.67 -0.34 0.34 0 0 Z " fill="#192231" transform="translate(95,118)"/>
<path d="M0 0 C-0.99 0.33 -1.98 0.66 -3 1 C-1.68 1.66 -0.36 2.32 1 3 C-3.455 3.495 -3.455 3.495 -8 4 C-7.67 2.68 -7.34 1.36 -7 0 C-3.86650268 -1.04449911 -3.01031744 -0.93423645 0 0 Z " fill="#9249D0" transform="translate(77,10)"/>
<path d="M0 0 C1.32 0.33 2.64 0.66 4 1 C4 1.66 4 2.32 4 3 C4.969375 3.12375 5.93875 3.2475 6.9375 3.375 C8.4534375 3.684375 8.4534375 3.684375 10 4 C10.33 4.66 10.66 5.32 11 6 C6.64477147 5.49357808 3.55760365 4.61588503 0 2 C0 1.34 0 0.68 0 0 Z " fill="#161D31" transform="translate(82,111)"/>
<path d="M0 0 C-0.33 0.99 -0.66 1.98 -1 3 C-3.31 3.33 -5.62 3.66 -8 4 C-5.97675095 -0.48005146 -4.79569304 -1.43870791 0 0 Z " fill="#A553E8" transform="translate(71,12)"/>
<path d="M0 0 C0 3 0 3 -2.5 5.6875 C-3.325 6.450625 -4.15 7.21375 -5 8 C-5.66 6.68 -6.32 5.36 -7 4 C-4.69 2.68 -2.38 1.36 0 0 Z " fill="#233032" transform="translate(137,118)"/>
<path d="M0 0 C0.66 0.66 1.32 1.32 2 2 C1.67 2.99 1.34 3.98 1 5 C1.99 5.33 2.98 5.66 4 6 C4 6.33 4 6.66 4 7 C2.35 7 0.7 7 -1 7 C-1.625 5.1875 -1.625 5.1875 -2 3 C-1.34 2.01 -0.68 1.02 0 0 Z " fill="#182031" transform="translate(60,94)"/>
<path d="M0 0 C-3.3 0.66 -6.6 1.32 -10 2 C-10.33 1.34 -10.66 0.68 -11 0 C-3.375 -2.25 -3.375 -2.25 0 0 Z M-13 2 C-10 3 -10 3 -10 3 Z " fill="#0F1537" transform="translate(133,191)"/>
<path d="M0 0 C1.32 0.99 2.64 1.98 4 3 C4.33 2.01 4.66 1.02 5 0 C5.66 0.66 6.32 1.32 7 2 C6.01 3.32 5.02 4.64 4 6 C2.68 5.34 1.36 4.68 0 4 C0 2.68 0 1.36 0 0 Z " fill="#151C31" transform="translate(97,164)"/>
<path d="M0 0 C2.6486859 3.19668988 4.93992341 6.39486597 7 10 C6.01 10.495 6.01 10.495 5 11 C4.15504811 9.92570402 3.32445142 8.84010798 2.5 7.75 C2.0359375 7.14671875 1.571875 6.5434375 1.09375 5.921875 C0 4 0 4 0 0 Z " fill="#141A31" transform="translate(71,128)"/>
<path d="M0 0 C0.95465783 2.16967689 1.14401212 3.56328793 0.3984375 5.82421875 C-0.35870385 7.5684743 -1.17609198 9.28627131 -2 11 C-2.95465783 8.83032311 -3.14401212 7.43671207 -2.3984375 5.17578125 C-1.64129615 3.4315257 -0.82390802 1.71372869 0 0 Z " fill="#7662EA" transform="translate(191,114)"/>
<path d="M0 0 C0.66 0.33 1.32 0.66 2 1 C1.6875 2.9375 1.6875 2.9375 1 5 C0.01 5.33 -0.98 5.66 -2 6 C-2.33 4.68 -2.66 3.36 -3 2 C-2.01 1.34 -1.02 0.68 0 0 Z " fill="#3B91E4" transform="translate(151,174)"/>
<path d="M0 0 C0.625 1.875 0.625 1.875 1 4 C0.34 4.66 -0.32 5.32 -1 6 C-1.33 5.01 -1.66 4.02 -2 3 C-4.01508358 2.26676204 -4.01508358 2.26676204 -6 2 C-2.25 0 -2.25 0 0 0 Z " fill="#141931" transform="translate(131,123)"/>
<path d="M0 0 C0.66 0.33 1.32 0.66 2 1 C1.67 2.65 1.34 4.3 1 6 C-0.32 5.67 -1.64 5.34 -3 5 C-2.625 3.0625 -2.625 3.0625 -2 1 C-1.34 0.67 -0.68 0.34 0 0 Z " fill="#ABED3D" transform="translate(88,42)"/>
<path d="M0 0 C2 3 2 3 1.75 5.5 C1 8 1 8 -1 11 C-1.625 8.625 -1.625 8.625 -2 6 C-1.34 5.34 -0.68 4.68 0 4 C0 2.68 0 1.36 0 0 Z " fill="#3A6ABC" transform="translate(12,122)"/>
<path d="M0 0 C2 3 2 3 1.625 5.1875 C1.41875 5.785625 1.2125 6.38375 1 7 C0.67 6.34 0.34 5.68 0 5 C-0.66 5.66 -1.32 6.32 -2 7 C-2.33 5.02 -2.66 3.04 -3 1 C-2.01 1.495 -2.01 1.495 -1 2 C-0.67 1.34 -0.34 0.68 0 0 Z " fill="#7E4CCB" transform="translate(189,71)"/>
<path d="M0 0 C1.65 0 3.3 0 5 0 C4.34 1.98 3.68 3.96 3 6 C2.34 5.34 1.68 4.68 1 4 C0.01 4.495 0.01 4.495 -1 5 C-0.67 3.35 -0.34 1.7 0 0 Z " fill="#6B50C8" transform="translate(14,60)"/>
<path d="M0 0 C5.53846154 0.61538462 5.53846154 0.61538462 7.875 2.5625 C8.431875 3.2740625 8.431875 3.2740625 9 4 C8.01 4.33 7.02 4.66 6 5 C2.8125 3.125 2.8125 3.125 0 1 C0 0.67 0 0.34 0 0 Z " fill="#161D31" transform="translate(102,23)"/>
<path d="M0 0 C0.33 0.66 0.66 1.32 1 2 C2.32796291 2.35412344 3.66216607 2.68521554 5 3 C5.99 3.66 6.98 4.32 8 5 C7.01 5.33 6.02 5.66 5 6 C1.8125 4.0625 1.8125 4.0625 -1 2 C-0.67 1.34 -0.34 0.68 0 0 Z " fill="#171E31" transform="translate(51,100)"/>
<path d="M0 0 C0.66 0 1.32 0 2 0 C0.66666667 2.66666667 -0.66666667 5.33333333 -2 8 C-2.66 7.34 -3.32 6.68 -4 6 C-2.7260411 3.96166576 -1.38938077 1.96147874 0 0 Z " fill="#151C31" transform="translate(73,73)"/>
<path d="M0 0 C0.66 0 1.32 0 2 0 C2.66 1.32 3.32 2.64 4 4 C3.34 4.66 2.68 5.32 2 6 C2 5.34 2 4.68 2 4 C1.01 4.33 0.02 4.66 -1 5 C-1 2 -1 2 0 0 Z " fill="#1E2731" transform="translate(99,30)"/>
<path d="M0 0 C2.31 0.33 4.62 0.66 7 1 C7 1.33 7 1.66 7 2 C4.69 1.67 2.38 1.34 0 1 C0 0.67 0 0.34 0 0 Z " fill="#00001F" transform="translate(72,198)"/>
<path d="M0 0 C0.33 0 0.66 0 1 0 C0.67 2.31 0.34 4.62 0 7 C-1.04449911 3.86650268 -0.93423645 3.01031744 0 0 Z " fill="#00001F" transform="translate(199,121)"/>
<path d="M0 0 C1 3 1 3 0.0625 5.1875 C-0.4634375 6.0846875 -0.4634375 6.0846875 -1 7 C-0.67 4.69 -0.34 2.38 0 0 Z " fill="#00002A" transform="translate(1,72)"/>
<path d="M0 0 C2.31 0.33 4.62 0.66 7 1 C4 2 4 2 1.8125 1.0625 C1.214375 0.711875 0.61625 0.36125 0 0 Z " fill="#00002A" transform="translate(121,0)"/>
<path d="M0 0 C2.475 0.495 2.475 0.495 5 1 C4.01 1.33 3.02 1.66 2 2 C1.34 1.34 0.68 0.68 0 0 Z " fill="#000018" transform="translate(60,194)"/>
<path d="M0 0 C1.98 0.99 1.98 0.99 4 2 C3.01 2 2.02 2 1 2 C0.67 1.34 0.34 0.68 0 0 Z " fill="#00000A" transform="translate(33,177)"/>
<path d="M0 0 C0 0.99 0 1.98 0 3 C-0.99 3.495 -0.99 3.495 -2 4 C-1.34 2.68 -0.68 1.36 0 0 Z " fill="#00000A" transform="translate(179,163)"/>
<path d="M0 0 C0.33 0.99 0.66 1.98 1 3 C0.34 3.66 -0.32 4.32 -1 5 C-0.67 3.35 -0.34 1.7 0 0 Z " fill="#000018" transform="translate(195,135)"/>
<path d="M0 0 C0.33 0.99 0.66 1.98 1 3 C0.34 3.66 -0.32 4.32 -1 5 C-0.67 3.35 -0.34 1.7 0 0 Z " fill="#000018" transform="translate(5,60)"/>
<path d="M0 0 C0 0.99 0 1.98 0 3 C-0.99 3.495 -0.99 3.495 -2 4 C-1.34 2.68 -0.68 1.36 0 0 Z " fill="#00000A" transform="translate(22,33)"/>
<path d="M0 0 C1.98 0.99 1.98 0.99 4 2 C3.01 2 2.02 2 1 2 C0.67 1.34 0.34 0.68 0 0 Z " fill="#00000A" transform="translate(163,20)"/>
<path d="M0 0 C2.475 0.495 2.475 0.495 5 1 C4.01 1.33 3.02 1.66 2 2 C1.34 1.34 0.68 0.68 0 0 Z " fill="#000018" transform="translate(135,4)"/>
<path d="M0 0 C0.66 0.33 1.32 0.66 2 1 C1.01 1 0.02 1 -1 1 C-0.67 0.67 -0.34 0.34 0 0 Z " fill="#000000" transform="translate(156,184)"/>
<path d="M0 0 C0.66 0.33 1.32 0.66 2 1 C1.01 1 0.02 1 -1 1 C-0.67 0.67 -0.34 0.34 0 0 Z " fill="#000015" transform="translate(165,177)"/>
<path d="M0 0 C0.99 0.495 0.99 0.495 2 1 C1.67 1.66 1.34 2.32 1 3 C0.67 2.01 0.34 1.02 0 0 Z " fill="#000015" transform="translate(21,164)"/>
<path d="M0 0 C0.99 0.495 0.99 0.495 2 1 C1.67 1.66 1.34 2.32 1 3 C0.67 2.01 0.34 1.02 0 0 Z " fill="#000000" transform="translate(14,155)"/>
<path d="M0 0 C0.99 0.495 0.99 0.495 2 1 C1.67 1.66 1.34 2.32 1 3 C0.67 2.01 0.34 1.02 0 0 Z " fill="#000000" transform="translate(184,42)"/>
<path d="M0 0 C0.99 0.495 0.99 0.495 2 1 C1.67 1.66 1.34 2.32 1 3 C0.67 2.01 0.34 1.02 0 0 Z " fill="#000015" transform="translate(177,33)"/>
<path d="M0 0 C0.66 0.33 1.32 0.66 2 1 C1.01 1 0.02 1 -1 1 C-0.67 0.67 -0.34 0.34 0 0 Z " fill="#000015" transform="translate(34,21)"/>
<path d="M0 0 C0.66 0.33 1.32 0.66 2 1 C1.01 1 0.02 1 -1 1 C-0.67 0.67 -0.34 0.34 0 0 Z " fill="#000000" transform="translate(43,14)"/>
<path d="M0 0 C3 1 3 1 3 1 Z " fill="#000023" transform="translate(122,199)"/>
<path d="M0 0 C3 1 3 1 3 1 Z " fill="#000042" transform="translate(125,198)"/>
<path d="M0 0 C3 1 3 1 3 1 Z " fill="#00001C" transform="translate(128,197)"/>
<path d="M0 0 C3 1 3 1 3 1 Z " fill="#00001C" transform="translate(69,197)"/>
<path d="M0 0 C3 1 3 1 3 1 Z " fill="#000015" transform="translate(135,195)"/>
<path d="" fill="#000015" transform="translate(0,0)"/>
<path d="" fill="#00001C" transform="translate(0,0)"/>
<path d="" fill="#00001C" transform="translate(0,0)"/>
<path d="" fill="#000042" transform="translate(0,0)"/>
<path d="" fill="#000023" transform="translate(0,0)"/>
<path d="" fill="#000023" transform="translate(0,0)"/>
<path d="" fill="#000042" transform="translate(0,0)"/>
<path d="" fill="#00001C" transform="translate(0,0)"/>
<path d="" fill="#00001C" transform="translate(0,0)"/>
<path d="" fill="#000015" transform="translate(0,0)"/>
<path d="M0 0 C3 1 3 1 3 1 Z " fill="#000015" transform="translate(62,4)"/>
<path d="M0 0 C3 1 3 1 3 1 Z " fill="#00001C" transform="translate(128,2)"/>
<path d="M0 0 C3 1 3 1 3 1 Z " fill="#00001C" transform="translate(69,2)"/>
<path d="M0 0 C3 1 3 1 3 1 Z " fill="#000042" transform="translate(72,1)"/>
<path d="M0 0 C3 1 3 1 3 1 Z " fill="#000023" transform="translate(75,0)"/>
<path d="M0 0 C2 1 2 1 2 1 Z " fill="#000000" transform="translate(133,196)"/>
<path d="M0 0 C2 1 2 1 2 1 Z " fill="#000000" transform="translate(65,196)"/>
<path d="M0 0 C2 1 2 1 2 1 Z " fill="#000019" transform="translate(138,194)"/>
<path d="M0 0 C2 1 2 1 2 1 Z " fill="#000019" transform="translate(140,193)"/>
<path d="M0 0 C2 1 2 1 2 1 Z " fill="#000019" transform="translate(58,193)"/>
<path d="M0 0 C2 1 2 1 2 1 Z " fill="#000000" transform="translate(145,191)"/>
<path d="M0 0 C2 1 2 1 2 1 Z " fill="#00002A" transform="translate(52,190)"/>
<path d="M0 0 C2 1 2 1 2 1 Z " fill="#000020" transform="translate(148,189)"/>
<path d="M0 0 C2 1 2 1 2 1 Z " fill="#000019" transform="translate(50,189)"/>
<path d="M0 0 C2 1 2 1 2 1 Z " fill="#000000" transform="translate(151,187)"/>
<path d="M0 0 C2 1 2 1 2 1 Z " fill="#000000" transform="translate(47,187)"/>
<path d="M0 0 C2 1 2 1 2 1 Z " fill="#000000" transform="translate(153,186)"/>
<path d="M0 0 C2 1 2 1 2 1 Z " fill="#000000" transform="translate(45,186)"/>
<path d="M0 0 C2 1 2 1 2 1 Z " fill="#00002A" transform="translate(42,184)"/>
<path d="M0 0 C2 1 2 1 2 1 Z " fill="#000000" transform="translate(160,181)"/>
<path d="M0 0 C2 1 2 1 2 1 Z " fill="#000000" transform="translate(38,181)"/>
<path d="" fill="#000000" transform="translate(0,0)"/>
<path d="" fill="#000000" transform="translate(0,0)"/>
<path d="" fill="#00002A" transform="translate(0,0)"/>
<path d="" fill="#000000" transform="translate(0,0)"/>
<path d="" fill="#000000" transform="translate(0,0)"/>
<path d="" fill="#000000" transform="translate(0,0)"/>
<path d="" fill="#000000" transform="translate(0,0)"/>
<path d="" fill="#000019" transform="translate(0,0)"/>
<path d="" fill="#000020" transform="translate(0,0)"/>
<path d="" fill="#00002A" transform="translate(0,0)"/>
<path d="" fill="#000000" transform="translate(0,0)"/>
<path d="" fill="#000019" transform="translate(0,0)"/>
<path d="" fill="#000019" transform="translate(0,0)"/>
<path d="" fill="#000019" transform="translate(0,0)"/>
<path d="" fill="#000000" transform="translate(0,0)"/>
<path d="" fill="#000000" transform="translate(0,0)"/>
<path d="" fill="#000000" transform="translate(0,0)"/>
<path d="" fill="#000000" transform="translate(0,0)"/>
<path d="" fill="#000019" transform="translate(0,0)"/>
<path d="" fill="#000019" transform="translate(0,0)"/>
<path d="" fill="#000019" transform="translate(0,0)"/>
<path d="" fill="#000000" transform="translate(0,0)"/>
<path d="" fill="#00002A" transform="translate(0,0)"/>
<path d="" fill="#000020" transform="translate(0,0)"/>
<path d="" fill="#000019" transform="translate(0,0)"/>
<path d="" fill="#000000" transform="translate(0,0)"/>
<path d="" fill="#000000" transform="translate(0,0)"/>
<path d="" fill="#000000" transform="translate(0,0)"/>
<path d="" fill="#000000" transform="translate(0,0)"/>
<path d="" fill="#00002A" transform="translate(0,0)"/>
<path d="" fill="#000000" transform="translate(0,0)"/>
<path d="" fill="#000000" transform="translate(0,0)"/>
<path d="M0 0 C2 1 2 1 2 1 Z " fill="#000000" transform="translate(160,18)"/>
<path d="M0 0 C2 1 2 1 2 1 Z " fill="#000000" transform="translate(38,18)"/>
<path d="M0 0 C2 1 2 1 2 1 Z " fill="#00002A" transform="translate(156,15)"/>
<path d="M0 0 C2 1 2 1 2 1 Z " fill="#000000" transform="translate(153,13)"/>
<path d="M0 0 C2 1 2 1 2 1 Z " fill="#000000" transform="translate(45,13)"/>
<path d="M0 0 C2 1 2 1 2 1 Z " fill="#000000" transform="translate(151,12)"/>
<path d="M0 0 C2 1 2 1 2 1 Z " fill="#000000" transform="translate(47,12)"/>
<path d="M0 0 C2 1 2 1 2 1 Z " fill="#000019" transform="translate(148,10)"/>
<path d="M0 0 C2 1 2 1 2 1 Z " fill="#000020" transform="translate(50,10)"/>
<path d="M0 0 C2 1 2 1 2 1 Z " fill="#00002A" transform="translate(146,9)"/>
<path d="M0 0 C2 1 2 1 2 1 Z " fill="#000000" transform="translate(53,8)"/>
<path d="M0 0 C2 1 2 1 2 1 Z " fill="#000019" transform="translate(140,6)"/>
<path d="M0 0 C2 1 2 1 2 1 Z " fill="#000019" transform="translate(58,6)"/>
<path d="M0 0 C2 1 2 1 2 1 Z " fill="#000019" transform="translate(60,5)"/>
<path d="M0 0 C2 1 2 1 2 1 Z " fill="#000000" transform="translate(133,3)"/>
<path d="M0 0 C2 1 2 1 2 1 Z " fill="#000000" transform="translate(65,3)"/>
<path d="" fill="#000055" transform="translate(0,0)"/>
<path d="" fill="#000055" transform="translate(0,0)"/>
<path d="" fill="#000000" transform="translate(0,0)"/>
<path d="" fill="#000055" transform="translate(0,0)"/>
<path d="" fill="#000033" transform="translate(0,0)"/>
<path d="" fill="#000033" transform="translate(0,0)"/>
<path d="" fill="#000000" transform="translate(0,0)"/>
<path d="" fill="#000040" transform="translate(0,0)"/>
<path d="" fill="#000040" transform="translate(0,0)"/>
<path d="" fill="#000033" transform="translate(0,0)"/>
<path d="" fill="#000033" transform="translate(0,0)"/>
<path d="" fill="#000055" transform="translate(0,0)"/>
<path d="" fill="#000055" transform="translate(0,0)"/>
<path d="" fill="#000033" transform="translate(0,0)"/>
<path d="" fill="#000000" transform="translate(0,0)"/>
<path d="" fill="#000000" transform="translate(0,0)"/>
<path d="" fill="#000000" transform="translate(0,0)"/>
<path d="" fill="#000000" transform="translate(0,0)"/>
<path d="" fill="#000055" transform="translate(0,0)"/>
<path d="" fill="#000040" transform="translate(0,0)"/>
<path d="" fill="#000000" transform="translate(0,0)"/>
<path d="" fill="#000055" transform="translate(0,0)"/>
<path d="" fill="#000000" transform="translate(0,0)"/>
<path d="" fill="#000000" transform="translate(0,0)"/>
<path d="" fill="#000000" transform="translate(0,0)"/>
<path d="" fill="#000000" transform="translate(0,0)"/>
<path d="" fill="#000055" transform="translate(0,0)"/>
<path d="" fill="#000000" transform="translate(0,0)"/>
<path d="" fill="#000040" transform="translate(0,0)"/>
<path d="" fill="#000055" transform="translate(0,0)"/>
<path d="" fill="#000000" transform="translate(0,0)"/>
<path d="" fill="#000000" transform="translate(0,0)"/>
<path d="" fill="#000000" transform="translate(0,0)"/>
<path d="" fill="#000000" transform="translate(0,0)"/>
<path d="" fill="#000033" transform="translate(0,0)"/>
<path d="" fill="#000055" transform="translate(0,0)"/>
<path d="" fill="#000055" transform="translate(0,0)"/>
<path d="" fill="#000033" transform="translate(0,0)"/>
<path d="" fill="#000033" transform="translate(0,0)"/>
<path d="" fill="#000040" transform="translate(0,0)"/>
<path d="" fill="#000040" transform="translate(0,0)"/>
<path d="" fill="#000000" transform="translate(0,0)"/>
<path d="" fill="#000033" transform="translate(0,0)"/>
<path d="" fill="#000033" transform="translate(0,0)"/>
<path d="" fill="#000055" transform="translate(0,0)"/>
<path d="" fill="#000000" transform="translate(0,0)"/>
<path d="" fill="#000055" transform="translate(0,0)"/>
<path d="" fill="#000055" transform="translate(0,0)"/>
<path d="" fill="#000055" transform="translate(0,0)"/>
<path d="" fill="#000055" transform="translate(0,0)"/>
<path d="" fill="#000000" transform="translate(0,0)"/>
<path d="" fill="#000055" transform="translate(0,0)"/>
<path d="" fill="#000033" transform="translate(0,0)"/>
<path d="" fill="#000033" transform="translate(0,0)"/>
<path d="" fill="#000000" transform="translate(0,0)"/>
<path d="" fill="#000040" transform="translate(0,0)"/>
<path d="" fill="#000040" transform="translate(0,0)"/>
<path d="" fill="#000033" transform="translate(0,0)"/>
<path d="" fill="#000033" transform="translate(0,0)"/>
<path d="" fill="#000055" transform="translate(0,0)"/>
<path d="" fill="#000055" transform="translate(0,0)"/>
<path d="" fill="#000033" transform="translate(0,0)"/>
<path d="" fill="#000000" transform="translate(0,0)"/>
<path d="" fill="#000000" transform="translate(0,0)"/>
<path d="" fill="#000000" transform="translate(0,0)"/>
<path d="" fill="#000000" transform="translate(0,0)"/>
<path d="" fill="#000055" transform="translate(0,0)"/>
<path d="" fill="#000040" transform="translate(0,0)"/>
<path d="" fill="#000000" transform="translate(0,0)"/>
<path d="" fill="#000055" transform="translate(0,0)"/>
<path d="" fill="#000000" transform="translate(0,0)"/>
<path d="" fill="#000000" transform="translate(0,0)"/>
<path d="" fill="#000000" transform="translate(0,0)"/>
<path d="" fill="#000000" transform="translate(0,0)"/>
<path d="" fill="#000055" transform="translate(0,0)"/>
<path d="" fill="#000000" transform="translate(0,0)"/>
<path d="" fill="#000040" transform="translate(0,0)"/>
<path d="" fill="#000055" transform="translate(0,0)"/>
<path d="" fill="#000000" transform="translate(0,0)"/>
<path d="" fill="#000000" transform="translate(0,0)"/>
<path d="" fill="#000000" transform="translate(0,0)"/>
<path d="" fill="#000000" transform="translate(0,0)"/>
<path d="" fill="#000033" transform="translate(0,0)"/>
<path d="" fill="#000055" transform="translate(0,0)"/>
<path d="" fill="#000055" transform="translate(0,0)"/>
<path d="" fill="#000033" transform="translate(0,0)"/>
<path d="" fill="#000033" transform="translate(0,0)"/>
<path d="" fill="#000040" transform="translate(0,0)"/>
<path d="" fill="#000040" transform="translate(0,0)"/>
<path d="" fill="#000000" transform="translate(0,0)"/>
<path d="" fill="#000033" transform="translate(0,0)"/>
<path d="" fill="#000033" transform="translate(0,0)"/>
<path d="" fill="#000055" transform="translate(0,0)"/>
<path d="" fill="#000000" transform="translate(0,0)"/>
<path d="" fill="#000055" transform="translate(0,0)"/>
<path d="" fill="#000055" transform="translate(0,0)"/>
</svg>
