<svg width="144" height="144" viewBox="0 0 144 144" fill="none" xmlns="http://www.w3.org/2000/svg">
<path d="M100.345 120.044L100.34 120.041C97.3139 117.384 94.7849 113.957 92.3797 110.195C91.2367 108.407 90.1324 106.562 89.0165 104.697L88.8461 104.412C87.6758 102.457 86.4909 100.484 85.2532 98.5759C80.3166 90.965 74.3547 84.0821 64.273 82.8055L64.272 82.8054C57.9298 82.0076 52.9746 83.5267 48.8978 86.2738C44.8671 88.9897 41.7414 92.8762 38.9675 96.72C38.2488 97.716 37.5569 98.7036 36.8797 99.6702C34.8961 102.502 33.0391 105.152 31.0049 107.302C28.3174 110.142 25.5168 111.883 22.0334 111.883C13.5758 111.883 8.38444 105.788 5.25463 97.519C2.13271 89.271 1.25 79.2664 1.25 72.4315C1.25 65.451 2.2353 57.308 5.09477 50.9592C7.93422 44.6549 12.5098 40.3042 19.736 40.3042C27.677 40.3042 32.0999 45.7961 37.2045 52.1345C37.5463 52.5588 37.891 52.9869 38.2401 53.4174C43.6953 60.1447 50.0589 67.1297 62.2115 66.3548L62.2176 66.3544C74.331 65.5231 80.443 57.4397 85.3037 48.4646C86.4131 46.4161 87.4691 44.2988 88.5163 42.1989C88.6173 41.9965 88.7181 41.7942 88.819 41.5922C89.9699 39.2861 91.1177 37.007 92.3424 34.819C94.7948 30.4377 97.5102 26.5082 101.04 23.5932C106.94 18.7807 117.206 18.7945 126.192 26.0828C135.135 33.3373 142.75 47.8357 142.75 71.6991C142.75 95.2727 135.537 110.595 126.69 118.353C117.864 126.093 107.458 126.347 100.345 120.044Z" fill="url(#paint0_linear_26_80)" stroke="black" stroke-width="2.5"/>
<path d="M11.5 42C13.8333 43 20.4 44.4 28 42" stroke="black" stroke-width="2.5"/>
<path d="M5 49C11.5 51.5 22 53.5 35.5 49" stroke="black" stroke-width="2.5"/>
<path d="M2.5 60C9.16667 62.1667 25.4 65.2 37 60C39.2308 59 45.6667 61.1667 46.5 61.5" stroke="black" stroke-width="2.5"/>
<path d="M1 75.5C9.5 78 25.5 81 37 75.5C53.0176 67.8394 76.0114 76.0114 81.5 81.5C86 86 112.5 95.5 142.5 85" stroke="black" stroke-width="2.5"/>
<path d="M43.5 60C44.3333 66.1667 45.5 80.9 43.5 90.5" stroke="black" stroke-width="2.5"/>
<path d="M60.5 66.5V82.5" stroke="black" stroke-width="2.5"/>
<path d="M73.5 63C72.3333 67.8333 70.7 79.1 73.5 85.5" stroke="black" stroke-width="2.5"/>
<path d="M88.5 43C85.6667 54.1667 81.7 81.9 88.5 103.5" stroke="black" stroke-width="2.5"/>
<path d="M111.5 21C107.833 29.8333 97.5 38 97.5 68.5C97.5 106 102.5 124.5 111.5 124.5" stroke="black" stroke-width="2.5"/>
<path d="M112 21C114.5 30.6667 114 53.9 114 69.5C114 89 114 121 112 125" stroke="black" stroke-width="2.5"/>
<path d="M111.5 21C115.5 21 131.5 44 131.5 68C131.5 94.5 128.5 124.5 113.5 124.5" stroke="black" stroke-width="2.5"/>
<path d="M102 23C105.167 24.8333 113.6 27.4 122 23" stroke="black" stroke-width="2.5"/>
<path d="M97 27.5C101.833 29.6667 114.8 32.7 128 27.5" stroke="black" stroke-width="2.5"/>
<path d="M91 37C97.3333 40.3333 115 45 135 37" stroke="black" stroke-width="2.5"/>
<path d="M87 50C92.3333 54.1667 110.4 60 140 50" stroke="black" stroke-width="2.5"/>
<path d="M75 61.5C75.3333 65.8333 121 74 142.5 65" stroke="black" stroke-width="2.5"/>
<path d="M86.5 96.5C96.5 100.667 121.1 106.5 139.5 96.5" stroke="black" stroke-width="2.5"/>
<path d="M91 108C97.5 111.667 115.4 116.8 135 108" stroke="black" stroke-width="2.5"/>
<path d="M3 90.5C8.66667 93.6667 25.2 97.5 46 87.5" stroke="black" stroke-width="2.5"/>
<path d="M19.5 40C16.8333 45.8333 11.5 60.8 11.5 74C11.5 90.5 11.5 112 20 112" stroke="black" stroke-width="2.5"/>
<path d="M19.5 40.5C22.6667 45.5 29 59.1 29 73.5C29 91.5 28.5 112 20.5 112" stroke="black" stroke-width="2.5"/>
<defs>
<linearGradient id="paint0_linear_26_80" x1="62.5" y1="126" x2="64" y2="19" gradientUnits="userSpaceOnUse">
<stop stop-color="#97FCCB"/>
<stop offset="1" stop-color="#97FBFC"/>
</linearGradient>
</defs>
</svg>
