<svg width="1200" height="1200" viewBox="0 0 1200 1200" fill="none" xmlns="http://www.w3.org/2000/svg">
<g clip-path="url(#clip0_4725_472)">
<rect width="1200" height="1200" rx="600" fill="url(#paint0_linear_4725_472)"/>
<path d="M405.228 259.879C401.108 262.229 394.928 265.749 395.848 265.749H395.858C403.848 270.279 411.638 274.669 419.298 278.989C436.688 288.799 453.358 298.199 469.918 307.779C488.108 318.309 506.268 328.899 524.418 339.479C547.898 353.169 571.388 366.859 594.938 380.429C597.308 381.799 601.688 382.069 603.968 380.779C623.048 369.989 641.988 358.939 660.928 347.899C666.468 344.669 672.008 341.439 677.548 338.209C684.708 334.039 691.868 329.869 699.028 325.699C716.558 315.479 734.088 305.269 751.668 295.129C759.368 290.699 767.128 286.349 774.878 281.999C782.228 277.879 789.578 273.749 796.888 269.559C802.828 266.159 802.538 265.099 796.218 261.409C785.608 255.229 775.048 248.979 764.578 242.579C753.758 235.979 741.818 234.329 731.018 240.119C702.378 255.489 673.968 271.269 645.548 287.059C631.338 294.949 617.138 302.839 602.898 310.679C601.218 311.609 598.318 312.239 596.878 311.429C579.418 301.629 562.008 291.759 544.588 281.889C520.908 268.469 497.228 255.049 473.448 241.809C462.348 235.619 450.288 234.259 438.518 240.789C430.018 245.499 421.618 250.379 413.208 255.259C411.258 256.389 409.308 257.519 407.358 258.649C406.778 258.989 406.038 259.409 405.218 259.869L405.228 259.879Z" fill="url(#paint1_linear_4725_472)"/>
<path d="M600.148 398.099C595.128 398.099 590.258 396.779 586.718 394.739C563.708 381.479 540.578 367.999 518.158 354.929L517.208 354.689L515.298 353.259C497.718 343.009 479.548 332.419 461.658 322.059C445.288 312.589 428.898 303.339 411.558 293.559L411.198 293.359C403.748 289.159 396.168 284.879 388.408 280.489C384.258 278.409 381.048 274.629 379.808 269.939C379.098 267.249 377.538 257.959 387.408 251.279C388.208 250.739 389.198 250.109 390.528 249.319C392.528 248.119 394.928 246.749 396.898 245.629L397.058 245.539C397.888 245.069 398.568 244.679 399.118 244.359L405.378 240.729C413.568 235.979 422.038 231.069 430.538 226.349C446.428 217.539 464.538 217.909 481.518 227.389C505.348 240.669 529.418 254.309 552.708 267.499L553.038 267.689C568.198 276.279 583.818 285.129 599.298 293.839C612.278 286.679 625.108 279.549 637.568 272.629C665.548 257.089 694.478 241.019 723.248 225.579C738.538 217.379 756.738 218.449 773.198 228.489C782.618 234.239 792.878 240.339 804.548 247.139C808.828 249.629 817.728 254.819 817.688 265.769C817.648 276.669 808.548 281.889 805.128 283.849C797.688 288.129 790.208 292.319 782.978 296.369L782.628 296.559C775.148 300.749 767.428 305.079 759.928 309.409C742.438 319.499 724.828 329.759 707.778 339.689L707.348 339.939C700.188 344.109 693.018 348.289 685.858 352.459C680.318 355.679 674.788 358.909 669.258 362.129L668.798 362.399C650.308 373.179 631.208 384.329 612.108 395.129C608.438 397.209 604.248 398.079 600.148 398.079V398.099ZM531.568 324.549L532.748 325.239C554.668 338.019 577.288 351.209 599.798 364.199C617.558 354.109 635.358 343.729 652.618 333.659L653.078 333.389C658.468 330.249 663.858 327.099 669.258 323.959C676.278 319.879 683.288 315.789 690.298 311.709L690.728 311.459C707.938 301.429 725.728 291.069 743.438 280.849C751.228 276.359 759.158 271.919 766.818 267.619L767.168 267.429C768.308 266.789 769.468 266.139 770.618 265.489C765.508 262.449 760.658 259.519 755.998 256.679C749.518 252.719 743.738 252.049 738.838 254.679C710.288 269.999 681.458 286.009 653.588 301.499C639.708 309.209 625.368 317.179 610.888 325.149C605.498 328.139 596.458 330.119 588.828 325.829C571.478 316.089 553.878 306.119 536.868 296.469L536.398 296.199C513.178 283.039 489.168 269.439 465.458 256.219C456.208 251.059 450.238 253.179 446.548 255.219C440.618 258.509 434.628 261.939 428.728 265.349C445.798 274.979 461.968 284.109 478.198 293.489C496.018 303.809 514.088 314.339 531.578 324.539L531.568 324.549ZM604.978 297.049C604.978 297.049 604.978 297.049 604.988 297.049C604.988 297.049 604.988 297.049 604.978 297.049Z" fill="url(#paint2_linear_4725_472)"/>
<path d="M570.048 806.049C569.978 815.169 569.918 824.289 569.918 833.409L569.888 833.429H570.148C570.148 842.839 570.188 852.249 570.228 861.659C570.338 886.499 570.438 911.329 569.798 936.139C569.558 945.409 573.068 950.129 580.118 953.959C581.328 954.609 582.528 955.269 583.728 955.929C587.868 958.199 591.998 960.469 596.288 962.399C598.208 963.249 601.178 963.469 602.958 962.559C606.068 960.989 609.068 959.209 612.068 957.429C615.358 955.479 618.648 953.519 622.068 951.849C627.718 949.099 629.248 945.339 629.398 939.079C630.058 910.649 629.728 882.209 629.398 853.769C628.828 804.839 628.268 755.919 632.718 707.079C633.408 699.489 634.238 691.729 636.458 684.499C641.628 667.599 647.238 650.799 653.478 634.269C664.998 603.759 682.738 577.009 703.828 552.249C725.428 526.889 750.278 505.549 779.088 488.829C789.208 482.949 799.328 477.059 809.438 471.169H809.468V471.149C826.588 461.179 843.698 451.219 860.838 441.289C890.008 424.389 919.198 407.529 948.448 390.749C951.928 388.739 953.738 387.209 953.738 382.199C953.608 378.509 953.638 374.809 953.668 371.119C953.708 366.319 953.748 361.509 953.438 356.729C953.258 354.119 951.188 350.819 948.978 349.329C942.998 345.309 936.588 341.849 930.078 338.709C927.738 337.589 923.958 336.849 921.988 337.959C905.748 347.169 889.628 356.569 873.498 365.969C865.308 370.739 857.118 375.509 848.918 380.259C840.218 385.299 831.478 390.279 822.748 395.249C805.988 404.799 789.238 414.349 772.718 424.309L770.808 425.469C750.888 437.489 730.878 449.569 712.268 463.449C689.748 480.259 670.058 500.349 652.398 522.429C632.258 547.599 614.868 574.289 602.498 604.129C602.048 605.209 600.538 606.559 599.608 606.499C598.628 606.439 597.538 604.949 596.928 603.849C596.638 603.319 596.548 602.669 596.448 602.009C596.368 601.399 596.278 600.779 596.028 600.259C580.998 569.119 562.908 539.939 540.178 513.769C508.888 477.719 471.838 449.309 429.988 426.199C396.528 407.719 363.568 388.319 330.618 368.929C313.188 358.669 295.748 348.409 278.238 338.279C276.048 337.019 272.178 336.739 269.958 337.799C263.268 341.029 256.788 344.809 250.708 349.079C248.358 350.729 246.158 354.189 245.958 356.979C245.338 365.419 245.278 373.989 245.968 382.439C246.258 385.989 248.618 389.159 251.168 390.659C262.388 397.279 273.728 403.719 285.068 410.149C293.738 415.069 302.398 419.989 311.018 424.989C324.008 432.529 336.938 440.169 349.878 447.799C371.828 460.759 393.778 473.709 415.988 486.219C454.278 507.769 485.738 536.929 511.618 571.899C536.728 605.849 553.798 644.069 563.038 685.239C567.138 703.459 568.968 722.439 569.608 741.139C570.348 762.739 570.188 784.369 570.028 805.999L570.048 806.049Z" fill="url(#paint3_linear_4725_472)"/>
<path d="M600.118 979.639C596.068 979.639 592.308 978.699 589.578 977.479C584.638 975.259 580.138 972.789 575.788 970.399L574.918 969.919C574.038 969.429 573.148 968.949 572.258 968.469C559.108 961.329 552.908 950.619 553.298 935.709C553.938 911.119 553.828 886.009 553.718 861.719C553.678 852.279 553.638 842.849 553.638 833.409H566.048L553.418 833.399C553.418 824.409 553.488 815.299 553.548 806.489V805.919C553.708 784.839 553.868 763.039 553.138 741.739C552.438 721.589 550.418 704.299 546.958 688.889C538.098 649.389 521.748 613.349 498.368 581.739C472.948 547.389 442.518 520.099 407.918 500.629C385.588 488.059 363.228 474.859 341.608 462.099L341.188 461.849C328.598 454.419 315.588 446.739 302.758 439.289C294.178 434.309 285.418 429.339 276.948 424.529L276.838 424.469C265.668 418.129 254.118 411.569 242.808 404.899C235.338 400.509 230.248 392.419 229.548 383.809C228.828 374.939 228.818 365.519 229.518 355.809C230.098 348.099 234.708 340.179 241.258 335.589C247.958 330.869 255.218 326.619 262.808 322.959C269.948 319.529 279.448 319.959 286.478 323.999C304.138 334.209 321.858 344.639 338.998 354.729C371.318 373.749 404.718 393.409 437.978 411.779C483.878 437.129 521.388 466.959 552.648 502.979C570.218 523.209 585.748 545.769 599.788 571.469C610.258 551.899 623.408 532.299 639.538 512.139C659.488 487.199 680.048 466.949 702.408 450.249C721.668 435.879 742.318 423.419 762.288 411.359L764.198 410.209C780.858 400.169 797.938 390.429 814.458 381.009L814.588 380.939C823.128 376.069 831.968 371.039 840.658 365.999C848.848 361.259 857.028 356.499 865.198 351.729C881.118 342.449 897.538 332.879 913.848 323.629C921.618 319.239 931.018 320.869 937.228 323.859C945.298 327.749 952.148 331.599 958.178 335.649C964.668 340.019 969.368 348.029 969.898 355.599C970.258 361.029 970.208 366.209 970.168 371.219C970.138 374.699 970.108 378.259 970.228 381.629V382.209C970.228 397.229 960.398 402.909 956.698 405.049C930.638 419.989 902.818 436.029 869.098 455.569C852.318 465.289 835.558 475.049 818.798 484.809L817.728 485.429C807.608 491.319 797.488 497.209 787.358 503.099C761.078 518.359 737.198 538.499 716.378 562.949C694.198 588.999 678.668 614.229 668.898 640.099C663.168 655.289 657.708 671.389 652.218 689.339C650.468 695.019 649.768 701.679 649.138 708.579C644.768 756.569 645.338 805.879 645.888 853.559C646.218 881.699 646.548 910.759 645.888 939.469C645.778 944.269 645.428 958.849 629.268 966.699C626.488 968.059 623.578 969.779 620.508 971.609C617.268 973.529 613.988 975.479 610.388 977.299C607.048 978.979 603.478 979.629 600.108 979.629L600.118 979.639ZM592.698 942.039C595.038 943.319 597.298 944.549 599.528 945.679C600.848 944.919 602.198 944.119 603.588 943.299C606.598 941.509 609.648 939.699 612.928 937.999C613.558 910.099 613.228 881.579 612.908 853.989C612.348 805.449 611.768 755.279 616.288 705.609C617.048 697.259 618.008 688.379 620.678 679.689C626.378 661.079 632.058 644.329 638.038 628.469C649.168 598.989 666.578 570.569 691.268 541.579C714.528 514.269 741.278 491.729 770.798 474.589C780.778 468.789 790.748 462.989 800.718 457.179L802.198 456.319C818.978 446.549 835.758 436.779 852.558 427.049C884.988 408.259 911.978 392.689 937.148 378.249C937.128 375.729 937.148 373.279 937.168 371.019C937.198 367.659 937.218 364.449 937.128 361.359C933.718 359.219 929.908 357.099 925.598 354.939C910.948 363.289 896.178 371.899 881.848 380.249C873.618 385.049 865.408 389.829 857.198 394.589C848.408 399.679 839.528 404.739 830.938 409.639L830.808 409.709C814.458 419.029 797.558 428.659 781.258 438.489L779.358 439.639C760.058 451.289 740.108 463.329 722.158 476.719C702.078 491.709 683.488 510.049 665.308 532.779C643.908 559.519 628.358 584.939 617.758 610.499C614.988 617.159 607.518 623.599 598.568 623.019C591.968 622.609 586.248 618.659 582.508 611.889C581.208 609.519 580.638 607.319 580.348 605.769C564.968 574.239 547.758 547.699 527.738 524.639C499.058 491.599 464.478 464.139 422.028 440.699C388.378 422.109 354.768 402.339 322.278 383.219C306.288 373.809 289.798 364.109 273.408 354.599C269.538 356.629 265.798 358.859 262.238 361.249C261.918 367.049 261.908 372.689 262.218 378.059C272.468 384.069 282.968 390.029 293.148 395.809L293.238 395.859C301.788 400.709 310.618 405.729 319.328 410.779C332.258 418.289 345.318 425.999 357.958 433.459L358.678 433.889C380.128 446.549 402.208 459.579 424.108 471.909C462.788 493.679 496.698 524.039 524.898 562.149C551.028 597.469 569.278 637.689 579.158 681.689C583.078 699.119 585.348 718.409 586.118 740.639C586.868 762.619 586.708 784.769 586.548 806.189V806.759C586.518 810.119 586.498 813.519 586.468 816.939H586.638V833.439C586.638 842.829 586.678 852.219 586.718 861.599C586.828 886.129 586.938 911.489 586.288 936.579C586.268 937.539 586.318 938.139 586.368 938.459C586.628 938.659 587.118 938.999 587.978 939.469C589.028 940.039 590.088 940.619 591.148 941.199L592.678 942.039H592.698ZM581.178 607.439C581.178 607.439 581.208 607.499 581.218 607.519C581.208 607.489 581.188 607.459 581.178 607.439ZM259.568 376.469C259.568 376.469 259.628 376.499 259.658 376.519C259.628 376.499 259.598 376.479 259.568 376.469ZM260.358 362.519C260.358 362.519 260.278 362.579 260.228 362.609C260.268 362.579 260.308 362.549 260.358 362.519Z" fill="url(#paint4_linear_4725_472)"/>
<path d="M747.338 879.559C746.578 881.479 745.718 788.329 747.808 743.959C749.758 702.469 764.448 664.889 791.288 632.149C809.548 609.889 832.478 594.379 856.858 580.259C865.418 575.299 873.968 570.339 882.528 565.379L882.588 565.349C904.718 552.519 926.858 539.689 949.008 526.889C949.638 526.519 950.388 526.359 951.448 526.119C951.558 526.089 951.678 526.069 951.808 526.039C952.778 525.819 953.718 526.549 953.718 527.539C953.718 531.519 953.758 535.469 953.788 539.379C953.878 550.729 953.958 561.839 953.488 572.939C953.248 578.509 951.598 584.809 948.438 589.229C944.358 594.929 938.688 600.019 932.688 603.689C923.248 609.469 913.638 614.989 904.028 620.509C889.718 628.729 875.418 636.939 861.678 645.999C837.348 662.049 821.328 685.059 812.388 713.079C808.018 726.739 806.278 740.459 806.448 754.669C806.558 764.429 806.508 774.189 806.448 783.949C806.388 795.429 806.328 806.919 806.528 818.399C806.858 837.359 787.078 855.959 782.078 859.439C779.988 860.899 778.538 861.959 777.328 862.859C772.458 866.439 771.338 867.269 747.348 879.529H747.328L747.338 879.559Z" fill="url(#paint5_linear_4725_472)"/>
<path d="M760.358 891.459C758.898 892.159 757.378 893.009 755.958 893.829C752.308 895.939 748.008 896.609 743.888 895.729H743.818C741.778 895.279 731.578 892.429 730.698 879.639C730.638 878.819 730.588 877.629 730.528 876.089C730.438 873.369 730.348 869.559 730.268 864.769C730.108 854.769 730.008 841.779 729.988 828.189C729.968 811.589 730.048 770.059 731.308 743.179C733.418 698.179 749.308 657.299 778.518 621.679C799.348 596.279 825.618 579.269 848.568 565.979L874.228 551.109C896.418 538.239 918.568 525.409 940.718 512.609C943.528 510.979 946.118 510.399 947.838 510.019C952.348 509.009 957.128 509.579 961.128 511.909C966.818 515.219 970.168 521.109 970.188 527.519C970.188 531.469 970.228 535.379 970.258 539.269V539.339C970.348 550.559 970.438 562.149 969.948 573.659C969.548 583.019 966.588 592.199 961.828 598.849C956.618 606.129 949.318 612.859 941.278 617.779C931.568 623.719 921.728 629.369 912.208 634.839C898.308 642.819 884.018 651.029 870.728 659.799C850.518 673.129 836.168 692.759 828.068 718.119C824.438 729.469 822.758 741.369 822.908 754.509C823.018 764.529 822.968 774.459 822.908 784.069V784.189C822.848 795.349 822.788 806.889 822.988 818.139C823.458 845.149 798.248 868.289 791.468 873.009C789.588 874.319 788.288 875.279 787.138 876.129C781.628 880.189 779.578 881.549 760.388 891.399C760.358 891.409 760.338 891.439 760.328 891.459H760.358ZM937.348 552.699C921.838 561.679 906.348 570.659 890.858 579.639L865.128 594.549C843.708 606.949 821.488 621.359 804.048 642.619C779.438 672.629 766.058 706.989 764.288 744.739C762.958 773.029 762.858 822.519 763.138 852.589C765.028 851.449 766.088 850.679 767.548 849.599C768.858 848.639 770.408 847.489 772.648 845.929C776.898 842.899 790.208 828.939 790.038 818.709C789.828 807.089 789.898 795.359 789.958 784.009V783.879C790.008 774.399 790.058 764.609 789.958 754.869C789.768 738.139 791.958 722.829 796.678 708.069C807.118 675.339 825.938 649.829 852.598 632.239C866.738 622.909 881.478 614.439 895.738 606.249C905.138 600.849 914.778 595.319 924.088 589.619C928.378 586.989 932.368 583.349 935.038 579.629C935.898 578.429 936.888 575.429 937.028 572.229C937.298 565.759 937.378 559.289 937.378 552.689L937.348 552.699ZM957.288 541.169C957.288 541.169 957.248 541.189 957.228 541.199C957.248 541.189 957.268 541.179 957.288 541.169Z" fill="url(#paint6_linear_4725_472)"/>
<path d="M461.988 879.549C437.998 867.289 436.878 866.469 432.008 862.879C430.798 861.989 429.348 860.919 427.258 859.459C422.258 855.979 402.478 837.379 402.808 818.419C403.008 806.939 402.948 795.449 402.888 783.969C402.838 774.209 402.788 764.449 402.888 754.689C403.058 740.469 401.318 726.759 396.948 713.099C388.008 685.079 371.988 662.069 347.658 646.019C333.918 636.959 319.618 628.739 305.308 620.529C295.698 615.009 286.088 609.489 276.648 603.709C270.648 600.039 264.978 594.949 260.898 589.249C257.738 584.829 256.078 578.519 255.848 572.959C255.378 561.869 255.458 550.759 255.548 539.409C255.578 535.489 255.608 531.539 255.618 527.559C255.618 526.569 256.568 525.849 257.528 526.059C257.648 526.089 257.768 526.109 257.888 526.139C258.948 526.379 259.698 526.539 260.328 526.909C282.478 539.709 304.618 552.539 326.748 565.369L326.808 565.399C335.368 570.359 343.918 575.319 352.478 580.279C376.848 594.389 399.788 609.909 418.048 632.169C444.898 664.909 459.578 702.489 461.528 743.979C463.618 788.349 462.758 881.499 461.998 879.579H461.978L461.988 879.549Z" fill="url(#paint7_linear_4725_472)"/>
<path d="M448.988 891.459C448.988 891.459 448.958 891.409 448.928 891.399C429.738 881.549 427.688 880.189 422.178 876.129C421.028 875.279 419.718 874.319 417.848 873.009C411.068 868.289 385.858 845.149 386.328 818.139C386.528 806.889 386.468 795.349 386.408 784.189V784.069C386.358 774.459 386.298 764.519 386.408 754.509C386.558 741.369 384.868 729.469 381.248 718.119C373.158 692.749 358.808 673.129 338.588 659.799C325.298 651.029 311.008 642.819 297.108 634.839C287.588 629.379 277.748 623.719 268.038 617.779C259.998 612.859 252.698 606.129 247.488 598.849C242.728 592.199 239.768 583.019 239.368 573.659C238.878 562.149 238.968 550.559 239.058 539.339V539.269C239.088 535.379 239.118 531.469 239.128 527.519C239.138 521.119 242.498 515.219 248.188 511.909C252.188 509.589 256.968 509.019 261.478 510.019C263.198 510.399 265.788 510.979 268.598 512.609C290.758 525.409 312.898 538.249 335.088 551.109L360.748 565.979C383.698 579.269 409.978 596.279 430.798 621.679C460.008 657.299 475.888 698.179 478.008 743.179C479.268 770.059 479.348 811.579 479.328 828.189C479.308 841.769 479.208 854.759 479.048 864.769C478.968 869.559 478.878 873.369 478.788 876.089C478.738 877.629 478.678 878.829 478.618 879.639C477.748 892.429 467.538 895.269 465.498 895.709H465.428C461.308 896.599 457.008 895.929 453.358 893.819C451.938 892.999 450.418 892.149 448.958 891.449L448.988 891.459ZM272.348 572.239C272.488 575.429 273.478 578.429 274.338 579.639C276.998 583.359 280.988 586.999 285.288 589.629C294.598 595.329 304.238 600.859 313.638 606.259C327.898 614.449 342.638 622.919 356.778 632.249C383.448 649.839 402.258 675.359 412.698 708.079C417.418 722.849 419.618 738.159 419.418 754.879C419.308 764.619 419.358 774.409 419.418 783.889V784.019C419.478 795.359 419.538 807.099 419.338 818.719C419.158 828.949 432.478 842.909 436.728 845.939C438.968 847.499 440.518 848.649 441.828 849.609C443.288 850.689 444.348 851.459 446.238 852.599C446.518 822.539 446.418 773.049 445.088 744.749C443.318 706.999 429.938 672.639 405.328 642.629C387.898 621.369 365.668 606.959 344.248 594.559L318.518 579.649C303.028 570.669 287.538 561.689 272.028 552.709C272.028 559.319 272.108 565.789 272.378 572.249L272.348 572.239ZM252.118 541.199C252.118 541.199 252.078 541.179 252.058 541.169C252.078 541.179 252.098 541.189 252.118 541.199Z" fill="url(#paint8_linear_4725_472)"/>
<g style="mix-blend-mode:plus-darker" filter="url(#filter0_f_4725_472)">
<path d="M68.2276 800.879C64.1076 803.229 57.9276 806.749 58.8476 806.749H58.8576C66.8476 811.279 74.6376 815.669 82.2976 819.989C99.6876 829.799 116.358 839.199 132.918 848.779C151.108 859.309 169.268 869.899 187.418 880.479C210.898 894.169 234.388 907.859 257.938 921.429C260.308 922.799 264.688 923.069 266.968 921.779C286.048 910.989 304.988 899.939 323.928 888.899C329.468 885.669 335.008 882.439 340.548 879.209C347.708 875.039 354.868 870.869 362.028 866.699C379.558 856.479 397.088 846.269 414.668 836.129C422.368 831.699 430.128 827.349 437.878 822.999C445.228 818.879 452.578 814.749 459.888 810.559C465.828 807.159 465.538 806.099 459.218 802.409C448.608 796.229 438.048 789.979 427.578 783.579C416.758 776.979 404.818 775.329 394.018 781.119C365.378 796.489 336.968 812.269 308.548 828.059C294.338 835.949 280.138 843.839 265.898 851.679C264.218 852.609 261.318 853.239 259.878 852.429C242.418 842.629 225.008 832.759 207.588 822.889C183.908 809.469 160.228 796.049 136.448 782.809C125.348 776.619 113.288 775.259 101.518 781.789C93.0176 786.499 84.6176 791.379 76.2076 796.259C74.2576 797.389 72.3076 798.519 70.3576 799.649C69.7776 799.989 69.0376 800.409 68.2176 800.869L68.2276 800.879Z" fill="white"/>
<path d="M263.148 939.099C258.128 939.099 253.258 937.779 249.718 935.739C226.708 922.479 203.578 908.999 181.158 895.929L180.208 895.689L178.298 894.259C160.718 884.009 142.548 873.419 124.658 863.059C108.288 853.589 91.8976 844.339 74.5576 834.559L74.1976 834.359C66.7476 830.159 59.1676 825.879 51.4076 821.489C47.2576 819.409 44.0476 815.629 42.8076 810.939C42.0976 808.249 40.5376 798.959 50.4076 792.279C51.2076 791.739 52.1976 791.109 53.5276 790.319C55.5276 789.119 57.9276 787.749 59.8976 786.629L60.0576 786.539C60.8876 786.069 61.5676 785.679 62.1176 785.359L68.3776 781.729C76.5676 776.979 85.0376 772.069 93.5376 767.349C109.428 758.539 127.538 758.909 144.518 768.389C168.348 781.669 192.418 795.309 215.708 808.499L216.038 808.689C231.198 817.279 246.818 826.129 262.298 834.839C275.278 827.679 288.108 820.549 300.568 813.629C328.548 798.089 357.478 782.019 386.248 766.579C401.538 758.379 419.738 759.449 436.198 769.489C445.618 775.239 455.878 781.339 467.548 788.139C471.828 790.629 480.728 795.819 480.688 806.769C480.648 817.669 471.548 822.889 468.128 824.849C460.688 829.129 453.208 833.319 445.978 837.369L445.628 837.559C438.148 841.749 430.428 846.079 422.928 850.409C405.438 860.499 387.828 870.759 370.778 880.689L370.348 880.939C363.188 885.109 356.018 889.289 348.858 893.459C343.318 896.679 337.788 899.909 332.258 903.129L331.798 903.399C313.308 914.179 294.208 925.329 275.108 936.129C271.438 938.209 267.248 939.079 263.148 939.079V939.099ZM194.568 865.549L195.748 866.239C217.668 879.019 240.288 892.209 262.798 905.199C280.558 895.109 298.358 884.729 315.618 874.659L316.078 874.389C321.468 871.249 326.858 868.099 332.258 864.959C339.278 860.879 346.288 856.789 353.298 852.709L353.728 852.459C370.938 842.429 388.728 832.069 406.438 821.849C414.228 817.359 422.158 812.919 429.818 808.619L430.168 808.429C431.308 807.789 432.468 807.139 433.618 806.489C428.508 803.449 423.658 800.519 418.998 797.679C412.518 793.719 406.738 793.049 401.838 795.679C373.288 810.999 344.458 827.009 316.588 842.499C302.708 850.209 288.368 858.179 273.888 866.149C268.498 869.139 259.458 871.119 251.828 866.829C234.478 857.089 216.878 847.119 199.868 837.469L199.398 837.199C176.178 824.039 152.168 810.439 128.458 797.219C119.208 792.059 113.238 794.179 109.548 796.219C103.618 799.509 97.6276 802.939 91.7276 806.349C108.798 815.979 124.968 825.109 141.198 834.489C159.018 844.809 177.088 855.339 194.578 865.539L194.568 865.549ZM267.978 838.049C267.978 838.049 267.978 838.049 267.988 838.049C267.988 838.049 267.988 838.049 267.978 838.049Z" fill="white"/>
<path d="M233.048 1347.05C232.978 1356.17 232.918 1365.29 232.918 1374.41L232.888 1374.43H233.148C233.148 1383.84 233.188 1393.25 233.228 1402.66C233.338 1427.5 233.438 1452.33 232.798 1477.14C232.558 1486.41 236.068 1491.13 243.118 1494.96C244.328 1495.61 245.528 1496.27 246.728 1496.93C250.868 1499.2 254.998 1501.47 259.288 1503.4C261.208 1504.25 264.178 1504.47 265.958 1503.56C269.068 1501.99 272.068 1500.21 275.068 1498.43C278.358 1496.48 281.648 1494.52 285.068 1492.85C290.718 1490.1 292.248 1486.34 292.398 1480.08C293.058 1451.65 292.728 1423.21 292.398 1394.77C291.828 1345.84 291.268 1296.92 295.718 1248.08C296.408 1240.49 297.238 1232.73 299.458 1225.5C304.628 1208.6 310.238 1191.8 316.478 1175.27C327.998 1144.76 345.738 1118.01 366.828 1093.25C388.428 1067.89 413.278 1046.55 442.088 1029.83C452.208 1023.95 462.328 1018.06 472.438 1012.17H472.468V1012.15C489.588 1002.18 506.698 992.219 523.838 982.289C553.008 965.389 582.198 948.529 611.448 931.749C614.928 929.739 616.738 928.209 616.738 923.199C616.608 919.509 616.638 915.809 616.668 912.119C616.708 907.319 616.748 902.509 616.438 897.729C616.258 895.119 614.188 891.819 611.978 890.329C605.998 886.309 599.588 882.849 593.078 879.709C590.738 878.589 586.958 877.849 584.988 878.959C568.748 888.169 552.628 897.569 536.498 906.969C528.308 911.739 520.118 916.509 511.918 921.259C503.218 926.299 494.478 931.279 485.748 936.249C468.988 945.799 452.238 955.349 435.718 965.309L433.808 966.469C413.888 978.489 393.878 990.569 375.268 1004.45C352.748 1021.26 333.058 1041.35 315.398 1063.43C295.258 1088.6 277.868 1115.29 265.498 1145.13C265.048 1146.21 263.538 1147.56 262.608 1147.5C261.628 1147.44 260.538 1145.95 259.928 1144.85C259.638 1144.32 259.548 1143.67 259.448 1143.01C259.368 1142.4 259.278 1141.78 259.028 1141.26C243.998 1110.12 225.908 1080.94 203.178 1054.77C171.888 1018.72 134.838 990.309 92.9876 967.199C59.5276 948.719 26.5676 929.319 -6.38239 909.929C-23.8124 899.669 -41.2524 889.409 -58.7624 879.279C-60.9524 878.019 -64.8224 877.739 -67.0424 878.799C-73.7324 882.029 -80.2124 885.809 -86.2924 890.079C-88.6424 891.729 -90.8424 895.189 -91.0424 897.979C-91.6624 906.419 -91.7224 914.989 -91.0324 923.439C-90.7424 926.989 -88.3824 930.159 -85.8324 931.659C-74.6124 938.279 -63.2724 944.719 -51.9324 951.149C-43.2624 956.069 -34.6024 960.989 -25.9824 965.989C-12.9924 973.529 -0.062398 981.169 12.8776 988.799C34.8276 1001.76 56.7776 1014.71 78.9876 1027.22C117.278 1048.77 148.738 1077.93 174.618 1112.9C199.728 1146.85 216.798 1185.07 226.038 1226.24C230.138 1244.46 231.968 1263.44 232.608 1282.14C233.348 1303.74 233.188 1325.37 233.028 1347L233.048 1347.05Z" fill="white"/>
<path d="M263.118 1520.64C259.068 1520.64 255.308 1519.7 252.578 1518.48C247.638 1516.26 243.138 1513.79 238.788 1511.4L237.918 1510.92C237.038 1510.43 236.148 1509.95 235.258 1509.47C222.108 1502.33 215.908 1491.62 216.298 1476.71C216.938 1452.12 216.828 1427.01 216.718 1402.72C216.678 1393.28 216.638 1383.85 216.638 1374.41H229.048L216.418 1374.4C216.418 1365.41 216.488 1356.3 216.548 1347.49V1346.92C216.708 1325.84 216.868 1304.04 216.138 1282.74C215.438 1262.59 213.418 1245.3 209.958 1229.89C201.098 1190.39 184.748 1154.35 161.368 1122.74C135.948 1088.39 105.518 1061.1 70.9176 1041.63C48.5876 1029.06 26.2276 1015.86 4.6076 1003.1L4.18761 1002.85C-8.40239 995.419 -21.4124 987.739 -34.2424 980.289C-42.8224 975.309 -51.5824 970.339 -60.0524 965.529L-60.1624 965.469C-71.3324 959.129 -82.8824 952.569 -94.1924 945.899C-101.662 941.509 -106.752 933.419 -107.452 924.809C-108.172 915.939 -108.182 906.519 -107.482 896.809C-106.902 889.099 -102.292 881.179 -95.7424 876.589C-89.0424 871.869 -81.7824 867.619 -74.1924 863.959C-67.0524 860.529 -57.5524 860.959 -50.5224 864.999C-32.8624 875.209 -15.1424 885.639 1.9976 895.729C34.3176 914.749 67.7176 934.409 100.978 952.779C146.878 978.129 184.388 1007.96 215.648 1043.98C233.218 1064.21 248.748 1086.77 262.788 1112.47C273.258 1092.9 286.408 1073.3 302.538 1053.14C322.488 1028.2 343.048 1007.95 365.408 991.249C384.668 976.879 405.318 964.419 425.288 952.359L427.198 951.209C443.858 941.169 460.938 931.429 477.458 922.009L477.588 921.939C486.128 917.069 494.968 912.039 503.658 906.999C511.848 902.259 520.028 897.499 528.198 892.729C544.118 883.449 560.538 873.879 576.848 864.629C584.618 860.239 594.018 861.869 600.228 864.859C608.298 868.749 615.148 872.599 621.178 876.649C627.668 881.019 632.368 889.029 632.898 896.599C633.258 902.029 633.208 907.209 633.168 912.219C633.138 915.699 633.108 919.259 633.228 922.629V923.209C633.228 938.229 623.398 943.909 619.698 946.049C593.638 960.989 565.818 977.029 532.098 996.569C515.318 1006.29 498.558 1016.05 481.798 1025.81L480.728 1026.43C470.608 1032.32 460.488 1038.21 450.358 1044.1C424.078 1059.36 400.198 1079.5 379.378 1103.95C357.198 1130 341.668 1155.23 331.898 1181.1C326.168 1196.29 320.708 1212.39 315.218 1230.34C313.468 1236.02 312.768 1242.68 312.138 1249.58C307.768 1297.57 308.338 1346.88 308.888 1394.56C309.218 1422.7 309.548 1451.76 308.888 1480.47C308.778 1485.27 308.428 1499.85 292.268 1507.7C289.488 1509.06 286.578 1510.78 283.508 1512.61C280.268 1514.53 276.988 1516.48 273.388 1518.3C270.048 1519.98 266.478 1520.63 263.108 1520.63L263.118 1520.64ZM255.698 1483.04C258.038 1484.32 260.298 1485.55 262.528 1486.68C263.848 1485.92 265.198 1485.12 266.588 1484.3C269.598 1482.51 272.648 1480.7 275.928 1479C276.558 1451.1 276.228 1422.58 275.908 1394.99C275.348 1346.45 274.768 1296.28 279.288 1246.61C280.048 1238.26 281.008 1229.38 283.678 1220.69C289.378 1202.08 295.058 1185.33 301.038 1169.47C312.168 1139.99 329.578 1111.57 354.268 1082.58C377.528 1055.27 404.278 1032.73 433.798 1015.59C443.778 1009.79 453.748 1003.99 463.718 998.179L465.198 997.319C481.978 987.549 498.758 977.779 515.558 968.049C547.988 949.259 574.978 933.689 600.148 919.249C600.128 916.729 600.148 914.279 600.168 912.019C600.198 908.659 600.218 905.449 600.128 902.359C596.718 900.219 592.908 898.099 588.598 895.939C573.948 904.289 559.178 912.899 544.848 921.249C536.618 926.049 528.408 930.829 520.198 935.589C511.408 940.679 502.528 945.739 493.938 950.639L493.808 950.709C477.458 960.029 460.558 969.659 444.258 979.489L442.358 980.639C423.058 992.289 403.108 1004.33 385.158 1017.72C365.078 1032.71 346.488 1051.05 328.308 1073.78C306.908 1100.52 291.358 1125.94 280.758 1151.5C277.988 1158.16 270.518 1164.6 261.568 1164.02C254.968 1163.61 249.248 1159.66 245.508 1152.89C244.208 1150.52 243.638 1148.32 243.348 1146.77C227.968 1115.24 210.758 1088.7 190.738 1065.64C162.058 1032.6 127.478 1005.14 85.0276 981.699C51.3776 963.109 17.7676 943.339 -14.7224 924.219C-30.7124 914.809 -47.2024 905.109 -63.5924 895.599C-67.4624 897.629 -71.2024 899.859 -74.7624 902.249C-75.0824 908.049 -75.0924 913.689 -74.7824 919.059C-64.5324 925.069 -54.0324 931.029 -43.8524 936.809L-43.7624 936.859C-35.2124 941.709 -26.3824 946.729 -17.6724 951.779C-4.74239 959.289 8.31761 966.999 20.9576 974.459L21.6776 974.889C43.1276 987.549 65.2076 1000.58 87.1076 1012.91C125.788 1034.68 159.698 1065.04 187.898 1103.15C214.028 1138.47 232.278 1178.69 242.158 1222.69C246.078 1240.12 248.348 1259.41 249.118 1281.64C249.868 1303.62 249.708 1325.77 249.548 1347.19V1347.76C249.518 1351.12 249.498 1354.52 249.468 1357.94H249.638V1374.44C249.638 1383.83 249.678 1393.22 249.718 1402.6C249.828 1427.13 249.938 1452.49 249.288 1477.58C249.268 1478.54 249.318 1479.14 249.368 1479.46C249.628 1479.66 250.118 1480 250.978 1480.47C252.028 1481.04 253.088 1481.62 254.148 1482.2L255.678 1483.04H255.698ZM244.178 1148.44C244.178 1148.44 244.208 1148.5 244.218 1148.52C244.208 1148.49 244.188 1148.46 244.178 1148.44ZM-77.4324 917.469C-77.4324 917.469 -77.3724 917.499 -77.3424 917.519C-77.3724 917.499 -77.4024 917.479 -77.4324 917.469ZM-76.6424 903.519C-76.6424 903.519 -76.7224 903.579 -76.7724 903.609C-76.7324 903.579 -76.6924 903.549 -76.6424 903.519Z" fill="white"/>
<path d="M410.338 1420.56C409.578 1422.48 408.718 1329.33 410.808 1284.96C412.758 1243.47 427.448 1205.89 454.288 1173.15C472.548 1150.89 495.478 1135.38 519.858 1121.26C528.418 1116.3 536.968 1111.34 545.528 1106.38L545.588 1106.35C567.718 1093.52 589.858 1080.69 612.008 1067.89C612.638 1067.52 613.388 1067.36 614.448 1067.12C614.558 1067.09 614.678 1067.07 614.808 1067.04C615.778 1066.82 616.718 1067.55 616.718 1068.54C616.718 1072.52 616.758 1076.47 616.788 1080.38C616.878 1091.73 616.958 1102.84 616.488 1113.94C616.248 1119.51 614.598 1125.81 611.438 1130.23C607.358 1135.93 601.688 1141.02 595.688 1144.69C586.248 1150.47 576.638 1155.99 567.028 1161.51C552.718 1169.73 538.418 1177.94 524.678 1187C500.348 1203.05 484.328 1226.06 475.388 1254.08C471.018 1267.74 469.278 1281.46 469.448 1295.67C469.558 1305.43 469.508 1315.19 469.448 1324.95C469.388 1336.43 469.328 1347.92 469.528 1359.4C469.858 1378.36 450.078 1396.96 445.078 1400.44C442.988 1401.9 441.538 1402.96 440.328 1403.86C435.458 1407.44 434.338 1408.27 410.348 1420.53H410.328L410.338 1420.56Z" fill="white"/>
<path d="M423.358 1432.46C421.898 1433.16 420.378 1434.01 418.958 1434.83C415.308 1436.94 411.008 1437.61 406.888 1436.73H406.818C404.778 1436.28 394.578 1433.43 393.698 1420.64C393.638 1419.82 393.588 1418.63 393.528 1417.09C393.438 1414.37 393.348 1410.56 393.268 1405.77C393.108 1395.77 393.008 1382.78 392.988 1369.19C392.968 1352.59 393.048 1311.06 394.308 1284.18C396.418 1239.18 412.308 1198.3 441.518 1162.68C462.348 1137.28 488.618 1120.27 511.568 1106.98L537.228 1092.11C559.418 1079.24 581.568 1066.41 603.718 1053.61C606.528 1051.98 609.118 1051.4 610.838 1051.02C615.348 1050.01 620.128 1050.58 624.128 1052.91C629.818 1056.22 633.168 1062.11 633.188 1068.52C633.188 1072.47 633.228 1076.38 633.258 1080.27V1080.34C633.348 1091.56 633.438 1103.15 632.948 1114.66C632.548 1124.02 629.588 1133.2 624.828 1139.85C619.618 1147.13 612.318 1153.86 604.278 1158.78C594.568 1164.72 584.728 1170.37 575.208 1175.84C561.308 1183.82 547.018 1192.03 533.728 1200.8C513.518 1214.13 499.168 1233.76 491.068 1259.12C487.438 1270.47 485.758 1282.37 485.908 1295.51C486.018 1305.53 485.968 1315.46 485.908 1325.07V1325.19C485.848 1336.35 485.788 1347.89 485.988 1359.14C486.458 1386.15 461.248 1409.29 454.468 1414.01C452.588 1415.32 451.288 1416.28 450.138 1417.13C444.628 1421.19 442.578 1422.55 423.388 1432.4C423.358 1432.41 423.338 1432.44 423.328 1432.46H423.358ZM600.348 1093.7C584.838 1102.68 569.348 1111.66 553.858 1120.64L528.128 1135.55C506.708 1147.95 484.488 1162.36 467.048 1183.62C442.438 1213.63 429.058 1247.99 427.288 1285.74C425.958 1314.03 425.858 1363.52 426.138 1393.59C428.028 1392.45 429.088 1391.68 430.548 1390.6C431.858 1389.64 433.408 1388.49 435.648 1386.93C439.898 1383.9 453.208 1369.94 453.038 1359.71C452.828 1348.09 452.898 1336.36 452.958 1325.01V1324.88C453.008 1315.4 453.058 1305.61 452.958 1295.87C452.768 1279.14 454.958 1263.83 459.678 1249.07C470.118 1216.34 488.938 1190.83 515.598 1173.24C529.738 1163.91 544.478 1155.44 558.738 1147.25C568.138 1141.85 577.778 1136.32 587.088 1130.62C591.378 1127.99 595.368 1124.35 598.038 1120.63C598.898 1119.43 599.888 1116.43 600.028 1113.23C600.298 1106.76 600.378 1100.29 600.378 1093.69L600.348 1093.7ZM620.288 1082.17C620.288 1082.17 620.248 1082.19 620.228 1082.2C620.248 1082.19 620.268 1082.18 620.288 1082.17Z" fill="white"/>
<path d="M124.988 1420.55C100.998 1408.29 99.8776 1407.47 95.0076 1403.88C93.7976 1402.99 92.3476 1401.92 90.2576 1400.46C85.2576 1396.98 65.4776 1378.38 65.8076 1359.42C66.0076 1347.94 65.9476 1336.45 65.8876 1324.97C65.8376 1315.21 65.7876 1305.45 65.8876 1295.69C66.0576 1281.47 64.3176 1267.76 59.9476 1254.1C51.0076 1226.08 34.9876 1203.07 10.6576 1187.02C-3.08239 1177.96 -17.3824 1169.74 -31.6924 1161.53C-41.3024 1156.01 -50.9124 1150.49 -60.3524 1144.71C-66.3524 1141.04 -72.0224 1135.95 -76.1024 1130.25C-79.2624 1125.83 -80.9224 1119.52 -81.1524 1113.96C-81.6224 1102.87 -81.5424 1091.76 -81.4524 1080.41C-81.4224 1076.49 -81.3924 1072.54 -81.3824 1068.56C-81.3824 1067.57 -80.4324 1066.85 -79.4724 1067.06C-79.3524 1067.09 -79.2324 1067.11 -79.1124 1067.14C-78.0524 1067.38 -77.3024 1067.54 -76.6724 1067.91C-54.5224 1080.71 -32.3824 1093.54 -10.2524 1106.37L-10.1924 1106.4C-1.6324 1111.36 6.91761 1116.32 15.4776 1121.28C39.8476 1135.39 62.7876 1150.91 81.0476 1173.17C107.898 1205.91 122.578 1243.49 124.528 1284.98C126.618 1329.35 125.758 1422.5 124.998 1420.58H124.978L124.988 1420.55Z" fill="white"/>
<path d="M111.988 1432.46C111.988 1432.46 111.958 1432.41 111.928 1432.4C92.7376 1422.55 90.6876 1421.19 85.1776 1417.13C84.0276 1416.28 82.7176 1415.32 80.8476 1414.01C74.0676 1409.29 48.8576 1386.15 49.3276 1359.14C49.5276 1347.89 49.4676 1336.35 49.4076 1325.19V1325.07C49.3576 1315.46 49.2976 1305.52 49.4076 1295.51C49.5576 1282.37 47.8676 1270.47 44.2476 1259.12C36.1576 1233.75 21.8076 1214.13 1.5876 1200.8C-11.7024 1192.03 -25.9924 1183.82 -39.8924 1175.84C-49.4124 1170.38 -59.2524 1164.72 -68.9624 1158.78C-77.0024 1153.86 -84.3024 1147.13 -89.5124 1139.85C-94.2724 1133.2 -97.2324 1124.02 -97.6324 1114.66C-98.1224 1103.15 -98.0324 1091.56 -97.9424 1080.34V1080.27C-97.9124 1076.38 -97.8824 1072.47 -97.8724 1068.52C-97.8624 1062.12 -94.5024 1056.22 -88.8124 1052.91C-84.8124 1050.59 -80.0324 1050.02 -75.5224 1051.02C-73.8024 1051.4 -71.2124 1051.98 -68.4024 1053.61C-46.2424 1066.41 -24.1024 1079.25 -1.9124 1092.11L23.7476 1106.98C46.6976 1120.27 72.9776 1137.28 93.7976 1162.68C123.008 1198.3 138.888 1239.18 141.008 1284.18C142.268 1311.06 142.348 1352.58 142.328 1369.19C142.308 1382.77 142.208 1395.76 142.048 1405.77C141.968 1410.56 141.878 1414.37 141.788 1417.09C141.738 1418.63 141.678 1419.83 141.618 1420.64C140.748 1433.43 130.538 1436.27 128.498 1436.71H128.428C124.308 1437.6 120.008 1436.93 116.358 1434.82C114.938 1434 113.418 1433.15 111.958 1432.45L111.988 1432.46ZM-64.6524 1113.24C-64.5124 1116.43 -63.5224 1119.43 -62.6624 1120.64C-60.0024 1124.36 -56.0124 1128 -51.7124 1130.63C-42.4024 1136.33 -32.7624 1141.86 -23.3624 1147.26C-9.1024 1155.45 5.6376 1163.92 19.7776 1173.25C46.4476 1190.84 65.2576 1216.36 75.6976 1249.08C80.4176 1263.85 82.6176 1279.16 82.4176 1295.88C82.3076 1305.62 82.3576 1315.41 82.4176 1324.89V1325.02C82.4776 1336.36 82.5376 1348.1 82.3376 1359.72C82.1576 1369.95 95.4776 1383.91 99.7276 1386.94C101.968 1388.5 103.518 1389.65 104.828 1390.61C106.288 1391.69 107.348 1392.46 109.238 1393.6C109.518 1363.54 109.418 1314.05 108.088 1285.75C106.318 1248 92.9376 1213.64 68.3276 1183.63C50.8976 1162.37 28.6676 1147.96 7.2476 1135.56L-18.4824 1120.65C-33.9724 1111.67 -49.4624 1102.69 -64.9724 1093.71C-64.9724 1100.32 -64.8924 1106.79 -64.6224 1113.25L-64.6524 1113.24ZM-84.8824 1082.2C-84.8824 1082.2 -84.9224 1082.18 -84.9424 1082.17C-84.9224 1082.18 -84.9024 1082.19 -84.8824 1082.2Z" fill="white"/>
</g>
</g>
<defs>
<filter id="filter0_f_4725_472" x="-1101.2" y="-232.2" width="2727.73" height="2746.04" filterUnits="userSpaceOnUse" color-interpolation-filters="sRGB">
<feFlood flood-opacity="0" result="BackgroundImageFix"/>
<feBlend mode="normal" in="SourceGraphic" in2="BackgroundImageFix" result="shape"/>
<feGaussianBlur stdDeviation="496.6" result="effect1_foregroundBlur_4725_472"/>
</filter>
<linearGradient id="paint0_linear_4725_472" x1="350.5" y1="1422" x2="1115.5" y2="-133.5" gradientUnits="userSpaceOnUse">
<stop stop-color="#0D0D0D"/>
<stop offset="1" stop-color="#202020"/>
</linearGradient>
<linearGradient id="paint1_linear_4725_472" x1="599.664" y1="220" x2="799.5" y2="956" gradientUnits="userSpaceOnUse">
<stop stop-color="#ED6A20"/>
<stop offset="1" stop-color="#C4FEFA"/>
</linearGradient>
<linearGradient id="paint2_linear_4725_472" x1="599.664" y1="220" x2="799.5" y2="956" gradientUnits="userSpaceOnUse">
<stop stop-color="#ED6A20"/>
<stop offset="1" stop-color="#C4FEFA"/>
</linearGradient>
<linearGradient id="paint3_linear_4725_472" x1="599.664" y1="220" x2="799.5" y2="956" gradientUnits="userSpaceOnUse">
<stop stop-color="#ED6A20"/>
<stop offset="1" stop-color="#C4FEFA"/>
</linearGradient>
<linearGradient id="paint4_linear_4725_472" x1="599.664" y1="220" x2="799.5" y2="956" gradientUnits="userSpaceOnUse">
<stop stop-color="#ED6A20"/>
<stop offset="1" stop-color="#C4FEFA"/>
</linearGradient>
<linearGradient id="paint5_linear_4725_472" x1="599.664" y1="220" x2="799.5" y2="956" gradientUnits="userSpaceOnUse">
<stop stop-color="#ED6A20"/>
<stop offset="1" stop-color="#C4FEFA"/>
</linearGradient>
<linearGradient id="paint6_linear_4725_472" x1="599.664" y1="220" x2="799.5" y2="956" gradientUnits="userSpaceOnUse">
<stop stop-color="#ED6A20"/>
<stop offset="1" stop-color="#C4FEFA"/>
</linearGradient>
<linearGradient id="paint7_linear_4725_472" x1="599.664" y1="220" x2="799.5" y2="956" gradientUnits="userSpaceOnUse">
<stop stop-color="#ED6A20"/>
<stop offset="1" stop-color="#C4FEFA"/>
</linearGradient>
<linearGradient id="paint8_linear_4725_472" x1="599.664" y1="220" x2="799.5" y2="956" gradientUnits="userSpaceOnUse">
<stop stop-color="#ED6A20"/>
<stop offset="1" stop-color="#C4FEFA"/>
</linearGradient>
<clipPath id="clip0_4725_472">
<rect width="1200" height="1200" rx="600" fill="white"/>
</clipPath>
</defs>
</svg>
